<?xml version="1.0" encoding="UTF-8"?>
<svg id="Layer_2" data-name="Layer 2" xmlns="http://www.w3.org/2000/svg" xmlns:xlink="http://www.w3.org/1999/xlink" viewBox="0 0 127.2 77.49">
  <defs>
    <style>
      .cls-1 {
        opacity: .3;
      }

      .cls-2 {
        fill: #fff;
      }

      .cls-3 {
        fill: #176734;
      }

      .cls-4 {
        fill: none;
      }

      .cls-5 {
        clip-path: url(#clippath);
      }
    </style>
    <clipPath id="clippath">
      <rect class="cls-4" x="69.61" y="10.39" width=".81" height="56.7"/>
    </clipPath>
  </defs>
  <g id="Layer_1-2" data-name="Layer 1">
    <g>
      <path class="cls-3" d="M127.2,8.01v61.47c0,4.42-3.59,8.01-8.01,8.01H8.01C3.59,77.49,0,73.9,0,69.48V8.01C0,3.59,3.59,0,8.01,0h111.18c4.42,0,8.01,3.59,8.01,8.01"/>
      <g class="cls-1">
        <g class="cls-5">
          <rect class="cls-2" x="69.61" y="10.39" width=".81" height="56.7"/>
        </g>
      </g>
      <path class="cls-2" d="M87.16,56.2c0,.68-.36,1.02-1.09,1.02h-1.77c-.41,0-.73-.12-.96-.37-.23-.25-.35-.6-.35-1.06v-1.95h-1.39v2.12c0,.74.23,1.36.7,1.88.46.52,1.13.78,2,.78h1.76c1.66,0,2.5-.81,2.5-2.42v-6.2h-1.39v6.21Z"/>
      <path class="cls-2" d="M114.62,55.77c-.73,0-1.09-.38-1.09-1.13v-.87c0-.7-.2-1.27-.6-1.71-.4-.44-.97-.66-1.73-.66h-3.94v1.41h3.86c.3,0,.54.09.73.26.18.18.28.42.28.73v.7c0,.55.14.98.43,1.27h-4.28s0,0,0,0c0,0,0,0,0,0h-3.59s0,0,0,0c0,0,0,0,0,0h-6.05s0,0,0,0c0,0,0,0,0,0-.42,0-.72-.09-.91-.28-.19-.19-.28-.49-.28-.9h-.01s0-4.6,0-4.6h-1.39v4.8c0,.65-.34.98-1.02.98h-1.1s-.93-5.78-.93-5.78h-1.42s.93,5.78.93,5.78h-2.54v1.41h5.05c.97,0,1.64-.27,2.02-.82.29.54.83.82,1.61.82,0,0,0,0,0,0,0,0,0,0,0,0h6.05s0,0,0,0c0,0,0,0,0,0h3.59s0,0,0,0c0,0,0,0,0,0h6.6v-1.41h-.27Z"/>
      <polygon class="cls-2" points="86.57 63.29 83.08 63.29 83.08 60.91 81.74 60.91 81.74 67.13 83.08 67.13 83.08 64.36 86.57 64.36 86.57 67.13 87.91 67.13 87.91 60.91 86.57 60.91 86.57 63.29"/>
      <path class="cls-2" d="M91.54,60.91l-2.6,6.14-.03.08h1.45s.6-1.51.6-1.51h2.66s.6,1.48.6,1.48l.02.04h1.49s-2.64-6.22-2.64-6.22h-1.53ZM93.2,64.55h-1.83s.92-2.36.92-2.36l.91,2.36Z"/>
      <polygon class="cls-2" points="98.04 60.91 96.7 60.91 96.7 67.13 101.58 67.13 101.58 66.01 98.04 66.01 98.04 60.91"/>
      <path class="cls-2" d="M104.96,60.91l-2.6,6.14-.03.08h1.45s.6-1.51.6-1.51h2.66s.6,1.48.6,1.48l.02.04h1.49s-2.64-6.22-2.64-6.22h-1.53ZM106.61,64.55h-1.83s.92-2.36.92-2.36l.91,2.36Z"/>
      <polygon class="cls-2" points="111.45 66.01 111.45 60.91 110.11 60.91 110.11 67.13 114.99 67.13 114.99 66.01 111.45 66.01"/>
      <path class="cls-2" d="M106.2,32.27c-.95,1.83-3.44,5.72-7.93,5.72-4.98,0-7.15-3.75-7.19-6.71-.04-2.73,1.06-4.61,4.18-6.26.63-.33,2.74-1.44,3.06-1.61,1.85-.98,3.64-1.46,5.25-1.48,1.5.03,2.37.9,2.37,1.99,0,1.02-.88,1.87-1.89,2.17-1.16.35-2.85.39-4.48-.62-.72-.45-3.83-2.4-4.36-2.71-1.34-.81-2.39-.43-2.99.56-.24.39-.77,1.18-.77,1.18l-.96-.54s.66-1.37.86-1.82c1.22-2.7,3.27-3.03,5.04-1.95.6.36,4.87,2.98,5.63,3.44,1.26.76,2.42.73,2.6.32.15-.35-.31-.67-1.13-.66-1.3.02-3.25.66-4.54,1.34-.56.3-2.42,1.25-2.85,1.47-1.12.59-3.34,1.87-3.31,4.21.03,2.33,2.55,4.14,5.69,4.1,3.15-.04,5.39-1.32,6.75-2.68l.96.54Z"/>
      <path class="cls-2" d="M101.53,11.77l1.13,1.13c.9.9,2.13,1.41,3.41,1.41h1.6c2.66,0,4.82,2.16,4.82,4.82v1.6c0,1.28.51,2.5,1.41,3.41l1.13,1.13c1.88,1.88,1.88,4.93,0,6.82l-1.13,1.13c-.9.9-1.41,2.13-1.41,3.41v1.6c0,2.66-2.16,4.82-4.82,4.82h-1.6c-1.28,0-2.5.51-3.41,1.41l-1.13,1.13c-1.88,1.88-4.93,1.88-6.82,0l-1.13-1.13c-.9-.9-2.13-1.41-3.41-1.41h-1.6c-2.66,0-4.82-2.16-4.82-4.82v-1.6c0-1.28-.51-2.5-1.41-3.41l-1.13-1.13c-1.88-1.88-1.88-4.93,0-6.82l1.13-1.13c.9-.9,1.41-2.13,1.41-3.41v-1.6c0-2.66,2.16-4.82,4.82-4.82h1.6c1.28,0,2.5-.51,3.41-1.41l1.13-1.13c1.88-1.88,4.93-1.88,6.82,0M100.94,14.31h-5.63c-2.01,0-3.94.8-5.36,2.22l-3.98,3.98c-1.42,1.42-2.22,3.35-2.22,5.36v5.63c0,2.01.8,3.94,2.22,5.36l3.98,3.98c1.42,1.42,3.35,2.22,5.36,2.22h5.63c2.01,0,3.94-.8,5.36-2.22l3.98-3.98c1.42-1.42,2.22-3.35,2.22-5.36v-5.63c0-2.01-.8-3.94-2.22-5.36l-3.98-3.98c-1.42-1.42-3.35-2.22-5.36-2.22"/>
      <g>
        <g>
          <path class="cls-2" d="M24.17,10.52v2.55h1.13v-1.28s2.75,0,2.75,0v1.38s-1.33,0-1.33,0v2.46h2.53s.07.07.07.07v1.2h1.13v-2.43s.07-.07.07-.07h2.48v-1.18h-1.23s0-1.25,0-1.25l-2.65-.02v-1.42s2.75,0,2.75,0v1.28h2.46v-1.28s1.38,0,1.38,0v2.55h1.18v-2.55s5.26,0,5.26,0v1.28h3.73v-1.28s2.63,0,2.63,0l.02,3.93h-1.28v1.18h1.28s0,1.38,0,1.38h-1.38s0-1.28,0-1.28h-1.18v5.01h1.18v-2.48s.07-.07.07-.07h1.28s.02,2.55.02,2.55h1.33s0,1.35,0,1.35l-2.6.07v1.18s-1.28,0-1.28,0v1.33s-1.28,0-1.28,0v1.18c.07.03.15-.05.17-.05h2.33v-1.23s1.25,0,1.25,0l.07.07v1.15h1.28s0,1.42,0,1.42l-1.23-.05v1.23h2.46v-3.73h-1.25s-.07-.07-.07-.07v-1.28s.07-.07.07-.07h1.18s.07.05.07.05v-2.55s1.38,0,1.38,0v2.51h1.2s.07.07.07.07v1.25h1.18v-1.2s.07-.07.07-.07h1.3s0,1.28,0,1.28h1.23v-2.46c-.05,0-.12.05-.17.05h-1.08s-.07-.07-.07-.07v-1.35s1.38,0,1.38,0v1.33c.05.02.11-.05.12-.05h1.13s.07.07.07.07v2.58s-1.33,0-1.33,0c-.02.05.05.11.05.12v.93s-.05.07-.05.07h1.25s.07.07.07.07v3.86s-1.28,0-1.28,0v1.18h1.2s.07.07.07.07v3.86s-1.28.05-1.28.05v1.13s.17.05.17.05h1.11s0,2.6,0,2.6h-1.38s0-1.28,0-1.28h-2.51c-.02.05.05.11.05.12v1.11s1.23.07,1.23.07v2.43h2.6s0,8.99,0,8.99h-3.88v1.28s-1.33,0-1.33,0v1.26s-1.23.02-1.23.02v1.28s-1.28,0-1.28,0v2.46h1.18v-1.2s.07-.07.07-.07h1.13s.12-.02.12-.02v-1.25s2.51,0,2.51,0v-1.23s2.7,0,2.7,0v2.6s-1.33,0-1.33,0v1.18h1.33s0,1.38,0,1.38h-2.63s-.07-.07-.07-.07v-1.2h-1.18v1.28s-1.38,0-1.38,0v-1.28h-1.18v1.28s-1.35,0-1.35,0l-.07-.07v-1.2s-.07.05-.07.05h-.98s-.07-.07-.12-.05v1.28s-1.3,0-1.3,0v-2.6s1.25,0,1.25,0v-2.51h-1.23v1.2s-.07.07-.07.07h-2.43v2.53s-1.33.02-1.33.02v1.28s-2.65,0-2.65,0v-1.28h-1.18v1.28s-3.98,0-3.98,0v-1.28h-1.18v1.28s-1.38,0-1.38,0v-1.38s1.28,0,1.28,0v-1.13h-3.76s-.07-.07-.07-.07v-1.13s-.02-.12-.02-.12h-1.25s0-1.23,0-1.23h-1.25s-.07-.07-.07-.07v-1.25h-1.13v1.33s-1.35,0-1.35,0l-.02-2.7h1.28v-1.13h-1.25s-.07-.07-.07-.07v-1.2h-1.28s0-3.88,0-3.88h-1.18v1.3s-.07.07-.07.07h-1.13s-.07-.05-.07-.05v1.18h1.28s0,1.38,0,1.38h-1.33v1.18h2.6s0,5.06,0,5.06h2.53s.07.07.07.07v1.28s-.07.07-.07.07h-1.2v2.51s-1.42,0-1.42,0v-3.83h-1.28s0-2.55,0-2.55h-1.18s.02,5.01.02,5.01h1.25s0,1.38,0,1.38h-2.7s0-6.41,0-6.41l.07-.07h1.25s-.05-1.13-.05-1.13h-1.2s-.07-.07-.07-.07v-2.48s-2.55-.02-2.55-.02v-1.2s-1.23-.05-1.23-.05l.05,1.28h-3.98s0-1.38,0-1.38h1.33v-1.11s-1.33-.1-1.33-.1v-3.86h-1.28s0-1.25,0-1.25l.07-.07h1.25v-1.18h-1.25s-.07-.07-.07-.07v-1.03s.07-.07.05-.12h-1.25s-.07-.07-.07-.07v-1.35s3.83-.05,3.83-.05v-1.13h-3.76s-.07-.07-.07-.07v-3.86s2.55,0,2.55,0v-6.24h-2.55s0-1.38,0-1.38h1.33v-1.13h-1.25s-.07-.07-.07-.07v-1.35s6.53,0,6.53,0v1.42s-2.55,0-2.55,0v1.13s1.31,0,1.31,0l-.03,2.66h-1.2s-.07-.05-.07-.05v2.51h2.51s0,1.23,0,1.23h1.18v-1.15s.07-.07.07-.07h2.58s0,1.33,0,1.33h-2.55s.05,1.18.05,1.18h2.55s0,1.28,0,1.28h1.18v-1.28s1.33,0,1.33,0v-1.18s-.07.05-.07.05h-1.18s-.07-.07-.07-.07v-1.3s1.33,0,1.33,0v-1.15s-.07-.07-.07-.07h-1.2s-.05-1.28-.05-1.28h-1.18v1.28s-2.65,0-2.65,0v-1.38s1.28,0,1.28,0v-1.13h-2.55s0-1.35,0-1.35l.07-.07h2.48v-1.08h-1.2s-.07-.07-.07-.07v-1.35s6.53,0,6.53,0v1.42s-2.6,0-2.6,0v2.41h2.51v-1.33s2.7.05,2.7.05v1.25s-.05.12-.05.12h-1.28v2.46h3.78s-.05-.07-.05-.07v-1.11h-1.28s0-1.38,0-1.38h1.33v-1.33s1.28,0,1.28,0v-1.06s-.07-.07-.07-.07h-2.53s0-1.28,0-1.28h-1.13v1.28s-1.42,0-1.42,0v-3.88s1.28,0,1.28,0l.05-1.18h-1.25s-.07-.07-.07-.07v-1.25h-1.18v3.83s-1.38,0-1.38,0v-3.83h-2.6s0-1.25,0-1.25l.07-.07h1.25v-1.15s-1.33-.15-1.33-.15v-1.3s1.28,0,1.28,0v-1.28s1.42,0,1.42,0ZM39.5,11.94h-1.11s-.07-.05-.07-.05v1.23h1.18v-1.18ZM38.22,13.17h-1.18s-.05,1.33-.05,1.33l-.07-.05h-3.81v1.28s-1.28,0-1.28,0v1.15s3.83.07,3.83.07v-1.33s1.33,0,1.33,0v1.38s-1.28,0-1.28,0v2.46h1.18v-1.23s1.38,0,1.38,0v1.18h1.18v-2.41h-1.23s0-3.83,0-3.83ZM47.16,13.17h-3.73v1.25s-2.6.02-2.6.02v-1.23h-1.23v2.41h1.2s.07.07.07.07v3.76h1.18v-2.48s.23-.07.27-.07h2.28v-2.51s2.55,0,2.55,0v-1.23ZM24.17,14.45v1.18h1.18v-1.18h-1.18ZM31.78,17h-1.23v2.55s-1.28,0-1.28,0v1.18h2.55s0,1.28,0,1.28h1.25s.07.07.07.07v1.2s2.51-.07,2.51-.07v-1.03s-.07-.07-.07-.07h-1.25s0-1.28,0-1.28h-1.28s0-1.28,0-1.28h-1.28s0-2.55,0-2.55ZM29.18,18.28l-.07.05h-.98s-.07.07-.07.07v1.06h1.13v-1.18ZM34.34,18.28h-1.18v1.18h1.18v-1.18ZM44.6,18.28h-1.23v1.28s-1.28,0-1.28,0v1.11s.07.07.07.07h2.43v-2.46ZM35.66,19.56h-1.23v1.18h1.23v-1.18ZM39.54,19.56v1.18h1.23v-1.18h-1.23ZM38.22,20.78h-2.51v1.23h2.51v-1.23ZM44.7,22.11h-2.63s-.07-1.31-.07-1.31l-1.13-.02v1.33s-1.28,0-1.28,0v1.13h1.25s.07.07.07.07v1.13s.02.12.02.12h1.2s0,1.38,0,1.38h-1.38s0-1.28,0-1.28h-1.23v1.28s-3.83,0-3.83,0v1.23s-1.38,0-1.38,0v-1.28s-1.23,0-1.23,0l.05,2.51h2.48s.07.07.07.07v1.2s6.34-.07,6.34-.07v-2.48s1.28,0,1.28,0v-3.81s.07-.07.07-.07h2.53v-2.46s-.07.05-.07.05h-1.15v1.28ZM39.5,23.34h-3.78v1.23h3.78v-1.23ZM33.01,24.67h-2.41v1.18h2.41v-1.18ZM35.66,24.67h-1.18v1.13h1.06s.07.05.07.05v-1.06s.07-.07.05-.12ZM53.59,24.67h-1.23s.05,1.13.05,1.13h1.18v-1.13ZM56.2,24.67h-1.18v1.06s-.05.07-.05.07h1.23s-.05-.07-.05-.07v-.88s.08-.11.05-.17ZM54.87,25.94h-1.11s-.07-.05-.07-.05v1.23s.07-.05.07-.05h1.11v-1.13ZM26.63,27.17h-1.18v1.33s-1.28,0-1.28,0v1.18s.07-.05.07-.05h1.13s.07.07.07.07v1.3s-1.28,0-1.28,0v1.18h1.28s0,1.28,0,1.28h2.55s0,1.38,0,1.38h-1.23s-.05,2.51-.05,2.51h3.78s-.05-1.18-.05-1.18h-1.2c-.06-.04-.07-.15-.07-.22v-1.13s.07-.07.07-.07h1.2v-1.25s1.28-.02,1.28-.02v-1.18h-2.55s0-1.28,0-1.28h-1.18s0,1.32,0,1.32l-1.37-.07v-2.55s.07-.07.07-.07h1.2v-1.13h-1.28s0-1.33,0-1.33ZM43.43,27.17v1.23h2.55s0,1.3,0,1.3l-3.83.02v1.33s-2.55,0-2.55,0v1.18h3.83s0,1.23,0,1.23h1.18v-1.23s1.33,0,1.33,0v-1.28s2.51,0,2.51,0v-2.46h-1.2s-.02-1.28-.02-1.28l-3.78-.05ZM57.47,27.17h-2.46v1.23h2.46v-1.23ZM52.32,28.45h-1.18v1.18h1.18v-1.18ZM54.87,28.45h-1.18v1.23h1.18v-1.23ZM17.64,29.73h-2.46v1.18h1.28s0,1.42,0,1.42l-2.55.07v.93s0,.12,0,.12h2.43s.12.05.12.05v2.46h1.13v-1.23s1.28,0,1.28,0v-1.18h-1.2s-.07-.07-.07-.07v-1.25s1.28,0,1.28,0v-1.23h-1.23s0-1.28,0-1.28ZM35.66,29.77h-6.26s-.07-.07-.12-.05v1.18h2.55s0,1.28,0,1.28h1.28s0,1.28,0,1.28h3.78v-2.41h-1.23s0-1.28,0-1.28ZM51.04,29.73c-.05-.02-.11.05-.12.05h-1.11v1.13h1.23v-1.18ZM53.64,29.77l-1.23.02v1.11h1.23v-1.13ZM49.71,31h-1.18v1.15s.07.07.07.07h1.11v-1.23ZM51.04,32.33h-1.15s-.07-.05-.07-.05v1.18h1.23v-1.13ZM54.99,32.28v1.18h2.49v-1.18h-2.49ZM21.42,32.33h-2.46v1.13h1.25s.07.07.07.07v1.23s-.07.07-.07.07h-1.25v1.18h2.6s0,2.48,0,2.48l-.05.07h1.23v-2.55s2.53,0,2.53,0l.07-.07v-2.38s-1.28-.02-1.28-.02v-1.2h-1.23v1.28s-1.35,0-1.35,0l-.07-.07v-1.2ZM48.48,32.33h-2.46v1.13h1.23s0,1.28,0,1.28h1.23v-2.41ZM53.59,32.33h-1.18v1.13h1.18v-1.13ZM31.83,33.56v1.18h1.18v-1.18h-1.18ZM39.5,33.56h-2.46v2.58s-.07.07-.07.07h-1.13s-.07-.07-.12-.05v3.64h3.73v-1.13h-2.55s0-1.33,0-1.33l2.7.02v1.2h2.41s.05-1.23.05-1.23h1.33s0,1.28,0,1.28h1.33s0,2.51,0,2.51h2.51v-1.28s1.33,0,1.33,0v1.28h1.28s0,2.51,0,2.51h1.23v-1.23s2.65.02,2.65.02v1.2s2.51-.02,2.51-.02v-1.11h-1.33s0-2.55,0-2.55h-2.48s-.07-.07-.07-.07v-1.15h-1.23v1.23s-1.33-.07-1.33-.07v-1.15h-1.25s-.07-.07-.07-.07v-1.3s-1.05,0-1.05,0l-.08.13v1.2s-1.38,0-1.38,0l-.05-1.33-.07.05h-1.13s-.07-.07-.07-.07v-1.2s-.07.05-.07.05h-1.2s0-1.33,0-1.33h-1.18v1.33s-1.38,0-1.38,0v-1.33h-1.18v1.25s-.07.07-.07.07h-1.3s0-1.42,0-1.42h1.28v-1.18ZM42.05,33.56h-1.11s-.07.07-.07.07v1.11h1.18v-1.18ZM52.32,34.78v-1.23s-.07.05-.07.05h-1.11v1.18h1.18ZM31.73,34.83l-1.13.05v1.18h1.13v-1.23ZM35.66,34.83l-1.23.05v1.13s.17.05.17.05h.98s.07-.07.07-.07v-1.15ZM44.7,34.83v1.18h2.46v-1.18h-2.46ZM51.04,36.06v-1.23s-.07.05-.07.05h-2.43v2.41h1.23v-1.23s1.28,0,1.28,0ZM54.92,34.88h-2.51v1.18h1.28s0,1.28,0,1.28h1.15s.07-.07.07-.07v-2.38ZM34.34,36.16h-2.51v1.13h1.25s.07.07.07.07v1.2h1.18v-2.41ZM52.32,36.16h-1.18s.05,1.18.05,1.18h1.13v-1.18ZM15.08,37.39h-1.18v1.18h1.18v-1.18ZM18.96,37.39v1.18h1.28v-1.18h-1.28ZM26.63,37.39h-2.46v1.18h1.28s0,1.38,0,1.38h-1.2s-.07-.05-.07-.05v2.51h1.28s0,1.28,0,1.28h2.6s0,1.42,0,1.42h-1.33v2.33s.07.07.07.07h3.66v-1.18s-.07.05-.07.05h-1.13s-.07-.07-.07-.07v-1.35s1.28,0,1.28,0v-2.46h-1.2s-.07-.07-.07-.07v-1.25s-1.18.07-1.18.07v1.25s-1.3,0-1.3,0l-.07-.07v-2.55s.07-.07.07-.07h1.25v-1.08h-1.28s-.05-1.33-.05-1.33ZM17.64,38.67h-2.46v1.23s-1.28,0-1.28,0v1.18h2.51v-1.23s1.23,0,1.23,0v-1.18ZM21.47,38.67h-1.13v1.2s-.07.07-.07.07h-2.46s-.07-.05-.07-.05v1.2s-.07.07-.07.07h-1.2v1.33s-1.33,0-1.33,0l.05.07v2.38h1.23v-1.28s3.83,0,3.83,0v-1.18h-1.33s0-1.38,0-1.38h2.65s0,1.23,0,1.23h1.18v-2.41h-1.2s-.07-.07-.07-.07v-1.2ZM24.07,38.67h-1.18v1.06s.02.12.02.12h1.15v-1.18ZM33.01,38.67h-1.18v1.13h1.18v-1.13ZM29.28,39.94v1.18h2.51v-1.18h-2.51ZM40.77,39.94h-1.18v1.13h1.18v-1.13ZM43.33,39.94h-1.18v1.13h1.18v-1.13ZM39.5,41.22l-7.66-.05v1.23h1.28s0,1.28,0,1.28h2.51v-1.25s.07-.07.07-.07h1.23s.07.07.07.07v1.28s-.07.07-.07.07h-1.2v1.18h6.34v-1.18h-1.28s-.05-.12-.05-.12v-1.15h-1.18c-.02.05.05.11.05.12v1.08s-.07.07-.07.07h-1.35s0-1.38,0-1.38h1.33v-1.18ZM44.6,43.68v-2.43s-1.18-.07-1.18-.07v1.33s-1.28,0-1.28,0v1.16s2.46.02,2.46.02ZM42.05,41.22h-1.18v1.18h1.18v-1.18ZM48.48,41.22h-1.18v1.18h1.11s.07-.07.07-.07v-1.11ZM24.07,42.45h-1.18s-.05,1.18-.05,1.18h1.23v-1.18ZM48.44,43.73h-2.46v1.33s-3.88,0-3.88,0v1.33s-1.23-.05-1.23-.05v1.28s-1.33,0-1.33,0v1.28s-1.25,0-1.25,0l-.12-.05v-1.3s.07-.07.07-.07h1.18s.07.05.07.05v-1.18h-3.78v1.13h1.2s0,1.42,0,1.42h-1.23s-.07-.07-.07-.07v-1.2s-2.51-.05-2.51-.05v1.23h1.33s0,1.15,0,1.15l-.05.07h6.39v-1.2s1.23-.05,1.23-.05l.07-1.31h1.08s.07.07.12.05v-1.25s.07-.07.07-.07h1.35s0,1.28,0,1.28l1.23-.02v-1.25s1.23,0,1.23,0v-1.15s.07-.07.07-.07h1.2v-1.23ZM52.32,43.73h-1.18v1.23h1.18v-1.23ZM20.19,45.05h-1.18v1.18s1.18-.05,1.18-.05v-1.13ZM35.61,45.05h-4.99s-.07.07-.07.07v1.06h1.28s.05,1.28.05,1.28h1.18s-.05-.07-.05-.07v-1.13s.07-.07.07-.07h2.53v-1.13ZM51.04,45.05h-1.23v1.18s.07-.05.07-.05h1.15v-1.13ZM53.59,46.18l-.07-1.13h-1.11v1.13h1.18ZM56.15,46.33h-1.13v1.2s-.07.07-.07.07h-1.25v1.18h3.73v-1.11s.05-.07.05-.07h-1.25s-.07-.07-.07-.07v-1.2ZM31.78,47.61h-1.23v1.18h1.18v-1.11s.05-.07.05-.07ZM44.6,47.61h-1.18v1.18h1.13s.05-1.18.05-1.18ZM48.53,47.61v3.74h3.78v-3.74h-3.78ZM47.16,48.88h-1.13v1.13h1.13v-1.13ZM34.34,50.11h-5.06v1.18h3.81s.07.07.07.07v1.23s-.05.12-.05.12h-1.23v1.13h3.73v-1.13h-1.2s-.07-.07-.07-.07v-2.53ZM45.88,50.11h-3.73v1.18h1.2s.07.07.07.07v1.35s-1.38,0-1.38,0v-1.33h-3.78v1.18h1.2s.07.07.07.07v1.3s-1.38,0-1.38,0v-1.23h-1.18v1.23s-1.28,0-1.28,0v1.23h2.55s0,1.23,0,1.23h2.51v-1.28s1.33,0,1.33,0v1.28h2.51v-1.13h-1.33s0-1.35,0-1.35l.07-.07h1.25v-2.48s.07-.07.07-.07h1.25s-.05-1.18-.05-1.18ZM36.89,51.39h-1.18v1.18h1.18v-1.18ZM57.43,53.94h-1.11s-.07.07-.07.07v1.08s.07.07.07.07h1.11v-1.23ZM54.87,55.27h-1.18v1.13h1.18v-1.13Z"/>
          <rect class="cls-2" x="11.2" y="42.4" width="1.42" height="5.26"/>
          <polygon class="cls-2" points="30.56 55.12 30.56 56.4 33.16 56.4 33.16 57.77 30.46 57.77 30.46 56.5 29.18 56.5 29.18 55.12 30.56 55.12"/>
          <rect class="cls-2" x="11.2" y="25.8" width="1.42" height="3.93"/>
          <rect class="cls-2" x="21.47" y="16.95" width="1.42" height="2.6"/>
          <rect class="cls-2" x="53.59" y="20.74" width="1.38" height="1.42"/>
          <rect class="cls-2" x="36.94" y="27.12" width="3.88" height="1.42"/>
          <g>
            <path class="cls-2" d="M58.85,10.52v9.04s-9.09,0-9.09,0v-9.04s9.09,0,9.09,0ZM57.47,11.94h-6.34v6.24h6.34v-6.24Z"/>
            <rect class="cls-2" x="52.32" y="13.07" width="3.98" height="3.93"/>
          </g>
          <g>
            <path class="cls-2" d="M20.29,48.73v9.09s-9.09,0-9.09,0v-9.09s9.09,0,9.09,0ZM18.91,50.11h-6.29v6.29h6.29v-6.29Z"/>
            <rect class="cls-2" x="13.76" y="51.29" width="3.98" height="3.98"/>
          </g>
          <polygon class="cls-2" points="51.09 50.11 49.76 50.11 49.76 48.74 49.84 48.78 51.06 48.78 51.09 50.11"/>
          <g>
            <path class="cls-2" d="M20.29,10.52v9.04s-9.09,0-9.09,0v-9.04s9.09,0,9.09,0ZM18.91,11.94h-6.29v6.24h6.29v-6.24Z"/>
            <rect class="cls-2" x="13.76" y="13.07" width="3.98" height="3.93"/>
          </g>
        </g>
        <g>
          <path class="cls-2" d="M26.26,67.1h-.74s0-2.56,0-2.56c-.08.18-.35.37-.83.56v-.66c.34-.2.56-.39.67-.57.11-.17.21-.38.29-.61h.6s0,3.84,0,3.84Z"/>
          <path class="cls-2" d="M29.4,67.1h-.74s0-2.56,0-2.56c-.08.18-.35.37-.83.56v-.66c.34-.2.56-.39.67-.57.11-.17.21-.38.29-.61h.6s0,3.84,0,3.84Z"/>
          <path class="cls-2" d="M32.96,65.61h-2.55s0-.5,0-.5h2.55s0,.5,0,.5Z"/>
          <path class="cls-2" d="M34.71,63.27c.37,0,.66.13.87.4.25.31.37.83.37,1.56s-.13,1.24-.38,1.56c-.21.26-.5.39-.87.39s-.67-.14-.9-.43c-.23-.28-.34-.79-.34-1.53s.12-1.24.37-1.55c.21-.26.5-.39.87-.39ZM34.71,63.88c-.09,0-.17.03-.24.08-.07.06-.12.16-.16.3-.05.19-.08.51-.08.96s.02.76.07.93.1.28.17.34.15.08.24.08.17-.03.24-.08c.07-.06.12-.16.16-.3.05-.19.07-.51.07-.95s-.02-.76-.07-.93c-.04-.17-.1-.28-.17-.34-.07-.06-.15-.08-.24-.08Z"/>
          <path class="cls-2" d="M37.84,63.27c.37,0,.66.13.87.4.25.31.37.83.37,1.56s-.13,1.24-.38,1.56c-.21.26-.5.39-.87.39s-.67-.14-.9-.43c-.23-.28-.34-.79-.34-1.53s.12-1.24.37-1.55c.21-.26.5-.39.87-.39ZM37.84,63.88c-.09,0-.17.03-.24.08-.07.06-.12.16-.16.3-.05.19-.08.51-.08.96s.02.76.07.93.1.28.17.34.15.08.24.08.17-.03.24-.08c.07-.06.12-.16.16-.3.05-.19.07-.51.07-.95s-.02-.76-.07-.93c-.04-.17-.1-.28-.17-.34-.07-.06-.15-.08-.24-.08Z"/>
          <path class="cls-2" d="M39.71,64.01v-.69s2.51,0,2.51,0v.53c-.21.2-.42.5-.63.88-.21.38-.38.79-.49,1.22s-.17.81-.17,1.15h-.71c.01-.53.12-1.07.33-1.62s.48-1.04.83-1.47h-1.67Z"/>
          <path class="cls-2" d="M44.11,63.27c.37,0,.66.13.87.4.25.31.37.83.37,1.56s-.13,1.24-.38,1.56c-.21.26-.5.39-.87.39s-.67-.14-.9-.43c-.23-.28-.34-.79-.34-1.53s.12-1.24.37-1.55c.21-.26.5-.39.87-.39ZM44.11,63.88c-.09,0-.17.03-.24.08-.07.06-.12.16-.16.3-.05.19-.08.51-.08.96s.02.76.07.93.1.28.17.34.15.08.24.08.17-.03.24-.08c.07-.06.12-.16.16-.3.05-.19.07-.51.07-.95s-.02-.76-.07-.93c-.04-.17-.1-.28-.17-.34-.07-.06-.15-.08-.24-.08Z"/>
        </g>
      </g>
    </g>
  </g>
</svg>