<?xml version="1.0" encoding="utf-8"?>
<!-- Generator: Adobe Illustrator 29.4.0, SVG Export Plug-In . SVG Version: 9.03 Build 0)  -->
<svg version="1.1" id="Layer_1" xmlns="http://www.w3.org/2000/svg" xmlns:xlink="http://www.w3.org/1999/xlink" x="0px" y="0px"
	 viewBox="0 0 159.2 247.3" style="enable-background:new 0 0 159.2 247.3;" xml:space="preserve">
<style type="text/css">
	.st0{fill:#176734;}
</style>
<g>
	<path class="st0" d="M107.6,59.1c-0.9,1.7-5.7,1.7-10.9-1.7c-0.4,0-0.4-0.4-0.9-0.4c2.6-0.4,4.8-0.9,7-0.9
		C106.3,56,108.4,57.3,107.6,59.1z"/>
	<polygon class="st0" points="152.6,242.5 152.6,247.3 131.6,247.3 131.6,220.2 137.3,220.2 137.3,242.5 	"/>
	<path class="st0" d="M115.4,220.3h-6.6l-11.4,26.6v0.4h6.6l2.6-6.6h11.8l2.6,6.6h5.7L115.4,220.3z M108.4,236l3.9-10l3.9,10H108.4z
		"/>
	<polygon class="st0" points="94,242.5 94,247.3 73.1,247.3 73.1,220.2 78.7,220.2 78.7,242.5 	"/>
	<path class="st0" d="M57.3,220.3h-6.6l-11.4,26.6v0.4h6.1l2.6-6.6h11.4l2.6,6.6h6.6L57.3,220.3z M49.9,236l3.9-10l3.9,10H49.9z"/>
	<polygon class="st0" points="34.6,220.2 34.6,247.3 28.9,247.3 28.9,235.1 13.6,235.1 13.6,247.3 8,247.3 8,220.2 13.6,220.2 
		13.6,230.7 28.9,230.7 28.9,220.2 	"/>
	<path class="st0" d="M38.1,172.6v27.1h-0.4c0,7-3.5,10.5-10.9,10.5h-7.9c-3.9,0-6.6-1.3-8.7-3.5c-2.2-2.2-3.1-4.8-3.1-8.3v-9.2h6.1
		v8.7c0,2.2,0.4,3.5,1.7,4.8c0.9,0.9,2.2,1.7,4.4,1.7h7.9c3.1,0,4.8-1.3,4.8-4.4v-27.5H38.1z"/>
	<path class="st0" d="M152.1,198v6.1H81.4c-3.5,0-5.7-1.3-7-3.5c-1.7,2.2-4.8,3.5-8.7,3.5H43.8V198h10.9l-3.9-25.3h6.1l3.9,25.3h4.8
		c3.1,0,4.4-1.3,4.4-4.4v-21h6.1v20.1c0,1.7,0.4,3.1,1.3,3.9c0.9,0.9,2.2,1.3,3.9,1.3h60.7c-1.3-1.3-1.7-3.1-1.7-5.7v-3.1
		c0-1.3-0.4-2.2-1.3-3.1c-0.9-0.9-1.7-1.3-3.1-1.3h-17v-6.1h17c3.5,0,5.7,0.9,7.4,3.1c1.7,1.7,2.6,4.4,2.6,7.4v3.9
		c0,3.5,1.7,4.8,4.8,4.8H152.1z"/>
	<path class="st0" d="M153,64.8l-4.8-4.8c-3.9-3.9-6.1-9.2-6.1-14.9v-7c0-11.4-9.2-21-21-21h-7c-5.7,0-10.9-2.2-14.9-6.1l-4.8-4.8
		c-8.3-8.3-21.4-8.3-29.7,0L60,11c-3.9,3.9-9.2,6.1-14.9,6.1h-7c-11.4,0-21,9.2-21,21v7C17.1,50.8,15,56,11,60l-4.8,4.8
		c-8.3,8.3-8.3,21.4,0,29.7l4.8,4.8c3.9,3.9,6.1,9.2,6.1,14.9v7c0,11.4,9.2,21,21,21h7c5.7,0,10.9,2.2,14.9,6.1l4.8,4.8
		c8.3,8.3,21.4,8.3,29.7,0l4.8-4.8c3.9-3.9,9.2-6.1,14.9-6.1h7c11.4,0,21-9.2,21-21v-7c0-5.7,2.2-10.9,6.1-14.9l4.8-4.8
		C161.3,86.2,161.3,72.6,153,64.8z M142.1,91.8c0,9.2-3.5,17.5-9.6,23.6L115,132.9c-6.6,6.1-14.9,9.6-23.6,9.6H66.9
		c-9.2,0-17.5-3.5-23.6-9.6l-17.5-17.5c-6.1-6.6-9.6-14.9-9.6-23.6V67.4c0-9.2,3.5-17.5,9.6-23.6l17.5-17.5
		c6.6-6.1,14.9-9.6,23.6-9.6h24.5c9.2,0,17.5,3.5,23.6,9.6l17.5,17.5c6.1,6.6,9.6,14.9,9.6,23.6V91.8z"/>
	<path class="st0" d="M110.6,94c-6.1,6.1-15.7,11.8-29.7,11.8C67.4,105.8,56,98,56,87.9s9.6-15.7,14.4-18.3
		c1.7-0.9,7.4-3.9,10.9-5.7c1.7,0.9,3.5,2.2,4.4,2.6c7.4,4.4,14.4,4.4,19.7,2.6c4.4-1.3,8.3-5.2,8.3-9.6c0-4.8-3.9-8.7-10.5-8.7
		c-4.4,0-9.6,0.9-14.4,2.6c-6.6-4.4-15.3-9.6-17-10.5c-7.4-4.4-16.6-3.1-21.8,8.7C49,53.4,46,59.5,46,59.5l4.4,2.2
		c0,0,2.6-3.5,3.5-5.2c2.6-4.4,7.4-6.1,13.1-2.6c1.3,0.4,4.8,2.6,8.7,5.2c-3.5,1.7-7,3.5-8.7,4.4C53.4,70.9,48.6,79.2,48.6,91
		c0,12.7,9.6,29.3,31.4,29.3c9.8,0,17.3-4.2,23-9.4c5.7-5.2,9.5-11.1,11.9-14.6L110.6,94z M102.8,56c3.5,0,5.7,1.3,4.8,3.1
		c-0.9,1.7-5.7,1.7-10.9-1.7c-0.4,0-0.4-0.4-0.9-0.4C98.4,56.5,100.6,56,102.8,56z"/>
</g>
</svg>
