<?xml version="1.0" encoding="utf-8"?>
<!-- Generator: Adobe Illustrator 29.4.0, SVG Export Plug-In . SVG Version: 9.03 Build 0)  -->
<svg version="1.1" id="Layer_2_00000088829875125712302650000014452494430182574254_"
	 xmlns="http://www.w3.org/2000/svg" xmlns:xlink="http://www.w3.org/1999/xlink" x="0px" y="0px" viewBox="0 0 127.2 77.5"
	 style="enable-background:new 0 0 127.2 77.5;" xml:space="preserve">
<style type="text/css">
	.st0{fill:#176734;}
</style>
<g>
	<polygon class="st0" points="35.7,15.6 37,15.6 37,17 35.7,17 35.7,19.5 36.9,19.5 36.9,18.2 38.3,18.2 38.3,19.4 39.5,19.4 
		39.5,17 38.2,17 38.2,13.2 37,13.2 37,14.5 36.9,14.5 33.1,14.5 33.1,15.7 31.8,15.7 31.8,16.9 35.7,17 	"/>
	<polygon class="st0" points="39.5,11.9 38.4,11.9 38.3,11.9 38.3,13.1 39.5,13.1 	"/>
	<rect x="35.7" y="20.8" class="st0" width="2.5" height="1.2"/>
	<rect x="35.7" y="23.3" class="st0" width="3.8" height="1.2"/>
	<polygon class="st0" points="31.8,22 33.1,22 33.1,22.1 33.1,23.3 35.7,23.2 35.7,22.2 35.6,22.1 34.3,22.1 34.3,20.8 33,20.8 
		33,19.5 31.8,19.5 31.8,17 30.5,17 30.5,19.5 29.3,19.5 29.3,20.7 31.8,20.7 	"/>
	<rect x="33.2" y="18.3" class="st0" width="1.2" height="1.2"/>
	<rect x="30.6" y="24.7" class="st0" width="2.4" height="1.2"/>
	<path class="st0" d="M40.9,15.7v3.8H42V17c0,0,0.2-0.1,0.3-0.1h2.3v-2.5h2.6v-1.2h-3.7v1.2l-2.6,0v-1.2h-1.2v2.4L40.9,15.7
		L40.9,15.7z"/>
	<rect x="34.4" y="19.6" class="st0" width="1.2" height="1.2"/>
	<polygon class="st0" points="42.1,19.6 42.1,20.7 42.2,20.7 44.6,20.7 44.6,18.3 43.4,18.3 43.4,19.6 	"/>
	<path class="st0" d="M35.7,27.2h-1.4v-1.3h-1.2l0,2.5h2.5l0.1,0.1v1.2l6.3-0.1v-2.5h1.3v-3.8l0.1-0.1h2.5v-2.5l-0.1,0.1h-1.2v1.3
		h-2.6L42,20.8l-1.1,0v1.3h-1.3v1.1h1.2l0.1,0.1v1.1l0,0.1h1.2v1.4h-1.4v-1.3h-1.2v1.3h-3.8V27.2z M36.9,27.1h3.9v1.4h-3.9V27.1z"/>
	<path class="st0" d="M35.6,24.8c0,0,0.1-0.1,0-0.1h-1.2v1.1h1.1l0.1,0V24.8z"/>
	<rect x="39.5" y="19.6" class="st0" width="1.2" height="1.2"/>
	<polygon class="st0" points="31.8,37.3 33.1,37.3 33.2,37.4 33.2,38.6 34.3,38.6 34.3,36.2 31.8,36.2 	"/>
	<rect x="31.8" y="33.6" class="st0" width="1.2" height="1.2"/>
	<polygon class="st0" points="31.7,47.7 31.8,47.6 30.5,47.6 30.5,48.8 31.7,48.8 	"/>
	<rect x="31.8" y="38.7" class="st0" width="1.2" height="1.1"/>
	<polygon class="st0" points="30.6,34.9 30.6,36.1 31.7,36.1 31.7,34.8 	"/>
	<polygon class="st0" points="34.4,36 34.6,36.1 35.6,36.1 35.7,36 35.7,34.8 35.7,34.8 34.4,34.9 	"/>
	<path class="st0" d="M31.8,32.2h1.3v1.3h3.8V31h-1.2v-1.3h-6.3c0,0-0.1-0.1-0.1-0.1v1.2h2.5V32.2z"/>
	<path class="st0" d="M39.5,42.4v-1.2h0l-7.7,0v1.2h1.3v1.3h2.5v-1.2l0.1-0.1h1.2l0.1,0.1v1.3l-0.1,0.1h-1.2V45h6.3v-1.2h-1.3l0-0.1
		v-1.1h-1.2c0,0,0,0.1,0,0.1v1.1l-0.1,0.1h-1.3v-1.4H39.5z"/>
	<rect x="39.6" y="39.9" class="st0" width="1.2" height="1.1"/>
	<rect x="29.3" y="39.9" class="st0" width="2.5" height="1.2"/>
	<rect x="40.9" y="41.2" class="st0" width="1.2" height="1.2"/>
	<polygon class="st0" points="33.1,46.2 35.6,46.2 35.6,45.1 35.6,45 30.6,45 30.5,45.1 30.5,46.2 31.8,46.2 31.9,47.5 33.1,47.5 
		33,47.4 33,46.3 	"/>
	<rect x="53.7" y="28.5" class="st0" width="1.2" height="1.2"/>
	<rect x="53.7" y="55.3" class="st0" width="1.2" height="1.1"/>
	<polygon class="st0" points="57.4,55.2 57.4,53.9 56.3,53.9 56.2,54 56.2,55.1 56.3,55.2 	"/>
	<polygon class="st0" points="29.1,18.3 28.1,18.3 28.1,18.4 28.1,19.5 29.2,19.5 29.2,18.3 29.2,18.3 	"/>
	<path class="st0" d="M25.4,33.5H28v1.4h-1.2l0,2.5h3.8l0-1.2h-1.2c-0.1,0-0.1-0.1-0.1-0.2v-1.1l0.1-0.1h1.2v-1.2l1.3,0v-1.2h-2.5
		V31H28v1.3l-1.4-0.1v-2.6l0.1-0.1h1.2v-1.1h-1.3v-1.3l0,0h-1.2v1.3h-1.3v1.2l0.1,0h1.1l0.1,0.1V31h-1.3v1.2h1.3V33.5z"/>
	<rect x="24.2" y="14.5" class="st0" width="1.2" height="1.2"/>
	<polygon class="st0" points="54.9,27.1 54.9,25.9 53.8,25.9 53.7,25.9 53.7,27.1 53.8,27.1 	"/>
	<path class="st0" d="M18.9,50.1h-6.3v6.3h6.3V50.1z M17.7,55.3h-4v-4h4V55.3z"/>
	<path class="st0" d="M12.6,18.2h6.3v-6.2h-6.3V18.2z M13.8,13.1h4V17h-4V13.1z"/>
	<polygon class="st0" points="52.4,30.9 53.6,30.9 53.6,29.8 52.4,29.8 	"/>
	<path class="st0" d="M38.1,64c-0.1-0.1-0.2-0.1-0.2-0.1l0,0c-0.1,0-0.2,0-0.2,0.1c-0.1,0.1-0.1,0.2-0.2,0.3c0,0.2-0.1,0.5-0.1,1
		c0,0.5,0,0.8,0.1,0.9c0,0.2,0.1,0.3,0.2,0.3s0.2,0.1,0.2,0.1c0.1,0,0.2,0,0.2-0.1c0.1-0.1,0.1-0.2,0.2-0.3c0-0.2,0.1-0.5,0.1-1
		s0-0.8-0.1-0.9C38.2,64.1,38.1,64,38.1,64z"/>
	<path class="st0" d="M34.9,64c-0.1-0.1-0.2-0.1-0.2-0.1l0,0c-0.1,0-0.2,0-0.2,0.1c-0.1,0.1-0.1,0.2-0.2,0.3c0,0.2-0.1,0.5-0.1,1
		c0,0.5,0,0.8,0.1,0.9c0,0.2,0.1,0.3,0.2,0.3c0.1,0.1,0.2,0.1,0.2,0.1c0.1,0,0.2,0,0.2-0.1c0.1-0.1,0.1-0.2,0.2-0.3
		c0-0.2,0.1-0.5,0.1-1s0-0.8-0.1-0.9C35.1,64.1,35,64,34.9,64z"/>
	<path class="st0" d="M44.3,64c-0.1-0.1-0.2-0.1-0.2-0.1l0,0c-0.1,0-0.2,0-0.2,0.1c-0.1,0.1-0.1,0.2-0.2,0.3c-0.1,0.2-0.1,0.5-0.1,1
		c0,0.5,0,0.8,0.1,0.9c0,0.2,0.1,0.3,0.2,0.3s0.2,0.1,0.2,0.1c0.1,0,0.2,0,0.2-0.1c0.1-0.1,0.1-0.2,0.2-0.3c0-0.2,0.1-0.5,0.1-1
		s0-0.8-0.1-0.9C44.5,64.1,44.4,64,44.3,64z"/>
	<rect x="51.1" y="28.5" class="st0" width="1.2" height="1.2"/>
	<polygon class="st0" points="51,32.3 51,32.3 49.9,32.3 49.8,32.3 49.8,33.5 51,33.5 	"/>
	<path class="st0" d="M51,29.7c0,0-0.1,0-0.1,0h-1.1v1.1H51V29.7z"/>
	<polygon class="st0" points="49.7,32.2 49.7,31 48.5,31 48.5,32.2 48.6,32.2 	"/>
	<polygon class="st0" points="48.5,34.7 48.5,32.3 46,32.3 46,33.5 47.2,33.5 47.2,34.7 	"/>
	<rect x="52.4" y="32.3" class="st0" width="1.2" height="1.1"/>
	<polygon class="st0" points="43.4,27.2 43.4,28.4 46,28.4 46,29.7 42.2,29.7 42.2,31 39.6,31 39.6,32.2 43.4,32.2 43.4,33.5 
		44.6,33.5 44.6,32.2 45.9,32.2 45.9,31 48.5,31 48.5,28.5 47.2,28.5 47.2,27.2 43.5,27.2 	"/>
	<polygon class="st0" points="53.6,25.8 53.6,24.7 52.4,24.7 52.4,25.8 	"/>
	<polygon class="st0" points="40.9,34.7 42,34.7 42,33.6 40.9,33.6 40.9,33.6 	"/>
	<polygon class="st0" points="48.5,34.9 48.5,37.3 49.8,37.3 49.8,36.1 51,36.1 51,34.8 51,34.9 	"/>
	<polygon class="st0" points="52.3,33.5 52.2,33.6 51.1,33.6 51.1,34.8 52.3,34.8 	"/>
	<polygon class="st0" points="52.3,37.3 52.3,36.2 51.1,36.2 51.2,37.3 	"/>
	<rect x="44.7" y="34.8" class="st0" width="2.5" height="1.2"/>
	<path class="st0" d="M54.9,39.9h-2.5l-0.1-0.1v-1.2h-1.2V40l-1.3-0.1v-1.2h-1.2l-0.1-0.1v-1.3h-1.1l-0.1,0.1v1.2H46l-0.1-1.3
		l-0.1,0h-1.1l-0.1-0.1v-1.2l-0.1,0h-1.2v-1.3h-1.2v1.3h-1.4v-1.3h-1.2v1.2l-0.1,0.1h-1.3v-1.4h1.3v-1.2l0,0H37v2.6L37,36.2h-1.1
		c0,0-0.1-0.1-0.1-0.1v3.6h3.7v-1.1h-2.5v-1.3l2.7,0v1.2H42l0-1.2h1.3v1.3h1.3v2.5h2.5v-1.3h1.3v1.3h1.3v2.5h1.2v-1.2l2.7,0v1.2
		l2.5,0v-1.1h-1.3V39.9z"/>
	<polygon class="st0" points="47.3,42.4 48.4,42.4 48.5,42.3 48.5,41.2 47.3,41.2 	"/>
	<polygon class="st0" points="52.4,45 52.4,46.2 53.6,46.2 53.5,45 	"/>
	<rect x="19" y="37.4" class="st0" width="1.3" height="1.2"/>
	<rect x="51.1" y="43.7" class="st0" width="1.2" height="1.2"/>
	<path class="st0" d="M48.5,51.3h3.8v-3.7h-3.8V51.3z M49.8,48.7L49.8,48.7l1.3,0l0,1.3h-1.3V48.7z"/>
	<rect x="55" y="27.2" class="st0" width="2.5" height="1.2"/>
	<polygon class="st0" points="51,45 49.8,45 49.8,46.2 49.9,46.2 51,46.2 	"/>
	<polygon class="st0" points="56.2,47.5 56.2,46.3 56.2,46.3 55,46.3 55,47.5 55,47.6 53.7,47.6 53.7,48.8 57.4,48.8 57.4,47.7 
		57.5,47.6 56.2,47.6 	"/>
	<path class="st0" d="M104.6,24c0.2-0.4-0.3-0.7-1.1-0.7c-0.5,0-1,0.1-1.6,0.2c0.1,0,0.1,0.1,0.2,0.1
		C103.3,24.4,104.4,24.4,104.6,24z"/>
	<path class="st0" d="M56.2,25.7v-0.9c0,0,0.1-0.1,0-0.2v0H55v1.1l0,0.1L56.2,25.7L56.2,25.7z"/>
	<polygon class="st0" points="104.8,64.5 106.6,64.5 105.7,62.2 	"/>
	<path class="st0" d="M119.2,0H8C3.6,0,0,3.6,0,8v61.5c0,4.4,3.6,8,8,8h111.2c4.4,0,8-3.6,8-8V8C127.2,3.6,123.6,0,119.2,0z
		 M21.5,17h1.4v2.6h-1.4V17z M11.2,10.5h9.1v9h-9.1V10.5z M20.3,57.8h-9.1v-9.1h9.1V57.8z M11.2,47.7v-5.3h1.4v5.3H11.2z M25.5,67.1
		v-2.6c-0.1,0.2-0.4,0.4-0.8,0.6v-0.7c0.3-0.2,0.6-0.4,0.7-0.6c0.1-0.2,0.2-0.4,0.3-0.6h0.6v3.8H25.5z M28.7,67.1v-2.6
		c-0.1,0.2-0.3,0.4-0.8,0.6v-0.7c0.3-0.2,0.6-0.4,0.7-0.6c0.1-0.2,0.2-0.4,0.3-0.6h0.6v3.8H28.7z M33,65.6h-2.6v-0.5H33V65.6z
		 M33.2,57.8h-2.7v-1.3h-1.3v-1.4h1.4v1.3h2.6V57.8z M35.6,66.8c-0.2,0.3-0.5,0.4-0.9,0.4S34,67,33.8,66.8c-0.2-0.3-0.3-0.8-0.3-1.5
		c0-0.7,0.1-1.2,0.4-1.5c0.2-0.3,0.5-0.4,0.9-0.4l0,0c0.4,0,0.7,0.1,0.9,0.4c0.2,0.3,0.4,0.8,0.4,1.6C36,66,35.8,66.5,35.6,66.8z
		 M38.7,66.8c-0.2,0.3-0.5,0.4-0.9,0.4s-0.7-0.1-0.9-0.4c-0.2-0.3-0.3-0.8-0.3-1.5c0-0.7,0.1-1.2,0.4-1.5c0.2-0.3,0.5-0.4,0.9-0.4
		l0,0c0.4,0,0.7,0.1,0.9,0.4c0.2,0.3,0.4,0.8,0.4,1.6C39.1,66,39,66.5,38.7,66.8z M42.2,63.8c-0.2,0.2-0.4,0.5-0.6,0.9
		c-0.2,0.4-0.4,0.8-0.5,1.2c-0.1,0.4-0.2,0.8-0.2,1.1h-0.7c0-0.5,0.1-1.1,0.3-1.6c0.2-0.5,0.5-1,0.8-1.5h-1.7v-0.7h2.5V63.8z
		 M45,66.8c-0.2,0.3-0.5,0.4-0.9,0.4s-0.7-0.1-0.9-0.4c-0.2-0.3-0.3-0.8-0.3-1.5c0-0.7,0.1-1.2,0.4-1.5c0.2-0.3,0.5-0.4,0.9-0.4l0,0
		c0.4,0,0.7,0.1,0.9,0.4c0.2,0.3,0.4,0.8,0.4,1.6C45.3,66,45.2,66.5,45,66.8z M58.8,24.7h-1.3c0,0,0,0.1,0,0.1v0.9l0,0.1h1.2
		l0.1,0.1v3.9h-1.3v1.2h1.2l0.1,0.1v3.9l-1.3,0.1V36l0.2,0.1h1.1v2.6h-1.4v-1.3h-2.5c0,0,0.1,0.1,0.1,0.1v1.1l1.2,0.1v2.4h2.6v9
		h-3.9v1.3h-1.3v1.3l-1.2,0V54h-1.3v2.5h1.2v-1.2l0.1-0.1h1.1l0.1,0v-1.2h2.5v-1.2h2.7v2.6h-1.3v1.2h1.3v1.4h-2.6l-0.1-0.1v-1.2
		h-1.2v1.3h-1.4v-1.3h-1.2v1.3H51l-0.1-0.1v-1.2l-0.1,0h-1c0,0-0.1-0.1-0.1,0v1.3h-1.3v-2.6h1.2v-2.5h-1.2v1.2L48.4,54H46v2.5
		l-1.3,0v1.3H42v-1.3h-1.2v1.3h-4v-1.3h-1.2v1.3h-1.4v-1.4h1.3v-1.1h-3.8l-0.1-0.1v-1.1l0-0.1h-1.2v-1.2h-1.2l-0.1-0.1v-1.2H28v1.3
		h-1.4l0-2.7h1.3v-1.1h-1.2l-0.1-0.1v-1.2h-1.3v-3.9h-1.2v1.3l-0.1,0.1h-1.1l-0.1,0v1.2h1.3v1.4h-1.3v1.2h2.6v5.1H28L28,54v1.3
		L28,55.3h-1.2v2.5h-1.4V54H24v-2.6h-1.2l0,5h1.2v1.4h-2.7v-6.4l0.1-0.1h1.2l0-1.1h-1.2l-0.1-0.1v-2.5l-2.5,0v-1.2l-1.2,0l0.1,1.3
		h-4v-1.4h1.3v-1.1l-1.3-0.1v-3.9h-1.3V40l0.1-0.1h1.2v-1.2h-1.2l-0.1-0.1v-1c0,0,0.1-0.1,0-0.1h-1.2l-0.1-0.1v-1.3l3.8,0v-1.1h-3.8
		l-0.1-0.1V31h2.5v-6.2h-2.5v-1.4h1.3v-1.1h-1.2l-0.1-0.1v-1.3h6.5v1.4h-2.5v1.1h1.3l0,2.7h-1.2l-0.1,0v2.5h2.5v1.2h1.2v-1.1
		l0.1-0.1h2.6v1.3H19L19,31h2.5v1.3h1.2V31h1.3v-1.2L24,29.9h-1.2l-0.1-0.1v-1.3h1.3v-1.2L24,27.3h-1.2l0-1.3h-1.2v1.3h-2.7v-1.4
		h1.3v-1.1h-2.5v-1.3l0.1-0.1h2.5v-1.1H19L19,22.2v-1.3h6.5v1.4h-2.6v2.4h2.5v-1.3l2.7,0v1.2L28,24.8h-1.3v2.5h3.8l0-0.1v-1.1h-1.3
		v-1.4h1.3v-1.3h1.3v-1.1l-0.1-0.1h-2.5V21h-1.1v1.3h-1.4v-3.9H28l0-1.2h-1.2l-0.1-0.1v-1.2h-1.2v3.8h-1.4v-3.8h-2.6v-1.2l0.1-0.1
		h1.2v-1.1l-1.3-0.2v-1.3h1.3v-1.3h1.4v-0.1l0,0.1h0v2.4h1.1v-1.3H28v1.4h-1.3v2.5h2.5l0.1,0.1v1.2h1.1v-2.4l0.1-0.1H33v-1.2h-1.2
		V12l-2.7,0v-1.4h2.8v1.3h2.5v-1.3h1.4v2.6h1.2v-2.6h5.3v1.3h3.7v-1.3h2.6l0,3.9h-1.3v1.2h1.3V17h-1.4v-1.3H46v5h1.2v-2.5l0.1-0.1
		h1.3l0,2.5h1.3v1.3l-2.6,0.1v1.2H46v1.3h-1.3v1.2c0.1,0,0.2,0,0.2,0h2.3v-1.2h1.2l0.1,0.1v1.1h1.3v1.4l-1.2,0v1.2H51v-3.7h-1.2
		l-0.1-0.1v-1.3l0.1-0.1H51l0.1,0v-2.5h1.4v2.5h1.2l0.1,0.1v1.2h1.2v-1.2l0.1-0.1h1.3v1.3h1.2v-2.5c0,0-0.1,0-0.2,0h-1.1l-0.1-0.1
		v-1.3h1.4v1.3c0,0,0.1,0,0.1,0h1.1l0.1,0.1V24.7z M11.2,29.7v-3.9h1.4v3.9H11.2z M53.6,22.2v-1.4H55v1.4H53.6z M58.8,19.6h-9.1v-9
		h9.1V19.6z M70.4,67.1h-0.8V10.4h0.8V67.1z M87.9,67.1h-1.3v-2.8h-3.5v2.8h-1.3v-6.2h1.3v2.4h3.5v-2.4h1.3V67.1z M88.6,56.2
		c0,1.6-0.8,2.4-2.5,2.4h-1.8c-0.9,0-1.5-0.3-2-0.8c-0.5-0.5-0.7-1.1-0.7-1.9v-2.1H83v2c0,0.5,0.1,0.8,0.4,1.1
		c0.2,0.2,0.5,0.4,1,0.4h1.8c0.7,0,1.1-0.3,1.1-1l0,0V50h1.4V56.2z M94.2,67.1L94.2,67.1l-0.6-1.5H91l-0.6,1.5h-1.4l0-0.1l2.6-6.1
		l0,0h1.5l2.6,6.2H94.2z M91.6,50H93l0.9,5.8H95c0.7,0,1-0.3,1-1V50h1.4v4.6h0c0,0.4,0.1,0.7,0.3,0.9s0.5,0.3,0.9,0.3h6h3.6h4.3
		c-0.3-0.3-0.4-0.7-0.4-1.3v-0.7c0-0.3-0.1-0.5-0.3-0.7c-0.2-0.2-0.4-0.3-0.7-0.3h-3.9v-1.4h3.9c0.8,0,1.3,0.2,1.7,0.7
		c0.4,0.4,0.6,1,0.6,1.7v0.9c0,0.8,0.4,1.1,1.1,1.1h0.3v1.4h-6.6h-3.6h-6c-0.8,0-1.3-0.3-1.6-0.8c-0.4,0.5-1.1,0.8-2,0.8h-5v-1.4
		h2.5L91.6,50z M101.6,67.1h-4.9v-6.2H98V66h3.5V67.1z M107.7,67.1L107.7,67.1l-0.6-1.5h-2.7l-0.6,1.5h-1.5l0-0.1l2.6-6.1l0,0h1.5
		l2.6,6.2H107.7z M115,67.1h-4.9v-6.2h1.3V66h3.5V67.1z M115,32.1l-1.1,1.1c-0.9,0.9-1.4,2.1-1.4,3.4v1.6c0,2.7-2.2,4.8-4.8,4.8
		h-1.6c-1.3,0-2.5,0.5-3.4,1.4l-1.1,1.1c-1.9,1.9-4.9,1.9-6.8,0l-1.1-1.1c-0.9-0.9-2.1-1.4-3.4-1.4h-1.6c-2.7,0-4.8-2.2-4.8-4.8
		v-1.6c0-1.3-0.5-2.5-1.4-3.4l-1.1-1.1c-1.9-1.9-1.9-4.9,0-6.8l1.1-1.1c0.9-0.9,1.4-2.1,1.4-3.4v-1.6c0-2.7,2.2-4.8,4.8-4.8h1.6
		c1.3,0,2.5-0.5,3.4-1.4l1.1-1.1c1.9-1.9,4.9-1.9,6.8,0l1.1,1.1c0.9,0.9,2.1,1.4,3.4,1.4h1.6c2.7,0,4.8,2.2,4.8,4.8v1.6
		c0,1.3,0.5,2.5,1.4,3.4l1.1,1.1C116.9,27.1,116.9,30.2,115,32.1z"/>
	<path class="st0" d="M106.3,16.5c-1.4-1.4-3.3-2.2-5.4-2.2h-5.6c-2,0-3.9,0.8-5.4,2.2l-4,4c-1.4,1.4-2.2,3.3-2.2,5.4v5.6
		c0,2,0.8,3.9,2.2,5.4l4,4c1.4,1.4,3.3,2.2,5.4,2.2h5.6c2,0,3.9-0.8,5.4-2.2l4-4c1.4-1.4,2.2-3.3,2.2-5.4v-5.6c0-2-0.8-3.9-2.2-5.4
		L106.3,16.5z M98.3,38c-5,0-7.2-3.8-7.2-6.7c0-2.7,1.1-4.6,4.2-6.3c0.4-0.2,1.2-0.6,2-1c-0.9-0.6-1.7-1.1-2-1.2
		c-1.3-0.8-2.4-0.4-3,0.6c-0.2,0.4-0.8,1.2-0.8,1.2l-1-0.5c0,0,0.7-1.4,0.9-1.8c1.2-2.7,3.3-3,5-2c0.4,0.2,2.4,1.4,3.9,2.4
		c1.1-0.4,2.3-0.6,3.3-0.6c1.5,0,2.4,0.9,2.4,2c0,1-0.9,1.9-1.9,2.2c-1.2,0.4-2.8,0.4-4.5-0.6c-0.2-0.1-0.6-0.4-1-0.6
		c-0.8,0.4-2.1,1.1-2.5,1.3c-1.1,0.6-3.3,1.9-3.3,4.2c0,2.3,2.6,4.1,5.7,4.1c3.2,0,5.4-1.3,6.8-2.7l1,0.5h0
		C105.2,34.1,102.8,38,98.3,38z"/>
	<rect x="55" y="32.3" class="st0" width="2.5" height="1.2"/>
	<polygon class="st0" points="91.4,64.5 93.2,64.5 92.3,62.2 	"/>
	<path class="st0" d="M57.5,11.9h-6.3v6.2h6.3V11.9z M56.3,17h-4v-3.9h4V17z"/>
	<polygon class="st0" points="52.4,36.1 53.7,36.1 53.7,37.3 54.8,37.3 54.9,37.3 54.9,34.9 54.9,34.9 52.4,34.9 	"/>
	<polygon class="st0" points="19,46.2 20.2,46.2 20.2,45 19,45 	"/>
	<polygon class="st0" points="22.8,43.6 24.1,43.6 24.1,42.5 22.9,42.5 	"/>
	<polygon class="st0" points="21.5,39.8 21.5,38.7 21.5,38.7 20.3,38.7 20.3,39.9 20.3,39.9 17.8,39.9 17.7,39.9 17.7,41.1 
		17.7,41.2 16.5,41.2 16.5,42.5 15.1,42.5 15.2,42.6 15.2,44.9 16.4,44.9 16.4,43.7 20.2,43.7 20.2,42.5 18.9,42.5 18.9,41.1 
		21.6,41.1 21.6,42.3 22.8,42.3 22.8,39.9 21.5,39.9 	"/>
	<polygon class="st0" points="30.5,46.3 30.4,46.4 29.3,46.4 29.2,46.3 29.2,45 30.5,45 30.5,42.5 29.3,42.5 29.2,42.4 29.2,41.2 
		28,41.3 28,42.5 26.7,42.5 26.7,42.4 26.7,39.9 26.7,39.8 28,39.8 28,38.7 26.7,38.7 26.6,37.4 26.6,37.4 24.2,37.4 24.2,38.6 
		25.5,38.6 25.5,40 24.2,40 24.2,39.9 24.2,42.4 25.5,42.4 25.5,43.7 28.1,43.7 28.1,45.1 26.7,45.1 26.7,47.4 26.8,47.5 30.5,47.5 
			"/>
	<polygon class="st0" points="25.3,35.9 25.3,33.6 24.1,33.5 24.1,32.3 22.8,32.3 22.8,33.6 21.5,33.6 21.4,33.5 21.4,32.3 
		21.4,32.3 19,32.3 19,33.5 20.2,33.5 20.3,33.5 20.3,34.8 20.2,34.8 19,34.8 19,36 21.6,36 21.6,38.5 21.5,38.6 22.7,38.6 22.7,36 
		25.3,36 	"/>
	<polygon class="st0" points="24.1,38.7 22.9,38.7 22.9,39.7 22.9,39.8 24.1,39.8 	"/>
	<polygon class="st0" points="16.4,39.8 17.6,39.8 17.6,38.7 15.2,38.7 15.2,39.9 13.9,39.9 13.9,41.1 16.4,41.1 	"/>
	<polygon class="st0" points="16.5,33.5 16.5,36 17.6,36 17.6,34.7 18.9,34.7 18.9,33.5 17.7,33.5 17.6,33.5 17.6,32.2 18.9,32.2 
		18.9,31 17.7,31 17.7,29.7 17.6,29.7 15.2,29.7 15.2,30.9 16.5,30.9 16.5,32.3 13.9,32.4 13.9,33.3 13.9,33.5 16.3,33.5 	"/>
	<rect x="13.9" y="37.4" class="st0" width="1.2" height="1.2"/>
	<rect x="42.2" y="39.9" class="st0" width="1.2" height="1.1"/>
	<polygon class="st0" points="42.1,43.7 44.6,43.7 44.6,43.7 44.6,41.3 43.4,41.2 43.4,42.5 42.1,42.5 	"/>
	<polygon class="st0" points="34.3,52.6 34.3,50.1 29.3,50.1 29.3,51.3 33.1,51.3 33.2,51.4 33.2,52.6 33.1,52.7 31.9,52.7 
		31.9,53.8 35.6,53.8 35.6,52.7 34.4,52.7 	"/>
	<polygon class="st0" points="43.4,47.6 43.4,48.8 44.5,48.8 44.6,47.6 	"/>
	<rect x="35.7" y="51.4" class="st0" width="1.2" height="1.2"/>
	<path class="st0" d="M46,45.1h-3.9v1.3l-1.2,0v1.3h-1.3v1.3h-1.2l-0.1-0.1v-1.3l0.1-0.1h1.2l0.1,0v-1.2h-3.8v1.1h1.2v1.4h-1.2
		l-0.1-0.1v-1.2l-2.5,0v1.2h1.3V50l0,0.1h6.4v-1.2l1.2-0.1l0.1-1.3h1.1c0,0,0.1,0.1,0.1,0.1v-1.2l0.1-0.1h1.3v1.3l1.2,0v-1.2h1.2
		v-1.2l0.1-0.1h1.2v-1.2l0,0H46V45.1z"/>
	<rect x="46" y="48.9" class="st0" width="1.1" height="1.1"/>
	<polygon class="st0" points="42.2,50.1 42.2,51.3 43.3,51.3 43.4,51.4 43.4,52.7 42,52.7 42,51.4 38.3,51.4 38.3,52.6 39.5,52.6 
		39.5,52.6 39.5,53.9 38.2,53.9 38.2,52.7 37,52.7 37,53.9 35.7,53.9 35.7,55.2 38.2,55.2 38.2,56.4 40.8,56.4 40.8,55.1 42.1,55.1 
		42.1,56.4 44.6,56.4 44.6,55.3 43.3,55.3 43.3,53.9 43.3,53.8 44.6,53.8 44.6,51.4 44.7,51.3 45.9,51.3 45.8,50.1 	"/>
</g>
</svg>
