<?xml version="1.0" encoding="utf-8"?>
<!-- Generator: Adobe Illustrator 29.4.0, SVG Export Plug-In . SVG Version: 9.03 Build 0)  -->
<svg version="1.1" id="Layer_2_00000008857838587949827400000016771186578555558038_"
	 xmlns="http://www.w3.org/2000/svg" xmlns:xlink="http://www.w3.org/1999/xlink" x="0px" y="0px" viewBox="0 0 119.7 77.4"
	 style="enable-background:new 0 0 119.7 77.4;" xml:space="preserve">
<style type="text/css">
	.st0{fill:none;stroke:#2D3787;stroke-width:2.07;stroke-linecap:round;stroke-linejoin:round;}
	.st1{fill-rule:evenodd;clip-rule:evenodd;fill:#2977B8;}
</style>
<g>
	<ellipse class="st0" cx="59.9" cy="38.7" rx="58.8" ry="37.6"/>
	<g>
		<path class="st1" d="M66.6,15.4C66.5,15.4,66.5,15.4,66.6,15.4C66.5,15.4,66.5,15.4,66.6,15.4c0.1,0,0.1,0,0.2,0
			C66.7,15.4,66.6,15.4,66.6,15.4z"/>
		<path class="st1" d="M67.5,56.5C67.5,56.5,67.5,56.5,67.5,56.5c0.1,0.1,0.2,0.1,0.3,0.1c0.5,0,1.1,0,1.7,0l0,0c0.6,0,1.2,0,1.8,0
			c0.1,0,0.3,0,0.3-0.1c0,0,0.1-0.1,0.1-0.1c0.4-0.5,0.8-1,1.2-1.5c0.9-1.2,1.6-2.4,2.2-3.8c0-0.1,0-0.1,0.1-0.2c0,0,0-0.1,0-0.1
			c-0.1,0-0.1,0-0.2,0c-0.4,0-0.9,0-1.3,0c-0.2,0-0.2,0.1-0.2,0.3c0,0,0,0,0,0.1c0,0,0,0,0,0c0,0,0.1,0.1,0,0c0,0,0,0.1-0.1,0.1
			c-0.4,0-0.7,0.1-1.1,0.1c-0.5,0.1-1.1,0.1-1.6,0.2c-0.3,0-0.7,0.1-1,0.1c-0.1,0-0.1,0-0.2,0.1c0,0.1,0,0.1-0.1,0.2
			c-0.5,1.5-1.1,3-1.9,4.4C67.6,56.4,67.5,56.4,67.5,56.5z"/>
		<path class="st1" d="M61.9,15.1c0,0-0.1,0-0.1,0c0,0,0,0.1,0.1,0.1c0.2,0.2,0.5,0.4,0.7,0.7c0.3,0.5,0.6,1,0.9,1.5
			c0.4,0.8,0.7,1.7,0.9,2.5c0,0.1,0,0.2,0.1,0.2c0,0.1,0.1,0.1,0.2,0.1c0.1,0,0.1,0,0.2,0c0.4,0,0.8,0,1.3,0c0.4,0,0.9,0,1.3,0
			c0.1,0,0.2,0,0.2,0c0,0,0.1,0,0-0.1c-0.1-0.2-0.2-0.4-0.4-0.6c-0.6-0.9-1.2-1.8-1.9-2.5c-0.7-0.7-1.4-1.2-2.3-1.6
			C62.6,15.3,62.3,15.2,61.9,15.1z"/>
		<path class="st1" d="M65.2,15.3c-0.4,0-0.8-0.1-1.1-0.1c0,0-0.1,0-0.1,0c0,0,0,0-0.1,0c0,0,0,0,0.1,0c0.1,0,0.2,0.1,0.3,0.1
			c0.7,0.1,1.4,0.3,2.1,0.4c1.7,0.4,3.3,1,4.9,1.7c1.6,0.7,3.1,1.6,4.5,2.7c0.2,0.1,0.3,0.2,0.5,0.2c0.6,0,1.2,0,1.8,0l0,0
			c0.6,0,1.2,0,1.8,0c0,0,0.1,0,0.1,0c0.1,0,0.1,0,0.1,0c0,0,0-0.1-0.1-0.1c-0.4-0.2-0.7-0.4-1.1-0.6c-2.5-1.3-5.1-2.3-7.9-3.1
			C69.9,16.2,69,16,68,15.8c-0.6-0.1-1.3-0.2-1.9-0.3C65.8,15.4,65.5,15.4,65.2,15.3z"/>
		<path class="st1" d="M66,36.5c0,0,0,0.1,0,0.1c0,0,0,0,0,0c0,0,0,0,0,0l0,0c0-0.3,0-0.7,0-1h0c0-0.6,0-1.2-0.1-1.8
			c0-0.3,0-0.6,0-1c0-0.1,0-0.1-0.1-0.1c0,0,0,0-0.1,0c-0.5,0-1,0-1.6,0c0,0-0.1,0-0.1,0c0,0,0,0,0,0.1c0,0,0,0.1,0.1,0.1
			C64.8,34.1,65.4,35.3,66,36.5z"/>
		<path class="st1" d="M84.3,20.1c-1.4-0.7-2.8-1.2-4.2-1.8c-1.4-0.5-2.7-0.9-4.1-1.3c-1.3-0.3-2.6-0.6-3.9-0.9
			c-0.6-0.1-1.2-0.2-1.9-0.3c-0.5-0.1-0.9-0.1-1.4-0.2c-0.4,0-0.7-0.1-1.1-0.1c-0.3,0-0.6-0.1-0.9-0.1c0,0,0,0,0,0
			c0.4,0.1,0.9,0.2,1.4,0.2c1.5,0.3,2.9,0.6,4.3,1.1c2.6,0.8,5.2,1.9,7.5,3.4c0.1,0.1,0.3,0.1,0.4,0.1c1.2,0,2.5,0,3.7,0
			c0.1,0,0.2,0,0.2,0c0,0,0,0,0,0c0,0,0,0,0,0C84.4,20.2,84.4,20.2,84.3,20.1z"/>
		<path class="st1" d="M65.1,26.6c-0.6,0-1.3,0-1.9,0h0c-0.6,0-1.3,0-2,0c-0.1,0-0.2,0-0.2,0c0,0-0.1,0,0,0.1c0,0.1,0.1,0.2,0.1,0.2
			c0.9,1.8,1.9,3.6,2.8,5.4c0,0,0,0.1,0.1,0.1c0,0.1,0.1,0.1,0.2,0.1c0.6,0,1.2,0,1.8,0c0.1,0,0.1,0,0.1-0.2c0-0.2,0-0.4,0-0.6
			c0-0.4,0-0.8-0.1-1.2c0-0.3,0-0.5-0.1-0.8c0-0.5-0.1-1-0.2-1.5c-0.1-0.4-0.1-0.9-0.1-1.3c0-0.1,0-0.2,0-0.2c0-0.1,0-0.1-0.1-0.1
			C65.3,26.6,65.2,26.6,65.1,26.6z"/>
		<path class="st1" d="M64.8,22.1c0.3,1.3,0.5,2.7,0.7,4.1c0,0.1,0,0.1,0,0.2c0,0.1,0.1,0.1,0.1,0.1c0.1,0,0.2,0,0.2,0
			c0.6,0,1.2,0,1.8,0v0c0.7,0,1.3,0,2,0c0.1,0,0.1,0,0.2,0c0,0,0,0,0,0c0,0,0-0.1,0-0.1c-0.4-1.5-0.9-3-1.5-4.4
			c-0.2-0.4-0.4-0.8-0.6-1.3c-0.1-0.1-0.2-0.2-0.3-0.2c0,0,0,0,0,0c-0.9,0-1.9,0-2.8,0c-0.1,0-0.1,0-0.2,0c0,0,0,0,0,0.1
			c0,0.1,0,0.2,0,0.2C64.6,21.2,64.7,21.6,64.8,22.1z"/>
		<path class="st1" d="M63.6,61.8L63.6,61.8c0.1,0,0.2,0,0.3,0c0.6,0,1.2-0.1,1.8-0.2c0.8-0.1,1.7-0.3,2.5-0.4
			c1.5-0.3,3.1-0.7,4.6-1.2c1.4-0.4,2.7-0.9,4-1.5c1.1-0.5,2.1-1,3.1-1.6c0,0,0.1,0,0.1-0.1c-0.1,0-0.1,0-0.2,0c-1.4,0-2.7,0-4.1,0
			c0,0-0.1,0-0.1,0c-0.1,0-0.1,0-0.2,0.1c-0.1,0-0.1,0.1-0.1,0.1c-1.6,1.2-3.3,2.1-5.1,2.9c-2.1,0.9-4.3,1.5-6.6,2
			c-0.1,0-0.2,0-0.3,0.1c0,0,0,0-0.1,0c0,0,0,0,0,0C63.4,61.8,63.5,61.8,63.6,61.8z"/>
		<path class="st1" d="M69.7,61c0.4-0.1,0.7-0.1,1-0.2c1.2-0.2,2.4-0.5,3.6-0.8c2.4-0.6,4.7-1.3,7-2.2c0.8-0.3,1.6-0.6,2.4-1
			c0.1,0,0.2-0.1,0.2-0.1c0,0,0,0,0,0c0,0,0,0,0,0c-0.1,0-0.1,0-0.2,0c-0.5,0-1,0-1.5,0c-0.5,0-1,0-1.6,0c-0.2,0-0.3,0-0.4,0.1
			c-0.4,0.2-0.9,0.5-1.3,0.7c-1.9,1-4,1.9-6.1,2.5c-1.1,0.4-2.2,0.7-3.3,0.9c0,0,0,0-0.1,0c0,0,0,0,0,0c0,0,0,0,0,0
			C69.6,61,69.7,61,69.7,61z"/>
		<path class="st1" d="M84.6,56.4c2.2-1.1,4.3-2.4,6.2-3.9c0.6-0.5,1.2-1,1.7-1.5c0.1,0,0.1-0.1,0.1-0.2c0,0,0,0,0,0
			c-0.1,0-0.2,0-0.2,0c-0.8,0-1.6,0-2.4,0v0c-0.7,0-1.4,0-2.1,0c-0.1,0-0.3,0-0.4,0c-0.2,0-0.3,0-0.4,0.2c-0.1,0.1-0.2,0.3-0.3,0.4
			c-0.8,1-1.7,1.9-2.7,2.7c-1,0.8-2,1.6-3.1,2.3c-0.1,0-0.1,0.1-0.2,0.1c0,0,0,0,0,0c0,0,0,0,0,0c0,0,0.1,0,0.1,0c1.1,0,2.2,0,3.3,0
			C84.3,56.5,84.5,56.5,84.6,56.4z"/>
		<path class="st1" d="M64.4,56c0,0.1-0.1,0.3-0.1,0.4c0,0,0,0.1,0,0.1c0.1,0,0.1,0,0.2,0c0.4,0,0.8,0,1.3,0v0c0.4,0,0.8,0,1.3,0
			c0.3,0,0.3,0,0.4-0.2c0.6-1,1.1-2.1,1.5-3.2c0.2-0.4,0.3-0.8,0.4-1.2c0-0.1,0-0.1-0.1-0.1c-0.1,0-0.3,0-0.4,0
			c-0.4,0-0.8,0.1-1.1,0.1S67,52,66.7,52.1c-0.2,0-0.4,0-0.6,0.1c-0.1,0-0.1,0-0.2-0.1c-0.1-0.3-0.3-0.5-0.4-0.8
			c0,0-0.1-0.1-0.1-0.1c0,0,0,0,0,0c0,0,0,0,0,0c-0.1,0.7-0.2,1.4-0.4,2.2C64.9,54.2,64.6,55.2,64.4,56z"/>
		<path class="st1" d="M67.2,56.9C67.2,57,67.2,57,67.2,56.9c-0.8,1.2-1.6,2.3-2.7,3.2c-0.7,0.6-1.5,1.1-2.3,1.5c0,0-0.1,0-0.1,0
			c0,0,0,0,0,0c0,0,0,0,0.1,0c0,0,0.1,0,0.2,0c0.4-0.1,0.8-0.2,1.3-0.3c3-0.9,5.5-2.4,7.6-4.6c0,0,0.1-0.1,0.1-0.1c0,0,0,0,0,0
			s0,0,0,0c0,0-0.1,0-0.1,0c-0.6,0-1.1,0-1.7,0c-0.5,0-1.1,0-1.7,0C67.3,56.7,67.4,56.6,67.2,56.9z"/>
		<path class="st1" d="M93,50.5C93,50.5,93.1,50.5,93,50.5c0.9-1,1.8-2,2.5-3c0.6-0.9,1.1-1.8,1.5-2.7c0-0.1,0.1-0.1,0.1-0.2
			c0,0,0-0.1,0-0.1c-0.1,0-0.2,0-0.3,0c-1,0-1.9,0-2.9,0c-1,0-2,0-3,0c-0.3,0-0.3,0-0.3,0.2c-0.5,1.3-1.1,2.6-1.8,3.8
			c-0.4,0.6-0.8,1.2-1.2,1.8c0,0.1-0.1,0.2-0.2,0.2c0,0,0,0,0,0c0.1,0,0.2,0,0.2,0c1.7,0,3.3,0,4.9,0c0,0,0.1,0,0.1,0
			C92.9,50.7,93,50.6,93,50.5z"/>
		<path class="st1" d="M98.5,38.2c0-0.3,0-0.6,0-0.9c0-0.5-0.1-1.1-0.2-1.6c-0.2-1-0.4-1.9-0.8-2.8c-0.1-0.3-0.1-0.3-0.4-0.3
			c-1,0-2,0-3,0c-1,0-2,0-3,0c-0.1,0-0.2,0-0.3,0c0,0-0.1,0-0.1,0.1c0,0,0,0.1,0,0.1c0.1,0.3,0.2,0.6,0.3,1c0.1,0.5,0.2,1,0.4,1.6
			c0,0.2,0.1,0.2,0.2,0.2c0.1,0,0.1,0,0.2,0c0.8,0,1.6,0,2.4,0c0.3,0,0.3,0,0.3,0.3c0,0.8,0,1.5,0,2.3c0,0.1,0,0.1,0,0.2
			c0,0.1,0,0.1,0.1,0.1c0,0,0.1,0,0.1,0c1.2,0,2.4,0,3.5,0c0.1,0,0.1,0,0.2,0c0,0,0.1,0,0.1-0.1C98.5,38.3,98.5,38.3,98.5,38.2z"/>
		<path class="st1" d="M97.2,44.3c0-0.1,0.1-0.2,0.1-0.2c0.2-0.5,0.3-0.9,0.5-1.4c0.2-0.8,0.4-1.7,0.5-2.5c0-0.3,0.1-0.7,0.1-1
			c0-0.1,0-0.3,0-0.4c0-0.1,0-0.1-0.1-0.1c-0.1,0-0.1,0-0.2,0c-1.2,0-2.3,0-3.5,0c-0.1,0-0.1,0-0.2,0c0,0-0.1,0-0.1,0.1
			c0,0.1,0,0.2,0,0.2c0,0.6,0,1.3,0,1.9c0,0.1,0,0.2,0,0.2s0,0.1-0.1,0.1s-0.2,0-0.2,0c-0.8,0-1.5,0-2.3,0c-0.1,0-0.2,0-0.2,0
			c-0.1,0-0.1,0-0.1,0.1c-0.1,0.3-0.1,0.6-0.2,0.9c-0.1,0.6-0.3,1.2-0.5,1.9c-0.1,0.3-0.1,0.3,0.2,0.3c1,0,2,0,3,0l0,0
			c1,0,1.9,0,2.9,0c0.1,0,0.2,0,0.2,0C97.2,44.4,97.2,44.3,97.2,44.3z"/>
		<path class="st1" d="M89.2,22.9c-1.3-0.9-2.7-1.7-4.1-2.4c-0.1-0.1-0.2-0.1-0.4-0.1c-1.3,0-2.6,0-3.9,0c0,0-0.1,0-0.1,0
			c0,0,0,0,0,0c0,0,0,0,0,0c0,0,0.1,0.1,0.2,0.1c1,0.6,1.9,1.3,2.8,2.1c0.8,0.7,1.6,1.4,2.3,2.2c0.2,0.2,0.4,0.4,0.6,0.6
			c0.1,0.1,0.1,0.1,0.2,0.1c0.1,0,0.1,0,0.2,0c0.9,0,1.7,0,2.6,0l0,0c0.9,0,1.7,0,2.6,0c0.1,0,0.2,0,0.3,0c0,0,0,0,0,0
			c0,0,0,0,0-0.1c0,0-0.1-0.1-0.1-0.1C91.3,24.5,90.3,23.7,89.2,22.9z"/>
		<path class="st1" d="M63.3,15.4C63.2,15.4,63.2,15.4,63.3,15.4C63.2,15.4,63.2,15.4,63.3,15.4c0,0.1,0.1,0.1,0.1,0.1
			c0.7,0.4,1.3,0.8,1.9,1.4c0.6,0.5,1.1,1.2,1.5,1.8c0.3,0.5,0.6,0.9,0.9,1.4c0.1,0.1,0.2,0.2,0.3,0.2c0.6,0,1.1,0,1.7,0v0
			c0.5,0,1.1,0,1.6,0c0.1,0,0.2,0,0.2,0c0,0,0,0,0,0c0,0,0,0,0-0.1c-0.3-0.3-0.6-0.6-0.9-0.8c-1.1-1-2.3-1.9-3.6-2.5
			C65.9,16.2,64.7,15.7,63.3,15.4C63.3,15.4,63.3,15.4,63.3,15.4z"/>
		<path class="st1" d="M60.6,56.7c-0.8,0-1.6,0-2.4,0c-0.1,0-0.1,0-0.1,0.1c0,0.2,0.1,0.4,0.2,0.6c0.2,0.8,0.5,1.6,0.8,2.4
			c0.2,0.5,0.5,0.9,0.8,1.3c0.2,0.2,0.3,0.4,0.5,0.5c0,0,0.1,0.1,0.2,0.1c0.1,0.1,0.1,0,0.1-0.1c0-0.1,0-0.1,0-0.2
			c0-0.7,0-1.5,0-2.2c0,0,0,0,0,0c0-0.6,0-1.3,0-1.9c0-0.2,0-0.4,0-0.6C60.7,56.7,60.7,56.7,60.6,56.7
			C60.6,56.7,60.6,56.7,60.6,56.7z"/>
		<path class="st1" d="M61,56.6c0,0,0.1,0,0.1,0c0.9,0,1.9,0,2.8,0c0,0,0.1,0,0.1,0c0.1,0,0.1,0,0.1-0.1c0,0,0-0.1,0-0.1
			c0.2-0.8,0.4-1.6,0.6-2.4c0.2-0.9,0.4-1.9,0.5-2.8c0-0.1,0-0.2,0-0.2c0-0.1,0-0.1-0.1-0.1c-0.1,0-0.1,0-0.2,0c-1.3,0-2.7,0-4,0
			c0,0-0.1,0-0.1,0c-0.1,0-0.1,0-0.1,0.1c0,0.1,0,0.2,0,0.2c0,0.8,0,1.7,0,2.6l0,0c0,0.8,0,1.7,0,2.5c0,0.1,0,0.2,0,0.2
			C60.9,56.5,60.9,56.5,61,56.6z"/>
		<path class="st1" d="M61,61.9c0.1,0,0.2,0,0.2-0.1c0.2-0.1,0.3-0.3,0.5-0.5c0.4-0.4,0.7-1,1-1.5c0.5-1,0.9-2,1.3-3.1
			c0,0,0,0,0-0.1c0,0,0-0.1-0.1-0.1c-0.1,0-0.1,0-0.2,0c-0.9,0-1.8,0-2.7,0c0,0-0.1,0-0.2,0c-0.1,0-0.1,0-0.1,0.1c0,0.1,0,0.2,0,0.2
			c0,0.7,0,1.5,0,2.2c0,0,0,0,0,0c0,0.1,0,0.3,0,0.4c0,0.7,0,1.4,0,2C60.9,61.9,60.9,61.9,61,61.9z"/>
		<path class="st1" d="M61,26.4c0.1,0,0.2,0,0.3,0c1.2,0,2.5,0,3.7,0c0.1,0,0.3,0,0.4,0c0-0.1,0-0.3,0-0.4c-0.1-0.8-0.3-1.6-0.4-2.5
			c-0.2-1-0.4-1.9-0.6-2.9c-0.1-0.3-0.1-0.3-0.3-0.3c-1,0-1.9,0-2.9,0c0,0-0.1,0-0.2,0c-0.1,0-0.1,0-0.1,0.1c0,0.1,0,0.2,0,0.2
			c0,0.9,0,1.8,0,2.7h0c0,0.9,0,1.8,0,2.7c0,0.1,0,0.2,0,0.2C60.9,26.4,60.9,26.4,61,26.4z"/>
		<path class="st1" d="M61,50.7c0.1,0,0.2,0,0.2,0c0.6,0,1.2,0,1.8,0v0c0.6,0,1.2,0,1.8,0c0.1,0,0.2,0,0.2,0c0.1,0,0.1,0,0.1-0.1
			c0,0,0-0.1-0.1-0.1c-0.6-1.1-1.2-2.2-1.7-3.4c0,0,0-0.1,0-0.1c0-0.1-0.1-0.1-0.1-0.1c0,0-0.1,0-0.2,0c-0.6,0-1.3,0-1.9,0
			c-0.1,0-0.1,0-0.2,0c-0.1,0-0.1,0-0.1,0.1c0,0,0,0.1,0,0.1c0,1.1,0,2.2,0,3.2C60.9,50.5,60.9,50.5,61,50.7
			C60.9,50.6,60.9,50.7,61,50.7z"/>
		<path class="st1" d="M35.6,50.6C35.6,50.6,35.6,50.6,35.6,50.6c-0.2-0.2-0.3-0.4-0.5-0.6c0,0,0,0,0,0c0,0,0,0,0,0
			c0,0.2,0,0.3,0,0.5c0,0.1,0,0.1,0.1,0.1c0.1,0,0.1,0,0.2,0l0,0C35.4,50.7,35.5,50.7,35.6,50.6C35.6,50.7,35.6,50.6,35.6,50.6z"/>
		<path class="st1" d="M56,38.4c0.2,0,0.2,0,0.2-0.2c0-0.5,0-0.9,0-1.4c0,0,0,0,0,0l0,0c0,0,0,0,0,0c0,0,0,0,0,0c0-0.4,0-0.9,0-1.3
			c0-0.1,0-0.1,0-0.2c0,0,0,0,0,0c0,0,0,0,0,0c0,0,0,0.1-0.1,0.1c-0.4,0.8-0.7,1.5-1.1,2.3c-0.1,0.2-0.2,0.4-0.3,0.6
			c-0.1,0.1,0,0.1,0.1,0.1C55.2,38.4,55.6,38.4,56,38.4z"/>
		<path class="st1" d="M54.5,38.7c0,0,0,0.1,0,0.1c-0.4,0.8-0.8,1.7-1.2,2.5c0,0,0,0.1,0,0.1c0,0,0,0.1,0,0.1c0.1,0,0.1,0,0.2,0
			c0.4,0,0.9,0,1.3,0l0,0c0.4,0,0.8,0,1.2,0c0.4,0,0.4,0.1,0.4-0.4c0-0.8,0-1.6,0-2.3c0,0,0-0.1,0-0.1c0-0.1,0-0.1-0.1-0.1
			c-0.5,0-0.9,0-1.4,0C54.6,38.6,54.6,38.6,54.5,38.7z"/>
		<path class="st1" d="M100.6,50.8c-1.2,0-2.4,0-3.6,0c-1.2,0-2.5,0-3.8,0c-0.2,0-0.3,0-0.4,0.1c-1.5,1.5-3.2,2.7-4.9,3.9
			c-0.9,0.6-1.9,1.1-2.8,1.6c-0.1,0-0.1,0.1-0.2,0.1c0,0,0,0,0,0v0c0,0,0.1,0,0.1,0c2.1,0,4.2,0,6.3,0c0.1,0,0.2,0,0.3-0.1
			c0.3-0.1,0.6-0.3,0.8-0.4c2.2-1,4.2-2.2,6.2-3.5c0.7-0.5,1.5-1.1,2.1-1.6c0,0,0.1-0.1,0.1-0.1c0,0,0,0,0,0c0,0,0,0-0.1,0
			C100.7,50.8,100.6,50.8,100.6,50.8z"/>
		<path class="st1" d="M97.8,32.7c-0.1,0-0.1,0-0.2,0c0,0-0.1,0,0,0.1c0,0,0,0.1,0,0.1c0.3,0.7,0.5,1.5,0.7,2.3
			c0.1,0.5,0.2,1.1,0.3,1.7c0,0.4,0.1,0.9,0.1,1.3c0,0.1,0,0.1,0,0.2c0,0,0,0.1,0.1,0.1c0.1,0,0.2,0,0.3,0c1.4,0,2.8,0,4.2,0l0,0
			c1.4,0,2.8,0,4.2,0c0.1,0,0.2,0,0.3,0c0.1,0,0.1,0,0.1-0.1c0-0.1,0-0.1,0-0.2c0-0.5-0.1-1-0.1-1.6c-0.1-1-0.4-1.9-0.8-2.8
			c-0.1-0.3-0.2-0.5-0.4-0.8c-0.1-0.2-0.1-0.2-0.4-0.2C103.3,32.7,100.5,32.7,97.8,32.7z"/>
		<path class="st1" d="M105.8,44.5c-1.3,0-2.7,0-4.1,0v0c-1.4,0-2.7,0-4.1,0c-0.1,0-0.2,0-0.2,0c-0.1,0-0.1,0-0.1,0.1
			c-0.1,0.2-0.2,0.4-0.3,0.6c-0.9,1.9-2.2,3.6-3.6,5.2c-0.1,0.1-0.1,0.2-0.2,0.2c0.1,0.1,0.2,0,0.3,0c2.4,0,4.8,0,7.2,0
			c0.1,0,0.2,0,0.3,0c0.1,0.1,0.2,0,0.3,0c0.1-0.1,0.2-0.2,0.3-0.3c1.1-1,2.2-2.1,3.1-3.3c0.6-0.7,1.1-1.5,1.5-2.3
			c0-0.1,0.1-0.1,0.1-0.2c0,0,0-0.1,0-0.1C106,44.5,105.9,44.5,105.8,44.5z"/>
		<path class="st1" d="M107.3,38.6c-1.4,0-2.8,0-4.2,0v0c-1.4,0-2.8,0-4.2,0c-0.1,0-0.2,0-0.3,0c-0.1,0-0.1,0-0.1,0.1
			c0,0.3,0,0.6-0.1,0.9c0,0.4-0.1,0.8-0.1,1.2c-0.2,1.1-0.5,2.2-0.9,3.2c0,0.1,0,0.1-0.1,0.2c0,0,0,0.1,0.1,0.1c0.1,0,0.2,0,0.3,0
			c2.7,0,5.4,0,8.2,0c0.1,0,0.1,0,0.2,0c0.1,0,0.2,0,0.2-0.2c0,0,0,0,0-0.1c0.4-0.8,0.7-1.7,0.9-2.6c0.2-0.8,0.3-1.7,0.4-2.6
			C107.7,38.5,107.7,38.6,107.3,38.6z"/>
		<path class="st1" d="M61,20.2c0.1,0,0.1,0,0.2,0c0.9,0,1.8,0,2.7,0c0.1,0,0.2,0,0.2,0c0,0,0,0,0.1-0.1c0,0,0-0.1,0-0.1
			c-0.3-0.9-0.6-1.8-1-2.7c-0.2-0.5-0.5-1-0.9-1.5c-0.2-0.3-0.5-0.5-0.8-0.7c-0.1-0.1-0.3-0.1-0.5-0.2c-0.2,0-0.3,0-0.3,0.2
			c0,0.8,0,1.6,0,2.4c0,0.5,0,1,0,1.5c0,0.3,0,0.7,0,1C60.9,20.2,60.9,20.2,61,20.2z"/>
		<path class="st1" d="M64.2,56.7c0,0.1,0,0.2-0.1,0.2c-0.2,0.6-0.4,1.1-0.6,1.7c-0.2,0.6-0.5,1.1-0.8,1.7c-0.2,0.4-0.5,0.8-0.8,1.1
			c-0.1,0.1-0.1,0.2-0.2,0.2c0,0,0,0.1,0,0.1c0,0,0,0,0.1,0c0.2-0.1,0.5-0.2,0.7-0.3c0.9-0.5,1.8-1.1,2.5-1.9
			c0.8-0.8,1.5-1.7,2.1-2.7c0,0,0-0.1,0-0.1c0,0,0-0.1,0-0.1c-0.1,0-0.1,0-0.2,0c-0.4,0-0.8,0-1.2,0c-0.4,0-0.8,0-1.2,0
			C64.4,56.7,64.3,56.7,64.2,56.7C64.2,56.7,64.2,56.7,64.2,56.7z"/>
		<path class="st1" d="M61,14.8c0.4,0,0.8,0,1.3,0.1c0.5,0,0.9,0,1.3,0.1c0.3,0,0.6,0,0.9,0.1c0.3,0,0.6,0.1,1,0.1
			c0.3,0,0.6,0.1,0.9,0.1c0.6,0.1,1.2,0.1,1.7,0.2c0.7,0.1,1.4,0.2,2,0.3c1.1,0.2,2.2,0.4,3.3,0.6c1.5,0.3,3,0.7,4.5,1.1
			c2.4,0.7,4.6,1.6,6.9,2.7c0.1,0.1,0.3,0.1,0.4,0.1c0.9,0,1.9,0,2.8,0l0,0c0.9,0,1.8,0,2.6,0c0.1,0,0.2,0,0.2,0c0,0,0.1,0,0.1,0
			c0,0,0,0,0,0c0,0,0,0,0,0c-0.3-0.2-0.7-0.3-1-0.4c-2-0.8-4-1.5-6-2c-1.4-0.4-2.9-0.8-4.3-1.1c-1.2-0.3-2.3-0.5-3.5-0.7
			c-0.8-0.1-1.7-0.3-2.5-0.4c-0.7-0.1-1.4-0.2-2.1-0.3c-0.7-0.1-1.4-0.1-2-0.2c-0.3,0-0.5,0-0.8-0.1c-0.5,0-0.9-0.1-1.4-0.1
			c-0.4,0-0.9,0-1.3-0.1c-0.7,0-1.5-0.1-2.2-0.1c-0.7,0-1.4,0-2,0c-0.3,0-0.6,0-0.8,0c0,0-0.1,0-0.1,0c0,0,0,0,0,0
			C60.9,14.8,60.9,14.8,61,14.8C60.9,14.8,61,14.8,61,14.8z"/>
		<path class="st1" d="M90.7,20.4c-0.8,0-1.6,0-2.4,0l0,0c-0.7,0-1.3,0-2,0c-0.2,0-0.5,0-0.8,0c0,0-0.1,0-0.1,0c0,0,0,0,0,0
			c0,0,0,0,0,0c0.1,0,0.1,0.1,0.2,0.1c1.1,0.6,2.2,1.2,3.2,1.9c0.9,0.6,1.9,1.3,2.7,2.1c0.3,0.3,0.7,0.6,1,0.9
			c0.1,0.1,0.2,0.1,0.3,0.1c0.1,0,0.1,0,0.2,0c0.7,0,1.4,0,2.1,0c0.1,0,0.2,0,0.2,0c0.1,0,0.1,0,0.1,0.1c0,0.1,0,0.1,0,0.2
			c0,0.1,0,0.3,0,0.4c0,0.1,0,0.1,0.1,0.2c0.1,0,0.1,0,0.2,0c1.7,0,3.4,0,5.1,0c0.1,0,0.2,0,0.2,0c0,0,0,0,0.1,0c0,0,0,0,0,0
			c0,0-0.1-0.1-0.1-0.1c-0.9-0.8-1.9-1.5-2.9-2.2c-1.9-1.3-3.9-2.4-6-3.3c-0.3-0.1-0.5-0.2-0.8-0.4c0,0-0.1,0-0.1,0
			C91,20.5,90.8,20.4,90.7,20.4z"/>
		<path class="st1" d="M101,26.6c-1.7,0-3.4,0-5.2,0c-0.1,0-0.2,0-0.3,0c-0.1,0-0.1,0-0.1,0.1c0,0.1,0,0.2,0,0.2c0,0.5,0,1.1,0,1.6
			c0,0.2,0,0.4,0.2,0.6c0.7,1,1.3,2.1,1.8,3.2c0.1,0.3,0.1,0.2,0.4,0.2c0.1,0,0.1,0,0.2,0c1.3,0,2.6,0,4,0l0,0c1.3,0,2.7,0,4,0
			c0.1,0,0.2,0,0.3,0c0,0,0.1,0,0-0.1c0-0.1,0-0.1-0.1-0.2c-0.3-0.6-0.7-1.2-1.1-1.8c-0.9-1.3-2-2.5-3.2-3.7
			c-0.1-0.1-0.2-0.2-0.3-0.3c0,0-0.1,0-0.1,0C101.2,26.6,101.1,26.6,101,26.6z"/>
		<path class="st1" d="M70.9,44.5c-0.2,0-0.5,0-0.7,0c0,0-0.1,0,0,0.1c0.2,0.4,0.4,0.7,0.5,1.1c0,0,0,0,0,0c0,0,0,0,0.1,0
			c0,0,0,0,0-0.1c0-0.2,0.1-0.4,0.1-0.7l0,0C70.9,44.9,70.9,44.7,70.9,44.5C71,44.5,70.9,44.5,70.9,44.5z"/>
		<path class="st1" d="M80.2,56.6c0.2,0,0.3,0,0.5-0.1c1.5-1,3-2,4.3-3.3c0.7-0.6,1.3-1.3,1.9-2c0.1-0.1,0.1-0.2,0.2-0.3
			c0,0,0,0,0,0c-0.1,0-0.1,0-0.2,0c-0.9,0-1.7,0-2.6,0c-0.1,0-0.1,0-0.2,0c-0.1,0-0.1,0-0.1,0.1c0,0.1,0,0.3,0,0.4
			c0,0.4,0,0.3-0.4,0.3c-0.9,0-1.9,0-2.8,0c-0.3,0-0.3,0-0.4,0.2c-1.2,1.7-2.7,3.2-4.3,4.5c-0.1,0-0.1,0.1-0.2,0.2c0,0,0,0,0,0.1
			c0,0,0,0,0,0c0.1,0,0.2,0,0.2,0c0.7,0,1.3,0,2,0l0,0C78.8,56.6,79.5,56.6,80.2,56.6z"/>
		<path class="st1" d="M71.7,56.7c-0.1,0-0.2,0-0.3,0.2c-0.3,0.3-0.7,0.7-1,1c-1,0.9-2.1,1.7-3.3,2.3c-0.8,0.5-1.7,0.8-2.6,1.1
			c-0.1,0-0.1,0-0.2,0.1c0,0-0.1,0-0.1,0c0,0,0.1,0,0.1,0c0.1,0,0.3,0,0.4-0.1c1.8-0.4,3.5-0.9,5.2-1.6c1.8-0.8,3.5-1.7,5.2-2.8
			c0.1-0.1,0.1-0.1,0.2-0.2c0,0,0,0,0,0c0,0,0,0,0,0c-0.1,0-0.2,0-0.2,0c-0.5,0-1.1,0-1.6,0l0,0C72.9,56.7,72.3,56.7,71.7,56.7z"/>
		<path class="st1" d="M95,31c-1.5,0-3.1,0-4.6,0c-0.1,0-0.2,0-0.3,0c0,0-0.1,0-0.1,0.1c0,0.1,0.1,0.2,0.1,0.2
			c0.1,0.3,0.3,0.7,0.4,1c0.1,0.3,0,0.3,0.4,0.3c1,0,2,0,3,0l0,0c1,0,2.1,0,3.1,0c0.2,0,0.3,0,0.2-0.2c-0.5-1.1-1-2.1-1.6-3
			c0,0,0,0,0-0.1c0,0,0,0,0,0s0,0,0,0c0,0.1,0,0.1,0,0.2c0,0.4,0,0.7,0,1.1c0,0.1,0,0.3,0,0.4C95.3,31,95.1,31,95,31z"/>
		<path class="st1" d="M90.8,56.7C90.8,56.7,90.8,56.7,90.8,56.7c-2.1,0-4.1,0-6.2,0c-0.2,0-0.3,0-0.4,0.1c-1.4,0.7-2.8,1.3-4.3,1.8
			c-1.8,0.6-3.7,1.2-5.6,1.6c-1.5,0.4-3,0.7-4.5,0.9c-0.9,0.1-1.7,0.3-2.6,0.4c-0.7,0.1-1.3,0.2-1.9,0.2c-0.2,0-0.4,0-0.7,0.1
			C64.1,61.9,63.6,62,63,62c-0.3,0-0.7,0.1-1,0.1c-0.2,0-0.3,0-0.5,0c-0.2,0-0.4,0-0.5,0c0,0-0.1,0-0.1,0c0,0-0.1,0-0.1,0.1
			c0,0,0,0.1,0.1,0.1c0,0,0.1,0,0.1,0c0.6,0,1.3,0,1.9,0c0,0,0,0,0,0c0.2,0,0.5,0,0.7,0c0.5,0,1.1,0,1.6-0.1c0.7,0,1.4-0.1,2.2-0.1
			c0.5,0,1-0.1,1.5-0.1c0.6-0.1,1.3-0.1,1.9-0.2c0.6-0.1,1.2-0.1,1.8-0.2c0.6-0.1,1.3-0.2,1.9-0.3c0.8-0.1,1.6-0.2,2.3-0.4
			c1-0.2,2-0.4,3.1-0.6c1.8-0.4,3.7-0.9,5.5-1.5c1.8-0.6,3.6-1.2,5.4-2c0,0,0.1-0.1,0.2-0.1C90.9,56.7,90.9,56.7,90.8,56.7z"/>
		<polygon class="st1" points="107.7,23.5 106,24.3 106.7,25.2 		"/>
		<path class="st1" d="M75.8,56.4c0.5-0.4,1-0.8,1.5-1.3c1.1-1,2.1-2.1,3-3.3c0,0,0-0.1,0.1-0.1c0,0,0,0,0,0c-0.1,0-0.2,0-0.3,0
			c-1,0-2.1,0-3.1,0c-0.1,0-0.2,0-0.2,0c-0.1,0-0.2,0-0.2-0.2c0-0.1,0-0.3,0-0.4c0-0.1,0-0.1,0-0.2s0-0.1-0.1-0.1
			c-0.2,0-0.5,0-0.7,0c-0.4,0-0.3,0-0.4,0.3c-0.4,0.9-0.9,1.8-1.5,2.6c-0.6,0.9-1.2,1.8-2,2.6c0,0-0.1,0.1-0.1,0.1c0,0,0,0.1,0,0.1
			c0.1,0,0.2,0,0.2,0c0.5,0,1.1,0,1.6,0c0,0,0,0,0,0c0.6,0,1.1,0,1.7,0C75.5,56.6,75.7,56.5,75.8,56.4z"/>
		<path class="st1" d="M47.4,68.4c-0.3,0-0.6,0-0.8,0.2c-0.2,0.2-0.4,0.6-0.5,1.1c-0.1,0.5,0,0.9,0.1,1.2c0.2,0.3,0.4,0.4,0.7,0.5
			c0.3,0.1,0.6,0,0.8-0.2c0.2-0.2,0.4-0.6,0.5-1.2c0.1-0.5,0-0.9-0.1-1.1C48,68.6,47.7,68.5,47.4,68.4z"/>
		<path class="st1" d="M72,48.2c0.4,0.8,0.8,1.5,1.2,2.3c0.1,0.1,0.1,0.2,0.3,0.2c0.5,0,1.1,0,1.6,0c0.3,0,0.2,0,0.4-0.2
			c0.4-0.8,0.7-1.7,1-2.6c0.1-0.1,0.1-0.3,0.1-0.4c0-0.9,0-1.8,0-2.6c0,0,0-0.1,0-0.1c0-0.1,0-0.1-0.1-0.1c-0.1,0-0.1,0-0.2,0
			c-0.8,0-1.6,0-2.4,0h0c-0.6,0-1.2,0-1.8,0c-0.3,0-0.5,0-0.8,0c-0.1,0-0.2,0-0.2,0.1C71,45,71,45.4,70.9,45.8c0,0.2,0,0.3,0.1,0.4
			C71.3,46.9,71.7,47.5,72,48.2z"/>
		<path class="st1" d="M25,14.3c0.1-0.1,0-0.3,0-0.4c-0.1-0.1-0.2-0.2-0.3-0.2c-0.1,0-0.3,0-0.5,0.1l-0.6,0.3L24,15h0l0.6-0.3
			C24.9,14.5,25,14.4,25,14.3z"/>
		<path class="st1" d="M34.6,10.4l0.7-0.2c0.1,0,0.2-0.1,0.4-0.2c0.1-0.1,0.2-0.1,0.2-0.2c0-0.1,0-0.2,0-0.3c0-0.2-0.1-0.3-0.3-0.3
			c-0.1-0.1-0.3,0-0.6,0l-0.7,0.2L34.6,10.4L34.6,10.4z"/>
		<path class="st1" d="M42.7,8.8c0.1,0.5,0.3,0.9,0.5,1.1c0.2,0.2,0.5,0.2,0.9,0.2c0.3-0.1,0.6-0.2,0.7-0.5c0.1-0.3,0.2-0.7,0-1.2
			c-0.1-0.5-0.3-0.8-0.5-1s-0.5-0.2-0.9-0.2c-0.3,0.1-0.5,0.2-0.7,0.5C42.6,7.9,42.6,8.3,42.7,8.8L42.7,8.8z"/>
		<polygon class="st1" points="88.5,10.8 87.3,12.4 88.4,12.8 		"/>
		<path class="st1" d="M103.1,19.9c0.1,0,0.2,0.1,0.3,0c0.1,0,0.2-0.1,0.3-0.2c0.1-0.1,0.1-0.3,0.1-0.4c0-0.1-0.2-0.3-0.4-0.5
			l-0.6-0.4l-0.7,0.8h0l0.5,0.4C102.8,19.7,102.9,19.8,103.1,19.9z"/>
		<path class="st1" d="M25,16.8L25,16.8l0.7-0.4c0.2-0.1,0.4-0.3,0.4-0.4c0.1-0.1,0-0.3,0-0.4c-0.1-0.1-0.2-0.2-0.3-0.2
			c-0.1,0-0.3,0-0.6,0.2l-0.7,0.4L25,16.8z"/>
		<path class="st1" d="M10.5,49.7c0.1,0.1,0.2,0.1,0.3,0.1s0.2,0,0.3-0.1c0.1-0.1,0.2-0.2,0.2-0.3c0-0.1,0-0.3-0.2-0.6l-0.4-0.6
			l-0.9,0.5v0l0.3,0.6C10.3,49.5,10.4,49.6,10.5,49.7z"/>
		<path class="st1" d="M71.4,35c0,0.7,0.1,1.3,0.1,2c0,0.4,0,0.8,0,1.3c0,0.1,0,0.1,0,0.2c0,0,0,0,0.1,0.1c0.1,0,0.1,0,0.2,0
			c1.5,0,3,0,4.5,0c0,0,0.1,0,0.1,0c0.1,0,0.1,0,0.1-0.1c0-0.1,0-0.2,0-0.2c0-0.8,0-1.7,0-2.5h0c0-0.8,0-1.7,0-2.5
			c0-0.1,0-0.2,0-0.3c0-0.1,0-0.1-0.1-0.1c-0.1,0-0.1,0-0.2,0c-1.5,0-3.1,0-4.6,0c-0.3,0-0.3,0-0.3,0.3c0,0,0,0.1,0,0.1
			C71.3,33.7,71.4,34.4,71.4,35z"/>
		<path class="st1" d="M21.8,59.3c-0.3-0.2-0.5-0.2-0.8-0.2c-0.3,0.1-0.6,0.3-0.9,0.8h0c-0.3,0.4-0.4,0.8-0.4,1.1
			c0,0.3,0.2,0.5,0.5,0.7c0.3,0.2,0.6,0.2,0.9,0.2c0.3-0.1,0.6-0.4,0.9-0.9c0.3-0.4,0.4-0.8,0.4-1.1C22.2,59.7,22.1,59.5,21.8,59.3z
			"/>
		<path class="st1" d="M67.5,39.5c0.8,1.5,1.6,3,2.3,4.5c0,0.1,0.1,0.1,0.1,0.2c0,0.1,0.1,0.1,0.2,0.1c0.2,0,0.5,0,0.8,0
			c0,0,0.1,0,0.1-0.1c0-0.2,0.1-0.4,0.1-0.6c0-0.5,0.1-1.1,0.2-1.6c0-0.5,0.1-1,0.1-1.5c0-0.1,0-0.2,0-0.3c0-0.5,0-1,0-1.6
			c0-0.1,0-0.1-0.1-0.1c-0.1,0-0.2,0-0.2,0c-0.6,0-1.2,0-1.8,0v0c-0.6,0-1.2,0-1.8,0c-0.1,0-0.2,0-0.2,0c-0.1,0-0.1,0-0.1,0.1
			C67.3,39,67.4,39.2,67.5,39.5z"/>
		<path class="st1" d="M70.5,17.3c-1.9-0.8-3.9-1.4-5.9-1.8c-0.2,0-0.3,0-0.5-0.1c0,0,0,0-0.1,0c0,0,0,0,0,0c0.5,0.1,1,0.3,1.4,0.5
			c1.5,0.6,2.8,1.3,4,2.3c0.7,0.6,1.4,1.2,2.1,1.9c0.1,0.1,0.2,0.1,0.3,0.1c0.5,0,1.1,0,1.6,0c0,0,0,0,0,0c0.5,0,1,0,1.5,0
			c0.1,0,0.2,0,0.2,0c0,0,0,0,0,0c0,0,0,0,0,0c0,0-0.1-0.1-0.1-0.1C73.9,18.9,72.2,18,70.5,17.3z"/>
		<path class="st1" d="M86.2,25.3c-0.5-0.6-1-1.1-1.6-1.6c-1.3-1.2-2.6-2.2-4.1-3.1c-0.1-0.1-0.3-0.1-0.4-0.1c-1.2,0-2.5,0-3.7,0
			c-0.1,0-0.1,0-0.2,0c0,0,0,0,0,0c0,0,0,0,0,0c0.1,0.1,0.2,0.2,0.3,0.3c0.4,0.4,0.8,0.7,1.2,1.1c1.1,1.1,2.1,2.2,3,3.5
			c0,0.1,0.1,0.1,0.1,0.2c0,0,0.1,0.1,0.1,0.1c0.1,0,0.2,0,0.2,0c0.8,0,1.6,0,2.4,0c0,0,0,0,0,0c0.8,0,1.6,0,2.4,0
			c0.1,0,0.2,0,0.2,0c0,0,0.1,0,0.1,0c0,0,0-0.1,0-0.1C86.3,25.4,86.2,25.3,86.2,25.3z"/>
		<path class="st1" d="M75.7,20.4c-0.2,0-0.4,0-0.7,0c-0.9,0-1.8,0-2.7,0c-0.1,0-0.2,0-0.2,0c0,0,0,0,0,0c0,0,0.1,0.1,0.1,0.1
			c0.3,0.3,0.5,0.6,0.8,0.9c1.1,1.4,2,2.9,2.7,4.5c0.1,0.1,0.1,0.2,0.2,0.4c0.1,0,0.3,0,0.4,0c0,0,0,0,0.1,0c0,0,0,0,0,0
			c0.1,0,0.1,0,0.1-0.1c0-0.2,0-0.4,0-0.6c0-0.1,0-0.1,0.1-0.1c0.1,0,0.1,0,0.2,0c0.6,0,1.2,0,1.8,0l0,0c0.6,0,1.2,0,1.8,0
			c0.1,0,0.2,0,0.3,0c0-0.1-0.1-0.2-0.2-0.3c-0.6-0.9-1.3-1.7-2-2.5c-0.8-0.8-1.6-1.6-2.5-2.3C75.9,20.4,75.8,20.4,75.7,20.4z"/>
		<path class="st1" d="M89.5,31c-1.8,0-3.5,0-5.2,0c-0.1,0-0.2,0-0.2,0C84,31,84,31,84,31.1c0,0.4,0,0.8,0,1.2
			c0,0.2,0.1,0.2,0.3,0.2c1,0,2,0,3,0c0.9,0,1.9,0,2.9,0c0.1,0,0.2,0,0.3,0c0.1,0,0.1,0,0.1-0.1c-0.1-0.4-0.3-0.8-0.4-1.1
			C89.8,30.9,89.9,31,89.5,31z"/>
		<path class="st1" d="M69.7,26.6c-1.3,0-2.6,0-3.8,0c-0.1,0-0.1,0-0.2,0c-0.1,0-0.1,0-0.1,0.1c0,0.4,0.1,0.8,0.1,1.2
			c0.1,0.5,0.1,1,0.1,1.5c0,0.3,0,0.6,0.1,0.9c0,0.4,0.1,0.9,0.1,1.3c0,0.3,0,0.6,0.1,0.9c0,0,0,0,0,0.1c0,0,0,0,0.1,0
			c0.1,0,0.2,0,0.2,0c0.7,0,1.4,0,2.2,0v0c0.7,0,1.4,0,2.1,0c0.1,0,0.2,0,0.2,0c0,0,0.1,0,0.1-0.1c0,0,0-0.1,0-0.1
			c-0.1-0.6-0.1-1.2-0.2-1.8c-0.1-0.8-0.3-1.6-0.4-2.3c-0.1-0.5-0.2-1-0.3-1.5c0-0.1,0-0.2-0.2-0.2C69.8,26.6,69.8,26.6,69.7,26.6z"
			/>
		<path class="st1" d="M66.2,35.5c0,0.4,0,0.8,0,1.1c0,0.1,0,0.2,0,0.3c0,0.1,0,0.2,0.1,0.3c0.1,0.2,0.2,0.4,0.3,0.6
			c0.1,0.2,0.2,0.4,0.3,0.6c0,0.1,0.1,0.1,0.2,0.1c0,0,0.1,0,0.1,0c1.3,0,2.6,0,3.9,0c0.1,0,0.1,0,0.2,0c0,0,0,0,0.1,0
			c0,0,0-0.1,0-0.1c0-1,0-2.1-0.1-3.1c0,0,0,0,0,0c-0.1-0.7-0.1-1.4-0.2-2.1c0-0.1,0-0.1,0-0.2c0-0.1,0-0.1-0.1-0.1
			c-0.1,0-0.1,0-0.2,0c-0.7,0-1.4,0-2.2,0c0,0,0,0,0,0c-0.7,0-1.4,0-2.1,0c-0.1,0-0.2,0-0.2,0c-0.1,0-0.1,0-0.1,0.1
			c0,0.2,0,0.3,0,0.5C66.2,34,66.2,34.7,66.2,35.5z"/>
		<path class="st1" d="M90.5,32.8c0-0.1-0.1-0.1-0.2-0.1c-0.1,0-0.1,0-0.2,0c-1.9,0-3.8,0-5.8,0c-0.1,0-0.2,0-0.2,0
			c-0.1,0-0.1,0-0.1,0.1c0.2,0.7,0.3,1.4,0.4,2.1c0,0.2,0,0.3,0.1,0.5c0,0.1,0,0.1,0.2,0.1c0.1,0,0.2,0,0.2,0c1,0,1.9,0,2.9,0
			c1,0,2,0,3,0c0.1,0,0.2,0,0.2,0c0.1,0,0.1,0,0.1-0.1c-0.1-0.4-0.1-0.7-0.2-1.1C90.8,33.9,90.7,33.4,90.5,32.8z"/>
		<path class="st1" d="M68.2,20.4c-0.1,0-0.1,0-0.2,0c-0.1,0-0.1,0-0.1,0.1c0.1,0.2,0.2,0.4,0.3,0.7c0.7,1.5,1.2,3.1,1.7,4.7
			c0,0.1,0.1,0.3,0.1,0.4c0,0.1,0.1,0.2,0.2,0.2c0.1,0,0.1,0,0.2,0c0.8,0,1.6,0,2.4,0l0,0c0.8,0,1.6,0,2.4,0c0.1,0,0.2,0,0.3,0
			c0.1,0,0.1,0,0.1-0.1c0,0,0-0.1,0-0.1c-0.8-1.8-1.8-3.5-3.1-5.1c-0.2-0.2-0.4-0.4-0.5-0.6c-0.1-0.1-0.1-0.1-0.2-0.1
			c-0.1,0-0.1,0-0.2,0C70.4,20.4,69.3,20.4,68.2,20.4z"/>
		<path class="st1" d="M76.5,48.3C76.5,48.3,76.5,48.2,76.5,48.3C76.5,48.2,76.4,48.2,76.5,48.3c-0.1,0-0.1,0.1-0.1,0.1
			c-0.2,0.7-0.5,1.4-0.8,2.1c0,0,0,0.1,0,0.1c0,0,0,0.1,0.1,0.1c0.3,0,0.6,0,0.8,0c0.1,0,0.1,0,0.1-0.1c0-0.1,0-0.2,0-0.2
			c0-0.3,0-0.6,0-0.8l0,0c0-0.4,0-0.7,0-1C76.5,48.4,76.5,48.4,76.5,48.3z"/>
		<path class="st1" d="M71.2,44.2c0,0.2-0.1,0.2,0.2,0.2c0,0,0.1,0,0.1,0c1.6,0,3.2,0,4.7,0c0.1,0,0.1,0,0.2,0c0.1,0,0.1,0,0.1-0.1
			c0-0.1,0-0.2,0-0.2c0-0.8,0-1.7,0-2.5h0c0-0.9,0-1.7,0-2.6c0-0.3,0-0.3-0.3-0.3c-1.5,0-2.9,0-4.4,0c-0.3,0-0.3,0-0.3,0.3
			c0,0.8,0,1.7-0.1,2.5c0,0.3,0,0.6-0.1,1C71.3,43,71.2,43.6,71.2,44.2z"/>
		<path class="st1" d="M70.3,26.6c-0.1,0-0.1,0-0.1,0.1c0.2,1.1,0.5,2.1,0.7,3.2c0.1,0.8,0.2,1.6,0.3,2.4c0,0.3,0,0.2,0.3,0.2
			c1.6,0,3.2,0,4.7,0c0.3,0,0.3,0,0.3-0.3c0-1.2,0-2.3,0-3.5c0-0.1,0-0.3-0.1-0.4c-0.1-0.3-0.2-0.6-0.3-0.9
			c-0.1-0.3-0.2-0.6-0.3-0.8c0-0.1-0.1-0.1-0.2-0.1c-0.1,0-0.1,0-0.2,0c-0.8,0-1.6,0-2.4,0l0,0c-0.4,0-0.7,0-1.1,0
			C71.3,26.6,70.8,26.6,70.3,26.6z"/>
		<path class="st1" d="M76.4,28C76.4,28,76.4,28,76.4,28C76.4,28,76.5,28,76.4,28c0.1-0.2,0.1-0.4,0.1-0.6c0-0.2,0-0.4,0-0.7
			c0-0.1,0-0.1-0.1-0.1c-0.1,0-0.3,0-0.4,0c-0.1,0-0.1,0-0.1,0.1C76,27.1,76.2,27.5,76.4,28C76.4,27.9,76.4,28,76.4,28z"/>
		<path class="st1" d="M84,43.4C84,43.5,84,43.5,84,43.4C84,43.5,84,43.5,84,43.4c0.2-0.6,0.3-1.3,0.4-1.9c0-0.3,0.1-0.3-0.3-0.3
			c-0.1,0-0.1,0-0.1,0.1c0,0.3,0,0.7,0,1h0C84,42.7,84,43,84,43.4C84,43.4,84,43.4,84,43.4z"/>
		<path class="st1" d="M52.6,26.5c-0.2,0-0.2,0-0.2,0.2c0,0,0,0,0,0.1c-0.1,0.7-0.3,1.4-0.4,2.1c0,0.2-0.1,0.3-0.1,0.5l0,0
			c0,0,0,0,0,0.1c0,0,0,0,0.1,0c0,0,0-0.1,0.1-0.1c0.4-0.8,0.8-1.5,1.2-2.2c0.1-0.1,0.2-0.3,0.2-0.4c0,0,0-0.1,0-0.1
			C53.1,26.5,52.8,26.5,52.6,26.5z"/>
		<path class="st1" d="M87.4,50.4c0.7-0.9,1.4-1.9,1.9-3c0.4-0.9,0.8-1.7,1.1-2.7c0-0.1,0-0.1,0.1-0.2c0,0,0-0.1,0-0.1
			c-0.1,0-0.2,0-0.3,0c-1,0-1.9,0-2.9,0h0c-1,0-1.9,0-2.9,0c-0.1,0-0.2,0-0.2,0c-0.1,0-0.1,0-0.1,0.2c0,0.1,0,0.1,0,0.2
			c0,1.8,0,3.6,0,5.5c0,0.1,0,0.1,0,0.2c0,0.1,0,0.1,0.1,0.1c0,0,0.1,0,0.1,0c0.9,0,1.8,0,2.7,0C87.1,50.7,87.2,50.6,87.4,50.4
			C87.3,50.5,87.3,50.4,87.4,50.4z"/>
		<path class="st1" d="M84.4,35.2c-0.1-0.4-0.2-0.9-0.2-1.3c0-0.3-0.1-0.5-0.2-0.8c0,0,0,0,0-0.1c0,0,0,0,0,0.1c0,0.4,0,0.8,0,1.2v0
			c0,0.4,0,0.8,0,1.2c0,0.1,0,0.1,0.1,0.1c0.1,0,0.2,0,0.3,0c0.1,0,0.1,0,0.1-0.1C84.4,35.4,84.4,35.3,84.4,35.2z"/>
		<path class="st1" d="M90.7,44C90.7,44,90.7,44,90.7,44c0.2-0.9,0.4-1.7,0.6-2.6c0-0.3,0-0.3-0.2-0.3c-1,0-2.1,0-3.1,0
			c-0.8,0-1.7,0-2.5,0c-0.2,0-0.4,0-0.7,0c-0.2,0-0.2,0-0.2,0.2c0,0,0,0.1,0,0.1c-0.1,0.9-0.3,1.7-0.5,2.5c-0.1,0.4-0.2,0.4,0.3,0.4
			c2,0,3.9,0,5.9,0C90.6,44.4,90.5,44.4,90.7,44z"/>
		<path class="st1" d="M60.7,46.9c0,0-0.1,0-0.1,0c-0.6,0-1.2,0-1.8,0v0c-0.1,0-0.2,0-0.3,0c-0.5,0-1,0-1.5,0c-0.2,0-0.2,0-0.2,0.2
			c0,0.4,0.1,0.8,0.1,1.3c0,0.2,0,0.4,0.1,0.6c0,0.3,0.1,0.7,0.1,1c0,0.2,0,0.4,0.1,0.6c0,0.1,0,0.1,0.1,0.1c0,0,0.1,0,0.1,0
			c0.4,0,0.8,0,1.1,0c0.7,0,1.4,0,2.1,0c0.1,0,0.2,0,0.2-0.2c0,0,0,0,0-0.1c0-1.1,0-2.2,0-3.3C60.7,47.1,60.7,47.1,60.7,46.9
			C60.7,47,60.7,47,60.7,46.9z"/>
		<path class="st1" d="M60.6,50.8c-0.1,0-0.2,0-0.2,0c-1,0-1.9,0-2.9,0c-0.1,0-0.3,0-0.4,0c-0.1,0.2,0,0.3,0,0.5
			c0.1,0.6,0.2,1.3,0.3,1.9c0.2,0.9,0.3,1.9,0.5,2.8c0,0.2,0.1,0.3,0.1,0.5c0,0.1,0.1,0.1,0.1,0.1c0,0,0.1,0,0.1,0
			c0.7,0,1.5,0,2.2,0c0,0,0.1,0,0.1,0c0.1,0,0.1,0,0.1-0.1c0-0.1,0-0.2,0-0.2c0-0.8,0-1.7,0-2.5l0,0c0-0.8,0-1.7,0-2.6
			C60.7,51,60.7,51,60.6,50.8C60.7,50.8,60.7,50.8,60.6,50.8z"/>
		<path class="st1" d="M60.6,20.4c0,0-0.1,0-0.1,0c-0.8,0-1.6,0-2.3,0c-0.1,0-0.1,0-0.2,0c-0.1,0-0.1,0-0.1,0.1c0,0.1,0,0.1,0,0.1
			c-0.1,0.4-0.2,0.7-0.2,1.1c-0.2,1.1-0.4,2.2-0.5,3.4c0,0.1,0,0.2,0,0.2c0,0,0,0.1,0.1,0.1c0.2,0,0.4,0,0.6,0c0.8,0,1.5,0,2.3,0
			c0.2,0,0.3,0,0.3,0.2c0,0.1,0.1,0.1,0.1,0.2c0.1,0.1,0.1,0.2,0.2,0.3l0,0c0,0,0,0,0,0c0-0.1,0-0.1,0-0.2c0-0.9,0-1.8,0-2.6l0,0
			c0-0.8,0-1.7,0-2.6c0-0.1,0-0.2,0-0.2C60.7,20.4,60.7,20.4,60.6,20.4z"/>
		<path class="st1" d="M26.9,44.5c-0.5,0-0.9,0-1.3,0c0,0,0,0-0.1,0c-0.1,0-0.1,0-0.1,0.1c0,0,0,0.1,0,0.1c0.4,0.9,0.9,1.7,1.4,2.5
			c0,0,0.1,0.1,0.1,0.1c0,0,0,0,0,0c0,0,0,0,0,0c0-0.1,0-0.1,0-0.2c0-0.4,0-0.8,0-1.1h0c0-0.4,0-0.9,0-1.3
			C27.1,44.5,27.1,44.5,26.9,44.5z"/>
		<path class="st1" d="M21.5,26.4c0.9,0,1.7,0,2.6,0h0c0.9,0,1.7,0,2.6,0c0.1,0,0.1,0,0.2,0c0.2,0,0.2,0,0.2-0.2c0-0.2,0-0.4,0-0.6
			c0-0.3,0-0.3,0.3-0.3c0,0,0.1,0,0.1,0c0.8,0,1.6,0,2.4,0c0.4,0,0.3,0,0.6-0.2c0.6-0.5,1.3-1.1,2-1.6c1.5-1.1,3.2-2.1,4.9-2.9
			c0.1,0,0.2-0.1,0.2-0.2c-0.1-0.1-0.2,0-0.3,0c-1.8,0-3.7,0-5.5,0c-0.1,0-0.2,0-0.2,0c0,0-0.1,0-0.1,0c-0.1-0.1-0.1-0.1-0.2,0
			c-0.5,0.2-0.9,0.4-1.4,0.6c-2,0.9-3.8,2-5.6,3.2c-1,0.6-1.9,1.4-2.8,2.1c0,0-0.1,0.1-0.1,0.1c0,0,0,0,0,0
			C21.3,26.4,21.4,26.4,21.5,26.4z"/>
		<path class="st1" d="M60.6,15c-0.1,0.1-0.2,0.1-0.3,0.2c-0.3,0.2-0.5,0.5-0.7,0.8c-0.3,0.5-0.5,0.9-0.7,1.4
			c-0.3,0.8-0.6,1.6-0.8,2.5c0,0.1,0,0.1-0.1,0.2c0,0.1,0,0.1,0.1,0.2c0,0,0,0,0.1,0c0.8,0,1.6,0,2.4,0c0,0,0.1,0,0.1,0
			c0,0,0.1,0,0.1-0.1c0-0.1,0-0.2,0-0.2c0-0.8,0-1.5,0-2.3c0-0.8,0-1.5,0-2.3c0-0.1,0-0.2,0-0.2C60.7,15,60.7,15,60.6,15z"/>
		<path class="st1" d="M60.3,61.9C60.3,61.9,60.3,61.9,60.3,61.9C60.4,61.8,60.4,61.8,60.3,61.9c0-0.1,0-0.1,0-0.1
			c-0.2-0.2-0.4-0.4-0.6-0.6c-0.2-0.3-0.4-0.5-0.5-0.9c-0.4-0.8-0.7-1.5-0.9-2.3c-0.1-0.4-0.2-0.7-0.3-1.1c0-0.1,0-0.1-0.2-0.1
			c0,0-0.1,0-0.1,0c-0.4,0-0.9,0-1.3,0l0,0c-0.4,0-0.8,0-1.3,0c-0.1,0-0.2,0-0.2,0c0,0-0.1,0,0,0.1c0,0,0,0.1,0,0.1
			c0.3,0.5,0.6,1,0.9,1.5c0.6,0.8,1.2,1.6,2,2.2c0.7,0.5,1.4,1,2.3,1.2C60.1,61.8,60.2,61.8,60.3,61.9z"/>
		<path class="st1" d="M31.7,20.2c2,0,4.1,0,6.1,0c0.1,0,0.3,0,0.4-0.1c0.9-0.5,1.9-0.8,2.9-1.2c2-0.8,4-1.4,6.1-2
			c1.1-0.3,2.2-0.5,3.3-0.8c0.7-0.1,1.4-0.3,2.1-0.4c0.5-0.1,1.1-0.2,1.6-0.3c0.5-0.1,0.9-0.1,1.4-0.2c0.4,0,0.8-0.1,1.1-0.1
			c0.4,0,0.9-0.1,1.3-0.2c0.5-0.1,1-0.1,1.5-0.2c0.3,0,0.6,0,0.8-0.1v0c0,0,0.1,0,0.2,0c0,0,0.1,0,0.1,0c0,0,0,0,0-0.1
			c0,0,0-0.1-0.1-0.1c0,0-0.1,0-0.1,0c-0.2,0-0.3,0-0.5,0c-1.1,0-2.2,0-3.4,0.1c0,0-0.1,0-0.2,0c-0.5,0-1,0.1-1.4,0.1
			c-0.4,0-0.8,0-1.2,0.1c-0.2,0-0.5,0-0.8,0.1c-0.5,0.1-1,0.1-1.5,0.2c-0.4,0-0.9,0.1-1.3,0.1c-0.8,0.1-1.6,0.2-2.4,0.3
			c-1,0.1-1.9,0.3-2.9,0.5c-1.7,0.3-3.4,0.7-5.1,1.1C37.3,18,34.6,18.9,32,20c-0.1,0.1-0.3,0.1-0.4,0.2c0,0,0,0,0,0c0,0,0,0,0,0
			C31.6,20.2,31.7,20.2,31.7,20.2z"/>
		<path class="st1" d="M37.7,20.6c-0.5,0.2-0.9,0.5-1.4,0.7c-1.9,1-3.6,2.2-5.3,3.5c-0.2,0.1-0.3,0.3-0.5,0.4c0,0,0,0,0,0.1
			c0,0,0,0,0.1,0c0.1,0,0.2,0,0.3,0c1.3,0,2.6,0,3.9,0c0.1,0,0.2,0,0.2,0c0.1,0,0.1,0,0.1,0.2c0,0.2,0,0.4,0,0.5c0,0.1,0,0.2,0,0.2
			c0.1,0,0.1-0.1,0.2-0.2c1-1.2,2.1-2.3,3.3-3.2c1-0.8,2.1-1.6,3.2-2.3c0,0,0.1,0,0.1-0.1c0,0,0,0,0,0c0,0,0,0,0,0
			c-0.1,0-0.2,0-0.2,0c-0.5,0-1.1,0-1.7,0l0,0c-0.5,0-1.1,0-1.6,0C38.1,20.4,37.9,20.5,37.7,20.6z"/>
		<path class="st1" d="M50.2,56.5C50.2,56.5,50.2,56.5,50.2,56.5c0-0.1,0-0.2-0.1-0.2c-0.7-0.9-1.3-1.8-1.8-2.8
			c-0.2-0.3-0.4-0.7-0.5-1c-0.1-0.2-0.1-0.2-0.4-0.3c-0.4,0-0.8-0.1-1.2-0.2c-0.9-0.2-1.9-0.3-2.8-0.5c-0.9-0.1-1.7-0.3-2.6-0.4
			c-0.3,0-0.2,0-0.1-0.3c0,0,0-0.1,0-0.1c0,0,0,0,0,0c-0.1,0-0.2,0-0.4,0c0,0,0,0,0,0.1c0,0.1,0,0.1,0.1,0.2
			c0.2,0.3,0.3,0.5,0.5,0.8c0.7,1,1.4,2,2.2,2.9c0.6,0.6,1.2,1.2,1.8,1.7c0.1,0.1,0.3,0.2,0.5,0.2c0.8,0,1.5,0,2.3,0l0,0
			c0.8,0,1.5,0,2.3,0C50,56.6,50.1,56.6,50.2,56.5z"/>
		<path class="st1" d="M31.1,51.8c0.5,0.4,1,0.8,1.5,1.2c1.7,1.3,3.6,2.4,5.5,3.4c0.2,0.1,0.3,0.1,0.5,0.1c0.6,0,1.2,0,1.9,0l0,0
			c0.6,0,1.2,0,1.8,0c0.1,0,0.2,0,0.2,0c0,0,0,0,0,0c0,0,0,0,0,0c0,0-0.1-0.1-0.1-0.1c-1.1-0.7-2.2-1.4-3.2-2.3
			c-1.1-0.9-2.2-1.9-3.1-3C36,51,36,51,35.9,50.9c0,0-0.1-0.1-0.1-0.1c-0.2,0-0.4,0-0.6,0c0,0-0.1,0.1-0.1,0.1c0,0.1,0,0.1,0,0.2
			c0,0.1,0,0.3,0,0.4c0,0.1,0,0.1-0.1,0.1c-0.1,0-0.2,0-0.2,0c-1.1,0-2.3,0-3.5,0c-0.1,0-0.2,0-0.3,0c0,0,0,0,0,0c0,0,0,0,0,0
			C31,51.7,31,51.8,31.1,51.8z"/>
		<path class="st1" d="M39,56.9c0.7,0.3,1.5,0.7,2.2,1c1.6,0.7,3.3,1.2,5,1.7c1.1,0.3,2.2,0.6,3.3,0.8c0.8,0.2,1.7,0.4,2.5,0.5
			c0.4,0.1,0.7,0.1,1.1,0.2c0.1,0,0.1,0,0.2,0c0,0,0,0,0,0c0,0,0,0,0,0c-0.1,0-0.1,0-0.2-0.1c-0.7-0.2-1.5-0.5-2.2-0.8
			c-0.2-0.1-0.5-0.2-0.8-0.3c-1.5-0.5-2.9-1-4.3-1.7c-1-0.4-1.9-0.9-2.8-1.5c-0.1-0.1-0.3-0.1-0.5-0.1c-0.6,0-1.2,0-1.8,0l0,0
			c-0.6,0-1.2,0-1.8,0c-0.1,0-0.2,0-0.3,0c0,0,0,0-0.1,0c0,0,0,0,0,0C38.8,56.8,38.9,56.8,39,56.9z"/>
		<path class="st1" d="M56.7,61.6C56.7,61.6,56.7,61.5,56.7,61.6C56.7,61.5,56.7,61.5,56.7,61.6c-0.1,0-0.2,0-0.3,0
			C56.5,61.6,56.6,61.6,56.7,61.6z"/>
		<path class="st1" d="M56,61.5c0.1,0,0.3,0,0.4,0c0,0,0,0,0,0c-0.2,0-0.4-0.1-0.5-0.1c-0.9-0.2-1.8-0.4-2.7-0.6
			c-0.1,0-0.2-0.1-0.2,0c0.1,0.1,0.1,0.1,0.2,0.1c0.2,0.1,0.3,0.1,0.5,0.1C54.4,61.2,55.2,61.4,56,61.5z"/>
		<path class="st1" d="M58.1,61.6c0.3,0.1,0.7,0.1,1,0.1c0.1,0,0.1,0,0.2,0c0,0,0,0,0,0c0,0,0,0,0,0c0,0-0.1,0-0.1,0
			c-0.8-0.3-1.5-0.8-2.1-1.4c-0.5-0.5-1-1-1.4-1.6c-0.4-0.6-0.8-1.1-1.1-1.7c-0.1-0.3-0.1-0.2-0.4-0.2c-0.6,0-1.1,0-1.7,0
			c0,0,0,0,0,0c-0.6,0-1.2,0-1.8,0c-0.1,0-0.1,0-0.2,0l0,0c0.1,0.1,0.1,0.2,0.2,0.2c0.6,0.7,1.3,1.4,2,1.9c1.2,1,2.6,1.8,4.1,2.4
			C57.3,61.4,57.7,61.5,58.1,61.6z"/>
		<path class="st1" d="M26.8,50.7c0.1,0,0.1,0,0.2,0c0.1,0,0.1,0,0.1-0.1c0-0.1,0-0.2,0-0.2c0-0.2,0-0.4,0-0.6c0-0.6,0-1.2,0-1.8
			c0-0.2-0.1-0.3-0.2-0.5c-0.4-0.6-0.8-1.2-1.1-1.9c-0.2-0.3-0.3-0.6-0.4-0.9c-0.1-0.1-0.1-0.1-0.2-0.1c-0.1,0-0.1,0-0.2,0
			c-1.4,0-2.7,0-4.1,0c-1.4,0-2.8,0-4.2,0c-0.1,0-0.2,0-0.3,0c0,0,0,0,0,0.1c0,0.1,0.1,0.2,0.1,0.2c0.3,0.6,0.7,1.2,1.1,1.7
			c1,1.5,2.2,2.7,3.6,3.9c0.1,0,0.1,0.1,0.2,0.2c0,0,0.1,0,0.2,0.1c0,0,0.1,0,0.1,0C23.3,50.7,25.1,50.7,26.8,50.7z"/>
		<path class="st1" d="M66.5,69l-0.7,0.1l0.1,1.1l0.7-0.1c0.1,0,0.2,0,0.4-0.1c0.1,0,0.2-0.1,0.2-0.2c0.1-0.1,0.1-0.2,0.1-0.3
			c0-0.2-0.1-0.3-0.2-0.4C67,69,66.7,69,66.5,69z"/>
		<path class="st1" d="M34.5,56.6c1,0,2.1,0,3.1,0c0.1,0,0.2,0,0.3,0c0,0,0,0,0,0c0,0,0,0,0,0c-0.1,0-0.1-0.1-0.2-0.1
			c-0.8-0.4-1.6-0.8-2.3-1.3c-1.4-0.8-2.7-1.8-4-2.8c-0.2-0.2-0.4-0.4-0.6-0.5c-0.1-0.1-0.2-0.1-0.3-0.1c-0.1,0-0.1,0-0.2,0
			c-0.9,0-1.8,0-2.7,0c-0.1,0-0.3,0-0.4,0c-0.1-0.1,0-0.3,0-0.4c0,0,0,0,0,0c0-0.4,0-0.3-0.3-0.3c-1.6,0-3.2,0-4.9,0
			c-0.1,0-0.2,0-0.2,0c0,0,0,0,0,0c0,0,0,0,0,0c0.1,0.1,0.2,0.2,0.2,0.2c0.8,0.6,1.6,1.3,2.5,1.8c2.1,1.4,4.2,2.5,6.5,3.5
			c0.1,0.1,0.3,0.1,0.4,0.1C32.3,56.6,33.4,56.6,34.5,56.6L34.5,56.6z"/>
		<path class="st1" d="M27.1,41.5L27.1,41.5c0-0.9,0-1.7,0-2.6c0-0.1,0-0.1,0-0.2c0-0.1,0-0.1-0.1-0.1c0,0,0,0-0.1,0
			c-0.9,0-1.8,0-2.7,0c0,0-0.1,0-0.1,0c0,0,0,0-0.1,0.1c0,0.1,0,0.1,0,0.2c0,0.5,0.1,1,0.1,1.4c0.2,1.1,0.4,2.1,0.8,3.1
			c0.1,0.3,0.2,0.5,0.3,0.8c0,0.1,0.1,0.2,0.3,0.2c0,0,0,0,0.1,0c0.4,0,0.8,0,1.2,0c0.3,0,0.3,0,0.3-0.3
			C27.1,43.2,27.1,42.3,27.1,41.5z"/>
		<polygon class="st1" points="60.5,71.5 61.6,71.5 61,69.6 		"/>
		<path class="st1" d="M72.4,68.5c-0.1-0.1-0.3-0.1-0.6,0L71,68.5l0.2,1h0l0.7-0.1c0.1,0,0.2-0.1,0.4-0.1c0.1,0,0.2-0.1,0.2-0.2
			c0-0.1,0.1-0.2,0-0.3C72.6,68.7,72.5,68.5,72.4,68.5z"/>
		<path class="st1" d="M59.9,1C27.4,1,1,17.9,1,38.7s26.3,37.7,58.8,37.7c32.5,0,58.8-16.9,58.8-37.7C118.7,17.9,92.4,1,59.9,1z
			 M111.6,26.3L111.6,26.3l0.8,1.4l-3.5,1.8l1.2,2.2l-1.1,0.6l-1.9-3.7L111.6,26.3z M109.4,23.2l-2.6,5l-1.1-1.2l0.5-0.8l0,0
			l-1.2-1.4l-0.8,0.4L103,24l5.2-2L109.4,23.2z M104.3,18.3c0.4,0.3,0.7,0.6,0.8,0.8c0.2,0.2,0.2,0.5,0.2,0.8c0,0.3-0.1,0.6-0.3,0.8
			c-0.2,0.2-0.4,0.4-0.6,0.5c-0.2,0.1-0.5,0.1-0.7,0.1c-0.2,0-0.3-0.1-0.6-0.2c0.1,0.2,0.2,0.3,0.2,0.4c0,0.1,0,0.2,0,0.4
			s0,0.3,0,0.4l-0.3,1.7l-1.4-1.1l0.3-1.8c0-0.2,0.1-0.4,0-0.5c0-0.1-0.1-0.2-0.2-0.3l-0.1-0.1l-1.3,1.7l-1.3-1l0,0l3.2-4.1
			L104.3,18.3z M97.3,13.5l3.7,2.3l-0.6,1l-2.3-1.4L97.6,16l2.1,1.3l-0.6,0.9l-2.1-1.3l-0.5,0.9l2.4,1.5l-0.6,1l-3.7-2.3L97.3,13.5
			L97.3,13.5z M91.1,11.9l0.5-1.2l0,0l0,0l0,0l4.4,2.1l-0.5,1.2l-1.5-0.7l-1.7,3.6L91,16.1l1.7-3.6L91.1,11.9z M89.8,9.8l0.1,5.6
			l-1.6-0.6l0-0.9l-1.7-0.6L86,14l-1.5-0.6l3.6-4.2L89.8,9.8z M83.2,7.7l-1,3.8l2.4,0.6l-0.3,1.2l-4-1.1l1.4-5L83.2,7.7z M80.5,6.9
			L79.2,12l-1.6-0.4l1.3-5.1L80.5,6.9z M73,5.4l4.8,0.9l-0.2,1.3L76,7.2l-0.7,3.9l-1.6-0.3l0.7-3.9l-1.6-0.3L73,5.4z M68.5,4.8
			L68.5,4.8L68.5,4.8L70.1,5l-0.4,3.9l2.5,0.3L72,10.4L67.9,10L68.5,4.8L68.5,4.8z M62,4.5l1.6,0.1l-0.1,3.2c0,0.3,0.1,0.5,0.2,0.7
			s0.4,0.2,0.7,0.3c0.3,0,0.5-0.1,0.7-0.2c0.2-0.1,0.2-0.4,0.3-0.7l0.1-3.2L67,4.6l-0.1,3.1c0,0.3-0.1,0.6-0.2,0.9
			c-0.1,0.3-0.3,0.5-0.5,0.7c-0.2,0.2-0.4,0.3-0.7,0.4c-0.3,0.1-0.7,0.2-1.1,0.1c-0.3,0-0.5,0-0.8-0.1c-0.3-0.1-0.6-0.1-0.7-0.2
			c-0.2-0.1-0.4-0.3-0.5-0.5c-0.2-0.2-0.3-0.4-0.3-0.6c-0.1-0.3-0.1-0.6-0.1-0.9L62,4.5z M57.1,4.4l0.8,3.2l0.8-3.2h2.1v5.2h-1.3v-4
			l-1,4h-1.2l-1-4v4H55V4.4H57.1z M51.2,4.8l0.1,1.1l-2.4,0.2L49,7.1l2-0.2l0.1,1l-2,0.2l0.2,2.1l-1.6,0.2l-0.5-5.2L51.2,4.8z
			 M41.4,7c0.4-0.6,1-0.9,1.8-1.1c0.8-0.2,1.6-0.1,2.1,0.3c0.5,0.4,0.9,1,1.1,1.8c0.1,0.6,0.1,1.1,0,1.5c-0.1,0.4-0.4,0.8-0.7,1.1
			c-0.3,0.3-0.8,0.5-1.4,0.6c-0.6,0.1-1.1,0.1-1.5,0c-0.4-0.1-0.8-0.3-1.1-0.7c-0.3-0.3-0.5-0.8-0.6-1.4l0,0C40.9,8.2,41,7.6,41.4,7
			z M35,8c0.5-0.2,0.8-0.2,1.1-0.2c0.3,0,0.5,0.1,0.8,0.3c0.2,0.2,0.4,0.4,0.5,0.7c0.1,0.3,0.1,0.5,0,0.8s-0.2,0.4-0.3,0.6
			c-0.1,0.1-0.3,0.2-0.5,0.4c0.2,0,0.4,0,0.5,0.1c0.1,0,0.2,0.1,0.3,0.2c0.1,0.1,0.2,0.2,0.3,0.2l1.2,1.2l-1.7,0.5l-1.3-1.3
			c-0.2-0.2-0.3-0.3-0.4-0.3c-0.1,0-0.3,0-0.4,0l-0.1,0l0.6,2L34,13.8v0l-1.5-5L35,8z M27.2,10.9L27.2,10.9l4-1.5l0.4,1l-2.5,1
			l0.3,0.8l2.3-0.9l0.4,1l-2.3,0.9l0.4,1l2.6-1l0.4,1.1l-4.1,1.6L27.2,10.9L27.2,10.9L27.2,10.9z M21.6,13.9l2.7-1.4
			c0.4-0.2,0.9-0.3,1.2-0.2c0.4,0.1,0.6,0.3,0.8,0.6c0.1,0.3,0.2,0.6,0.1,0.8c-0.1,0.2-0.2,0.4-0.3,0.6c0.4-0.1,0.7-0.1,1,0
			c0.3,0.1,0.5,0.3,0.6,0.6c0.1,0.2,0.2,0.5,0.2,0.7s-0.1,0.5-0.2,0.7c-0.1,0.1-0.2,0.3-0.5,0.4c-0.3,0.2-0.5,0.3-0.6,0.4l-2.5,1.3
			L21.6,13.9L21.6,13.9z M15.4,18.3l1.7-1.2l2.5,2.1l-1.2-3l1.7-1.2l3.1,4.2l-1.1,0.8l-2.3-3.2l1.5,3.8l-1,0.7l-3.2-2.6l2.3,3.2
			l-1.1,0.8L15.4,18.3L15.4,18.3z M13.8,19.5l0.8,0.8l-1.8,2l0.6,0.6l1.7-1.8l0.8,0.7l-1.7,1.8l0.8,0.7l1.9-2l0.9,0.8l-3,3.2
			l-3.8-3.6l0,0L13.8,19.5z M6.4,28.9l1.2-1.8l3.1,1.1l-2.2-2.5l1.2-1.8L14,27l-0.7,1.1L10,25.9l2.7,3.1l-0.7,1l-3.9-1.4l3.3,2.2
			l-0.7,1.1L6.4,28.9L6.4,28.9z M8.1,51.9L9,50.3c0.1-0.2,0.2-0.3,0.2-0.5c0-0.1,0-0.3-0.1-0.4L9,49.3l-1.8,1.1L6.4,49v0l4.5-2.7
			l1.4,2.3c0.3,0.4,0.4,0.8,0.5,1s0,0.5-0.1,0.8c-0.1,0.3-0.3,0.5-0.6,0.6c-0.2,0.2-0.5,0.2-0.7,0.2c-0.2,0-0.5-0.1-0.7-0.2
			c-0.1-0.1-0.3-0.2-0.5-0.4c0,0.2,0.1,0.4,0,0.5c0,0.1,0,0.2-0.1,0.4S10,51.9,9.9,52L9,53.4L8.1,51.9z M12.3,57.1l-2.9-3.3l3.9-3.4
			v0l2.8,3.3l-0.8,0.7l-1.8-2L13,52.8l1.7,1.9l-0.8,0.7l-1.7-1.9l-0.8,0.7l1.8,2.1L12.3,57.1z M16.9,60c-0.3,0.1-0.6,0.1-1,0
			c-0.3-0.1-0.7-0.3-1-0.6c-0.4-0.4-0.8-0.7-0.9-1.1c-0.2-0.4-0.2-0.8-0.2-1.3c0.1-0.5,0.3-1,0.7-1.5c0.5-0.7,1.1-1,1.8-1.1
			c0.7-0.1,1.3,0.2,2,0.7c0.5,0.4,0.8,0.8,1,1.3c0.1,0.4,0.1,0.9-0.1,1.5l-1.3-0.7c0.1-0.2,0.1-0.3,0.1-0.4c0-0.1,0-0.3-0.1-0.4
			c-0.1-0.1-0.1-0.2-0.3-0.3c-0.3-0.2-0.6-0.3-0.9-0.2c-0.2,0.1-0.5,0.3-0.8,0.7c-0.4,0.5-0.5,0.8-0.5,1.1c0,0.3,0.1,0.5,0.4,0.7
			c0.2,0.2,0.5,0.3,0.7,0.2c0.2,0,0.5-0.2,0.7-0.4l0,0l0.8,1.2C17.6,59.7,17.2,59.9,16.9,60z M22.1,63c-0.4,0.2-0.8,0.3-1.2,0.3
			c-0.4,0-0.9-0.2-1.4-0.5c-0.5-0.3-0.8-0.7-1.1-1c-0.2-0.4-0.3-0.8-0.3-1.3c0-0.5,0.2-1,0.5-1.5l0,0c0.5-0.7,1.1-1.1,1.7-1.2
			c0.7-0.1,1.3,0.1,2,0.5c0.7,0.5,1.1,1,1.3,1.7c0.1,0.6,0,1.3-0.5,2C22.9,62.5,22.5,62.8,22.1,63z M26,66.2
			c-0.4-0.1-0.8-0.2-1.2-0.4c-0.5-0.3-0.9-0.6-1.2-1c-0.2-0.4-0.4-0.8-0.4-1.2c0-0.5,0.1-1,0.4-1.4c0.3-0.5,0.6-0.9,1-1.2
			c0.4-0.3,0.8-0.4,1.4-0.4c0.4,0,0.9,0.1,1.4,0.4c0.5,0.3,0.9,0.5,1.1,0.7c0.2,0.2,0.3,0.5,0.4,0.8c0.1,0.3,0.1,0.6,0,0.9L27.3,63
			c0-0.2,0-0.4-0.1-0.5c-0.1-0.2-0.2-0.3-0.5-0.4c-0.3-0.2-0.6-0.2-0.9-0.1c-0.3,0.1-0.6,0.4-0.8,0.9c-0.3,0.5-0.4,0.9-0.3,1.2
			s0.3,0.6,0.6,0.7c0.2,0.1,0.3,0.1,0.5,0.2c0.2,0,0.4,0,0.6,0l0.2-0.4l-0.9-0.5l0,0l0,0l0,0l0.5-1l2.2,1.1l-1,2
			C26.9,66.3,26.4,66.3,26,66.2z M31.2,68.5l-0.7-3.4l-1.1,2.6L28,67.2c0,0,2-4.8,2-4.8l1.4,0.6l0.7,3.4l1.1-2.7l1.4,0.6l-2,4.8
			L31.2,68.5z M35.3,69.9l-1.5-0.5l1.7-4.9L37,65L35.3,69.9z M39.2,71l-1.6-0.4l1-3.8l-1.6-0.4l0.3-1.2v0l4.7,1.3l-0.3,1.2l-1.6-0.4
			L39.2,71z M43.2,71.9l-1.6-0.4l1.2-5.1l0,0h0l0,0l1.6,0.4L43.2,71.9z M49.9,70.3c-0.1,0.6-0.3,1.1-0.5,1.4c-0.3,0.3-0.6,0.6-1,0.8
			c-0.4,0.1-0.9,0.2-1.5,0.1c-0.6-0.1-1-0.3-1.4-0.5c-0.3-0.2-0.6-0.6-0.8-1c-0.2-0.4-0.2-1-0.1-1.6v0c0.1-0.8,0.5-1.5,1-1.9
			c0.5-0.4,1.2-0.5,2.1-0.4c0.9,0.1,1.5,0.5,1.9,1C49.9,68.8,50,69.5,49.9,70.3z M55.3,73.4l-1.5-0.1l-1.7-3l-0.2,2.9L50.3,73
			l0.4-5.2h0l1.5,0.1l1.7,3l0.2-2.9l1.5,0.1L55.3,73.4z M55.2,62.4c-0.6,0-1.2-0.1-1.8-0.1c-0.3,0-0.6,0-0.9-0.1
			c-0.5,0-0.9-0.1-1.4-0.2c-0.4,0-0.7-0.1-1.1-0.1c-0.5-0.1-1-0.1-1.5-0.2c-0.5-0.1-0.9-0.1-1.4-0.2c-0.5-0.1-1.1-0.2-1.6-0.3
			c-0.9-0.2-1.8-0.3-2.7-0.5c-1-0.2-2.1-0.5-3.1-0.8c-1.9-0.5-3.8-1.1-5.7-1.8c-2.8-1-5.4-2.2-7.9-3.8c-1.5-0.9-3-1.9-4.3-3
			c-1.6-1.3-3-2.8-4.2-4.4c-1.1-1.5-1.9-3-2.4-4.8c-0.2-0.7-0.3-1.3-0.4-2c0-0.4-0.1-0.9-0.1-1.3c0-0.7,0-1.4,0.2-2.1
			c0.2-1.5,0.7-2.9,1.4-4.2c0.7-1.4,1.6-2.6,2.6-3.8c0.6-0.7,1.3-1.4,2.1-2.1c1.3-1.2,2.7-2.2,4.2-3.2c1.8-1.1,3.6-2.1,5.5-2.9
			c2-0.9,4.2-1.7,6.3-2.4c1.6-0.5,3.2-1,4.8-1.3c1.3-0.3,2.7-0.6,4-0.8c0.8-0.1,1.6-0.3,2.3-0.4c0.8-0.1,1.6-0.2,2.4-0.3
			c0.6-0.1,1.3-0.1,1.9-0.2c0.5,0,1-0.1,1.6-0.2c0.3,0,0.7,0,1-0.1c0.5,0,1-0.1,1.6-0.1c0,0,0.1,0,0.1,0c0.7,0,1.4,0,2.1-0.1
			c0.8,0,1.5,0,2.3-0.1c0.4,0,0.7,0,1.1,0c0,0,0,0,0,0l0,0c1,0,1.9,0,2.9,0.1c0.8,0,1.6,0.1,2.4,0.1c0.5,0,1.1,0.1,1.6,0.1
			c0.7,0.1,1.3,0.1,2,0.2c0.7,0.1,1.3,0.1,2,0.2c1,0.1,2,0.3,3,0.5c1.6,0.3,3.2,0.6,4.8,1c2,0.5,3.9,1,5.8,1.6c3,1,5.9,2.2,8.6,3.6
			c1.8,1,3.6,2.1,5.3,3.4c1.1,0.9,2.1,1.8,3.1,2.8c1,1.1,2,2.3,2.7,3.6c0.8,1.3,1.4,2.7,1.7,4.2c0.1,0.5,0.2,1,0.2,1.4
			c0,0.5,0,0.9,0,1.4c0,1.1-0.2,2.2-0.5,3.2c-0.5,1.7-1.3,3.3-2.3,4.8c-1,1.4-2.1,2.6-3.4,3.8c-1.8,1.6-3.7,2.9-5.7,4.1
			c-2.4,1.4-4.8,2.5-7.4,3.5c-2.4,0.9-4.8,1.6-7.2,2.2c-1.3,0.3-2.7,0.6-4,0.9c-0.9,0.2-1.9,0.3-2.8,0.5c-0.7,0.1-1.4,0.2-2.1,0.3
			c-0.6,0.1-1.2,0.1-1.8,0.2c-0.5,0.1-1,0.1-1.5,0.1c-0.6,0-1.2,0.1-1.9,0.2c0,0,0,0-0.1,0c-0.5,0-1,0.1-1.5,0.1
			c-0.7,0-1.5,0.1-2.2,0.1c-0.2,0-0.5,0-0.7,0c-1.2,0-2.3,0-3.5,0c-0.7,0-1.5,0-2.2-0.1C56.5,62.5,55.8,62.4,55.2,62.4z M62.2,73.5
			L62,72.6l-1.8,0l-0.2,0.9l-1.7,0l1.9-5.3l1.8,0l2.1,5.2L62.2,73.5z M67.8,73.1l-1-1.5c-0.1-0.2-0.2-0.3-0.3-0.4
			c-0.1-0.1-0.3-0.1-0.4-0.1h-0.1l0.2,2.1l-1.6,0.1l0,0h0l0,0L64,68.2l2.7-0.2c0.5,0,0.9,0,1.1,0c0.3,0.1,0.5,0.2,0.7,0.4
			c0.2,0.2,0.3,0.5,0.3,0.8c0,0.3,0,0.5-0.1,0.8c-0.1,0.2-0.3,0.4-0.5,0.6c-0.1,0.1-0.3,0.2-0.6,0.3c0.2,0.1,0.3,0.1,0.4,0.2
			c0.1,0,0.2,0.1,0.3,0.2s0.2,0.2,0.2,0.3l0.9,1.4L67.8,73.1z M73.4,72.4L72.3,71c-0.1-0.2-0.3-0.3-0.4-0.3
			c-0.1-0.1-0.3-0.1-0.4-0.1l-0.1,0l0.3,2.1l-1.6,0.2v0l-0.8-5.2l2.7-0.4c0.5-0.1,0.9-0.1,1.1-0.1c0.3,0,0.5,0.2,0.7,0.4
			c0.2,0.2,0.3,0.5,0.4,0.8c0.1,0.3,0,0.5-0.1,0.8c-0.1,0.2-0.2,0.4-0.4,0.6c-0.1,0.1-0.3,0.2-0.5,0.3c0.2,0,0.3,0.1,0.4,0.1
			c0.1,0,0.2,0.1,0.3,0.2c0.1,0.1,0.2,0.2,0.3,0.3l1,1.4L73.4,72.4z M79.1,71.3l-0.4-0.8l-1.8,0.4l0,0.9l-1.6,0.4l0.7-5.5l1.7-0.4
			l3.1,4.7L79.1,71.3z M84.6,69.8l-2.7-2.2l0.8,2.7l-1.5,0.4l-1.5-5l0,0l1.4-0.4l2.7,2.2l-0.8-2.8l1.5-0.4l1.5,5L84.6,69.8z
			 M90.6,67.5c-0.3,0.2-0.7,0.5-1.1,0.7c-0.6,0.2-1.1,0.3-1.5,0.3c-0.4,0-0.8-0.2-1.2-0.5c-0.4-0.3-0.6-0.7-0.8-1.2
			c-0.2-0.5-0.3-1-0.2-1.5c0.1-0.5,0.3-0.9,0.6-1.3c0.3-0.3,0.7-0.5,1.2-0.8c0.5-0.2,1-0.3,1.3-0.3c0.3,0,0.6,0,0.8,0.2
			c0.3,0.1,0.5,0.3,0.7,0.6L89,64.5c-0.1-0.2-0.3-0.3-0.5-0.3c-0.2,0-0.4,0-0.6,0.1c-0.3,0.1-0.5,0.3-0.7,0.7
			c-0.1,0.3-0.1,0.7,0.1,1.2c0.2,0.5,0.5,0.9,0.8,1c0.3,0.1,0.6,0.2,1,0c0.2-0.1,0.3-0.2,0.4-0.3c0.1-0.1,0.3-0.3,0.4-0.5l-0.2-0.5
			l-1,0.4l0,0l-0.4-1l2.3-0.9l0.8,2.1C91.2,66.9,90.9,67.3,90.6,67.5z M92.7,66.8l-2.4-4.7h0l3.9-2l0.5,1l-2.4,1.2l0.4,0.7l2.2-1.1
			l0.5,0.9l-2.2,1.1l0.5,0.9l2.5-1.3l0.5,1L92.7,66.8z M101.3,61.9L99,58.6l1.4,3.9l-1,0.7l-3.1-2.7l2.2,3.3l-1.1,0.7l-2.9-4.3v0
			l1.8-1.2l2.5,2.2L97.7,58l1.8-1.2l2.9,4.3L101.3,61.9z M103.2,60.6l-3.3-4.1l0,0l3.4-2.7l0.7,0.9l-2.1,1.7l0.5,0.7l2-1.6l0.7,0.8
			l-2,1.6l0.7,0.8l2.2-1.8l0.7,0.9L103.2,60.6z M110.6,53.5l-1,1.1l-3.4-0.5l2.1,1.9l-1,1.1l-3.9-3.5l0,0l1-1.1l3.5,0.5l-2.2-1.9
			l0.9-1l2.5-4.2l1.1,0.7l-0.8,1.4l3.4,2l-0.8,1.4l-3.4-2l-0.8,1.4l-0.1-0.1L110.6,53.5z"/>
		<polygon class="st1" points="77,69.7 78.1,69.5 78.1,69.5 77.1,67.8 		"/>
		<path class="st1" d="M60.7,62.3C60.7,62.3,60.7,62.2,60.7,62.3c0.1-0.1,0-0.2,0-0.2c0,0-0.1,0-0.1,0c-0.5,0-1,0-1.6-0.1
			c-0.1,0-0.1,0-0.2,0c-0.5,0-1-0.1-1.5-0.2c-0.3,0-0.7-0.1-1-0.1c-0.4-0.1-0.7-0.1-1.1-0.2c-0.6-0.1-1.1-0.2-1.7-0.2
			c-1-0.2-2-0.3-3-0.5c-1.7-0.3-3.4-0.8-5.1-1.3c-2.4-0.7-4.7-1.6-6.9-2.7c-0.1-0.1-0.3-0.1-0.5-0.1c-1,0-2.1,0-3.1,0c0,0,0,0,0,0
			c-1,0-2,0-3,0c-0.1,0-0.1,0-0.2,0c0,0-0.1,0-0.1,0c0,0,0,0-0.1,0c0,0,0,0,0,0c0.2,0.1,0.5,0.2,0.7,0.3c2.2,0.9,4.4,1.7,6.7,2.3
			c1.4,0.4,2.8,0.8,4.3,1.1c1.2,0.3,2.4,0.5,3.6,0.7c0.9,0.1,1.7,0.3,2.6,0.4c0.7,0.1,1.5,0.2,2.2,0.3c0.2,0,0.5,0,0.7,0.1
			c0.3,0,0.6,0.1,0.9,0.1c0.3,0,0.7,0.1,1,0.1c0.5,0,1,0.1,1.5,0.1c0.1,0,0.2,0,0.3,0c0.6,0,1.2,0.1,1.9,0.1c0.4,0,0.8,0,1.2,0
			C59.6,62.2,60.1,62.3,60.7,62.3C60.6,62.3,60.6,62.3,60.7,62.3z"/>
		<path class="st1" d="M25.4,32.5c0.5,0,1,0,1.5,0c0,0,0.1,0,0.1,0c0.1,0,0.1,0,0.1-0.1c0-0.1,0-0.2,0-0.2c0-0.4,0-0.9,0-1.3
			c0,0,0,0,0,0c0-0.5,0-0.9,0-1.4c0-0.1,0-0.2,0-0.2c0,0,0,0,0,0c0,0,0,0,0,0c0,0-0.1,0.1-0.1,0.1c-0.2,0.4-0.5,0.7-0.7,1.1
			c-0.3,0.6-0.6,1.2-0.9,1.8c0,0.1-0.1,0.1-0.1,0.2C25.2,32.5,25.2,32.5,25.4,32.5C25.3,32.5,25.3,32.5,25.4,32.5z"/>
		<path class="st1" d="M25,32.9c0,0.1-0.1,0.2-0.1,0.4c-0.4,1-0.6,2-0.7,3.1c-0.1,0.7-0.1,1.3-0.1,2c0,0.1,0,0.2,0.2,0.2
			c0,0,0.1,0,0.1,0c0.8,0,1.7,0,2.5,0c0,0,0.1,0,0.2,0c0.1,0,0.1,0,0.1-0.1c0-0.1,0-0.2,0-0.3c0-0.8,0-1.7,0-2.5l0,0
			c0-0.7,0-1.4,0-2c0-0.2,0-0.4,0-0.6c0,0,0-0.1,0-0.1c0-0.1,0-0.1-0.2-0.1c-0.5,0-1.1,0-1.6,0C25.1,32.7,25.1,32.7,25,32.9z"/>
		<path class="st1" d="M57.9,15.3c-0.3,0-0.7,0.1-1,0.2c-0.4,0.1-0.8,0.1-1.2,0.2c-0.7,0.2-1.5,0.4-2.2,0.6
			c-1.7,0.6-3.3,1.3-4.8,2.1c-0.8,0.5-1.6,1-2.4,1.6c-0.1,0-0.1,0.1-0.2,0.1c0,0,0,0,0,0c0,0,0,0,0,0c0.1,0,0.1,0,0.2,0
			c0.6,0,1.3,0,1.9,0l0,0c0.6,0,1.2,0,1.8,0c0.1,0,0.1,0,0.2,0c0.1,0,0.2,0,0.2-0.1c0,0,0.1-0.1,0.1-0.2c0.5-0.6,1.1-1.1,1.8-1.6
			c1-0.8,2-1.5,3.2-2c0.8-0.4,1.7-0.7,2.6-1c0,0,0,0,0.1,0c0,0,0,0,0,0c0,0,0,0,0,0C58.1,15.3,58,15.3,57.9,15.3z"/>
		<path class="st1" d="M16.6,32.5c1.3,0,2.7,0,4,0l0,0c1.1,0,2.3,0,3.4,0c0.3,0,0.5,0,0.8,0c0.1,0,0.2,0,0.2-0.1
			c0.2-0.4,0.3-0.7,0.5-1.1c0.4-0.8,0.8-1.5,1.4-2.3c0.1-0.1,0.1-0.3,0.1-0.4c0-0.6,0-1.2,0-1.8c0-0.1,0-0.1,0-0.2
			c0,0,0-0.1-0.1-0.1c-0.1,0-0.1,0-0.2,0c-1.9,0-3.7,0-5.6,0c-0.1,0-0.3,0-0.4,0.2c-1.1,1-2.1,2-3,3.2c-0.6,0.7-1.1,1.5-1.5,2.3
			c0,0.1-0.1,0.2-0.1,0.2c0,0,0,0.1,0,0.1C16.4,32.5,16.5,32.5,16.6,32.5z"/>
		<path class="st1" d="M15,38.5c0.1,0,0.1,0,0.2,0c1.4,0,2.8,0,4.1,0l0,0c1.4,0,2.8,0,4.2,0c0.1,0,0.2,0,0.3,0c0.1,0,0.1,0,0.1-0.1
			c0-0.6,0-1.1,0.1-1.7c0.1-0.5,0.1-1,0.2-1.4c0.2-0.8,0.4-1.6,0.7-2.3c0,0,0-0.1,0-0.1c0-0.1,0-0.1,0-0.1c-0.1,0-0.2,0-0.2,0
			c-2.7,0-5.4,0-8.1,0c-0.1,0-0.1,0-0.2,0c-0.1,0-0.1,0-0.1,0.1c0,0.1-0.1,0.1-0.1,0.2c-0.3,0.8-0.6,1.5-0.8,2.4
			c-0.2,1-0.4,1.9-0.4,2.9C14.8,38.4,14.8,38.5,15,38.5z"/>
		<path class="st1" d="M24.9,44.4c0.1,0,0.1,0,0.2,0c0.1,0,0.1,0,0.1-0.1c-0.1-0.4-0.3-0.7-0.4-1.1c-0.3-0.9-0.5-1.8-0.7-2.8
			c-0.1-0.5-0.1-1.1-0.2-1.6c0-0.2,0-0.2-0.2-0.2c-0.1,0-0.1,0-0.2,0c-1.4,0-2.8,0-4.1,0v0c-0.1,0-0.1,0-0.2,0c-1.3,0-2.6,0-4,0
			c-0.1,0-0.2,0-0.3,0c-0.1,0-0.1,0-0.1,0.1s0,0.1,0,0.2c0,0.7,0.1,1.3,0.2,2c0.2,1.1,0.6,2.2,1.1,3.2c0.2,0.3,0.1,0.3,0.4,0.3
			C19.3,44.4,22.1,44.4,24.9,44.4z"/>
		<path class="st1" d="M55.6,15.5c-0.3,0.1-0.7,0.1-1,0.2c-0.9,0.1-1.7,0.3-2.6,0.4c-1.3,0.2-2.6,0.5-3.8,0.8
			c-2.3,0.6-4.6,1.2-6.8,2.1c-0.9,0.3-1.8,0.7-2.6,1.1c-0.1,0-0.1,0.1-0.2,0.1c0,0,0,0,0,0c0,0,0,0,0,0c0.1,0,0.2,0,0.2,0
			c0.5,0,1.1,0,1.6,0s1.1,0,1.7,0c0.2,0,0.3,0,0.5-0.1c1-0.6,2.1-1.1,3.2-1.6c1.7-0.7,3.4-1.3,5.2-1.8c1.2-0.3,2.4-0.6,3.6-0.9
			c0.4-0.1,0.8-0.2,1.2-0.2c0,0,0,0,0,0c0,0,0,0,0,0C55.7,15.5,55.6,15.5,55.6,15.5z"/>
		<path class="st1" d="M52.2,26.7c0-0.2,0-0.2-0.1-0.2c-0.1,0-0.1,0-0.2,0c-0.8,0-1.6,0-2.4,0v0c-0.8,0-1.6,0-2.5,0
			c-0.1,0-0.2,0-0.2,0c-0.1,0-0.1,0-0.1,0.1c0,0,0,0.1,0,0.1c-0.7,1.7-1.2,3.5-1.5,5.3c0,0.1-0.1,0.3-0.1,0.4c0,0,0,0.1,0.1,0.1
			c0.1,0,0.2,0,0.3,0c1.5,0,3,0,4.6,0c0.1,0,0.1,0,0.2,0c0.1,0,0.2,0,0.2-0.1c0-0.1,0.1-0.2,0.1-0.2c0.3-0.6,0.6-1.2,1-1.8
			c0.1-0.2,0.2-0.4,0.2-0.7c0-0.1,0-0.3,0.1-0.4c0.1-0.8,0.3-1.6,0.5-2.4C52.2,26.8,52.2,26.8,52.2,26.7z"/>
		<path class="st1" d="M54.3,20.6c0,0,0-0.1,0.1-0.1c0,0,0-0.1,0-0.1c0,0-0.1,0-0.1,0c-1.2,0-2.4,0-3.6,0c0,0,0,0,0,0
			c-0.1,0-0.2,0-0.2,0.1c-0.2,0.2-0.4,0.4-0.6,0.7c-1.2,1.5-2.2,3.2-2.9,5c0,0,0,0.1-0.1,0.1c0,0.1,0,0.2,0.1,0.2c0.1,0,0.1,0,0.2,0
			c0.8,0,1.6,0,2.4,0l0,0c0.8,0,1.6,0,2.4,0c0.1,0,0.1,0,0.2,0c0.1,0,0.1,0,0.2-0.1c0.1-0.2,0.1-0.5,0.2-0.8
			C52.9,23.9,53.5,22.2,54.3,20.6z"/>
		<path class="st1" d="M59,15.3c-1.5,0.3-2.9,0.9-4.2,1.6c-1.5,0.8-2.9,1.9-4.1,3.2c0,0,0,0.1-0.1,0.1c0,0,0,0,0,0
			c0.1,0,0.1,0,0.2,0c0.6,0,1.1,0,1.7,0l0,0c0.3,0,0.6,0,0.9,0c0.3,0,0.6,0,0.9,0c0.1,0,0.1,0,0.2-0.1c0-0.1,0.1-0.1,0.1-0.2
			c0.5-0.8,1-1.6,1.5-2.3C57,16.7,57.9,15.9,59,15.3c0,0.1,0.1,0,0.1,0c0,0,0,0,0,0C59.1,15.2,59.1,15.2,59,15.3
			C59,15.2,59,15.2,59,15.3z"/>
		<path class="st1" d="M42.1,20.5c-1.2,0.7-2.4,1.5-3.4,2.4c-1,0.8-1.9,1.7-2.8,2.7c-0.2,0.2-0.4,0.5-0.6,0.8c0,0,0,0.1,0,0.1
			c0,0,0,0,0,0c0.1,0,0.2,0,0.3,0c0.7,0,1.5,0,2.2,0l0,0c0.8,0,1.5,0,2.3,0c0.1,0,0.1,0,0.2,0c0.1,0,0.1,0,0.2-0.1
			c0,0,0-0.1,0.1-0.1c1.3-2.2,3-4,4.9-5.7c0,0,0.1,0,0.1-0.1c0,0,0,0,0,0c0,0,0,0,0,0c0,0-0.1,0-0.1,0c-1,0-2,0-2.9,0
			C42.3,20.4,42.2,20.4,42.1,20.5z"/>
		<path class="st1" d="M50,33c0-0.1,0.1-0.2,0.1-0.2c0,0,0-0.1,0-0.1c-0.1,0-0.2,0-0.2,0c-1.5,0-3,0-4.5,0c-0.1,0-0.1,0-0.2,0
			c-0.1,0-0.1,0-0.1,0.1c-0.1,0.8-0.2,1.6-0.3,2.5c0,0.7-0.1,1.3-0.1,2c0,0.2,0,0.5,0,0.8c0,0.4,0,0.4,0.3,0.4c0.3,0,0.6,0,1,0l0,0
			c0.3,0,0.7,0,1,0s0.3,0,0.4-0.2c0.5-1,1-2,1.6-3C49.2,34.5,49.6,33.7,50,33z"/>
		<path class="st1" d="M52.9,16.4c0.1,0,0.2-0.1,0.3-0.1c0,0,0,0,0,0c0,0,0,0,0,0c0,0-0.1,0-0.2,0c-1.4,0.3-2.9,0.8-4.3,1.2
			c-2,0.7-4,1.5-5.8,2.6c-0.1,0-0.1,0.1-0.2,0.1c0,0,0,0,0,0c0,0,0,0,0.1,0c0.1,0,0.1,0,0.2,0c0.4,0,0.9,0,1.3,0l0,0
			c0.4,0,0.9,0,1.3,0c0.4,0,0.3,0,0.5-0.2c1.1-0.9,2.3-1.6,3.5-2.3C50.6,17.2,51.7,16.8,52.9,16.4z"/>
		<path class="st1" d="M49.6,20.4c-1.2,0-2.3,0-3.5,0c-0.2,0-0.3,0.1-0.5,0.2c-0.5,0.4-1,0.9-1.5,1.3c-0.6,0.6-1.2,1.2-1.7,1.9
			c-0.6,0.8-1.2,1.6-1.7,2.4c0,0-0.1,0.1-0.1,0.2c0,0,0,0,0,0c0.1,0,0.2,0,0.2,0c0.9,0,1.8,0,2.7,0v0c0.9,0,1.9,0,2.8,0
			c0.1,0,0.2,0,0.3-0.2c0.1-0.2,0.1-0.3,0.2-0.5c0.6-1.3,1.2-2.5,2.1-3.7c0.4-0.6,0.8-1.1,1.2-1.6c0,0,0,0,0-0.1c0,0,0,0,0,0
			C49.9,20.4,49.8,20.4,49.6,20.4z"/>
		<path class="st1" d="M37.7,44.1c0,0.3,0.1,0.2,0.3,0.2c0,0,0.1,0,0.1,0c1.9,0,3.8,0,5.7,0c0.1,0,0.1,0,0.2,0c0.1,0,0.2,0,0.2-0.1
			c0.2-0.4,0.4-0.8,0.6-1.1c0-0.1,0.1-0.2,0-0.3c0-0.4-0.1-0.7-0.1-1.1c0-0.4-0.1-0.8-0.1-1.2c0-0.5-0.1-1.1-0.1-1.6
			c0-0.1,0-0.1,0-0.2c0-0.1,0-0.1-0.2-0.1c-0.1,0-0.2,0-0.2,0c-1.1,0-2.2,0-3.2,0c-1.1,0-2.3,0-3.4,0c-0.3,0-0.3,0-0.3,0.3
			c0,1,0,2,0.2,3.1C37.4,42.7,37.5,43.4,37.7,44.1z"/>
		<path class="st1" d="M38.3,32.5c1,0,2.1,0,3.1,0h0c1,0,2.1,0,3.1,0c0.1,0,0.2,0,0.3,0c0,0,0.1,0,0.1-0.1c0,0,0,0,0-0.1
			c0.1-0.7,0.2-1.3,0.4-2c0.3-1.2,0.6-2.4,1.1-3.6c0-0.1,0-0.1,0.1-0.2c0,0,0-0.1-0.1-0.1c-0.1,0-0.1,0-0.2,0c-1.8,0-3.7,0-5.5,0
			c-0.3,0-0.2,0-0.4,0.2c-1,1.7-1.7,3.5-2.3,5.4c0,0.1-0.1,0.2-0.1,0.3c0,0,0,0.1,0.1,0.1C38.1,32.5,38.2,32.5,38.3,32.5z"/>
		<path class="st1" d="M37.9,32.8C37.9,32.8,37.8,32.9,37.9,32.8c-0.2,0.9-0.4,1.7-0.5,2.5c0,0.3-0.1,0.7-0.1,1
			c0,0.4-0.1,0.8-0.1,1.2c0,0.3,0,0.6,0,0.8c0,0.1,0,0.1,0.1,0.1c0.1,0,0.2,0,0.3,0c1.1,0,2.2,0,3.2,0c1.1,0,2.2,0,3.3,0
			c0.1,0,0.2,0,0.3,0c0,0,0,0,0.1-0.1c0-0.1,0-0.1,0-0.2c0-0.7,0-1.5,0.1-2.2c0,0,0-0.1,0-0.1c0.1-0.6,0.1-1.1,0.2-1.7
			c0-0.4,0.1-0.8,0.1-1.2c0.1-0.3,0-0.3-0.2-0.3c-2.1,0-4.3,0-6.4,0c0,0-0.1,0-0.2,0C37.9,32.7,37.9,32.7,37.9,32.8z"/>
		<path class="st1" d="M37.7,32.7c-0.1,0-0.1,0-0.2,0c-0.7,0-1.4,0-2.2,0c0,0-0.1,0-0.1,0c-0.1,0-0.1,0-0.1,0.2c0,0.1,0,0.1,0,0.2
			c0,0.8,0,1.7,0,2.5c0,0,0,0,0,0c0,0.8,0,1.6,0,2.4c0,0.1,0,0.2,0,0.3c0,0.1,0,0.1,0.1,0.1c0,0,0.1,0,0.1,0c0.5,0,1,0,1.5,0
			c0,0,0.1,0,0.1,0c0,0,0.1,0,0.1-0.1c0,0,0-0.1,0-0.1c0-0.4,0-0.8,0.1-1.2c0-0.6,0.1-1.2,0.2-1.8c0.1-0.7,0.3-1.5,0.4-2.2
			C37.7,32.9,37.7,32.8,37.7,32.7C37.7,32.7,37.7,32.7,37.7,32.7z"/>
		<path class="st1" d="M39.9,50.2c0.3,0.5,0.1,0.4,0.7,0.4c0.1,0,0.2,0,0.2-0.1c0,0,0-0.1,0-0.1c0.4-0.8,0.8-1.6,1.2-2.4
			c0.6-1.1,1.2-2.2,1.8-3.4c0,0,0-0.1,0.1-0.1c0,0,0,0,0,0c-0.1,0-0.2,0-0.2,0c-0.9,0-1.9,0-2.8,0c0,0,0,0,0,0c-0.9,0-1.9,0-2.8,0
			c-0.4,0-0.3,0-0.2,0.3C38.3,46.7,39,48.5,39.9,50.2z"/>
		<path class="st1" d="M44.8,42.5c0,0,0,0.1,0,0.1c0,0,0,0,0,0c0,0,0,0,0,0c0,0,0-0.1,0-0.1c0.7-1.3,1.3-2.6,2-3.8c0,0,0-0.1,0-0.1
			c0,0,0-0.1,0-0.1c-0.1,0-0.1,0-0.2,0c-0.3,0-0.7,0-1,0l0,0c-0.1,0-0.3,0-0.4,0c-0.2,0-0.5,0-0.7,0c-0.1,0-0.1,0-0.1,0.2
			c0,0.4,0,0.8,0,1.2c0,0.4,0.1,0.8,0.1,1.2C44.8,41.6,44.8,42,44.8,42.5z"/>
		<path class="st1" d="M35.1,26.7c0,0.1,0,0.1,0,0.2c0,0.9,0,1.7,0,2.6h0c0,0.9,0,1.8,0,2.6c0,0.1,0,0.1,0,0.2c0,0.2,0,0.2,0.2,0.2
			c0.1,0,0.1,0,0.2,0c0.7,0,1.3,0,2,0c0.4,0,0.3,0,0.4-0.3c0.4-1.3,0.8-2.5,1.4-3.7c0.3-0.6,0.6-1.2,0.9-1.7c0-0.1,0.1-0.1,0.1-0.2
			c0,0,0,0,0,0c-0.1,0-0.1,0-0.2,0c-1.6,0-3.1,0-4.7,0c0,0,0,0-0.1,0C35.1,26.6,35.1,26.6,35.1,26.7z"/>
		<path class="st1" d="M49.3,50.7c0.1,0,0.2,0,0.2,0c0.4,0,0.8,0,1.3,0h0c0.4,0,0.9,0,1.3,0c0.1,0,0.1,0,0.2,0c0.1,0,0.1,0,0.1-0.1
			c0-0.1,0-0.1,0-0.2c-0.2-1-0.4-2-0.6-3c0-0.1,0-0.3-0.1-0.4c0-0.1,0-0.1-0.1-0.1c-0.1,0-0.3,0-0.4,0c-0.3,0-0.2,0-0.4,0.2
			c-0.5,1.1-1,2.2-1.5,3.3C49.3,50.5,49.2,50.5,49.3,50.7C49.2,50.6,49.2,50.7,49.3,50.7z"/>
		<path class="st1" d="M56.7,49.2c0-0.3-0.1-0.6-0.1-1c0-0.3,0-0.7-0.1-1c0-0.1,0-0.2,0-0.2c0-0.1,0-0.1-0.1-0.1c-0.1,0-0.1,0-0.2,0
			c-0.7,0-1.4,0-2,0l0,0c0,0,0,0,0,0v0l0,0c-0.7,0-1.4,0-2.1,0c-0.3,0-0.3,0-0.2,0.3c0.2,1,0.4,2,0.6,3c0,0.1,0.1,0.3,0.1,0.4
			c0,0.1,0,0.1,0.2,0.1c0,0,0.1,0,0.2,0c1.2,0,2.5,0,3.8,0c0.1,0,0.1,0,0.2,0c0.1,0,0.1,0,0.1-0.1c0-0.2,0-0.4-0.1-0.5
			C56.8,49.7,56.8,49.5,56.7,49.2z"/>
		<path class="st1" d="M57.7,20.9c0-0.1,0.1-0.3,0.1-0.4c0,0,0-0.1-0.1-0.1s-0.1,0-0.1,0c-0.5,0-0.9,0-1.4,0l0,0c-0.2,0-0.4,0-0.6,0
			c-0.3,0-0.6,0-0.9,0c-0.1,0-0.2,0-0.2,0.1c-0.1,0.2-0.2,0.5-0.3,0.7c-0.7,1.5-1.2,3-1.6,4.6c0,0.2-0.1,0.3-0.1,0.5
			c0,0.1,0,0.1,0.1,0.1c0.3,0,0.6,0,0.8,0c0.1,0,0.1,0,0.2-0.1c0.1-0.2,0.2-0.4,0.3-0.7c0-0.1,0.1-0.1,0.1-0.2c0,0,0.1,0,0.1-0.1
			c0.1,0,0.1,0,0.2,0c0.8,0,1.5,0,2.3,0c0.1,0,0.2,0,0.3,0c0.1,0,0.1,0,0.1-0.1c0-0.1,0-0.2,0-0.4c0.1-0.6,0.2-1.2,0.3-1.9
			C57.4,22.3,57.5,21.6,57.7,20.9z"/>
		<path class="st1" d="M35.2,44.4c0,0,0.1,0,0.2,0c0.7,0,1.3,0,2,0c0,0,0.1,0,0.2,0c0,0,0.1,0,0.1-0.1c0-0.1,0-0.1,0-0.2
			c-0.1-0.5-0.2-1-0.3-1.5c-0.1-0.4-0.1-0.7-0.1-1.1c0-0.4-0.1-0.8-0.1-1.1c0-0.5,0-1.1,0-1.6c0,0,0,0,0-0.1c0,0,0-0.1-0.1-0.1
			c-0.1,0-0.1,0-0.2,0c-0.5,0-0.9,0-1.4,0c0,0-0.1,0-0.1,0c-0.1,0-0.1,0-0.1,0.1c0,0.1,0,0.2,0,0.2c0,0.8,0,1.7,0,2.5h0
			c0,0.8,0,1.7,0,2.6C35.1,44.1,35.1,44.2,35.2,44.4C35.1,44.3,35.1,44.4,35.2,44.4z"/>
		<path class="st1" d="M57.8,34.9c-0.2-0.5-0.5-0.9-0.7-1.4c0,0,0,0,0-0.1c0,0,0,0-0.1,0.1c-0.2,0.4-0.4,0.8-0.6,1.2
			c0,0.1,0,0.1,0,0.2c0,0.6,0,1.1,0,1.5c0,0.7,0,1.3,0,1.9c0,0.2,0,0.2,0.2,0.2c0,0,0.1,0,0.1,0c0.8,0,1.6,0,2.5,0
			c0.1,0,0.2,0,0.4,0c0-0.1-0.1-0.2-0.1-0.3C58.8,37,58.3,36,57.8,34.9z"/>
		<path class="st1" d="M58.6,41.6c0.6,0,1.2,0,1.8,0c0.1,0,0.2,0,0.2,0c0,0,0.1,0,0.1-0.1c0-0.2,0-0.4-0.1-0.6
			c-0.3-0.6-0.6-1.2-0.8-1.8c-0.1-0.1-0.1-0.3-0.2-0.4c0-0.1-0.1-0.1-0.2-0.1c-0.1,0-0.1,0-0.2,0c-0.9,0-1.7,0-2.6,0
			c-0.1,0-0.1,0-0.2,0c-0.1,0-0.1,0-0.1,0.1c0,0.1,0,0.1,0,0.2c0,0.8,0,1.6,0.1,2.5c0,0,0,0.1,0,0.1c0,0,0,0.1,0.1,0.1
			c0.1,0,0.1,0,0.2,0C57.3,41.6,57.9,41.6,58.6,41.6C58.6,41.6,58.6,41.6,58.6,41.6z"/>
		<path class="st1" d="M54.6,56.5c0,0.1,0.1,0.1,0.1,0.1c0,0,0.1,0,0.1,0c1,0,1.9,0,2.9,0c0,0,0,0,0,0c0.1,0,0.1,0,0.1-0.1
			c-0.1-0.3-0.2-0.6-0.2-1c-0.1-0.7-0.3-1.4-0.4-2.1c-0.1-0.5-0.1-1-0.2-1.4c0-0.3-0.1-0.6-0.1-1c0-0.1,0-0.1-0.2-0.2
			c-0.1,0-0.1,0-0.2,0c-0.6,0-1.2,0-1.8,0l0,0c-0.6,0-1.2,0-1.8,0c-0.1,0-0.2,0-0.2,0c-0.1,0-0.1,0-0.1,0.1c0,0,0,0.1,0,0.1
			c0.1,0.5,0.3,1,0.4,1.5c0.4,1.3,0.8,2.5,1.4,3.7C54.6,56.3,54.6,56.4,54.6,56.5z"/>
		<path class="st1" d="M57.8,20c0.2-0.6,0.3-1.1,0.5-1.7c0.2-0.7,0.5-1.3,0.8-1.9c0.3-0.5,0.5-0.9,1-1.3c0,0,0,0,0,0c0,0,0,0,0-0.1
			c0,0,0,0,0,0c-0.3,0.1-0.7,0.2-1,0.4c-0.8,0.4-1.5,0.9-2.1,1.5c-0.9,0.9-1.7,2-2.3,3.2c0,0,0,0,0,0c0,0.1,0,0.1,0.1,0.1
			c0.1,0,0.1,0,0.2,0c0.4,0,0.8,0,1.2,0l0,0c0.4,0,0.9,0,1.3,0c0.1,0,0.1,0,0.2,0c0.1,0,0.1,0,0.1-0.1C57.8,20.1,57.8,20,57.8,20z"
			/>
		<path class="st1" d="M36.1,51c0.4,0.4,0.8,0.8,1.2,1.2c0.7,0.7,1.4,1.3,2.1,1.9c1,0.8,2.2,1.6,3.3,2.3c0.1,0.1,0.2,0.1,0.4,0.1
			c0.5,0,0.9,0,1.4,0c0.1,0,0.1,0,0.2,0c0-0.1-0.1-0.1-0.1-0.2c-0.1-0.1-0.2-0.2-0.3-0.3c-1.4-1.3-2.6-2.7-3.7-4.3
			c-0.1-0.2-0.3-0.4-0.4-0.7c-0.2-0.3-0.1-0.3-0.5-0.3c-0.6,0-1.1,0-1.7,0c-0.5,0-1.1,0-1.7,0c-0.1,0-0.2,0-0.2,0c0,0-0.1,0-0.1,0
			C36,50.8,36,50.9,36.1,51C36.1,50.9,36.1,51,36.1,51z"/>
		<path class="st1" d="M43.4,56.8c1.7,1,3.5,1.8,5.3,2.5c0,0,0.1,0,0.1,0c0,0,0,0,0,0c0,0,0,0,0,0c-0.1,0-0.1-0.1-0.2-0.1
			c-0.8-0.4-1.5-0.8-2.2-1.3c-0.5-0.3-1-0.7-1.4-1.1c-0.1-0.1-0.2-0.1-0.3-0.1c-0.2,0-0.5,0-0.7,0l0,0c-0.2,0-0.4,0-0.5,0
			c-0.1,0-0.1,0-0.2,0c0,0-0.1,0-0.1,0C43.3,56.7,43.3,56.8,43.4,56.8C43.3,56.8,43.4,56.8,43.4,56.8z"/>
		<path class="st1" d="M36.1,50.7c0.6,0,1.2,0,1.8,0l0,0c0.6,0,1.2,0,1.8,0c0.1,0,0.2,0,0.2,0c0,0,0-0.1,0-0.1c0-0.1,0-0.1-0.1-0.2
			c-1-1.8-1.7-3.7-2.2-5.7c0-0.1,0-0.1,0-0.2c0,0,0-0.1-0.1-0.1c-0.1,0-0.1,0-0.2,0c-0.7,0-1.3,0-2,0c0,0-0.1,0-0.1,0
			c-0.1,0-0.1,0-0.1,0.1c0,0.1,0,0.2,0,0.2c0,1.2,0,2.4,0,3.5c0,0.4,0,0.7,0,1.1c0,0.1,0,0.2,0.1,0.4c0.2,0.2,0.3,0.4,0.5,0.6
			C35.8,50.6,35.9,50.7,36.1,50.7z"/>
		<path class="st1" d="M52.5,56.6L52.5,56.6c0.6,0,1.2,0,1.7,0c0.1,0,0.2,0,0.2,0c0,0,0.1,0,0.1-0.1c0,0,0-0.1-0.1-0.1
			c-0.8-1.6-1.3-3.2-1.8-4.9c0-0.2-0.1-0.4-0.1-0.5c0,0-0.1-0.1-0.1-0.1c0,0-0.1,0-0.1,0c-1,0-2,0-3,0c-0.1,0-0.2,0-0.2,0.2
			c-0.2,0.4-0.4,0.8-0.5,1.2c-0.2,0.4-0.1,0.3-0.5,0.3c0,0-0.1,0-0.1,0c0,0-0.1,0-0.1,0c0,0,0,0.1,0,0.1c0,0,0,0.1,0,0.1
			c0.7,1.3,1.4,2.5,2.3,3.7c0,0.1,0.1,0.1,0.2,0.2c0,0.1,0.1,0.1,0.2,0.1c0.1,0,0.1,0,0.2,0C51.3,56.6,51.9,56.6,52.5,56.6z"/>
		<path class="st1" d="M50.6,59.9c0.5,0.2,1.1,0.3,1.6,0.5c1.2,0.3,2.4,0.6,3.7,0.8c0.2,0,0.5,0.1,0.7,0.1c0,0,0,0,0,0c0,0,0,0,0,0
			c-0.1,0-0.1-0.1-0.2-0.1c-0.3-0.1-0.6-0.2-0.9-0.4c-1.7-0.8-3.2-2-4.5-3.4c-0.2-0.2-0.4-0.5-0.6-0.7c-0.1-0.1-0.1-0.1-0.2-0.1
			c-0.1,0-0.1,0-0.2,0c-0.7,0-1.5,0-2.2,0l0,0c-0.7,0-1.5,0-2.2,0c-0.1,0-0.2,0-0.3,0c0,0,0,0,0,0c0,0,0,0,0,0
			c0.2,0.2,0.4,0.3,0.6,0.5c1.3,1,2.8,1.9,4.3,2.5C50.3,59.8,50.5,59.9,50.6,59.9z"/>
	</g>
</g>
</svg>
