<?xml version="1.0" encoding="utf-8"?>
<!-- Generator: Adobe Illustrator 29.4.0, SVG Export Plug-In . SVG Version: 9.03 Build 0)  -->
<svg version="1.1" id="Layer_1" xmlns="http://www.w3.org/2000/svg" xmlns:xlink="http://www.w3.org/1999/xlink" x="0px" y="0px"
	 viewBox="0 0 369.1 401.5" style="enable-background:new 0 0 369.1 401.5;" xml:space="preserve">
<style type="text/css">
	.st0{fill:#12491D;}
	.st1{fill:none;stroke:#12491D;stroke-width:4.017;stroke-miterlimit:10;}
</style>
<g>
	<g id="Layer_1-2">
		<g>
			<g>
				<path class="st0" d="M85.1,400c-0.3-0.1-0.6-0.2-1-0.3c-3.9-0.9-6.5-3.9-6.7-7.9c-0.1-1.1-0.1-2.3,0.2-3.4
					c0.7-3.6,3-5.9,6.6-6.7c2.7-0.6,5.3-0.4,8.1,0.7c-0.4,1-0.7,1.9-1,2.9c-0.8-0.3-1.6-0.5-2.3-0.7c-1.3-0.3-2.6-0.3-3.9,0.1
					c-2.7,0.8-4.2,3.4-4,6.6c0.2,3.1,1.9,5.1,4.7,5.6c1.1,0.2,2.1,0.2,3.3-0.3v-4.4c-0.9-0.1-1.9-0.1-2.9-0.2v-2.9c1,0,2.1,0,3.2,0
					c1.1,0,2.1,0,3.2,0c0.4,1.1,0.4,7.4,0.2,9.7c-1.3,0.4-2.8,0.8-4.3,1.1C88.4,400,85.1,400,85.1,400z"/>
				<path class="st0" d="M237,400c0,0-0.2-0.2-0.2-0.2c-2.8-0.6-4.3-2.5-4.9-5.1c-0.7-2.9-0.7-5.8,0.2-8.6c1-3.3,3.4-4.9,6.7-4.8
					c2.1,0.1,3.7,1,4.7,2.9c0.6,1,1,2.2,1.2,3.3c0.5,2.6,0.5,5.2-0.3,7.7c-0.7,2.4-2.2,4-4.7,4.6c-0.2,0-0.3,0.2-0.4,0.2L237,400
					L237,400z M241.4,391.3c0-2.3-0.1-4-1-5.7c-1.1-1.8-3.2-1.8-4.3-0.1c-1.3,2-1.3,8-0.1,10.1c1.1,1.8,3.4,1.9,4.5,0
					c0.4-0.6,0.6-1.2,0.7-1.9C241.3,392.8,241.3,391.8,241.4,391.3z"/>
				<path class="st0" d="M221,400c0,0-0.2-0.2-0.2-0.2c-2.8-0.6-4.3-2.5-4.9-5.1c-0.7-2.9-0.7-5.8,0.2-8.6c1-3.3,3.4-4.9,6.7-4.8
					c2.1,0.1,3.7,1,4.7,2.9c0.6,1,1,2.2,1.2,3.3c0.5,2.6,0.5,5.2-0.3,7.7c-0.7,2.4-2.2,4-4.7,4.6c-0.2,0-0.3,0.2-0.4,0.2L221,400
					L221,400z M219,390.2c0.1,1.2,0,2.1,0.2,2.9c0.2,0.9,0.4,1.9,0.8,2.6c1,1.7,3.2,1.7,4.3,0.1c0.4-0.6,0.6-1.2,0.8-1.9
					c0.5-2.1,0.5-4.3,0-6.4c-0.2-0.7-0.4-1.3-0.8-1.9c-1.1-1.7-3.2-1.7-4.2,0.1c-0.3,0.4-0.5,0.9-0.6,1.3
					C219.3,388.1,219.2,389.4,219,390.2L219,390.2z"/>
				<path class="st0" d="M127.6,400c0,0-0.2-0.2-0.2-0.2c-2.8-0.6-4.3-2.5-4.9-5.1c-0.7-2.9-0.7-5.8,0.2-8.6c1-3.3,3.4-4.9,6.7-4.8
					c2.1,0.1,3.7,1,4.7,2.9c0.6,1,1,2.2,1.2,3.3c0.5,2.6,0.5,5.2-0.3,7.7c-0.7,2.4-2.2,4-4.7,4.6c-0.2,0-0.3,0.2-0.4,0.2L127.6,400
					L127.6,400z M125.7,390.2c0.1,1.2,0.1,2.1,0.2,2.9c0.1,0.7,0.3,1.5,0.6,2.1c0.4,1,1.2,1.7,2.3,1.7c1.1,0,2-0.6,2.4-1.6
					c0.2-0.5,0.4-1,0.5-1.5c0.4-2.1,0.4-4.2,0-6.3c-0.2-0.7-0.5-1.5-0.9-2.2c-1-1.5-2.9-1.5-3.9,0c-0.3,0.5-0.6,1-0.7,1.6
					C126,388.2,125.9,389.5,125.7,390.2L125.7,390.2z"/>
				<path class="st0" d="M268.5,400c0,0,0-0.1-0.1-0.1c-3.2-0.8-4.6-3.1-5.1-6.2c-0.4-2.4-0.4-4.8,0.3-7.2c0.6-2.4,1.9-4.4,4.5-5
					c3.5-0.8,6.4,0.5,7.7,3.6c1.5,3.6,1.5,7.3,0.1,10.9c-0.7,1.9-2.1,3.2-4.1,3.7c-0.2,0-0.3,0.2-0.5,0.3L268.5,400L268.5,400z
					 M273.2,390.8c0,0-0.1,0-0.1,0c0-0.8,0-1.6-0.2-2.3c-0.3-1-0.5-2.1-1.1-3c-0.9-1.5-2.8-1.5-3.8-0.1c-0.5,0.6-0.8,1.4-0.9,2.1
					c-0.2,1.8-0.3,3.5-0.2,5.3c0,1,0.4,2.1,0.8,3c1,1.8,3.3,1.8,4.4,0.1c0.3-0.5,0.5-1,0.6-1.5C272.9,393.1,273.1,391.9,273.2,390.8
					L273.2,390.8z"/>
				<path class="st0" d="M252.6,400c0,0,0-0.1-0.1-0.1c-3.2-0.8-4.6-3.1-5.1-6.2c-0.4-2.4-0.4-4.8,0.3-7.2c0.6-2.4,1.9-4.4,4.5-5
					c3.5-0.8,6.4,0.5,7.7,3.6c1.5,3.6,1.5,7.3,0.1,10.9c-0.7,1.9-2.1,3.2-4.1,3.7c-0.2,0-0.3,0.2-0.5,0.3L252.6,400L252.6,400z
					 M257.2,390.8c0,0-0.1,0-0.1,0c0-0.7,0-1.5-0.2-2.2c-0.2-1-0.4-2-0.9-2.9c-1-1.8-3.2-1.8-4.3,0c-0.3,0.5-0.5,1.1-0.7,1.8
					c-0.5,2.1-0.5,4.3,0,6.4c0.1,0.6,0.3,1.1,0.6,1.7c1,1.9,3.4,2,4.5,0.1c0.3-0.4,0.5-0.9,0.5-1.3
					C256.9,393.1,257,391.9,257.2,390.8z"/>
				<path class="st0" d="M282.4,400c-0.7-0.2-1.5-0.4-2.2-0.6c-0.5-0.2-1-0.4-1.7-0.6c0.3-0.9,0.5-1.8,0.8-2.6
					c1.2,0.3,2.3,0.7,3.4,0.8c0.9,0.1,1.9,0,2.7-0.2c1.1-0.3,1.6-1.1,1.7-2.2c0-1-0.5-1.8-1.7-2.2c-0.7-0.2-1.6-0.3-2.3-0.4
					c-0.7-0.1-1.3,0-2.2,0v-3c0.6,0,1.1,0,1.6,0c0.7-0.1,1.5-0.1,2.2-0.3c1.2-0.3,1.9-1.2,1.9-2.3c-0.1-1.1-0.8-1.9-2.1-2
					c-0.9-0.1-1.9,0.1-2.7,0.2c-0.6,0.1-1.2,0.4-1.9,0.6c-0.3-0.9-0.6-1.8-0.9-2.8c2.9-1.1,5.7-1.5,8.6-0.4c1.7,0.6,2.6,1.9,2.8,3.6
					c0.2,1.8-0.5,3.3-2.1,4.2c-0.2,0.1-0.3,0.2-0.6,0.4c0.3,0.2,0.5,0.3,0.7,0.4c3.5,1.6,3.1,6.6,0.2,8.2c-1,0.5-2.1,0.8-3.2,1.2
					H282.4L282.4,400z"/>
				<path class="st0" d="M296.3,400c-0.7-0.2-1.4-0.4-2.1-0.6c-0.5-0.2-1-0.4-1.7-0.6c0.3-0.9,0.5-1.8,0.8-2.6
					c1.2,0.3,2.3,0.6,3.4,0.8c0.9,0.1,1.9,0,2.7-0.2c1-0.3,1.7-1.1,1.7-2.2s-0.5-1.8-1.7-2.2c-0.8-0.3-1.7-0.3-2.4-0.4
					c-0.6-0.1-1.2,0-2,0v-3c0.5,0,1.1,0,1.6,0c0.8-0.1,1.6-0.1,2.3-0.3c1.2-0.3,1.9-1.2,1.8-2.4c-0.1-1-0.9-1.9-2.1-1.9
					c-1.1,0-2.3,0.2-3.5,0.4c-0.4,0.1-0.7,0.3-1.2,0.4c-0.2-0.5-0.4-0.9-0.5-1.4c-0.2-0.4-0.3-0.8-0.4-1.4c3.1-1.1,6.1-1.7,9.1-0.2
					c3,1.5,3.1,5.6,0.4,7.5c-0.2,0.2-0.5,0.3-0.8,0.5c0.3,0.2,0.4,0.3,0.6,0.4c1.7,0.8,2.6,2.1,2.6,3.9c0,2-0.8,3.5-2.6,4.5
					c-0.8,0.5-1.8,0.7-2.7,1h-3.3V400z"/>
				<path class="st0" d="M66.5,400c-0.7-0.2-1.3-0.3-2-0.5c-0.5-0.2-1-0.3-1.7-0.5c0.2-1,0.4-1.9,0.6-2.9c1.2,0.3,2.3,0.6,3.4,0.7
					c1,0.1,2,0,2.9-0.1c0.8-0.1,1.3-0.6,1.5-1.5c0.2-0.8-0.1-1.5-0.8-2c-0.8-0.5-1.6-0.9-2.4-1.3c-1-0.5-2-0.9-2.9-1.5
					c-1.8-1.1-2.4-2.7-2.2-4.8c0.3-1.9,1.4-3.1,3.1-3.8c1.9-0.8,3.8-0.7,5.8-0.4c0.7,0.1,1.3,0.3,2.1,0.5c-0.2,1-0.4,1.9-0.6,2.8
					c-1.2-0.2-2.4-0.4-3.5-0.5c-0.5,0-1.1,0-1.6,0.1c-0.8,0.2-1.4,0.5-1.6,1.3c-0.2,0.9,0.2,1.6,0.9,2c0.6,0.4,1.3,0.7,2,1
					c1,0.5,2,0.9,2.9,1.4c1.9,1.1,2.8,2.7,2.6,4.9c-0.2,2.3-1.6,3.6-3.7,4.4c-0.5,0.2-1,0.4-1.5,0.5L66.5,400L66.5,400z"/>
				<path class="st0" d="M163.4,381.6v11.2c0.7,0.1,1.2,0.2,1.9,0.2v2.7c-0.6,0.1-1.1,0.2-1.9,0.2v3.6h-3.7v-3.6h-8.2
					c-0.2-1.9-0.3-3.6,0.8-5.2c1.9-2.6,3.6-5.4,5.3-8.1c0.5-0.7,0.9-1,1.8-1C160.6,381.7,161.8,381.6,163.4,381.6z M159.6,385.6
					c0,0-0.2,0-0.3-0.1c-1.5,2.4-3,4.8-4.5,7.3h4.8L159.6,385.6L159.6,385.6z"/>
				<path class="st0" d="M109,385.6c-0.4-0.9-0.7-1.7-1.1-2.6c2.8-1.8,5.7-2.3,8.8-1c2.6,1.1,3.7,4,2.5,6.9c-0.4,1-1,2-1.7,2.7
					c-1.1,1.3-2.5,2.5-3.7,3.7c-0.4,0.3-0.8,0.6-1.1,0.8c0.1,0.1,0.2,0.3,0.2,0.4h6.9v2.9h-12c0-0.9-0.1-1.7,0-2.4
					c0.1-0.4,0.4-0.9,0.7-1.2c1.5-1.4,3-2.7,4.4-4.1c0.8-0.8,1.5-1.6,2.1-2.5c0.4-0.6,0.7-1.4,0.8-2.2c0.2-1.6-0.8-2.8-2.4-2.9
					c-0.9,0-1.8,0.2-2.6,0.4c-0.6,0.2-1.1,0.5-1.8,0.8L109,385.6z"/>
				<path class="st0" d="M138.9,385.5c-0.4-0.8-0.7-1.6-1.1-2.4c0.4-0.3,0.7-0.5,1-0.7c1.8-0.9,3.7-1.3,5.7-1
					c4.6,0.6,5.7,4.2,4.6,7.4c-0.4,1.1-1.1,2.2-1.9,3.1c-1.1,1.2-2.4,2.4-3.6,3.5c-0.4,0.3-0.7,0.7-1.3,1.2h7.2v3h-12
					c0-0.9-0.1-1.7,0-2.5c0.1-0.4,0.5-0.8,0.8-1.1c1.6-1.6,3.3-3.1,4.9-4.7c0.7-0.7,1.3-1.6,1.9-2.4c0.6-1,0.9-2.2,0.1-3.3
					c-0.8-1.2-2.1-1.3-3.3-1c-1,0.2-2,0.7-3.2,1.1H138.9z"/>
				<path class="st0" d="M199,399.6h-3.5v-14.5c-1.2,0.7-2.3,1.3-3.4,1.9c-0.4-0.9-0.8-1.7-1.3-2.7c1.6-0.9,3-2,4.6-2.6
					c1-0.4,2.3-0.1,3.5-0.1C199.2,382.7,199.3,397.5,199,399.6z"/>
				<path class="st0" d="M184.3,385.2c-1.3,0.7-2.3,1.3-3.4,1.9c-0.5-0.9-0.8-1.7-1.3-2.7c1.5-0.9,2.9-2,4.5-2.5
					c1.1-0.4,2.4-0.1,3.6-0.1c0.3,1,0.4,16.1,0,17.9h-3.5c0-2.5,0-4.9,0-7.2S184.2,387.8,184.3,385.2L184.3,385.2z"/>
				<path class="st0" d="M205.5,399.6h-3.1c2.7-6.1,5.4-11.9,8.1-17.8h3C210.8,387.8,208.1,393.7,205.5,399.6L205.5,399.6z"/>
				<path class="st0" d="M174.7,381.7h3c-2.7,6-5.4,11.9-8.1,17.8h-3.1C169.3,393.6,171.9,387.6,174.7,381.7L174.7,381.7z"/>
				<path class="st0" d="M103.3,381.7h3c-2.7,6-5.4,11.9-8.1,17.8h-3.1C97.9,393.5,100.6,387.6,103.3,381.7L103.3,381.7z"/>
			</g>
			<path class="st0" d="M342.8,140c-2.1,0.7-3.8,1.2-5.5,1.7c-2.7,0.9-5.5,1.7-8.2,2.6c-1.4,0.5-1.6,0.8-1.2,2.1
				c0.4,1.5,0.8,2.9,1.2,4.6c0.9-0.3,1.7-0.5,2.5-0.7c3-0.8,5.6-0.2,7.9,1.8c2,1.7,2.7,5.5,1.6,8.3c-0.8,1.8-2.2,2.8-4,3.4
				c-1.2,0.4-2.5,0.6-3.8,1c-0.4,0.1-0.7,0.3-1,0.5c0.3,1.6,0.5,3.1,0.7,4.8c2.4,0.2,4.8-0.2,7.3,0c0.4,0.8,0.8,1.6,0.5,2.6
				c-2.5,0.2-4.9,0.4-7.4,0.6c0,1.6,0,3.1,0,4.6c0,0.8,0.6,0.9,1.2,0.9c1.9-0.1,3.7-0.2,5.6-0.3c2-0.1,2.4,0.4,2.3,2.6
				c-2.9,0.2-5.7,0.4-8.7,0.7c-0.4,1.7-0.1,3.3,0.2,4.9c0.1,0.6,0.6,0.7,1.1,0.7c2.3-0.1,4.5-0.3,6.8-0.4c2.2-0.2,2.5,0.3,2.3,2.6
				c-3.3,0.2-6.6,0.4-10,0.6c0.1,1.7-0.3,3.3,0.3,4.9c0.5,1.6,1.1,2.1,2.7,2.2c2.9,0.2,5.8,0.3,8.7,0.4c0.7,0,1.5,0,2.2,0.2
				c1.2,0.2,1.3,0.3,1.6,1.5c0.1,0.3,0.2,0.7,0.3,1.2c-0.5,0.1-0.8,0.3-1.2,0.3c-3.9-0.2-7.8-0.3-11.7-0.5c-2.1-0.1-3.9-0.9-4.9-3
				c-0.4-0.8-0.5-1.7-0.6-2.5c-0.3-4.4-0.5-8.8-0.7-13.1c-0.2-3.1-0.3-6.2-0.6-9.3c-0.4-3.9-1-7.8-2-11.6c-0.8-3.2-1.3-6.5-2-9.7
				c-0.3-1.3-0.7-2.5-1.1-3.8c-0.7-2.2-0.4-4.6,2.7-5.4c4.1-1.1,8.1-2.5,12.1-3.8c0.3-0.1,0.8-0.1,1,0.2c0.5,0.5,0.9,1.2,1.6,2
				L342.8,140z M338.4,155c-1.3,3.8-4.1,4.7-7.7,4.5c0.3,1,0.5,1.8,0.7,2.5c1.8,0.2,3.1-0.5,4.5-0.8c2.3-0.6,3-1.7,3-4
				c0-0.4,0-0.7,0-1C338.8,155.8,338.6,155.5,338.4,155L338.4,155z M332.8,152.7c-0.7,0.3-1.6,0.6-2.3,1.1c-1,0.8-0.7,2.6,0.5,3
				c1.5,0.4,2.8,0.3,4-0.8c1.2-1.1,0.9-2.4-0.6-3C334,152.9,333.5,152.9,332.8,152.7L332.8,152.7z"/>
			<path class="st0" d="M275.3,70.1c1.4,1.1,2.7,2.3,4.1,3.4c1.1-1.2,2.2-2.4,3.3-3.7c1-1.2,2.4-1.8,3.9-2c0.7-0.1,1.6,0.2,2.3,0.4
				c1.9,0.8,3.1,2.3,3.8,4.2c0.1,0.3,0,0.6-0.1,0.9h-2.4c-0.2-0.4-0.4-0.8-0.6-1.3c-0.8-1.8-2.6-2.4-4-1c-1.4,1.2-2.6,2.7-3.9,4.2
				c0.4,0.4,0.6,0.7,0.8,1c2.3,2.1,4.7,4.1,7.1,6.2c1.2,1,1.2,1.1,2.4,0.1c1.1-0.9,2.1-1.9,3.2-2.8c1.1-0.9,1.1-0.9,2.4-0.1
				c0.3,0.2,0.6,0.5,1,0.7c-0.3,0.3-0.4,0.6-0.6,0.8c-1.5,1.2-2.9,2.5-4.4,3.7c-0.8,0.7-0.9,0.9-0.3,1.7c0.9,1.1,1.9,2.1,3,3.3
				c2.2-1.8,4.3-3.6,6.4-5.4c0.5,0.3,0.9,0.5,1.4,0.8c0.8,0.5,0.9,0.9,0.2,1.5c-1.4,1.2-2.8,2.4-4.3,3.6c-2.3,1.8-2,1.7-0.4,3.6
				c0.5,0.6,0.9,1.1,1.5,1.7c0.4,0.5,0.8,0.6,1.4,0.2c1.8-1.5,3.7-3,5.3-4.6c1.2-1.2,1.6-1.1,2.9-0.2c0.2,0.2,0.4,0.3,0.7,0.6
				c-1,1.5-2.4,2.4-3.7,3.5c-1.3,1.1-2.6,2.2-3.9,3.4c0.7,1.5,1.9,2.6,3.1,3.7c1,0.9,2.2,0.9,3.4,0.2c2.1-1.5,4.3-2.9,6.4-4.4
				c0.9-0.6,1.8-1.2,2.6-1.8c1.1-0.8,1.2-0.8,2.3,0.1s1.1,1,0,1.8c-3.4,2.4-6.8,4.8-10.3,7.1c-1.9,1.2-4.4,0.9-6.1-0.8
				c-0.7-0.7-1.1-1.5-1.8-2.1c-3.2-3.6-6.4-7.3-9.6-10.9c-3.8-4.4-7.9-8.6-12.2-12.5c-2.5-2.3-5.2-4.5-7.8-6.7
				c-0.4,0.3-0.7,0.4-0.9,0.6c-3.5,2.6-7.2,1.6-9.5-1.7c-0.3-0.3-0.3-0.9-0.2-1.3c0-0.5,0.2-0.9,0.4-1.4c0.7-0.2,0.9,0.5,1.2,0.8
				c0.9,1.1,1.9,2.1,3.3,2.3c1,0.2,2.1,0.1,3-1c-0.3-0.3-0.6-0.5-0.9-0.8c-0.9-0.8-1.9-1.5-2.5-2.4c-1.2-1.5-1.1-3.9,0-5.8
				c0.8-1.3,1.9-2.4,3.3-3.3c1.6-0.9,3.1-0.9,4.6-0.2c1.1,0.5,2.1,1.3,2.8,2.3c1.2,1.9,0.8,3.8-0.1,5.6c-0.6,1.1-1.5,2.1-2.2,3.2
				c-0.2,0.3-0.5,0.6-0.7,1L275.3,70.1z M276.4,62.9c0.3-1.8-2.4-3.4-3.9-2.4c-1.3,0.8-2.3,1.9-2.9,3.4c-0.3,0.8-0.3,1.8,0.5,2.4
				c0.7,0.6,1.4,1.2,2.1,1.8c0.4,0.3,0.9,0.3,1.2-0.3c0.8-1.1,1.6-2.2,2.3-3.4C276.1,64,276.2,63.4,276.4,62.9L276.4,62.9z"/>
			<path class="st0" d="M228.7,29.3c-0.2,1-0.4,1.8-0.6,2.6c-0.9,3.3-1.8,6.6-2.6,10c-0.5,1.8-1.3,3.3-3.2,3.8c-1,0.3-2.1,0.4-3,0.3
				c-1.6-0.3-3.2-0.9-4.7-1.3c-0.4-0.1-0.7-0.4-1-0.6c-0.7-0.8-1.6-0.8-2.4-0.5c-1.2,0.4-2.3,0.4-3.4,0c-0.7-0.2-1.6-0.2-2.2-0.5
				c-0.9-0.4-1.7-0.9-2.7-1.4c-0.1,0.1-0.4,0.3-0.6,0.5c-2.2,3-6.7,2.6-9.1,0.4c-0.4-0.4-0.6-0.9-0.9-1.3c-0.3-0.4-0.6-0.6-1.2-0.3
				c-0.8,0.4-1.7,0.7-2.5,0.6c-1,0-2-0.5-2.9-0.8c-0.4-0.2-0.8-0.4-1.3-0.6c-1,2.3-3,3.5-5.4,3.6c-2.4,0.2-4.3-1-5.7-3
				c-2.5,1.5-5.1,1.6-7.7,1.2c-1.6-0.3-2.7-1.6-2.8-3.2c-0.2-1.9-0.5-3.8-0.7-5.8c-0.2-1.8-0.4-3.6-0.6-5.4
				c-0.1-0.5-0.1-1.1-0.3-1.6c-0.2-0.6,0-1,0.6-1.2c0.7-0.3,1.2-1,2-0.5c0.2,0.2,0.3,0.6,0.4,0.9c0.3,3,0.6,5.9,0.9,8.9
				c0.2,1.3,0.3,2.6,0.5,3.9c0.2,1.2,0.9,1.8,2.1,1.7c1.1-0.1,2.3-0.2,3.3-0.6c1.2-0.5,1.9-1.5,2-2.9c0.2-3,2.4-5,5.5-5
				c1,0,2,0,3,0.4c1.3,0.5,2,1.3,2.5,2.5c0.3,0.6,0.5,1.3,0.6,2c0.2,1.5,1,2.3,2.4,2.5c1.1,0.2,2.3,0.4,3.4-0.2
				c0.9-0.5,1.5-1.2,1.7-2.3c0.9-3.5,3.6-4.8,6.8-4.4c0.6,0.1,1.2,0.3,1.8,0.5c2,0.8,2.7,2.5,2.8,4.5c0.1,1.6,0.6,2.9,2.1,3.5
				c1.5,0.5,3,0.9,4.6,0.6c1-0.2,1.5-1.1,1.7-2c0.5-2.4,0.9-4.9,1.3-7.3c0.3-1.4,0.6-2.9,0.9-4.3c0.1-0.6,0.5-1,1.1-1s1.2,0,2,0
				c-0.2,1-0.3,1.9-0.5,2.9c-0.4,1.9-0.8,3.7-1.1,5.6c-0.3,1.6-0.7,3.2-1,4.9c-0.2,1,0.6,2.2,1.7,2.6c1,0.4,2.1,0.7,3.2,0.9
				c1.6,0.3,2.9-0.5,3.4-2.3c0.9-3.5,1.8-7.1,2.7-10.6c0.3-1,0.6-1.2,1.6-1.2C227.6,29.3,228.1,29.3,228.7,29.3L228.7,29.3z
				 M194.4,38.3C194.4,38.3,194.4,38.3,194.4,38.3c0.1,0.2,0.1,0.4,0.1,0.6c0.1,2.2,2.7,3.6,4.6,2.5c0.2-0.1,0.4-0.3,0.5-0.5
				c1-1.7,1.2-3.5,0.5-5.3c-0.3-0.6-0.8-1-1.6-1.1c-2.5-0.3-3,0-3.9,2.3C194.4,37.2,194.4,37.8,194.4,38.3L194.4,38.3z M178.4,41.1
				c1.9,0,2.3-0.4,2.9-2.2c0.3-1,0.2-1.9-0.1-2.9c-0.4-1.6-1.5-2.4-2.8-2.3c-1.5,0.1-2.3,0.6-2.9,2.3c-0.3,1.1-0.3,2.1,0.2,3.2
				C176.3,40.7,176.8,41.1,178.4,41.1z"/>
			<path class="st0" d="M36.7,155.7c-2.1-0.8-4-0.8-6-0.5c-1.9,0.2-3.4,2.9-2.7,4.8c0.3,0.9,0.7,1.8,1.1,2.9
				c-0.3,0.7-1.1,1.1-1.8,1.5c-1.1-0.7-1.3-1.9-1.6-3c-0.5-1.6-0.4-3.3,0.2-4.9c1.2-3.6,4.4-4.9,8-4.4c1.1,0.2,2.3,0.3,3.6,0.5
				c0.4-1.7,0.8-3.2,1-4.8c0.2-1.5-0.1-1.9-1.5-2.4c-1.8-0.7-3.6-1.2-5.4-1.7c-1.9-0.6-3.8-1.1-5.8-1.8c-1-0.3-1.6-1.8-1-2.7
				c0.3-0.5,0.6-0.4,1-0.3c1.8,0.5,3.5,1,5.3,1.6c2,0.6,3.9,1.2,5.9,1.8c1.3,0.4,2.6,0.9,3.4,2.2c0.4,0.6,0.7,1.3,0.8,2
				c0.3,1.7-0.2,3.3-0.7,4.9c-0.5,1.5-0.7,3-1,4.5c-0.4,1.9-0.8,3.7-1.1,5.6c-0.4,2-0.8,4-1,6c-0.3,2.5-0.7,3.9-2.2,5.8
				c1.3,2.6,0.8,5.3,0.6,8.1c-0.2,1.6-0.1,3.2-0.1,4.7c0,2.4,0,4.8,0,7.2c-1.7-0.2-2.4-1-2.4-2.3c0-1.5,0-3,0-4.4c0-0.4,0-0.9,0-1.5
				c-0.7,0-1.2-0.1-1.7-0.1c-1.3,0-2.5,0-3.8,0c-2,0.1-3.2,1.6-2.6,3.5c0.2,0.7,0.7,1.4,1,2.1c0.2,0.3,0.4,0.5,0.6,0.8
				c-1,0.7-2.2,0.6-2.9-0.2c-2.3-2.6-1.3-7.2,1.8-8.7c0.5-0.2,1-0.4,1.6-0.4c1.5,0,3,0,4.4,0c0.5,0,0.9,0,1.6-0.1
				c0-0.6,0.1-1,0.1-1.5c0.1-1,0.1-2,0.2-3c0,0,0-0.1,0-0.2c0.2-2-0.5-3-2.5-3.2c-1.6-0.2-3.1-0.4-4.7-0.5c-2.2-0.2-2.6-0.6-2.3-3.1
				c0.7,0,1.4,0,2.1,0.1c1.8,0.2,3.6,0.4,5.4,0.6c1.9,0.2,2.9-0.8,3.1-2.7c0.3-2.1,0.6-4.1,1-6.2c0.3-1.7,0.8-3.4,1.1-5.1
				c0.1-0.5,0.1-1,0.2-1.6L36.7,155.7z"/>
			<path class="st0" d="M58.1,106.3c-1.2-0.9-2.3-1.8-3.4-2.5c-1.7-1.1-2.9-2.6-3.2-4.6c-0.2-1.1,0.3-2.2,0.8-3.2
				c0.8-1.3,1.8-2.4,3.4-2.9c0.6-0.2,0.9,0,1,0.6c0,0.2,0,0.4,0,0.6c0,0.8-0.3,1.4-1.1,1.7c-1.9,0.9-2.2,2.8-0.7,4.3
				c0.3,0.3,0.6,0.6,1,0.9c1.1,0.8,2.2,1.6,3.5,2.5c0.5-0.5,1-1,1.4-1.6c0.9-1.2,1.7-2.4,2.5-3.6c0.4-0.5,0.7-0.8,1.5-0.8
				c0.6,0,1.1-0.1,1.7-0.1c0.4,0.6,0,0.9-0.3,1.2c-1.1,1.7-2.3,3.4-3.5,5.1c-1.4,2-2.9,4-4.3,6.1c-0.9,1.4-2,2.6-3.5,3.5
				c0.2,3-1.7,5.1-3,7.5c-0.5,1-1.2,1.8-2.3,2.1c-0.6,0.2-0.7,0.7-0.4,1.1c0.5,0.7,0.4,1.3,0.1,2.1c-0.3,0.7-0.4,1.4-0.7,2.1
				c-1.1,2.2-3.3,3.2-5.9,2.6c-1.9-0.5-3.7-1.3-5.1-2.7c-1.4-1.4-1.8-3.1-1-4.9c0.7-1.8,1.6-3.6,2.4-5.3c0.4-0.9,0.7-0.9,1.6-0.5
				c1.8,0.8,3.6,1.7,5.4,2.5c1.8,0.9,3,0.6,4.2-1c0.9-1.3,1.9-2.6,1.6-4.4c-0.1-0.6-0.2-1.1-0.8-1.5c-0.4-0.3-0.7-0.5-1.1-0.8
				c-1.5-0.9-3-1.7-4.5-2.6c-0.9-0.6-1-0.7-0.6-1.8c0.1-0.2,0.2-0.5,0.2-0.7c0.1-0.2,0.2-0.4,0.4-0.8c0.7,0.4,1.4,0.8,2.1,1.1
				c1.5,0.8,2.9,1.8,4.4,2.5c1.6,0.8,2.8,0.6,3.7-0.6c0.8-1,1.4-2.1,2.3-3.4L58.1,106.3z M38.9,124.8c-0.1,0.5,0.3,1,0.8,1.6
				c1.2,1.2,2.9,1.6,4.5,2.1c0.3,0.1,0.7,0,1-0.2c1-0.4,1.6-1.2,1.8-2.3c0.2-1.2-0.3-2.1-1.3-2.7c-1.5-0.8-3-1.6-4.6-2.3
				c-0.2-0.1-0.8,0-0.9,0.2C39.7,122.3,38.9,123.3,38.9,124.8L38.9,124.8z"/>
			<path class="st0" d="M131.7,48c-0.6-1.8-1-3.4-1.6-5.1c-0.5-1.7-0.1-2.4,2.1-2.8c0.7,2.3,1.5,4.7,2.3,7.1c1.9,0,3.4-0.9,5.2-1.3
				c0-0.4,0-0.8-0.2-1.1c-0.5-1.8-1-3.6-1.7-5.3c-0.7-1.9-0.3-1.9,1-2.9c0.2-0.1,0.4-0.2,0.7-0.4c0.2,0.4,0.5,0.7,0.6,1
				c0.7,2.1,1.2,4.3,1.9,6.4c0.1,0.3,0.3,0.6,0.5,0.9c1.5,0.2,2.6-0.4,3.8-1c0.9-0.5,1.2-1.8,0.9-2.9c-0.7-2.2-1.4-4.3-2.1-6.4
				c0.8-0.9,1.7-1.5,2.5-1.6c0.6,2,1.2,4.1,1.9,6.2c0.4,1,0.7,2,0.6,3.1c-0.2,2.1-1.4,3.5-3.3,4.3c-1,0.4-2.1,0.7-3.2,1
				c-3.2,1-6.5,2-9.7,3c-2.6,0.8-5.1,1.7-7.6,2.7c-2.1,0.8-3.9,0-4.9-2.2c-1.5-3.5-3-6.9-4.5-10.5c-0.1-0.2-0.1-0.3-0.2-0.4
				c-0.2-0.6-0.8-1.3-0.6-1.8c0.3-0.7,1.1-1.2,1.8-1.9c0.3,0.6,0.6,0.9,0.8,1.2c1.7,3.8,3.3,7.6,4.9,11.5c0.7,1.7,1.1,1.9,2.9,1.1
				c1.3-0.5,2.6-0.9,3.9-1.4C131,48.5,131.4,48.3,131.7,48z"/>
			<path class="st0" d="M208.2,333.2c-1.1,0.1-2.2,0.2-3.2,0.3c-1,0.1-2.1,0.3-3.4,0.5c-0.1-1-0.1-1.7-0.2-2.4
				c0.2-0.2,0.3-0.3,0.5-0.3c2.1-0.3,4.3-0.6,6.4-0.9c0.2,0,0.3,0,0.4,0c2-0.2,2-0.1,2.1,1.9c0.2,1.5,0.5,3,0.7,4.5
				c0.2,1.5,0.4,3,0.6,4.5c-1.9,0.7-2.1,0.6-3-1.5c-0.2,0.1-0.5,0.2-0.6,0.4c-1.4,2-3.4,2.8-5.8,3.2c-2.4,0.4-4.4,0-6.4-1.3
				c-1.3-0.8-2.2-1.9-2.9-3.2c-1.2-2.4-1.9-4.9-1.8-7.6c0.3-4.1,2.4-8.1,6.7-9.4c2.6-0.8,5.2-0.8,7.7,0.5c1.9,1,3,2.6,3.6,4.7
				c-0.5,0.2-0.9,0.5-1.3,0.6c-1,0.3-1.4,0.2-1.9-0.7c-0.7-1.2-1.6-2.1-2.9-2.5c-3.2-1-7.3,0.8-8.2,4c-0.4,1.3-0.9,2.8-0.3,4.4
				c0.4,1,0.4,2.1,0.6,3.2c0.3,1.3,1.1,2.5,2.1,3.5c0.8,0.8,1.9,1.2,3.1,1.2c1.4,0,2.7,0,4-0.6c2.2-1,3.2-2.9,3.3-5.2
				c0-0.4,0-0.7-0.1-1.3L208.2,333.2z"/>
			<path class="st0" d="M125.6,316.1c0-0.4,0.1-0.5,0.1-0.6c0.6-2.5,0.1-3.3-1.7-4.7c-0.9-0.7-2.1-1.1-3.2-1.3
				c-1.1-0.2-2.2,0.5-2.9,1.5c-0.6,0.8-0.6,1.8,0,2.6c0.5,0.7,1.2,1.3,1.9,2c1.3,1.3,2.9,2.4,4,3.8c2.6,3,1.3,7.6-2.4,9.1
				c-1.7,0.6-3.3,0.5-4.9,0c-2.5-0.8-4.7-2-6.2-4.4c-1.1-1.8-1.2-3.8-0.5-5.8c0.4-1.2,0.8-1.3,1.9-0.7c0.4,0.2,0.7,0.5,1,0.6
				c-0.1,1-0.2,1.9-0.3,2.7c-0.1,1.5,0.6,2.5,1.8,3.3c1.1,0.9,2.4,1.4,3.8,1.7c2.1,0.4,4.3-1.3,3.7-3.6c-0.2-0.8-0.9-1.5-1.5-2.1
				c-1.3-1.2-2.7-2.4-4-3.6c-1.3-1.2-2.3-2.5-2.1-4.5c0.3-2.4,1.6-4,3.7-5c1.5-0.7,3-0.7,4.6-0.1c2.2,0.8,4.1,1.9,5.4,3.8
				c1.1,1.7,1.5,3.5,0.6,5.4c-0.4,1-0.7,1.1-1.7,0.6C126.5,316.7,126,316.5,125.6,316.1L125.6,316.1z"/>
			<path class="st0" d="M239.8,332.9c-1-1.1-2-2.3-2.9-3.5c-1.3-1.6-1.3-1.7-3.2-1c-1.6,0.6-3.1,1.2-4.6,1.7
				c-0.7,0.2-0.9,0.6-0.9,1.3c0,1.3,0,2.6,0,4c0,1.6-0.3,2-1.9,2.2c-0.3,0.1-0.7,0.1-1,0.1c-0.1-0.2-0.2-0.4-0.2-0.6
				c0.1-6.7,0.2-13.5,0.3-20.2c0-1,0.4-1.5,1.3-1.8c1.9-0.7,1.9-0.7,3.3,0.9c4,4.8,8,9.5,12,14.3c0.3,0.4,0.5,0.8,0.8,1.3
				C241.7,332.1,241,332.4,239.8,332.9L239.8,332.9z M228.6,327.5c1.6-0.7,3.4-1,5-2c-1.7-2.2-3.4-4.3-5.2-6.3
				C227.9,321.3,228.1,326.6,228.6,327.5z"/>
			<path class="st0" d="M257.2,324.2c-0.8,0.5-1.6,1-2.5,1.6c-2.1-2.9-3.7-5.9-5.6-8.9c-1.9-3-3.6-6-5.5-9c3.1-1.9,6-3.8,9.1-5.4
				c2.9-1.5,5.5-0.6,7.5,2.3c1,1.5,1.2,3.2,0.9,4.9c-0.3,1.2-0.9,2.3-2.1,3.1c-1.7,1.1-3.4,2.1-5,3.2c-1.2,0.8-1.2,0.8-0.4,2.1
				C254.7,320.1,255.9,322,257.2,324.2L257.2,324.2z M247.8,308.7c1.2,1.9,2.3,3.8,3.4,5.5c0.3,0,0.5,0,0.6-0.1
				c1.5-0.9,3-1.8,4.5-2.8c1.3-0.8,2-1.9,1.8-3.5c-0.3-2.1-2.2-3.4-4.2-2.6C251.6,306,249.9,307.4,247.8,308.7L247.8,308.7z"/>
			<path class="st0" d="M240.1,51.2c-0.7,0.1-1.2,0.2-1.8,0.3c-1.6,0.2-3-0.3-4.3-1.1c-1.5-1-2.2-2.5-2.1-4.3c0.2-2.5,1.1-4.8,3-6.5
				c1.5-1.3,3.2-1.3,4.9-0.8c1.9,0.6,3.7,1.4,5.5,2.1c0.5,0.9-0.2,1.6-0.4,2.2c-0.6,1.7-1.3,3.2-2,4.8c-0.6,1.6-0.1,3,1.4,3.8
				c0.9,0.5,1.8,1,2.7,1.3c2,0.7,3.2,0.1,4.1-1.8c0.8-1.6,1.5-3.2,2.3-4.8c0.2-0.3,0.5-0.6,0.7-0.8c0.9,0.2,1.6,0.4,2.5,0.6
				c-0.3,0.7-0.6,1.3-0.9,2c-0.8,1.7-1.6,3.4-2.5,5.1c-1,1.8-2.5,3.1-4.7,2.9c-1-0.1-2.1-0.4-3.1-0.8c-0.9-0.4-1.9-0.8-2.7-1.4
				C241.7,53.2,240.6,52.5,240.1,51.2L240.1,51.2z M238,49.1c0.8-0.1,1.6-0.6,2-1.5c0.7-1.5,1.4-3,2-4.6c0.3-0.8,0-1.1-0.8-1.5
				c-0.7-0.3-1.4-0.4-2.1-0.6c-1-0.4-1.7,0-2.4,0.7c-0.9,0.9-1.3,2.1-1.7,3.2c-0.7,2.3,0.6,4.1,3,4.1H238z"/>
			<path class="st0" d="M172.7,343.4h-2.1c-0.2-0.4-0.4-0.8-0.6-1.3c-0.6,0.3-1,0.6-1.6,0.8c-3.2,1.5-6.3-0.5-7.7-3.1
				c-2-3.8-0.7-8.3,1.8-10.9c2-2.1,4.9-2.4,7.7-0.6c0.4,0.3,0.8,0.6,1.3,0.9c0.3-2.3,0.5-4.3,0.8-6.4c0.6-0.2,1.4-0.3,2.5-0.1
				c0.4,3.5-0.7,6.8-0.9,10.3c-0.3,3.4-0.7,6.9-1.2,10.4L172.7,343.4z M170.9,334.7c0-0.5,0-1-0.1-1.5c-0.1-1.7-1-2.8-2.8-3.3
				c-1.3-0.4-3.1,0.3-3.8,1.6c-1.2,2.1-1.8,4.2-0.9,6.7c0.5,1.4,1.3,2.3,2.7,2.6c1.5,0.4,2.9-0.1,3.8-1.5S171,336.4,170.9,334.7
				L170.9,334.7z"/>
			<path class="st0" d="M76.7,68.8c1.1,1.2,2.1,2.3,3.1,3.3c1.1,1.2,2.3,2.4,3.4,3.6c0.5,0.6,1,0.6,1.5,0.1c1-0.9,2.1-1.9,3.1-2.9
				c1.1-1.2,1.1-2.2,0.1-3.5c-2.2-2.8-4.5-5.6-6.7-8.4c-0.3-0.4-0.6-0.8-1-1.3c0.5-0.7,0.9-1.4,1.5-2.2c0.4,0.3,0.7,0.5,0.9,0.8
				c2.6,3.2,5.1,6.4,7.7,9.6c1.5,1.9,1.5,5-0.4,6.7c-1.2,1.1-2.5,2.2-3.7,3.3c-0.2,0.2-0.4,0.3-0.6,0.4c0.4,0.7,0.7,1.2,0.9,1.7
				c0.7,1.8,0.6,3.5-0.5,5c-0.7,1-1.6,1.9-2.5,2.6c-1.1,0.9-2,0.8-3.9-0.3c0.2-0.2,0.3-0.5,0.5-0.6c0.7-0.4,1.4-0.7,2-1.2
				c2.4-2,2.7-3.9,0.7-6.1c-2.2-2.5-4.5-4.9-6.8-7.4c-0.9-0.9-0.9-0.9-0.2-2C76.2,69.8,76.4,69.4,76.7,68.8L76.7,68.8z"/>
			<path class="st0" d="M135.8,334.7c-1.2,0.1-2.3,0.3-3.4,0.3c-2.2,0.1-4.5-1.5-5.2-3.5c-0.8-2.2,0.7-5.2,3-5.7
				c1.5-0.3,3-0.2,4.4,0.2c0.9,0.2,1.8,0.5,2.7,0.7c0.7,0.2,1.2,0.1,1.7-0.6c0.5-0.7,0.6-1.5,0.2-2.2c-0.8-1.3-3.6-2.2-5-1.5
				c-0.3,0.2-0.5,0.4-0.8,0.7c-0.7,0.7-2,0.7-2.6,0c-0.2-0.2-0.2-0.7-0.1-0.9c0.7-1.3,1.8-2.3,3.4-2.5c2.5-0.3,4.8,0.6,6.7,2.1
				c1.6,1.2,2,2.6,1.2,4.7c-0.9,2.5-1.9,5-2.8,7.5c-0.2,0.5-0.2,0.9,0.4,1.2c0.7,0.4,0.7,1,0.4,1.7c-0.3,0.7-0.8,0.6-1.3,0.5
				c-1.1-0.2-2-0.6-2.3-1.7C136,335.4,135.9,335.1,135.8,334.7L135.8,334.7z M137.4,329c-1.6-0.4-3.2-0.7-4.8-1
				c-1.1-0.2-2.3,0.7-2.6,1.7c-0.3,1.2,0.3,2.2,1.5,2.6c0.3,0.1,0.6,0.3,0.9,0.4C134.9,333.5,137.5,331.5,137.4,329L137.4,329z"/>
			<path class="st0" d="M146.6,323.4c0.9,0.3,1.6,0.5,2.4,0.7c0.2,0.7,0.2,1.5-0.2,2.2c-0.3,0.7-0.4,1.5-0.6,2.2
				c-0.5,1.9-0.9,3.7-1.3,5.7c-0.3,1.2,0.2,2.4,1.1,3.1c0.8,0.5,3,0.6,3.7-0.2c1.1-1.2,1.8-2.5,2.2-4.1c0.3-1.6,0.8-3.2,1.2-4.7
				c0.1-0.4,0.1-0.8,0.2-1.1c0.1-1.1,0.6-1.5,1.7-1.1c0.4,0.1,0.8,0.3,1.3,0.4c0,0.3,0.1,0.5,0.1,0.7c-1,4.5-2.1,9-3.2,13.5
				c-0.1,0.3-0.4,0.5-0.5,0.7c-1.3-0.2-2-0.8-2.1-1.8c-0.9,0.3-1.7,0.6-2.6,0.7c-1.9,0.3-5.3-0.6-5.8-3.3c-0.2-0.9-0.3-1.9-0.1-2.7
				c0.3-1.7,0.7-3.3,1.1-5C145.6,327.3,146.1,325.4,146.6,323.4z"/>
			<path class="st0" d="M100.4,54.6c0,0,0.2,0.5,0.3,0.7c0.6,1.1,1.3,2.2,1.8,3.3c1,2.1,2.4,2.2,4,1.3c2.9-1.5,5.7-3.1,8.6-4.8
				c1.8-1,2-1.8,1.1-3.6c-0.7-1.5-1.6-2.9-2.4-4.3c-0.2-0.3-0.3-0.6-0.5-0.9c-0.5-1,0-2.2,1-2.5c0.5-0.2,0.8,0.1,1,0.6
				c0.7,1.4,1.5,2.7,2.3,4.1c0.3,0.5,0.6,1,0.9,1.5c1.9,3.3,0.7,5.9-2.2,7.5c-3.1,1.7-6.2,3.3-9.3,5c-1.8,1-3.4,0.9-5.1-0.2
				c-1.6-1-2.2-2.9-2.9-4.5c-0.3-0.5,0.3-1.5,0.6-2.2c0.1-0.3,0.3-0.5,0.4-0.8C100.2,54.8,100.3,54.7,100.4,54.6z"/>
			<path class="st0" d="M314.7,120.4c0-2.5,1.6-3.9,3.4-5c1.1-0.7,2.5-1.2,3.8-1.4c2.1-0.3,3.9,0.6,5.2,2.8c1.9,3.1,1.2,5.9-1.7,7.9
				c-1.5,1-3.1,1.7-4.9,1.7c-2.6,0-3.9-1.1-5.2-3.8C314.9,121.9,314.8,121.1,314.7,120.4L314.7,120.4z M320.5,123.5
				c1.7,0,3.1-0.9,4.3-1.9c0.8-0.7,1-2.3,0.6-3.3c-0.6-1.2-1.6-1.8-3-1.6c-1.3,0.2-2.5,0.7-3.6,1.5c-1.1,0.8-1.6,2.2-1.1,3.5
				C318,123,319.1,123.6,320.5,123.5L320.5,123.5z"/>
			<path class="st0" d="M22.8,201.8c-0.1-2.9,1.9-5.1,5.1-5.5c1.2-0.2,2.4-0.2,3.7,0c2.2,0.3,4,2.2,4.3,4.1c0.2,1.1,0.3,2.1,0.1,3.2
				c-0.3,1.8-1.3,2.8-2.8,3.5c-2,0.9-4,1.1-6.2,0.6C24.4,207,22.7,204.7,22.8,201.8L22.8,201.8z M29.5,198.8
				c-0.6,0.2-1.6,0.3-2.5,0.6c-1.1,0.4-1.9,1.7-1.8,2.7c0.1,1.2,0.9,2.1,2.1,2.6c1.6,0.6,3.1,0.2,4.6-0.3c1.3-0.4,2-1.7,1.8-3.2
				c-0.2-1.2-1-2.1-2.3-2.3C30.9,198.9,30.4,198.9,29.5,198.8z"/>
			<path class="st0" d="M324.5,137.4c1.8-0.7,3.4-1.2,4.9-1.9c1.8-0.8,2.4-2,1.4-4.1c-0.4-0.9-1.1-1.6-2.1-2
				c-0.3-0.1-0.5-0.3-0.7-0.4c1.3-1.2,2.2-1.3,3.5-0.4c2.6,1.9,2.9,6.4,1,8.1c-0.6,0.6-1.3,1.1-2,1.4c-2.1,0.9-4.2,1.6-6.3,2.4
				c-0.9,0.4-1,0.4-1.4-0.6c-1.1-2.9-2.3-5.7-3.4-8.5c-0.1-0.3-0.1-0.7-0.1-1c2,0,2.4,0.2,3.1,1.9c0.5,1.2,0.9,2.4,1.4,3.5
				C324,136.3,324.3,136.8,324.5,137.4z"/>
			<path class="st0" d="M253.5,58.9c1.2-1.5,1.9-1.6,3.3-0.8c1.6,0.9,3.2,1.8,4.8,2.7c1.3-1.5,2-3.2,3-4.7c0.3-0.4,0.3-0.9,0.3-1.4
				c0-1.2-1-2.4-2.3-2.6c-0.5-0.1-1.1-0.1-1.6-0.1c-0.5,0-0.9,0.1-1.5,0.2c0-1.6,0.6-2.2,2-2.4c3.2-0.4,5.6,2,6.3,4.4
				c0.3,1.1,0,2.2-0.5,3.1c-1.1,2-2.3,3.9-3.5,6c-0.6,1-0.9,1.2-2,0.6c-1.6-0.9-3.1-1.9-4.7-2.7c-0.9-0.5-1.8-1-2.6-1.5
				C254.1,59.4,253.8,59.2,253.5,58.9L253.5,58.9z"/>
			<path class="st0" d="M151,47.5c0.3-0.1,0.6-0.2,0.9-0.2c0.9,0,1.9,0,2.8,0c2.5,0,3.8-2.4,3.3-4.8c-0.3-1.2-0.6-2.5-0.8-3.8
				c-0.3-1.3-0.6-2.7-0.8-4.1c-0.2-0.8-0.3-1.6-0.4-2.7c0.6-0.4,1.3-0.9,2.1-1.5c0.6,0.6,0.8,1.2,0.9,1.9c0.2,1.3,0.5,2.6,0.7,4
				c0.2,0.8,0.3,1.5,0.4,2.3c0.3,1.6,0.7,3.3,0.7,4.9c0.1,2.7-1.3,5.2-4.3,6.1c-0.3,0.1-0.6,0.2-1,0.3
				C153.4,50.4,151.9,49.7,151,47.5L151,47.5z"/>
			<path class="st0" d="M72.6,95.1c1.1-0.9,2.2-1.8,3.1-2.7c1.2-1.3,1.2-3,0.1-4.4c-0.4-0.4-0.7-0.8-1.1-1.1
				c-2.4-2.3-4.9-4.6-7.3-6.8c-0.2-0.2-0.4-0.3-0.7-0.4c0.5-0.9,0.9-1.6,1.3-2.4c0.4,0.3,0.8,0.4,1.1,0.6c2.7,2.5,5.5,5,8.2,7.6
				c0.7,0.7,1.2,1.5,1.7,2.4c1.1,2.3,0.2,4.4-1.2,6.2c-0.5,0.6-1,1.1-1.6,1.5c-1.1,0.8-2.3,0.6-3.4-0.4L72.6,95.1z"/>
			<path class="st0" d="M26.6,133.1c1.3,0.4,2.4,0.7,3.5,1.1c3.4,1.1,6.7,2.3,10.1,3.5c0.8,0.3,1.7,0.6,2.5,0.9
				c1.3,0.4,1.5,0.7,1.1,2.1c-0.1,0.4-0.3,0.7-0.6,1.1c-0.4-0.1-0.7-0.2-1-0.3c-4-1.4-7.9-2.7-11.9-4.1c-0.8-0.3-1.7-0.6-2.5-0.9
				c-1.2-0.4-1.4-0.6-1.3-1.9c0-0.4,0.1-0.8,0.2-1.5L26.6,133.1z"/>
			<path class="st0" d="M348.7,206.2c-1.3-0.1-2.3-0.2-3.4-0.3c-3.2-0.3-6.4-0.6-9.6-0.9c-1.2-0.1-2.5-0.2-3.8-0.4
				c-1.2-0.1-1.5-0.4-1.3-1.8c0.1-1.1,0.4-1.3,1.6-1.1c0.7,0.1,1.5,0.1,2.2,0.2c2.9,0.3,5.7,0.6,8.5,0.8c1.4,0.2,2.9,0.2,4.3,0.4
				c1.6,0.2,1.6,0.2,1.7,1.8C348.7,205.2,348.7,205.6,348.7,206.2L348.7,206.2z"/>
			<path class="st0" d="M308.2,109.8c1.2-0.8,2.5-1.7,3.8-2.5c3.4-2.1,6.8-4.3,10.2-6.3c0.4-0.3,0.8-0.8,1.3-0.4
				c0.6,0.4,1.1,0.9,1.6,1.5c0.1,0.1-0.3,0.7-0.6,0.8c-1.9,1.2-3.7,2.3-5.6,3.5c-2.6,1.7-5.3,3.3-7.9,5c-1.2,0.8-1.3,0.7-2.1-0.5
				C308.6,110.6,308.5,110.3,308.2,109.8L308.2,109.8z"/>
			<path class="st0" d="M56.1,82.3c1,0.8,1.9,1.5,2.8,2.2c2.9,2.4,5.8,4.8,8.7,7.2c0.6,0.5,1.3,1,1.9,1.6c0.7,0.6,0.6,0.9,0,1.7
				c-0.8,0.9-1.1,1-1.8,0.5c-1.7-1.4-3.4-2.8-5.1-4.2c-2-1.7-4-3.4-6.1-5C54.6,84.7,54.5,84.4,56.1,82.3L56.1,82.3z"/>
			<path class="st0" d="M86.7,54c1,1.3,1.9,2.6,2.9,3.9c2.3,3.1,4.6,6.2,6.8,9.3c0.2,0.3,0.5,0.6,0.6,1c0.3,0.6,0.3,1-0.4,1.3
				c-0.4,0.2-0.8,0.5-1.3,0.9c-0.6-0.7-1.1-1.3-1.6-2c-2.6-3.6-5.3-7.3-7.9-10.9c-1.1-1.5-1.1-1.6,0.2-3
				C86.2,54.3,86.5,54.2,86.7,54L86.7,54z"/>
			<path class="st0" d="M180.3,336.1c0,2.1,0,4.1,0,6.2c0,1.4-1.3,2.1-2.5,1.5c-0.6-0.4-0.5-1-0.5-1.6c0.1-2,0.2-3.9,0.2-5.9
				c0-1.9,0-3.8,0.1-5.8c0-0.3-0.1-0.6,0-0.9c0.2-0.4,0.4-1.1,0.7-1.1c0.6-0.2,1.3-0.1,2,0.1c0.2,0.1,0.3,0.8,0.3,1.2
				c0,2.1-0.1,4.2-0.2,6.3c-0.1,0-0.1,0-0.2,0L180.3,336.1z"/>
			<path class="st0" d="M263.9,316.5c0,0,0.3-0.2,0.4-0.3c1.9-1.2,2.5-1.1,3.3,1.1c0.4,1,0.4,0.8-1.3,2c-0.7,0.5-1,0.4-1.6-0.4
				S263.6,317.6,263.9,316.5z"/>
			<path class="st0" d="M246.2,329.8c-0.4-0.8-0.8-1.6-1.1-2.4c0-0.1-0.1-0.2,0-0.3c0.2-0.9,1.1-1,1.8-1.3c0.6-0.3,1,0,1.3,0.5
				c1.1,1.9,1.1,2.1-1,3C246.9,329.5,246.6,329.6,246.2,329.8L246.2,329.8z"/>
			<path class="st0" d="M220.6,336.1c0.2,0.9,0.4,1.8,0.6,2.9c-1.1,0.2-2,0.4-3.1,0.6c-0.3-1.1-0.5-2-0.8-2.9
				C218.4,336,219.4,335.7,220.6,336.1L220.6,336.1z"/>
			<path class="st0" d="M180.8,324.4c0,0,0,0.3,0,0.3c-0.1,1.3-1.2,2-2.4,1.2c-0.2-0.2-0.4-0.4-0.4-0.7c-0.1-0.3,0-0.7,0-1
				c0-1.5,0.7-2,2.1-1.5C181,323,180.9,323.7,180.8,324.4L180.8,324.4z"/>
			<path class="st0" d="M241,33.1c0.8,0.6,1.7,0.9,1.5,2c-0.2,0.6-1,1.2-1.7,1.2c-0.6,0-1.3-0.7-1.4-1.2
				C239.1,33.8,240.2,33.7,241,33.1z"/>
			<path class="st0" d="M32.9,123.1c-0.7,0-1.5-0.8-1.6-1.5c0-0.8,0.7-1.6,1.5-1.7c0.6,0,1.6,0.8,1.6,1.5
				C34.5,122.1,33.6,123.1,32.9,123.1L32.9,123.1z"/>
			<path class="st0" d="M41.6,175.5c0,0.8-0.7,1.5-1.5,1.5c-0.7,0-1.6-0.9-1.6-1.5c0-0.7,0.9-1.5,1.6-1.5
				C40.9,174,41.6,174.7,41.6,175.5z"/>
			<path class="st0" d="M20.7,204.9c0,0.8-0.8,1.5-1.6,1.5c-0.7,0-1.6-1-1.5-1.6c0.1-0.7,0.9-1.5,1.7-1.4
				C20.1,203.3,20.7,204.1,20.7,204.9L20.7,204.9z"/>
			<path class="st0" d="M43.8,161.1c0,0.8-0.7,1.5-1.5,1.5c-0.8,0-1.5-0.7-1.5-1.5c0-0.8,0.9-1.6,1.7-1.5
				C43.1,159.6,43.8,160.4,43.8,161.1z"/>
			<path class="st0" d="M33.1,118c0-0.8,0.8-1.6,1.6-1.6c0.7,0,1.4,0.8,1.4,1.6c0,0.7-0.8,1.5-1.5,1.5
				C33.8,119.5,33.1,118.8,33.1,118z"/>
			<path class="st0" d="M333.2,117.3c0,0.8-0.6,1.4-1.4,1.4c-0.9,0-1.5-0.7-1.5-1.6c0-0.7,0.9-1.5,1.6-1.5
				C332.6,115.8,333.2,116.5,333.2,117.3L333.2,117.3z"/>
			<path class="st0" d="M17.5,200.9c0-0.8,0.8-1.5,1.5-1.5c0.7,0.1,1.4,0.8,1.4,1.5c0,0.8-0.7,1.5-1.5,1.5
				C18,202.4,17.4,201.8,17.5,200.9z"/>
			<path class="st0" d="M346.5,177.2c0-0.9,0.5-1.5,1.5-1.5c0.7,0,1.6,0.8,1.6,1.5c0,0.7-0.9,1.5-1.6,1.5
				C347.2,178.7,346.5,178,346.5,177.2L346.5,177.2z"/>
			<path class="st0" d="M105.5,49.7c0,0.7-0.8,1.7-1.4,1.6c-0.6,0-1.6-1-1.6-1.7c0-0.6,0.9-1.5,1.6-1.5
				C104.9,48.2,105.6,48.9,105.5,49.7z"/>
			<path class="st0" d="M59.8,117.9c0,0.9-0.6,1.6-1.3,1.6c-0.6,0-1.5-0.8-1.5-1.6c0-0.8,0.6-1.6,1.4-1.6S59.8,117,59.8,117.9z"/>
			<path class="st0" d="M244.5,37.6c-0.8,0-1.6-0.7-1.6-1.5c0-0.6,0.8-1.3,1.5-1.4c0.8,0,1.6,0.6,1.6,1.4
				C246.1,36.9,245.5,37.5,244.5,37.6L244.5,37.6z"/>
			<path class="st0" d="M60.4,116.1c-0.9,0-1.6-0.6-1.6-1.4c0-0.8,0.6-1.5,1.5-1.5c0.7,0,1.6,0.7,1.7,1.3
				C62,115.2,61.2,116,60.4,116.1L60.4,116.1z"/>
			<path class="st0" d="M331.5,113.7c0,0.9-0.5,1.5-1.4,1.5c-0.8,0-1.5-0.6-1.6-1.4c0-0.7,0.8-1.6,1.6-1.6
				C330.8,112.2,331.5,113,331.5,113.7L331.5,113.7z"/>
			<path class="st0" d="M71.3,66.8c0-0.9,0.6-1.3,1.6-1.3c0.8,0,1.4,0.6,1.5,1.3c0,0.8-0.7,1.6-1.5,1.6C72,68.4,71.2,67.6,71.3,66.8
				z"/>
			<path class="st0" d="M349.6,181.1c0,1-0.5,1.5-1.4,1.5c-0.9,0-1.6-0.7-1.5-1.5c0-0.7,0.8-1.5,1.5-1.6
				C349,179.6,349.6,180.2,349.6,181.1z"/>
			<path class="st0" d="M245.5,58.8c-0.7,1.4-1.1,1.7-2.1,1.5c-0.7-0.2-0.9-0.6-1-1.2c0-0.6,0.2-1.1,0.8-1.4
				C244.1,57.3,244.7,57.6,245.5,58.8z"/>
			<path class="st0" d="M107.6,49.3c-0.8,0-1.6-0.7-1.5-1.5c0-0.8,0.7-1.5,1.5-1.5c0.8,0,1.6,0.7,1.6,1.4
				C109.1,48.6,108.3,49.3,107.6,49.3L107.6,49.3z"/>
			<path class="st0" d="M42,171.7c0,0.8-0.6,1.5-1.4,1.5c-0.8,0-1.6-0.7-1.6-1.5c0-0.7,0.8-1.5,1.5-1.6S42,170.9,42,171.7z"/>
			<path class="st0" d="M352.7,179c0,0.9-0.6,1.6-1.4,1.5c-0.8,0-1.3-0.7-1.3-1.6s0.5-1.3,1.3-1.4
				C352.2,177.5,352.7,178.1,352.7,179z"/>
			<path class="st0" d="M248.8,60.6c0,0.9-0.6,1.4-1.5,1.4c-0.8,0-1.5-0.7-1.4-1.5c0-0.7,0.7-1.4,1.4-1.4
				C248.1,59.1,248.7,59.8,248.8,60.6L248.8,60.6z"/>
			<path class="st0" d="M95.8,199.2c0.5,0.3,0.9,0.4,1.1,0.7c2.1,1.7,4.7,2.4,7.3,3.1c4.4,1,8.9,1.2,13.3,1.4
				c3.3,0.2,6.6,0.2,9.9,0.4c4.1,0.3,8.3,0.4,12.5,0.9c6.9,0.9,13.7,2.6,19.7,6.5c3.4,2.2,6.4,4.9,9,8c3.8,4.5,6.9,9.4,9.8,14.5
				c0.4,0.6,0.7,1.3,1.1,1.9c0.1,0.1,0.2,0.2,0.5,0.4c0.4-0.2,0.8-0.4,1.1-0.7c5.2-4,10.6-7.7,16.2-11.3c5-3.2,10.2-6.2,15.6-8.9
				c7.3-3.7,14.7-6.8,22.5-9.4c5.2-1.7,10.4-3.1,15.8-4.1c4-0.7,8-1.4,12.1-1.5c2.3-0.1,4.6-0.4,6.9-0.3c3.5,0.1,7,0.3,10.4,1.1
				c1.1,0.3,2.2,0.3,3.3,0.5c0.4,0.1,0.8,0.2,1.2,0.4c0,0.1,0,0.2,0,0.3c-0.5,0.2-0.9,0.5-1.4,0.6c-2.4,0.6-4.7,1.2-7.1,1.8
				c-3.1,0.7-6.2,1.2-9.2,2c-3.1,0.8-6.2,1.9-9.2,3c-9.1,3.3-17.6,7.9-25.9,12.8c-6.6,3.9-13.1,8.1-19.2,12.7
				c-5.7,4.2-11.1,8.7-16.4,13.3c-5.4,4.7-10.7,9.6-15.7,14.7c-2.4,2.5-4.8,5-7.3,7.6c-0.4,0.4-0.8,0.7-1.3,1.1
				c-0.2-0.9-0.5-1.6-0.6-2.3c-0.2-1.5-0.3-3-0.5-4.4c-0.3-1.6-0.6-3.1-1-4.6c-0.4-1.7-0.8-3.3-1.2-4.9c-0.6-2.2-1.1-4.3-1.7-6.5
				c-0.4-1.7-0.9-3.3-1.3-4.9c-0.7-2.8-1.7-5.4-2.8-8.1c-1.6-3.7-3.5-7.2-6.1-10.2c-2.6-3.1-5.5-5.9-9-8.2
				c-4.1-2.7-8.5-4.7-13.2-5.9c-3.7-0.9-7.5-1.2-11.3-0.9c-2.2,0.2-5,0.9-6.5,1.8c0.5,0.1,0.7,0.2,1,0.2c3.5,0,7.1,0.4,10.6,1
				c4.9,0.8,9.5,2.2,13.8,4.7c4.3,2.5,7.6,5.9,10.2,10.2c1.7,2.9,3.1,5.8,3.9,9c0.4,1.2,0.9,2.4,1.2,3.7c0.1,0.4,0,0.7,0,1.2
				c-0.3,0-0.5,0.1-0.8,0.1c-2.6-0.3-5.2-0.7-7.7-1c-0.9-0.1-1.8-0.2-2.6-0.3c-3.7-0.3-7.4-0.6-11.1-1.3c-3-0.6-5.9-1.3-8.8-2.2
				c-7.7-2.6-14.3-6.9-19.5-13.1c-2.7-3.3-4.9-6.9-6.7-10.8c-1.6-3.5-2.7-7.1-3.9-10.7c-0.4-1.2-0.7-2.4-0.9-3.7
				c-0.1-0.4,0-0.8,0-1.4L95.8,199.2z"/>
			<path class="st0" d="M199.9,167.9c-1.1,0.6-2.2,1.1-3.3,1.7c-3.8,2.1-7.5,4.3-11,6.8c-3.5,2.6-6.8,5.5-9.2,9.2
				c-0.4,0.7-0.7,1.4-1.1,2.1c-0.2,0.3-0.4,0.6-0.7,1c-0.1-0.6-0.3-1-0.3-1.3c0-1.7,0-3.4,0.2-5.1c0.2-2,0.4-3.9,0.7-5.9
				c0.8-4.7,2.2-9.1,4.6-13.2c2.5-4.4,5.9-7.9,10-10.8c2.3-1.6,5-2.7,7.7-3.5c3.6-1,7.2-1.8,10.8-2.7c4.5-1.2,8.9-2.9,12.6-5.9
				c1.1-0.9,2.3-1.7,3.6-2.6c0,0.6,0.1,1,0,1.5c-0.3,1.6-0.6,3.1-0.9,4.6c-0.7,3.5-1.3,6.9-2.2,10.3c-0.9,3.5-2,7.1-3.2,10.5
				c-1.7,5.2-3.9,10.3-6.5,15.1c-3.1,5.7-6.8,10.8-11.7,15c-3.2,2.7-6.8,4.8-10.8,6.2c-3.4,1.1-6.8,1.2-10.3,1c-0.7,0-1.2-0.4-1.5-1
				c-0.6-1.3-0.7-2.6-0.4-4c0.8-3.3,2.4-6.2,4.4-8.9c4.4-6.3,9.9-11.7,15.4-17c0.8-0.7,1.6-1.4,2.4-2.1c0.3-0.2,0.5-0.5,0.7-0.7
				C200.1,168.1,200,168,199.9,167.9L199.9,167.9z"/>
			<path class="st0" d="M119.3,138.7c0.9,0.7,1.8,1.4,2.7,2.1c3.9,2.8,8.2,4.8,12.9,5.9c3.6,0.9,7.3,1.7,10.9,2.6
				c4.7,1.2,8.9,3.4,12.5,6.7c4.7,4.3,7.7,9.5,9.6,15.4c1.7,5.1,2.2,10.4,2.2,15.8c0,0.5-0.2,0.9-0.3,1.7c-2.2-5.2-6-8.5-10-11.5
				c-4.8-3.6-10-6.4-15.3-9c-0.1-0.1-0.3,0-0.7-0.1c0.3,0.4,0.5,0.6,0.7,0.7c5.2,4.4,10,9.1,14.5,14.1c2.5,2.8,4.8,5.8,6.6,9.1
				c1.1,2.1,2.2,4.3,2,6.8c0,0.7-0.3,1.3-0.5,2c-0.2,0.7-0.7,0.9-1.3,0.9c-5,0.7-9.7-0.2-14.2-2.2c-5.3-2.4-9.5-6.2-13.2-10.6
				c-3.4-4.1-6.1-8.8-8.5-13.5c-2.1-4.3-3.8-8.7-5.3-13.2c-1.1-3.4-2-6.8-2.9-10.3c-0.6-2.1-1.1-4.3-1.6-6.4
				c-0.5-2.3-0.9-4.6-1.3-6.9C119,138.9,119.1,138.8,119.3,138.7L119.3,138.7z"/>
			<path class="st0" d="M171.4,87.8c1.5,2.5,2.9,4.7,4.1,6.9c2.2,4,4.3,8.1,6.3,12.3c2,4.1,3.6,8.4,5,12.8c0.7,2.2,0.9,4.5,1.5,6.7
				c0.9,3.4,0.7,6.9,0.4,10.4c-0.2,2.6-1.3,5.1-2.9,7.3c-2.7,3.7-6.4,5.7-10.9,6.3c-1.5,0.2-3,0.4-4.4,0.3c-4.8-0.1-9-1.7-12.5-5.1
				c-1.8-1.8-2.9-4-3.7-6.5c-0.9-2.9-1-5.7-0.8-8.6c0.1-1.7,0.2-3.4,0.8-5c0.6-1.7,0.8-3.6,1.3-5.3c0.8-3.2,2-6.3,3.2-9.4
				c2.6-6.2,5.7-12.1,9-17.9c1-1.8,2.2-3.4,3.5-5.3L171.4,87.8z M157.3,131.6c-0.1,0.4-0.2,0.5-0.2,0.7c0,2.4,0.3,4.8,1,7.1
				c0.6,1.9,1.7,3.5,3.4,4.6c3,2,7.3,2.5,11,1.5c-0.3-0.2-0.4-0.3-0.6-0.4c-1.1-0.5-2.3-0.9-3.4-1.5c-3.1-1.6-5.7-3.8-7.7-6.6
				c-1.1-1.6-2.1-3.2-2.9-4.9C157.9,131.8,157.5,131.8,157.3,131.6z"/>
			<path class="st0" d="M186.7,227.9c-1-2-1.8-3.7-2.7-5.4c-0.9-1.8-1.7-3.5-2.6-5.2c-0.6-1-0.5-2,0.2-2.9
				c4.9-6.3,10.8-11.4,18.5-13.9c3.5-1.1,7-1.7,10.6-2.1c4.7-0.5,9.4-0.5,14.2-0.4c4.1,0.1,8.3,0.5,12.5,0.8c0.5,0,1,0,1.5,0.1
				c0.4,0,0.7,0.2,1.3,0.4c-0.5,0.3-0.7,0.5-0.9,0.6c-4.8,1.9-9.6,3.8-14.5,5.7c-3.1,1.2-6,3-8.8,4.7c-4.4,2.6-8.9,5.2-13.3,7.9
				c-4.4,2.7-8.9,5.1-13.1,8.2C188.8,227,187.8,227.4,186.7,227.9L186.7,227.9z"/>
		</g>
	</g>
	<circle class="st1" cx="184.5" cy="183.7" r="124.9"/>
	<circle class="st1" cx="184.5" cy="183.7" r="180.3"/>
</g>
</svg>
