<?xml version="1.0" encoding="UTF-8"?>
<svg id="Layer_2" data-name="Layer 2" xmlns="http://www.w3.org/2000/svg" viewBox="0 0 59.63 77.63">
  <defs>
    <style>
      .cls-1 {
        fill: #04713f;
      }

      .cls-2 {
        fill: #fff;
      }

      .cls-3 {
        fill: #106841;
      }
    </style>
  </defs>
  <g id="Layer_1-2" data-name="Layer 1">
    <g>
      <g>
        <path class="cls-3" d="M59.48,77.38v.1H.15V.15h59.34v54H.25v23.24h59.24ZM28.63,7.96c-.07-.08-.42.05-.4.24l-1.38,5.3-2.74-1.27c-.48-.04-.52.11-.23.43.66.72,1.45,1.33,2.18,1.98.29.26,1.56,1.59,1.83,1.6.03,0,.23-.06.24-.07.02-.03.1-.62.11-.73.16-2.25.36-4.58.39-6.83,0-.17.14-.47,0-.64ZM31.2,12.41c-.23-.97-.69-1.86-1-2.81-.1-.2-.29-.17-.48-.16,0,1.54.27,3.06.2,4.6.15.25,0,1.06.26,1.13.32.09,1.29-.94,1.58-1.18,1.28-1.08,2.61-2.13,3.81-3.32.12-.12.54-.35.5-.59-.08-.47-1.05.27-1.22.36l-3.63,1.96ZM39,16.18c-.12-.17-3.59-.86-4.04-1.25l1.17-2.79c.06-.36-.22-.38-.45-.2-.98,1.37-2.27,2.56-3.29,3.88-.1.13-.27.52-.04.55.32.05.74-.03,1.08,0,1.2.08,2.45.16,3.65.2.27,0,1.86.06,1.93,0,.01-.01.02-.35-.01-.38ZM25.2,15.84c-.95-.88-1.89-2.32-2.9-3.08-.28-.21-.49-.23-.48.18.9,1.41,1.68,2.91,2.66,4.27,0,.16-2.46,1.08-2.81,1.25-.3.18-.18.51.18.48,1.41-.13,2.85-.24,4.26-.39.17-.02,1-.12,1.04-.15.14-.09.12-.32.05-.45l-1.99-2.11ZM38.81,17.46l-5.57.48c-.06,0-.14.22-.14.27,0,.08.48.66.58.77.82.93,1.79,1.86,2.64,2.75.57.6,1.14,1.4,1.81,1.9.3.22.5.21.48-.19l-2.66-4.41c.49-.22,2.73-.96,2.92-1.29.03-.04-.05-.28-.06-.29ZM25.07,28.73s-.08.25-.06.29c.04.07.22.23.3.3.61.51,1.46,1.05,2.13,1.52.98.7,2,1.4,3.01,2.04.11.01.23,0,.3-.1.09-.14.06-1.18.05-1.44-.09-2.63-.25-5.28-.31-7.9-.03-1.55.17-3.48,0-4.95-.02-.17-.08-.37-.26-.43-.44-.13-.31.48-.34.72-.25,1.92-.27,3.99-.39,5.94-.08,1.31-.23,2.64-.3,3.95-.03.48.02.96,0,1.44l-3.65-1.34c-.11-.03-.44-.09-.5-.04ZM28.43,20.23c-.12-.18-1.87-.09-2.22-.1-1.1-.04-2.25-.17-3.36-.2-.57-.02-1.33-.05-1.89,0-.36.03-.51.27-.17.48.58.21,4.68,1,4.83,1.2.11.14-.03.38-.08.53-.27.73-.65,1.49-.95,2.22-.09.41.15.52.45.3.82-1.03,1.67-2.06,2.5-3.09.2-.25,1.08-1.05.88-1.33ZM33.48,22.89l2.84.97c.61.03.46-.23.13-.53-1.18-1.07-2.82-1.92-4.02-3-.6-.34-.42.32-.43.62,0,1.2.05,2.38.1,3.56.02.64-.1,1.6,0,2.18.05.32.4.52.5.11l.88-3.91ZM29.91,36.64h-.69v3.26c-.28-.02-1.58.12-1.58-.25v-1.43h-.69v1.43c0,.29-.57.42-.79.2s-.04-1.1-.1-1.44h-.79c-.08.47.26,1.46-.37,1.57-.87.15-.39-1.33-.52-1.47-.03-.03-.66-.04-.75.09-.18.26.14,1.18-.2,1.28-.17.05-1.97.05-2.15,0-.5-.15-.55-1.41.19-1.47.41-.03.44.4.55.48.11.07.51-.02.68.02-.06-1.02-1.12-1.31-1.95-.91-.69.33-.72,1.34-.32,1.9h-1.29c.02-.67.05-1.62-.69-1.93-1.28-.53-2.24.44-1.96,1.76.18.88,1.16.79,1.86.76.15.94-1.22.73-1.29.79-.04.04-.04.52.16.58.51.17,1.32-.19,1.6-.65.16-.25.18-.69.46-.73,1.56-.03,3.15.06,4.7-.05.34-.41.24-.14.5,0,.41.22.76.15,1.15-.03.1-.04.25-.21.28-.21.03,0,.2.21.32.26.51.26.99.04,1.41-.28-.04.22.18.27.35.29.6.08,1.31-.04,1.92,0v-3.86ZM30.8,36.64v3.86h.79v-3.86h-.79ZM36.74,36.64h-.69v3.86h1.63c.06,0,.22-.33.38-.29.09.02.42.41.72.47.35.07,1.01.05,1.31-.13.13-.08.27-.32.36-.34.16-.03.22.19.34.24.16.08,1.38.08,1.63.05s.45-.3.58-.28c.17.02.3.26.6.29,1.12.12,2.47-.1,3.62,0v-.59h-1.53c-.31,0-.65-1.33.12-1.47.38-.07.59.11.63.47h.68c-.02-1.02-1.14-1.29-1.95-.9-.67.32-.71,1.34-.32,1.9-.32-.06-1.16.1-1.39-.05-.33-.22-.15-1.26-.19-1.64h-.79v1.58c-.36.09-1.28.2-1.58.05-.29-.14-.17-.58-.22-.87-.22-1.29-2.6-1.29-2.82,0-.05.28.07.73-.22.87-.24.12-.62.02-.89.05v-3.26ZM42.67,36.64h-.59v.59h.59v-.59ZM43.66,36.64h-.69s0,.59,0,.59c.21-.01.61.08.68-.16.02-.08.03-.42.01-.43ZM50.88,36.64h-.69v3.26h-1.09v-2.27h-.79v2.27h-.59s0,.59,0,.59h3.16v-3.86ZM52.56,36.64h-.79v3.86h.79v-3.86ZM12.81,37.92h-1.63s-.43.15-.5.19c-.87.54-.18,2.12-.48,2.58-.09.14-1.15.12-1.39.09-1.01-.15-.71-1.12-.74-1.88h-.79v1.53c0,.06.31.52.39.6.59.56,1.74.3,2.53.34.15,0,.84.24.84-.05v-2.37c0-.39.71-.35.99-.45v2.08h.79v-2.67ZM15.77,40.5c.16-1.62-.22-2.77-2.08-2.57v.59c1.07-.16,1.38.39,1.29,1.38h-1.48v.59h2.27ZM35.25,40.5c.13-1.57-.26-2.77-2.08-2.57v.59c1.06-.18,1.35.43,1.29,1.38h-1.48v.59h2.27ZM9.05,41.98h-.59v.5h.59v-.5ZM9.94,41.98h-.59v.5h.59v-.5ZM18.44,43.26h-.69v1.48c-.27.08-.14-.14-.27-.2-.88-.4-1.64.1-1.71,1.04-.11,1.34.7,2.13,1.93,1.34l.11.2h.63v-3.86ZM36.94,43.26h-.59v1.48c-.21.03-.3-.19-.49-.25-.63-.21-1.38.11-1.49.8-.14.99.18,2.19,1.41,1.91.24-.05.34-.3.55-.27l.07.19h.53v-3.86ZM46.33,43.96v-.69c-.22.13-.45.11-.69.1v.59s.69,0,.69,0ZM19.73,43.36h-.69v.59h.69v-.59ZM38.32,43.36h-.69v.59h.69v-.59ZM9.35,43.56c-.83-.17-2.08-.27-2.18.84-.02.24,0,.47.12.68.29.5,1.46.54,1.46,1.1,0,.84-1.42.28-1.48.35.02.22,0,.4-.1.59.84.2,2.33.24,2.38-.94s-1.69-1.09-1.69-1.68c0-.54,1.02-.51,1.39-.35l.1-.59ZM25.07,47.12l-1.33-3.46c-.13-.18-.7-.08-.93-.08l-1.4,3.55h.78c.14-.36.1-.76.55-.8.23-.02,1.19-.05,1.29.1s.1.55.24.65l.8.04ZM39.11,44.95v1.43s.15.43.19.5c.28.45.73.34,1.19.34v-.59c-.17.2-.59,0-.59-.15v-1.53h.59s0-.49,0-.49h-.59s-.05-.69-.05-.69c-.49.11-.88.09-.74.69h-.4s0,.49,0,.49h.4ZM43.96,44.95v1.83c0,.05.38.37.49.4.2.07.88.15.85-.15-.04-.45-.19-.22-.45-.34-.04-.02-.2-.18-.2-.2v-1.53h.59s0-.49,0-.49h-.59s-.05-.69-.05-.69c-.49.05-.74.15-.64.69h-.5s0,.49,0,.49h.49ZM12.31,47.12c-.3-.67.16-1.74-.3-2.32s-1.26-.31-1.88-.24v.69c.45-.42,1.54-.53,1.48.3-.81-.08-2,.02-1.76,1.12.15.65,1.36.78,1.71.17l.05.29h.69ZM13.5,44.45c-.21.01-.61-.08-.68.16-.06.22-.04,1.38-.01,1.67.11,1.1,1.15,1.18,1.88.54v.4s.59,0,.59,0v-2.77h-.69v1.73c0,.12-.38.54-.55.55-.27.02-.54-.18-.54-.45v-1.83ZM19.73,44.45h-.69v2.67h.69v-2.67ZM27.15,45.05c.3-.72-.37-.67-.94-.59-1.24.18-1.37,2.56.1,2.76.55.07,1.07.11.93-.59-1.66.64-1.75-2.16-.1-1.58ZM29.42,44.45c-1.01-.16-1.99.17-1.99,1.34s.81,1.58,1.84,1.44c.39-.06.14-.33.15-.6-.5.18-1.12.06-1.19-.54-.1-.9.28-1.37,1.19-1.04v-.59ZM29.91,44.45v2.67h.59c.04-.73-.2-2.15.89-2.08.05-.46.05-.81-.49-.54-.18.09-.3.45-.35.45l-.05-.5h-.59ZM34.07,46.03c-.01-.58-.14-1.36-.79-1.54-1.23-.34-2.07.67-1.74,1.84.22.79,1.06.98,1.78.88.55-.07.61-.24.55-.78-.58.46-1.59.48-1.68-.4h1.88ZM38.32,44.45h-.69v2.67h.69v-2.67ZM42.85,44.67c-.28-.28-1.61-.32-1.81-.03-.1.14-.02.43-.04.6.33-.35,1.38-.52,1.48.05.01.06,0,.24,0,.25-.07.07-1.16-.18-1.59.34-.54.67.15,1.45.94,1.34.26-.04.4-.26.51-.28.07-.01.56.34.83.19-.06-.6.12-2.01-.32-2.45ZM46.33,44.45h-.69v2.67h.69v-2.67ZM49.65,45.83c0-.79-.64-1.43-1.43-1.43s-1.43.64-1.43,1.43.64,1.43,1.43,1.43,1.43-.64,1.43-1.43ZM50.09,44.45v2.67h.69v-1.63c0-.12.37-.52.55-.55.23-.03.54.13.54.35v1.83h.69v-2.03s-.21-.4-.25-.44c-.31-.36-1.2-.25-1.53.1v-.29s-.69,0-.69,0Z"/>
        <path class="cls-2" d="M59.48,54.14v23.24H.25v-23.24h59.24ZM40.79,60.77c.07-1.85-3.42-1.59-2.9.18.34,1.13,2.21.79,2.21,1.45s-1.6.63-1.6-.24h-.78c-.01,1.07.9,1.59,1.9,1.45.46-.07.84-.19,1.08-.6.44-.75.18-1.47-.61-1.8-.39-.16-1.43-.2-1.39-.69.03-.33.6-.29.85-.25.33.06.32.42.51.48.2.07.51-.02.73.01ZM3.21,59.58v3.96h.79v-2.57c.13-.03.16.18.17.27.08.4.15.85.24,1.24.09.35.26.69.28,1.05h.88s.03-.31.03-.31l.67-2.45v2.77h.79v-3.96h-1.28s-.65,2.57-.65,2.57l-.62-2.25-.03-.32h-1.28ZM34.66,61.36v1.83c0,.44,1.11.6,1.36.2l-.08-.55c-.19-.02-.41.19-.48-.06-.03-.11-.07-1.38,0-1.42.15-.12.66.19.49-.69h-.5s0-.99,0-.99c-.52.14-.93.39-.79.99h-.4s0,.69,0,.69h.4ZM47.62,61.36v1.83c0,.4.94.55,1.29.3.14-.1-.08-.46,0-.64-.02-.02-.49.2-.49-.05v-1.43h.49s0-.69,0-.69h-.5s-.05-.99-.05-.99c-.5.19-.87.38-.74.99h-.4s0,.69,0,.69h.4ZM10.23,63.54c-.35-.96.45-2.71-.96-2.94-.53-.09-1.33.02-1.56.57-.03.08-.1.26-.05.29.04.04.45.12.54.1.21-.03.27-.24.41-.29.37-.11.74-.07.73.38-.76.13-2.1.31-1.74,1.39.25.76,1.23.64,1.78.29l.11.21h.73ZM13.4,63.54v-2.23c0-.05-.18-.39-.24-.45-.43-.42-1.22-.39-1.59.1l-.05-.29h-.79s0,2.86,0,2.86c.18-.02.85.08.87-.14,0-.04-.08-.18-.08-.3,0-.36,0-1.6.3-1.79.12-.08.49-.08.6,0,.03.02.19.38.19.4v1.83h.79ZM16.56,63.54c-.29-.72.18-2.09-.35-2.67-.49-.54-2.29-.4-2.22.59.63.36.78-.28,1.33-.2.18.03.37.19.35.4-.49.1-1.6.2-1.76.76-.34,1.13,1.02,1.51,1.81.92l.11.21h.73ZM19.73,63.88v-3.21h-.79s.05.3.05.3c-.54-.55-1.32-.54-1.78.11-.86,1.21.33,3.38,1.72,2.07,0,.41.12.76-.37.87-.66.15-.56-.24-.69-.28-.16-.04-.78-.15-.87,0-.04.07.1.45.16.53.31.47,1.3.49,1.79.33.33-.11.69-.35.77-.72ZM22.89,62.35c.22-1.25-1.14-2.37-2.21-1.47-.62.52-.65,1.78-.11,2.35.65.68,2.16.47,2.22-.59-.19.07-.5-.11-.63-.08-.14.03-.26.31-.42.36-.38.11-.76-.18-.73-.58h1.88ZM26.75,63.54c.18-.02.85.08.87-.14,0-.04-.08-.18-.08-.3-.01-.68.2-1.9-.34-2.33-.74-.57-1.28.24-1.47.19-.08-.02-.23-.24-.38-.31-.66-.3-1.22.38-1.26.32v-.29s-.69,0-.69,0v2.87h.79v-1.93s.25-.28.3-.3c.23-.12.59-.09.59.2v2.03h.79v-1.63s.13-.39.15-.44c.15-.3.74-.29.74.05v2.03ZM30.71,62.35c.12-.88-.36-1.79-1.34-1.79-1.24,0-1.61,1.44-1.12,2.41s2.07.81,2.45-.18c.08-.22-.15-.12-.25-.14s-.46-.1-.48-.09c-.16.04-.14.56-.78.37-.23-.07-.27-.38-.36-.58h1.88ZM33.87,63.54v-2.32c0-.06-.26-.39-.34-.45-.48-.35-1.09-.21-1.49.2-.11-.02,0-.23-.05-.29-.02-.03-.65-.05-.74.09-.18.26.03,2.16-.03,2.61.08.27.64.13.88.16v-1.93c0-.28.57-.45.79-.3.04.02.19.28.19.3v1.93h.79ZM46.83,61.46c-.01-1.15-2.17-1.19-2.43-.2-.28,1.05.86,1.03,1.49,1.28s-.12.54-.59.39c-.15-.05-.16-.27-.26-.34-.16-.11-.45.02-.65.06-.1.02-.2-.05-.15.15.15.51.93.86,1.43.85.79-.03,1.65-.72,1.15-1.52-.2-.32-1.18-.41-1.52-.58-.45-.22.08-.41.36-.36.24.04.41.34.53.37s.44-.16.63-.08ZM51.87,62.35c.01-.91-.42-1.79-1.43-1.79-1.46,0-1.78,2.34-.62,2.9.75.36,1.63.13,1.95-.67.09-.22-.15-.12-.25-.14-.14-.03-.4-.11-.48-.11-.1,0-.04.49-.68.38-.31-.05-.37-.28-.37-.57h1.88ZM56.52,63.54c.08-.08,0-1.83,0-2.13,0-.07-.17-.47-.24-.55-.27-.32-.81-.36-1.17-.17-.13.07-.26.26-.33.27-.13.03-.26-.2-.41-.27-.45-.23-.95-.11-1.26.28l-.05-.29-.69.04v2.38c-.24.61.34.42.79.44v-2.03c0-.31.89-.31.89,0v2.03h.79v-1.93c0-.32.73-.42.79-.35.02.03.1.62.11.74.02.34,0,.75,0,1.1,0,.17-.18.36.06.43.1.03.71.04.73.01ZM42.57,62.45c-.08-.31-.38-1.52-.54-1.68-.18-.19-.59-.07-.84-.1-.11.1.96,2.39.99,2.83.03.53-.3.52-.68.48-.33-.03-.04.43-.1.64.58.14,1.05.12,1.4-.42s.72-1.78.95-2.42c.06-.17.38-1.05.32-1.11h-.78c-.16.5-.3,1.07-.5,1.54-.04.1-.06.23-.2.24ZM17.45,68.38v3.81c0,.19.63.15.79.15v-2.37c.55.55.86,1.39,1.3,2.01.33.46.53.38,1.07.36v-3.96h-.79v2.37c-.18-.08-.27-.31-.38-.46-.4-.61-.75-1.26-1.12-1.89l-.87-.02ZM23.09,68.38v3.81c0,.2.88.22.88,0,0-.04-.08-.08-.08-.1v-2.08l.1-.54.64,2.77c.09.13.62.12.78.1.12-.02.54-1.99.61-2.28.03-.11,0-.32.15-.3v2.57h.79v-3.96h-1.28c-.05.75-.42,1.48-.5,2.22-.02.18.04.16-.19.15-.13-.8-.37-1.59-.6-2.36h-1.28ZM30.18,68.4c-.36.08-.77.7-.84,1.04s-.07,1.51-.02,1.86c.06.4.53.98.94,1.04.8.12,1.29-.18,1.51-.96.33-1.19.1-3.35-1.59-2.98ZM33.25,68.4c-.3.06-.59.29-.71.57-.37.81-.47,3.18.7,3.36,1.06.16,1.54-.43,1.63-1.43.11-1.13-.08-2.83-1.61-2.5ZM36.21,68.4c-1.18.26-1.17,2.87-.51,3.64.28.33.78.36,1.18.3,1.13-.17,1.1-2.43.77-3.23-.26-.64-.76-.85-1.44-.7ZM38.22,72.34h2.52c.16,0,.24-.62.06-.75-.22-.14-1.08.02-1.39-.04.6-.69,1.79-1.4,1.36-2.49s-2.59-.81-2.44.51l.78.1c-.04-.33.08-.61.44-.6.43,0,.5.15.45.56-.11.81-1.57,1.34-1.76,2.39-.02.11-.03.21-.02.32ZM42.15,68.4c-1.08.24-1.16,3.17-.26,3.78.28.19.78.21,1.11.13.99-.22.98-2.34.74-3.07s-.87-1-1.59-.84ZM22.79,70.46h-1.48v.79h1.48v-.79ZM29.12,71.25c0-.16.05-.79-.15-.79h-1.43v.79h1.58Z"/>
        <path class="cls-2" d="M29.91,36.64v3.86c-.61-.05-1.32.07-1.92,0-.18-.02-.39-.07-.35-.29-.42.31-.9.54-1.41.28-.12-.06-.29-.27-.32-.26-.03,0-.18.16-.28.21-.39.17-.75.24-1.15.03-.26-.14-.15-.41-.5,0-1.55.11-3.14.02-4.7.05-.28.04-.3.47-.46.73-.29.45-1.1.81-1.6.65-.2-.07-.2-.54-.16-.58.06-.06,1.44.15,1.29-.79-.7.02-1.68.12-1.86-.76-.28-1.32.68-2.29,1.96-1.76.74.3.71,1.26.69,1.93h1.29c-.39-.57-.36-1.57.32-1.9.83-.4,1.89-.1,1.95.91-.17-.03-.57.06-.68-.02-.11-.08-.14-.51-.55-.48-.74.05-.69,1.32-.19,1.47.17.05,1.98.05,2.15,0,.35-.1.03-1.02.2-1.28.09-.13.72-.12.75-.09.14.14-.34,1.62.52,1.47.63-.11.29-1.1.37-1.57h.79c.06.33-.12,1.22.1,1.44s.79.09.79-.2v-1.43h.69v1.43c0,.37,1.3.22,1.58.25v-3.26h.69ZM18.34,39.9c-.03-.43.17-1.3-.36-1.47-.6-.18-1.02.68-.77,1.17.21.42.76.28,1.14.3Z"/>
        <path class="cls-2" d="M36.74,36.64v3.26c.27-.03.65.07.89-.05.29-.14.17-.58.22-.87.22-1.29,2.6-1.29,2.82,0,.05.28-.07.73.22.87.31.15,1.23.04,1.58-.05v-1.58h.79c.05.37-.14,1.42.19,1.64.23.15,1.07-.01,1.39.05-.38-.56-.35-1.58.32-1.9.81-.39,1.93-.11,1.95.91h-.68c-.04-.37-.25-.55-.63-.48-.77.14-.43,1.47-.12,1.47h1.53v.59c-1.15-.1-2.49.13-3.61,0-.3-.03-.43-.27-.6-.29-.13-.02-.33.24-.58.28s-1.47.04-1.63-.05c-.11-.06-.18-.28-.34-.24-.09.02-.23.26-.36.34-.3.18-.96.21-1.31.13-.31-.06-.63-.45-.72-.47-.16-.04-.33.29-.38.29h-1.63v-3.86h.69ZM38.98,38.63c-.57.17-.57,1.78.56,1.45.57-.17.57-1.78-.56-1.45Z"/>
        <path class="cls-2" d="M12.81,37.92v2.67h-.79v-2.08c-.28.09-.99.05-.99.45v2.37c0,.29-.69.06-.84.05-.78-.04-1.94.22-2.53-.34-.08-.08-.39-.54-.39-.6v-1.53h.79c.04.75-.27,1.73.74,1.88.23.03,1.3.05,1.39-.09.31-.46-.38-2.04.48-2.58.07-.04.47-.19.5-.19h1.63Z"/>
        <polygon class="cls-2" points="50.88 36.64 50.88 40.5 47.72 40.5 47.71 39.9 48.31 39.9 48.31 37.63 49.1 37.63 49.1 39.9 50.19 39.9 50.19 36.64 50.88 36.64"/>
        <path class="cls-2" d="M25.07,47.12l-.8-.04c-.14-.1-.13-.5-.24-.65s-1.06-.12-1.29-.1c-.45.04-.41.44-.55.79h-.78s1.4-3.54,1.4-3.54c.23,0,.8-.1.93.08l1.33,3.46ZM23.78,45.74l-.54-1.38c-.29.4-.32.95-.54,1.38h1.09Z"/>
        <path class="cls-2" d="M18.44,43.26v3.86h-.63s-.11-.2-.11-.2c-1.23.79-2.04,0-1.93-1.34.07-.93.83-1.43,1.71-1.04.12.06,0,.28.27.2v-1.48h.69ZM16.93,44.96c-.68.2-.6,1.76.18,1.76.89,0,.76-2.03-.18-1.76Z"/>
        <path class="cls-2" d="M36.94,43.26v3.86h-.53s-.07-.19-.07-.19c-.21-.04-.32.21-.55.27-1.23.28-1.56-.92-1.41-1.91.1-.7.86-1.01,1.49-.8.18.06.28.28.49.25v-1.48h.59ZM36.02,45.07c-.88-.78-1.4,1.39-.5,1.64.75.21,1.02-1.18.5-1.64Z"/>
        <path class="cls-2" d="M9.35,43.56l-.1.59c-.37-.17-1.39-.19-1.39.35,0,.59,1.75.5,1.69,1.68s-1.54,1.14-2.38.94c.11-.19.12-.38.1-.59.06-.07,1.48.49,1.48-.35,0-.56-1.17-.6-1.46-1.1-.12-.21-.14-.44-.12-.68.1-1.1,1.35-1,2.18-.84Z"/>
        <path class="cls-2" d="M49.65,45.83c0,.79-.64,1.43-1.43,1.43s-1.43-.64-1.43-1.43.64-1.43,1.43-1.43,1.43.64,1.43,1.43ZM48.08,44.96c-.86.19-.62,1.82.17,1.76.93-.07.83-1.99-.17-1.76Z"/>
        <path class="cls-2" d="M34.07,46.03h-1.88c.09.88,1.1.85,1.68.4.06.54,0,.71-.55.78-.72.1-1.56-.09-1.78-.88-.33-1.17.51-2.18,1.74-1.84.64.18.78.95.79,1.54ZM33.26,45.07c-.32-.31-1.15-.08-1.07.47h1.19s-.05-.4-.12-.47Z"/>
        <path class="cls-2" d="M13.5,44.45v1.83c0,.27.27.47.54.45.17-.01.55-.43.55-.55v-1.73h.69v2.77h-.59s0-.4,0-.4c-.73.64-1.77.56-1.88-.54-.03-.29-.05-1.45.01-1.67.07-.24.47-.15.68-.16Z"/>
        <path class="cls-2" d="M50.09,44.45h.69s0,.3,0,.3c.33-.34,1.22-.46,1.53-.1.04.04.25.42.25.44v2.03h-.69v-1.83c0-.22-.31-.38-.54-.35-.17.02-.55.42-.55.55v1.63h-.69v-2.67Z"/>
        <path class="cls-2" d="M42.85,44.67c.44.44.26,1.85.32,2.45-.26.15-.76-.2-.83-.19-.11.02-.25.25-.51.28-.79.11-1.48-.67-.94-1.34.42-.52,1.51-.27,1.59-.34,0,0,.01-.19,0-.25-.1-.57-1.16-.4-1.48-.05.02-.17-.06-.46.04-.6.21-.29,1.53-.25,1.81.03ZM42.47,45.94c-.33,0-1.02-.09-1.09.35-.06.35.09.45.45.45.45,0,.69-.37.64-.8Z"/>
        <path class="cls-2" d="M12.31,47.12h-.69s-.05-.3-.05-.3c-.36.61-1.56.48-1.71-.17-.24-1.09.95-1.2,1.76-1.12.05-.83-1.03-.72-1.48-.3v-.69c.62-.06,1.43-.33,1.88.24s0,1.66.3,2.32ZM11.62,45.94c-.32,0-1.03-.08-1.09.35-.12.86,1.21.4,1.09-.35Z"/>
        <path class="cls-2" d="M15.77,40.5h-2.27v-.59h1.48c.1-1-.21-1.54-1.29-1.38v-.59c1.85-.2,2.24.95,2.08,2.57Z"/>
        <path class="cls-2" d="M35.25,40.5h-2.27v-.59h1.48c.06-.95-.22-1.56-1.29-1.38v-.59c1.81-.2,2.21,1,2.08,2.57Z"/>
        <path class="cls-2" d="M39.11,44.95h-.4s0-.49,0-.49h.4c-.14-.6.25-.58.74-.69l.05.69h.59s0,.49,0,.49h-.59s0,1.53,0,1.53c0,.15.42.34.59.15v.59c-.46,0-.91.11-1.19-.34-.04-.07-.19-.47-.19-.5v-1.43Z"/>
        <path class="cls-2" d="M43.96,44.95h-.49s0-.49,0-.49h.5c-.09-.54.15-.64.64-.69l.05.69h.59s0,.49,0,.49h-.59s0,1.53,0,1.53c0,.01.16.18.2.2.26.13.41-.11.45.34.03.3-.65.22-.85.15-.11-.03-.49-.35-.49-.4v-1.83Z"/>
        <rect class="cls-2" x="51.77" y="36.64" width=".79" height="3.86"/>
        <rect class="cls-2" x="30.8" y="36.64" width=".79" height="3.86"/>
        <path class="cls-2" d="M29.42,44.45v.59c-.91-.32-1.3.14-1.19,1.04.07.6.69.72,1.19.54,0,.27.25.54-.15.6-1.03.15-1.84-.33-1.84-1.44,0-1.16.98-1.5,1.99-1.34Z"/>
        <path class="cls-2" d="M27.15,45.05c-1.65-.58-1.56,2.22.1,1.58.14.7-.38.66-.93.59-1.47-.2-1.34-2.58-.1-2.76.56-.08,1.24-.13.94.59Z"/>
        <path class="cls-2" d="M29.91,44.45h.59s.05.5.05.5c.05,0,.16-.36.35-.45.55-.27.55.08.49.54-1.08-.08-.85,1.34-.89,2.08h-.59v-2.67Z"/>
        <rect class="cls-2" x="19.04" y="44.45" width=".69" height="2.67"/>
        <rect class="cls-2" x="45.64" y="44.45" width=".69" height="2.67"/>
        <rect class="cls-2" x="37.63" y="44.45" width=".69" height="2.67"/>
        <path class="cls-2" d="M46.33,43.96h-.69s0-.59,0-.59c.25.01.47.03.69-.1v.69Z"/>
        <rect class="cls-2" x="37.63" y="43.36" width=".69" height=".59"/>
        <rect class="cls-2" x="19.04" y="43.36" width=".69" height=".59"/>
        <path class="cls-2" d="M43.66,36.64s.01.35-.01.43c-.07.24-.47.15-.68.16v-.59s.69,0,.69,0Z"/>
        <rect class="cls-2" x="42.08" y="36.64" width=".59" height=".59"/>
        <rect class="cls-2" x="9.34" y="41.98" width=".59" height=".5"/>
        <rect class="cls-2" x="8.45" y="41.98" width=".59" height=".5"/>
        <path class="cls-3" d="M3.21,59.58h1.28s.03.32.03.32l.62,2.25.65-2.57h1.28s0,3.95,0,3.95h-.79v-2.77l-.67,2.45-.03.32h-.88c-.02-.37-.19-.71-.28-1.06-.1-.39-.16-.84-.24-1.24-.02-.09-.04-.3-.17-.27v2.57h-.79v-3.96Z"/>
        <path class="cls-3" d="M23.09,68.38h1.28c.24.79.48,1.57.6,2.37.24.01.18.03.19-.15.07-.74.45-1.47.5-2.22h1.28s0,3.95,0,3.95h-.79v-2.57c-.15-.03-.12.18-.15.3-.06.29-.49,2.26-.61,2.28-.17.02-.7.03-.78-.1l-.64-2.77-.1.54v2.08s.08.05.08.1c0,.22-.88.2-.88,0v-3.81Z"/>
        <path class="cls-3" d="M17.45,68.38l.87.02c.37.63.72,1.28,1.12,1.89.1.16.2.39.38.46v-2.37h.79v3.96c-.54.01-.75.1-1.07-.36-.44-.63-.75-1.46-1.3-2.01v2.37c-.16,0-.79.05-.79-.15v-3.81Z"/>
        <path class="cls-3" d="M40.79,60.77c-.22-.03-.53.05-.73-.01-.19-.06-.17-.42-.51-.48-.25-.04-.82-.08-.85.25-.05.49,1,.53,1.39.69.79.33,1.06,1.05.61,1.8-.24.41-.62.53-1.08.6-1,.14-1.92-.37-1.9-1.46h.78c0,.88,1.6.91,1.6.25s-1.87-.32-2.21-1.45c-.53-1.77,2.97-2.03,2.9-.18Z"/>
        <path class="cls-3" d="M26.75,63.54v-2.03c0-.34-.59-.35-.74-.05-.03.05-.15.42-.15.44v1.63h-.79v-2.03c0-.28-.36-.31-.59-.2-.04.02-.3.28-.3.3v1.93h-.79v-2.87h.69s0,.3,0,.3c.04.06.6-.62,1.26-.32.15.07.3.3.38.31.19.04.74-.77,1.47-.19.54.42.33,1.65.34,2.33,0,.12.09.26.08.3-.02.23-.69.13-.87.14Z"/>
        <path class="cls-3" d="M56.52,63.54s-.64.02-.73-.01c-.24-.07-.06-.26-.06-.43,0-.35.02-.75,0-1.1,0-.11-.08-.71-.11-.74-.06-.08-.79.02-.79.35v1.93h-.79v-2.03c0-.31-.89-.31-.89,0v2.03c-.45-.02-1.04.17-.79-.44v-2.38s.69-.04.69-.04l.05.29c.31-.39.82-.5,1.26-.28.14.07.28.3.41.27.07-.02.19-.2.33-.27.36-.19.9-.15,1.17.17.07.08.24.48.24.55,0,.3.08,2.05,0,2.13Z"/>
        <path class="cls-3" d="M19.73,63.88c-.08.36-.44.61-.77.72-.49.16-1.48.14-1.79-.33-.05-.08-.2-.46-.16-.53.09-.15.71-.05.87,0,.13.04.03.42.69.28.48-.11.37-.46.37-.87-1.4,1.3-2.59-.86-1.72-2.07.46-.64,1.23-.66,1.78-.11l-.05-.3h.79s0,3.21,0,3.21ZM18.11,61.28c-.5.15-.49,1.41,0,1.55,1.1.33,1.14-1.89,0-1.55Z"/>
        <path class="cls-3" d="M42.15,68.4c.72-.16,1.36.13,1.59.84s.25,2.85-.74,3.07c-.33.07-.83.06-1.11-.13-.9-.61-.82-3.55.26-3.78ZM42.44,69.09c-.07.02-.18.12-.21.18-.08.16-.09,1.77-.05,2.03.06.34.48.51.68.19.16-.25.15-1.51.11-1.87-.03-.32-.15-.64-.53-.53Z"/>
        <path class="cls-3" d="M33.25,68.4c1.53-.33,1.72,1.38,1.61,2.5-.09,1-.57,1.59-1.63,1.43-1.16-.17-1.06-2.55-.7-3.36.13-.28.41-.51.71-.57ZM33.18,69.42c-.09.44,0,1.46,0,1.98,0,.16.47.39.7.11.17-.22.14-1.63.09-1.98-.08-.61-.69-.58-.79-.1Z"/>
        <path class="cls-3" d="M36.21,68.4c.68-.15,1.17.06,1.44.7.33.8.36,3.06-.77,3.23-.4.06-.9.03-1.18-.3-.66-.77-.67-3.37.51-3.64ZM36.83,71.64c.25-.17.29-2.2-.03-2.47-.39-.33-.6.09-.64.46s-.08,1.8.19,1.97c.09.06.42.08.49.04Z"/>
        <path class="cls-3" d="M30.18,68.4c1.69-.38,1.92,1.79,1.59,2.98-.22.78-.71,1.08-1.51.96-.41-.06-.88-.63-.94-1.04-.05-.34-.05-1.53.02-1.86s.48-.96.84-1.04ZM30.32,71.63c.28.2.63-.1.68-.44s.05-1.72-.11-1.96c-.15-.23-.42-.23-.59-.02-.24.3-.25,1.48-.19,1.88.01.08.18.52.21.53Z"/>
        <path class="cls-3" d="M38.22,72.34c-.01-.11,0-.22.02-.32.19-1.05,1.66-1.58,1.76-2.39.05-.4-.02-.55-.45-.56-.36,0-.48.27-.44.6l-.78-.1c-.15-1.32,1.99-1.65,2.44-.51s-.76,1.81-1.36,2.49c.31.06,1.17-.1,1.39.04.19.12.1.75-.06.75h-2.52Z"/>
        <path class="cls-3" d="M16.56,63.54h-.73s-.11-.2-.11-.2c-.8.59-2.15.21-1.81-.92.17-.56,1.28-.66,1.76-.76.03-.2-.17-.37-.35-.4-.55-.09-.7.55-1.33.2-.07-.99,1.73-1.13,2.22-.59.52.58.06,1.94.35,2.67ZM15.67,62.25c-.28-.01-1.11.1-.99.54s1.17.03.99-.54Z"/>
        <path class="cls-3" d="M10.23,63.54h-.73s-.11-.2-.11-.2c-.56.35-1.53.47-1.78-.29-.36-1.08.97-1.27,1.74-1.39.02-.45-.35-.49-.73-.38-.15.04-.2.26-.41.29-.09.01-.5-.07-.54-.1-.04-.04.02-.22.05-.29.23-.55,1.02-.66,1.56-.57,1.41.24.61,1.99.96,2.94ZM9.34,62.25c-.56-.19-1.53.66-.64.7.47.02.63-.28.64-.7Z"/>
        <path class="cls-3" d="M42.57,62.45c.14-.01.16-.14.2-.24.2-.47.34-1.04.5-1.53h.78c.06.05-.26.94-.32,1.1-.22.63-.62,1.9-.95,2.42s-.82.56-1.4.42c.06-.21-.23-.68.1-.64.39.04.71.05.68-.48-.02-.44-1.09-2.72-.99-2.83.25.03.66-.09.84.1.16.17.46,1.37.54,1.68Z"/>
        <path class="cls-3" d="M51.87,62.35h-1.88c0,.29.05.52.37.57.64.11.58-.38.68-.38.08,0,.34.08.48.11.1.02.34-.08.25.14-.32.8-1.2,1.03-1.95.67-1.16-.56-.84-2.9.62-2.9,1.02,0,1.45.88,1.43,1.79ZM50.98,61.86c.12-.11-.07-.55-.35-.59-.37-.06-.59.07-.64.44-.03.19,0,.14.15.15.13,0,.81.03.84,0Z"/>
        <path class="cls-3" d="M22.89,62.35h-1.88c-.03.39.35.69.73.58.17-.05.28-.34.42-.36.13-.02.44.16.63.08-.05,1.05-1.57,1.27-2.22.59-.55-.57-.52-1.83.11-2.35,1.07-.9,2.43.22,2.21,1.47ZM22.1,61.86c-.1-.82-1.04-.79-1.09,0h1.09Z"/>
        <path class="cls-3" d="M30.71,62.35h-1.88c.1.19.13.51.36.58.64.19.62-.33.78-.37.02,0,.38.08.48.09s.33-.08.25.14c-.38.99-1.97,1.14-2.45.18s-.12-2.41,1.12-2.41c.97,0,1.45.91,1.34,1.79ZM29.91,61.86c.05-.84-1.09-.82-.99,0h.99Z"/>
        <path class="cls-3" d="M33.87,63.54h-.79v-1.93s-.16-.28-.19-.3c-.22-.15-.79.02-.79.3v1.93c-.24-.03-.8.11-.88-.16.06-.46-.14-2.35.03-2.61.09-.13.72-.12.74-.09.04.06-.06.27.05.29.39-.41,1.01-.55,1.49-.2.08.06.34.39.34.45v2.32Z"/>
        <path class="cls-3" d="M46.83,61.46c-.19-.07-.51.11-.63.08s-.29-.33-.53-.37c-.27-.04-.81.14-.36.36.34.17,1.32.26,1.52.58.51.8-.36,1.5-1.15,1.52-.5.02-1.28-.34-1.43-.85-.06-.19.04-.13.15-.15.2-.04.49-.17.65-.06.1.07.1.29.26.34.47.15,1.22-.14.59-.39s-1.77-.23-1.49-1.28c.26-.99,2.41-.95,2.43.2Z"/>
        <path class="cls-3" d="M13.4,63.54h-.79v-1.83s-.16-.38-.19-.4c-.11-.08-.48-.07-.6,0-.29.19-.3,1.43-.3,1.79,0,.12.09.26.08.3-.02.23-.69.13-.87.14v-2.87h.79s.05.3.05.3c.37-.49,1.16-.52,1.59-.1.06.06.24.4.24.45v2.23Z"/>
        <path class="cls-3" d="M34.66,61.36h-.4s0-.69,0-.69h.4c-.14-.6.27-.85.79-.99v.99s.5,0,.5,0c.16.88-.34.58-.49.69-.06.04-.02,1.31,0,1.42.07.25.29.04.48.06l.08.55c-.25.4-1.36.24-1.36-.2v-1.83Z"/>
        <path class="cls-3" d="M47.62,61.36h-.4s0-.69,0-.69h.4c-.13-.61.24-.8.74-.99l.05.99h.5s0,.69,0,.69h-.49s0,1.43,0,1.43c0,.25.47.03.49.05-.07.18.15.54,0,.64-.35.25-1.29.1-1.29-.3v-1.83Z"/>
        <path class="cls-3" d="M29.12,71.25h-1.58v-.79h1.43c.19,0,.15.63.15.79Z"/>
        <rect class="cls-3" x="21.31" y="70.46" width="1.48" height=".79"/>
        <path class="cls-3" d="M18.34,39.9c-.38-.01-.93.12-1.14-.3-.24-.49.17-1.35.77-1.17.54.16.33,1.04.36,1.47Z"/>
        <path class="cls-3" d="M38.98,38.63c1.13-.33,1.13,1.28.56,1.45-1.13.33-1.13-1.28-.56-1.45Z"/>
        <path class="cls-3" d="M23.78,45.74h-1.09c.22-.44.25-.99.54-1.38l.54,1.38Z"/>
        <path class="cls-3" d="M16.93,44.96c.94-.27,1.07,1.76.18,1.76-.78,0-.86-1.57-.18-1.76Z"/>
        <path class="cls-3" d="M36.02,45.07c.52.46.25,1.85-.5,1.64-.9-.25-.38-2.42.5-1.64Z"/>
        <path class="cls-3" d="M48.08,44.96c1-.22,1.11,1.7.17,1.76-.79.06-1.03-1.57-.17-1.76Z"/>
        <path class="cls-3" d="M33.26,45.07c.07.07.16.43.12.47h-1.19c-.09-.55.75-.79,1.07-.47Z"/>
        <path class="cls-3" d="M42.47,45.94c.05.43-.19.8-.64.8-.36,0-.5-.1-.45-.45.07-.44.76-.35,1.09-.35Z"/>
        <path class="cls-3" d="M11.62,45.94c.12.74-1.21,1.21-1.09.35.06-.43.77-.35,1.09-.35Z"/>
        <path class="cls-2" d="M18.11,61.28c1.14-.34,1.11,1.88,0,1.55-.49-.15-.5-1.4,0-1.55Z"/>
        <path class="cls-2" d="M42.44,69.09c.38-.11.5.21.53.53.04.36.05,1.62-.11,1.87-.2.32-.63.15-.68-.19-.04-.25-.03-1.87.05-2.03.03-.07.14-.16.21-.18Z"/>
        <path class="cls-2" d="M33.18,69.42c.1-.48.7-.51.79.1.05.36.09,1.76-.09,1.98-.23.29-.7.05-.7-.11,0-.52-.09-1.54,0-1.98Z"/>
        <path class="cls-2" d="M36.83,71.64c-.07.05-.4.02-.49-.04-.27-.18-.23-1.62-.19-1.97s.25-.79.64-.46c.33.27.28,2.3.03,2.47Z"/>
        <path class="cls-2" d="M30.32,71.63s-.19-.46-.21-.53c-.06-.4-.05-1.58.19-1.88.17-.21.44-.22.59.02.16.25.15,1.62.11,1.96s-.4.64-.68.44Z"/>
        <path class="cls-2" d="M15.67,62.25c.19.57-.87.97-.99.54s.71-.55.99-.54Z"/>
        <path class="cls-2" d="M9.34,62.25c-.01.42-.17.72-.64.7-.89-.04.09-.89.64-.7Z"/>
        <path class="cls-2" d="M50.98,61.86s-.71,0-.84,0c-.14,0-.17.04-.15-.15.05-.38.27-.51.64-.44.28.05.47.48.35.59Z"/>
        <path class="cls-2" d="M22.1,61.86h-1.09c.04-.79.99-.82,1.09,0Z"/>
        <path class="cls-2" d="M29.91,61.86h-.99c-.1-.82,1.04-.84.99,0Z"/>
        <g>
          <path class="cls-2" d="M25.07,28.73c.05-.05.39,0,.5.04l3.65,1.34c.02-.48-.03-.96,0-1.44.07-1.31.22-2.65.3-3.95.12-1.95.13-4.02.39-5.94.03-.24-.1-.85.34-.72.19.06.25.26.26.43.16,1.48-.04,3.41,0,4.95.06,2.62.21,5.28.31,7.9,0,.26.04,1.31-.05,1.44-.07.1-.19.11-.3.1-1.01-.64-2.03-1.34-3.01-2.04-.67-.48-1.52-1.01-2.13-1.52-.08-.07-.26-.22-.3-.3-.02-.04.05-.28.06-.29Z"/>
          <path class="cls-2" d="M28.63,7.96c.14.17,0,.47,0,.64-.03,2.25-.23,4.58-.39,6.83,0,.11-.09.7-.11.73,0,.01-.21.08-.24.07-.26,0-1.53-1.34-1.83-1.6-.72-.65-1.52-1.26-2.18-1.98-.29-.32-.25-.46.23-.43l2.74,1.27,1.38-5.3c-.02-.19.33-.32.4-.24Z"/>
          <path class="cls-2" d="M28.43,20.23c.19.28-.68,1.08-.88,1.33-.83,1.03-1.67,2.05-2.5,3.09-.3.22-.54.11-.45-.3.3-.72.68-1.48.95-2.22.05-.14.19-.38.08-.53-.15-.2-4.26-1-4.83-1.2-.34-.21-.18-.45.17-.48.56-.05,1.31-.02,1.89,0,1.1.03,2.25.16,3.36.2.35.01,2.1-.08,2.22.1Z"/>
          <path class="cls-2" d="M31.2,12.41l3.63-1.96c.17-.09,1.13-.84,1.22-.36.04.23-.38.47-.5.59-1.19,1.19-2.52,2.24-3.81,3.32-.29.24-1.25,1.27-1.58,1.18-.25-.07-.11-.88-.26-1.13.07-1.54-.19-3.06-.2-4.6.19,0,.39-.04.48.16.31.95.77,1.84,1,2.81Z"/>
          <path class="cls-2" d="M25.2,15.84l1.99,2.11c.08.13.1.36-.05.45-.04.03-.87.13-1.04.15-1.41.16-2.85.26-4.26.39-.35.03-.48-.3-.18-.48.34-.17,2.81-1.08,2.81-1.25-.97-1.36-1.75-2.86-2.66-4.27,0-.41.2-.4.48-.18,1.02.76,1.95,2.2,2.9,3.08Z"/>
          <path class="cls-2" d="M38.81,17.46s.09.25.06.29c-.19.33-2.43,1.07-2.92,1.29l2.66,4.41c.01.39-.19.41-.48.19-.67-.5-1.24-1.3-1.81-1.9-.85-.89-1.82-1.82-2.64-2.75-.1-.11-.58-.7-.58-.77,0-.05.09-.26.14-.27l5.57-.48Z"/>
          <path class="cls-2" d="M33.48,22.89l-.88,3.91c-.1.41-.45.21-.5-.11-.1-.58.02-1.53,0-2.18-.04-1.18-.1-2.36-.1-3.56,0-.3-.17-.96.43-.62,1.2,1.08,2.85,1.93,4.02,3,.33.3.48.56-.13.53l-2.84-.97Z"/>
          <path class="cls-2" d="M39,16.18s.02.37.01.38c-.07.06-1.66.01-1.93,0-1.21-.04-2.45-.12-3.65-.2-.34-.02-.76.05-1.08,0-.23-.03-.07-.42.04-.55,1.02-1.32,2.31-2.51,3.29-3.88.23-.18.51-.16.45.2l-1.17,2.79c.45.38,3.92,1.07,4.04,1.25Z"/>
        </g>
      </g>
      <path class="cls-1" d="M59.63,77.63H0V0h59.63v77.63ZM.3,77.33h59.04V.3H.3v77.04Z"/>
    </g>
  </g>
</svg>