<?xml version="1.0" encoding="UTF-8"?>
<svg id="Layer_2" data-name="Layer 2" xmlns="http://www.w3.org/2000/svg" viewBox="0 0 46.83 77.64">
  <defs>
    <style>
      .cls-1 {
        fill: #04713f;
      }
    </style>
  </defs>
  <g id="Layer_1-2" data-name="Layer 1">
    <g>
      <path class="cls-1" d="M.03,0v46.8h46.8V0H.03ZM34.75,21.99c2.54,3.35,3.96,5.8,3.96,5.8-.87,1.52-1.84,3.15-2.92,4.88,0,0-1.57-2.62-4.36-6.3-1.41-1.85-5.02-5.99-5.07-6.05,0,.08,0,18.05,0,19.75h0s0,.01,0,.02h-5.85c.01-1.7,0-19.69,0-19.77-.05.06-3.66,4.19-5.07,6.05-2.8,3.68-4.36,6.3-4.36,6.3-1.08-1.73-2.05-3.36-2.92-4.88,0,0,1.41-2.45,3.96-5.8,1.12-1.48,3.84-4.55,4.52-5.31-1.93.35-3.72.81-5.06,1.26-1.29.43-2.28.85-2.92,1.15-.62.29-.94.47-.94.47.4-1.58.86-3,1.38-4.25,0,0,.31-.22.89-.56.6-.35,1.53-.84,2.73-1.32,1.27-.51,2.87-1.02,4.7-1.39-.05-.04-1.21-.97-1.66-1.26-2.1-1.36-2.93-.92-2.93-.92,1.05-.75,2.1-1.36,3.15-1.8,0,0,.16-.1.48-.17.34-.08.87-.12,1.57.01.78.15,3.04,1.21,3.08,1.23,0-.03.11-1.05.15-1.41.11-1.05.34-.99.52-1h3.36c.18.02.41-.05.52,1,.04.36.14,1.37.15,1.41.04-.02,2.29-1.08,3.08-1.23.7-.13,1.24-.09,1.57-.01.32.08.48.17.48.17,1.05.44,2.1,1.05,3.15,1.8,0,0-.83-.44-2.93.92-.45.29-1.61,1.22-1.66,1.26,1.82.38,3.42.88,4.7,1.39,1.2.48,2.13.97,2.73,1.32.58.34.89.56.89.56.52,1.24.98,2.67,1.38,4.25,0,0-.33-.18-.94-.47-.65-.3-1.63-.72-2.92-1.15-1.34-.44-3.13-.9-5.06-1.26.68.76,3.39,3.83,4.52,5.31Z"/>
      <path class="cls-1" d="M6.46,55.61c-.31-.25-.61-.43-.92-.55-.31-.12-.6-.18-.89-.18-.36,0-.66.09-.89.26-.23.17-.35.4-.35.68,0,.19.06.35.17.48.12.12.27.23.45.32.19.09.4.17.63.24.24.07.47.14.7.21.92.31,1.59.72,2.02,1.23.43.51.64,1.18.64,2,0,.56-.09,1.06-.28,1.51-.19.45-.46.83-.82,1.16-.36.32-.8.57-1.32.75-.52.18-1.11.27-1.78.27-1.37,0-2.64-.41-3.81-1.22l1.21-2.27c.42.37.84.65,1.25.83.41.18.82.27,1.22.27.46,0,.8-.11,1.03-.32.23-.21.34-.45.34-.72,0-.16-.03-.3-.09-.42-.06-.12-.15-.23-.29-.33-.13-.1-.31-.19-.52-.28-.22-.09-.48-.18-.78-.29-.36-.12-.72-.24-1.07-.38-.35-.14-.66-.32-.93-.55-.27-.23-.49-.52-.66-.87-.17-.35-.25-.79-.25-1.33s.09-1.02.27-1.46c.18-.44.43-.81.75-1.12.32-.31.71-.55,1.18-.73.47-.17.99-.26,1.56-.26.54,0,1.1.08,1.68.22.58.15,1.14.37,1.68.65l-1.12,2.2Z"/>
      <path class="cls-1" d="M16.4,61.78h-4.04l-.65,1.89h-3.01l4.14-10.88h3.09l4.14,10.88h-3.01l-.65-1.89ZM15.65,59.63l-1.27-3.62-1.27,3.62h2.54Z"/>
      <g>
        <path class="cls-1" d="M23.69,52.79v5.92c0,.32.01.64.04.97.02.33.1.63.22.9.12.27.31.49.57.66.26.17.63.25,1.1.25s.83-.08,1.09-.25c.25-.17.44-.39.57-.66.12-.27.2-.57.22-.9.02-.33.04-.66.04-.97v-5.92h2.81v6.3c0,1.69-.39,2.93-1.16,3.71-.77.78-1.97,1.17-3.57,1.17s-2.8-.39-3.58-1.17c-.78-.78-1.17-2.01-1.17-3.71v-6.3h2.83Z"/>
        <path class="cls-1" d="M32.62,52.79h4.18c.74,0,1.44.15,2.08.45.65.3,1.22.69,1.7,1.19.49.5.87,1.07,1.15,1.73.28.66.42,1.35.42,2.07s-.14,1.4-.41,2.06c-.27.66-.65,1.24-1.14,1.74-.49.5-1.05.9-1.7,1.2-.65.3-1.35.45-2.1.45h-4.18v-10.88ZM35.45,61.27h.65c.49,0,.93-.08,1.31-.23.39-.15.71-.36.97-.63.26-.27.47-.59.61-.96.14-.37.21-.78.21-1.22s-.07-.84-.22-1.21c-.14-.38-.35-.7-.61-.97-.26-.27-.59-.48-.97-.64-.38-.15-.82-.23-1.3-.23h-.65v6.09Z"/>
      </g>
      <rect class="cls-1" x="43.96" y="52.79" width="2.83" height="10.88"/>
      <g>
        <polygon class="cls-1" points="8.96 66.8 6.8 72.57 4.63 66.8 1.84 66.8 0 77.64 2.81 77.64 3.74 71.4 6.17 77.64 7.29 77.64 9.85 71.4 10.79 77.64 13.59 77.64 11.75 66.8 8.96 66.8"/>
        <path class="cls-1" d="M20.81,70l1.26,3.61h-2.53l1.27-3.61ZM19.27,66.8l-4.13,10.84h3l.65-1.89h4.03l.65,1.89h3l-4.13-10.84h-3.08Z"/>
        <path class="cls-1" d="M28.52,66.8h4.17c.74,0,1.43.15,2.08.45.65.3,1.21.69,1.7,1.19.48.49.86,1.07,1.14,1.73.28.66.42,1.34.42,2.06s-.14,1.39-.41,2.05c-.27.66-.65,1.24-1.14,1.73-.48.5-1.05.9-1.7,1.19-.65.3-1.34.45-2.09.45h-4.17v-10.84ZM31.33,75.25h.65c.49,0,.92-.08,1.31-.23.38-.15.71-.36.97-.63.26-.27.46-.59.6-.96.14-.37.21-.77.21-1.22s-.07-.83-.22-1.21c-.14-.37-.35-.7-.61-.96-.26-.27-.59-.48-.97-.63-.38-.15-.81-.23-1.29-.23h-.65v6.07Z"/>
        <polygon class="cls-1" points="40.62 66.8 40.62 77.64 46.79 77.64 46.79 75.25 43.44 75.25 43.44 73.38 46.6 73.38 46.6 71 43.44 71 43.44 69.18 46.79 69.18 46.79 66.8 40.62 66.8"/>
      </g>
    </g>
  </g>
</svg>