<?xml version="1.0" encoding="UTF-8"?>
<svg id="Layer_2" data-name="Layer 2" xmlns="http://www.w3.org/2000/svg" viewBox="0 0 70.32 77.55">
  <defs>
    <style>
      .cls-1 {
        fill: #fff;
      }

      .cls-2 {
        fill: #13644d;
      }

      .cls-3 {
        fill: #196533;
      }
    </style>
  </defs>
  <g id="Layer_1-2" data-name="Layer 1">
    <g>
      <circle class="cls-1" cx="35.19" cy="35.3" r="34.78"/>
      <g>
        <path class="cls-2" d="M35.67,0c.16.03.31.08.47.09.31.02.63,0,.94.02.49.02.99.04,1.48.08.33.03.65.1.98.15.07.01.15,0,.23.01.13.02.26.04.39.07.07.01.15.02.22.03.34.02.67.05,1,.16.14.05.29.06.44.08.35.06.7.11,1.05.19.29.06.57.16.86.24.12.03.24.06.36.09.4.11.81.2,1.21.33.7.22,1.4.45,2.09.7.77.27,1.52.6,2.26.93.74.33,1.47.68,2.18,1.06,1.37.74,2.7,1.55,3.95,2.48.54.4,1.08.78,1.6,1.21.54.44,1.05.92,1.58,1.37.99.86,1.86,1.83,2.73,2.8.75.84,1.45,1.72,2.11,2.63.68.95,1.31,1.94,1.89,2.95.53.92,1.03,1.86,1.47,2.83.29.62.55,1.26.79,1.91.29.75.55,1.51.81,2.28.15.44.27.89.39,1.34.15.55.29,1.1.42,1.66.08.35.13.7.19,1.06.07.39.14.78.2,1.17.05.35.1.71.14,1.07.06.46.12.92.15,1.38.03.35.01.7.03,1.05,0,.11.03.22.05.33v2.74c-.02.17-.05.33-.06.5-.04.6-.05,1.21-.11,1.81-.06.62-.15,1.24-.24,1.85-.09.56-.21,1.11-.32,1.66-.12.56-.21,1.12-.37,1.67-.25.87-.52,1.73-.81,2.58-.22.66-.46,1.31-.73,1.96-.58,1.37-1.21,2.71-1.97,3.98-.53.89-1.07,1.78-1.65,2.63-.67.99-1.41,1.95-2.22,2.84-.73.81-1.46,1.61-2.23,2.38-.6.59-1.21,1.17-1.89,1.67-.37.27-.7.6-1.07.87-.79.58-1.58,1.14-2.39,1.69-.96.65-1.98,1.21-3.02,1.75-.95.49-1.91.94-2.91,1.33-.79.31-1.59.58-2.39.86-.6.21-1.2.39-1.82.53-.48.11-.96.26-1.45.34-.33.05-.65.17-.98.24-.16.04-.33.06-.5.08-.29.04-.58.07-.87.11-.32.04-.63.09-.95.14-.22.03-.45.09-.67.09-.74.01-1.47.14-2.21.11-.56-.02-1.12.08-1.67.05-.66-.04-1.33-.02-1.98-.08-.57-.05-1.15-.07-1.72-.16-.43-.06-.86-.11-1.29-.17-.26-.04-.51-.1-.77-.15-.36-.07-.72-.12-1.08-.19-.41-.09-.82-.19-1.23-.28-.31-.07-.62-.15-.93-.23-.21-.05-.41-.11-.62-.18-.34-.11-.67-.22-1.01-.33-.97-.33-1.94-.66-2.87-1.1-.74-.35-1.5-.67-2.22-1.05-.79-.41-1.56-.86-2.33-1.31-.91-.53-1.77-1.14-2.61-1.78-.67-.51-1.32-1.04-1.96-1.58-.81-.67-1.58-1.38-2.29-2.16-.49-.55-1.01-1.07-1.49-1.63-.5-.58-.97-1.18-1.43-1.79-.68-.89-1.29-1.82-1.87-2.78-.66-1.09-1.28-2.2-1.8-3.37-.39-.87-.77-1.75-1.11-2.64-.24-.63-.41-1.28-.62-1.92-.1-.31-.22-.61-.29-.93-.12-.55-.32-1.07-.39-1.63-.05-.35-.17-.68-.24-1.03-.05-.22-.06-.45-.09-.67-.03-.23-.07-.46-.11-.69-.06-.36-.14-.71-.16-1.08-.03-.44-.11-.88-.15-1.32-.02-.24-.01-.49-.02-.74,0-.1.02-.22-.12-.25v-3.7c.12-.02.12-.11.12-.19,0-.16,0-.32,0-.48.01-.21.04-.41.07-.62,0-.07.02-.13.02-.2.03-.38.02-.76.09-1.13.07-.39.12-.78.17-1.17.04-.32.1-.65.17-.97.07-.33.17-.66.25-1,.03-.15.05-.3.09-.44.08-.32.17-.63.25-.94.09-.34.16-.69.27-1.03.36-1.2.77-2.39,1.27-3.53.29-.66.56-1.34.89-1.98.46-.89.94-1.76,1.46-2.62.48-.8,1-1.58,1.55-2.34.46-.65.98-1.27,1.48-1.9.67-.84,1.41-1.63,2.16-2.39.62-.63,1.3-1.21,1.96-1.8.88-.79,1.84-1.49,2.81-2.18.81-.58,1.64-1.12,2.52-1.59.53-.29,1.05-.6,1.59-.88.45-.23.9-.45,1.36-.65.66-.29,1.33-.58,2-.84.56-.22,1.14-.39,1.7-.6.55-.21,1.11-.38,1.68-.51.45-.11.91-.21,1.35-.35.27-.08.55-.11.82-.16.36-.07.7-.18,1.06-.25.25-.05.51-.06.76-.09.13-.02.26-.04.38-.07.03,0,.05-.02.08-.02.31-.03.62-.05.93-.08.1,0,.21-.03.31-.05.07-.01.13-.04.19-.04.57-.03,1.14-.06,1.7-.08.27-.01.53,0,.8-.02.15,0,.29-.06.44-.09.3,0,.61,0,.91,0ZM34.65.77s0,.03,0,.04c-.63.02-1.25.04-1.88.06-.09,0-.19.03-.28.04-.12.02-.24.04-.36.05-.37.03-.74.05-1.1.08-.03,0-.06.01-.08.02-.15.03-.29.05-.44.07-.07.01-.15,0-.23.02-.29.05-.57.1-.86.15-.4.07-.79.14-1.19.21-.12.02-.24.03-.36.06-.3.07-.59.16-.89.24-.51.13-1.03.25-1.54.39-.32.09-.64.19-.95.3-.59.2-1.19.38-1.76.62-.75.3-1.49.63-2.22.98-.82.39-1.64.8-2.43,1.25-1.04.6-2.05,1.25-3.02,1.96-1,.73-1.97,1.49-2.89,2.32-.56.5-1.09,1.05-1.62,1.58-.27.27-.53.53-.78.82-.45.51-.88,1.03-1.31,1.55-.36.44-.72.87-1.05,1.33-.62.85-1.19,1.74-1.73,2.64-.75,1.25-1.43,2.54-2,3.88-.46,1.07-.87,2.15-1.22,3.26-.29.94-.56,1.87-.77,2.83-.03.16-.06.31-.1.47-.08.36-.17.71-.23,1.07-.07.43-.12.86-.18,1.29-.07.46-.17.91-.16,1.37,0,.04,0,.08,0,.11-.05.68-.13,1.36-.16,2.04-.03.86,0,1.73,0,2.59,0,.16,0,.32.02.48.05.53.1,1.05.15,1.58.04.38.07.75.11,1.13,0,.02,0,.04.01.06.05.27.1.54.15.81.07.41.11.82.19,1.23.09.48.21.95.32,1.43.12.49.24.99.38,1.47.2.67.41,1.34.65,1.99.33.89.68,1.79,1.07,2.66,1.14,2.51,2.57,4.85,4.28,7.02.69.87,1.41,1.7,2.17,2.5,1.08,1.13,2.22,2.19,3.45,3.16,1.13.88,2.3,1.72,3.53,2.46,1.1.66,2.21,1.28,3.37,1.8.62.28,1.25.57,1.88.82.5.2,1.02.36,1.53.54.29.1.58.21.87.3.44.13.88.26,1.32.37.37.1.75.18,1.12.26.35.08.69.18,1.04.25.42.09.85.16,1.27.23.27.05.54.08.81.11.3.03.6.06.9.09.44.05.88.13,1.32.15.8.04,1.59,0,2.39.09.25.03.51-.05.76-.06.75-.05,1.5.03,2.24-.09.47-.07.94-.1,1.41-.16.26-.03.52-.07.78-.11.44-.06.88-.11,1.31-.19.46-.09.91-.21,1.37-.32.51-.12,1.02-.22,1.52-.37.84-.26,1.67-.55,2.5-.83.98-.33,1.91-.76,2.85-1.19,1.38-.63,2.7-1.37,3.96-2.2.77-.5,1.5-1.05,2.24-1.59.83-.6,1.61-1.25,2.35-1.95.77-.73,1.5-1.52,2.24-2.29.78-.82,1.48-1.69,2.15-2.6,1.38-1.86,2.57-3.83,3.53-5.93.44-.95.81-1.92,1.19-2.89.23-.6.43-1.22.62-1.85.14-.46.24-.93.36-1.4.04-.14.07-.29.1-.44.08-.31.17-.61.23-.92.07-.37.12-.75.18-1.13.05-.34.11-.68.16-1.02.04-.24.04-.49.09-.73.11-.52.12-1.05.16-1.58.02-.25.02-.49.04-.74.02-.41.05-.81.06-1.22,0-.57,0-1.14,0-1.71,0-.11-.01-.23-.02-.34-.02-.3-.05-.6-.07-.91-.03-.44-.05-.89-.08-1.33,0-.04-.02-.07-.03-.11-.05-.32-.1-.63-.14-.95-.04-.28-.07-.56-.11-.84-.02-.16-.04-.32-.07-.47-.08-.35-.19-.7-.25-1.06-.09-.5-.19-.99-.34-1.47-.11-.35-.16-.71-.27-1.06-.18-.58-.38-1.16-.59-1.74-.25-.69-.49-1.38-.78-2.06-.31-.72-.65-1.44-1.01-2.14-.54-1.05-1.13-2.07-1.79-3.06-.42-.62-.83-1.24-1.28-1.84-.48-.64-.97-1.28-1.51-1.88-.67-.75-1.38-1.48-2.1-2.19-.51-.51-1.05-1.01-1.6-1.48-.48-.42-.99-.81-1.51-1.19-.76-.56-1.52-1.11-2.31-1.62-.77-.5-1.56-.97-2.37-1.4-.91-.49-1.85-.92-2.81-1.33-.97-.41-1.96-.76-2.96-1.08-.31-.1-.63-.18-.94-.27-.29-.08-.59-.17-.88-.25-.38-.09-.76-.17-1.14-.26-.33-.08-.66-.21-1-.24-.45-.04-.88-.22-1.34-.19-.03,0-.05-.01-.08-.02-.3-.05-.61-.11-.91-.14-.4-.04-.81-.06-1.22-.08-.03,0-.06,0-.08-.01-.23-.03-.47-.06-.7-.08-.21-.01-.42,0-.63-.01-.66-.03-1.33-.06-1.99-.09Z"/>
        <g>
          <path class="cls-3" d="M15.9,77.55c-.06-.02-.12-.04-.19-.06-.75-.17-1.26-.75-1.3-1.53-.01-.22-.01-.44.03-.65.14-.7.58-1.14,1.27-1.3.52-.12,1.03-.07,1.56.13-.07.19-.13.37-.19.55-.16-.05-.3-.1-.45-.13-.25-.06-.51-.06-.76.02-.52.16-.81.65-.77,1.28.04.59.37.98.91,1.08.21.04.41.04.63-.06v-.84c-.18-.01-.36-.02-.55-.03v-.55c.2,0,.41,0,.61,0,.21,0,.41,0,.62,0,.07.22.08,1.43.03,1.87-.26.07-.54.15-.82.22h-.63Z"/>
          <path class="cls-3" d="M45.19,77.55s-.03-.03-.04-.03c-.54-.11-.82-.48-.94-.99-.14-.55-.13-1.11.03-1.66.19-.64.65-.95,1.3-.92.4.02.72.2.91.55.11.19.19.42.24.63.1.5.1,1-.05,1.49-.14.46-.42.78-.91.88-.03,0-.05.03-.07.04h-.46ZM46.04,75.87c0-.44-.02-.78-.2-1.09-.21-.35-.61-.35-.83-.01-.25.39-.26,1.54-.02,1.94.21.35.65.36.86,0,.07-.11.11-.24.13-.37.04-.18.05-.37.06-.47Z"/>
          <path class="cls-3" d="M42.11,77.55s-.03-.03-.04-.03c-.54-.11-.82-.48-.94-.99-.14-.55-.13-1.11.03-1.66.19-.64.65-.95,1.3-.92.4.02.72.2.91.55.11.19.19.42.24.63.1.5.1,1-.05,1.49-.14.46-.42.78-.91.88-.03,0-.05.03-.07.04h-.46ZM41.73,75.66c.01.24,0,.4.04.56.03.17.08.36.16.51.19.33.62.33.82.01.07-.11.12-.24.15-.37.09-.41.09-.83,0-1.24-.03-.13-.08-.26-.15-.37-.21-.33-.61-.32-.81.01-.05.08-.09.17-.11.26-.04.23-.07.47-.09.63Z"/>
          <path class="cls-3" d="M24.1,77.55s-.03-.03-.04-.03c-.54-.11-.82-.48-.94-.99-.14-.55-.13-1.11.03-1.66.19-.64.65-.95,1.3-.92.4.02.72.2.91.55.11.2.19.42.24.63.1.5.1,1-.05,1.49-.14.46-.42.78-.91.88-.03,0-.05.03-.07.04h-.46ZM23.73,75.67c.02.24.01.4.04.56.02.14.06.28.11.41.08.2.23.33.45.33.22,0,.38-.11.47-.31.04-.09.08-.19.1-.29.08-.4.08-.81,0-1.21-.03-.14-.09-.29-.17-.42-.19-.29-.56-.28-.76,0-.06.09-.12.2-.14.31-.05.23-.07.47-.09.63Z"/>
          <path class="cls-3" d="M51.28,77.55s0-.02-.02-.02c-.62-.15-.89-.6-.98-1.19-.07-.46-.07-.93.05-1.38.12-.46.36-.84.86-.96.67-.16,1.23.09,1.48.69.28.69.28,1.41.02,2.11-.14.36-.4.61-.8.71-.03,0-.06.03-.1.05h-.51ZM52.18,75.77s-.01,0-.02,0c0-.15,0-.31-.03-.45-.05-.2-.1-.41-.21-.58-.18-.29-.54-.29-.74-.02-.09.12-.16.27-.17.41-.04.34-.06.68-.04,1.02,0,.19.07.4.16.57.19.35.63.35.84.01.05-.09.1-.19.12-.29.04-.22.06-.45.1-.67Z"/>
          <path class="cls-3" d="M48.21,77.55s0-.02-.02-.02c-.62-.15-.89-.6-.98-1.19-.07-.46-.07-.93.05-1.38.12-.46.36-.84.86-.96.67-.16,1.23.09,1.48.69.28.69.28,1.41.02,2.11-.14.36-.4.61-.8.71-.03,0-.06.03-.1.05h-.51ZM49.1,75.77s-.01,0-.02,0c0-.14,0-.29-.03-.43-.04-.19-.08-.39-.18-.56-.2-.35-.62-.35-.82,0-.06.1-.1.22-.13.34-.09.41-.09.83,0,1.24.02.11.06.22.11.32.2.37.65.38.87.02.05-.08.09-.17.1-.26.04-.22.06-.45.1-.67Z"/>
          <path class="cls-3" d="M53.96,77.55c-.14-.04-.29-.07-.43-.11-.1-.03-.19-.07-.32-.12.05-.18.1-.35.15-.51.24.06.45.13.66.15.17.02.36,0,.53-.04.21-.05.31-.22.32-.42,0-.2-.09-.35-.32-.42-.14-.04-.3-.06-.45-.07-.13-.01-.26,0-.42,0v-.57c.11,0,.21,0,.31,0,.14-.01.29-.02.42-.05.24-.06.37-.23.36-.45-.01-.21-.16-.37-.41-.39-.18-.01-.36.01-.53.04-.12.02-.23.07-.37.11-.05-.18-.11-.35-.17-.54.56-.22,1.1-.29,1.65-.08.32.12.51.36.54.7.03.35-.09.63-.4.81-.03.02-.06.04-.11.07.05.03.09.06.13.08.67.3.6,1.28.03,1.58-.19.1-.4.15-.61.23h-.57Z"/>
          <path class="cls-3" d="M56.64,77.55c-.13-.04-.27-.07-.4-.11-.1-.03-.19-.07-.32-.12.05-.18.1-.35.15-.51.24.06.44.12.66.15.17.02.36,0,.53-.04.2-.05.32-.22.32-.42,0-.2-.09-.35-.32-.42-.15-.05-.32-.06-.47-.07-.12-.01-.24,0-.39,0v-.57c.1,0,.21,0,.31,0,.15-.01.3-.02.45-.05.24-.06.36-.24.34-.46-.02-.2-.17-.36-.4-.37-.22,0-.45.04-.67.07-.07.01-.14.05-.23.08-.04-.1-.07-.18-.1-.27-.03-.08-.05-.16-.08-.27.59-.22,1.18-.33,1.76-.03.57.29.6,1.08.07,1.44-.04.03-.09.06-.16.1.05.03.08.05.11.07.32.15.5.4.5.76,0,.38-.16.68-.5.86-.16.09-.35.13-.53.2h-.63Z"/>
          <path class="cls-3" d="M12.31,77.55c-.13-.03-.26-.06-.38-.09-.1-.03-.2-.06-.32-.1.04-.19.07-.36.11-.55.23.05.44.11.65.13.19.02.38,0,.56-.02.15-.02.26-.12.29-.28.03-.15-.02-.29-.15-.38-.15-.1-.31-.17-.47-.26-.19-.1-.38-.17-.56-.28-.34-.21-.47-.53-.42-.93.05-.37.27-.6.6-.73.37-.15.74-.13,1.12-.08.13.02.25.06.4.09-.04.2-.08.37-.12.54-.24-.03-.46-.07-.67-.09-.1,0-.21,0-.31.02-.15.03-.27.1-.31.26-.04.17.03.3.17.39.12.08.25.13.38.19.19.09.38.17.56.27.37.21.54.53.5.95-.04.44-.31.7-.71.84-.1.03-.19.07-.29.1h-.63Z"/>
          <path class="cls-3" d="M30.99,74.01v2.16c.13.01.24.03.36.04v.53c-.11.01-.22.03-.36.04v.69h-.71v-.7h-1.59c-.04-.37-.06-.69.16-1,.36-.51.69-1.04,1.02-1.57.09-.14.18-.2.34-.19.24.01.49,0,.78,0ZM30.26,74.77s-.04,0-.06-.01c-.28.46-.57.92-.87,1.41h.92v-1.4Z"/>
          <path class="cls-3" d="M20.5,74.77c-.08-.17-.14-.33-.22-.5.54-.34,1.1-.44,1.69-.2.51.21.72.78.49,1.34-.07.19-.19.38-.32.53-.22.26-.48.49-.72.72-.07.06-.15.11-.22.16.01.02.03.05.04.07h1.34v.56h-2.31c0-.17-.02-.32,0-.46.01-.08.07-.17.14-.23.28-.27.57-.53.85-.8.15-.15.29-.31.4-.48.08-.12.14-.27.16-.42.04-.31-.15-.54-.47-.55-.17,0-.34.04-.5.08-.11.03-.21.09-.35.16Z"/>
          <path class="cls-3" d="M26.28,74.76c-.07-.16-.13-.3-.21-.46.07-.05.13-.1.19-.13.35-.18.72-.25,1.1-.2.88.11,1.1.81.89,1.42-.07.22-.22.42-.37.6-.21.24-.46.46-.69.68-.07.06-.13.13-.25.23h1.39v.57h-2.31c0-.17-.02-.33,0-.48.01-.08.09-.16.15-.22.31-.3.64-.6.95-.91.14-.14.26-.3.36-.47.12-.2.17-.43.02-.64-.16-.23-.4-.25-.64-.2-.2.04-.39.13-.62.21Z"/>
          <path class="cls-3" d="M37.87,77.47h-.67v-2.79c-.24.14-.44.25-.66.37-.08-.17-.16-.33-.26-.52.3-.17.57-.38.89-.5.2-.07.45-.01.68-.01.06.19.08,3.06.02,3.45Z"/>
          <path class="cls-3" d="M35.03,74.69c-.25.14-.44.25-.65.37-.09-.17-.16-.33-.26-.52.29-.17.56-.38.87-.49.21-.08.47-.01.7-.01.05.2.07,3.11,0,3.45h-.67c0-.48,0-.94,0-1.39s0-.9,0-1.41Z"/>
          <path class="cls-3" d="M39.12,77.47h-.59c.53-1.17,1.04-2.3,1.56-3.44h.58c-.53,1.16-1.04,2.3-1.56,3.44Z"/>
          <path class="cls-3" d="M33.17,74.03h.58c-.53,1.16-1.04,2.3-1.56,3.44h-.59c.53-1.16,1.04-2.3,1.56-3.44Z"/>
          <path class="cls-3" d="M19.41,74.02h.58c-.53,1.16-1.04,2.3-1.56,3.44h-.59c.53-1.17,1.04-2.3,1.56-3.44Z"/>
        </g>
        <path class="cls-2" d="M35.18,59.12c-.75-.03-1.51-.06-2.26-.11-.36-.02-.71-.09-1.07-.15-.44-.06-.88-.12-1.31-.19-.28-.05-.55-.11-.83-.18-.41-.1-.82-.21-1.23-.32-1.54-.43-3.01-1.03-4.43-1.76-.86-.43-1.69-.91-2.48-1.46-.5-.34-.97-.72-1.45-1.08-1.09-.81-2.05-1.75-2.97-2.75-1.55-1.69-2.82-3.57-3.84-5.63-.47-.96-.88-1.94-1.21-2.96-.18-.57-.38-1.13-.51-1.72-.09-.44-.23-.87-.32-1.3-.08-.41-.13-.83-.19-1.25-.05-.33-.1-.67-.16-1,0-.03,0-.06-.01-.08-.03-.67-.07-1.34-.1-2.01-.01-.38-.01-.76,0-1.14,0-.26.05-.53.07-.79,0-.08.01-.15.02-.23.03-.42.04-.85.08-1.27.03-.25.09-.5.14-.74,0-.05.01-.09.02-.14.05-.29.09-.57.15-.86.06-.33.12-.66.2-.99.11-.42.22-.85.35-1.26.14-.45.31-.9.47-1.35.5-1.42,1.16-2.75,1.94-4.04.55-.91,1.15-1.78,1.81-2.61.8-1.01,1.68-1.94,2.62-2.82.43-.4.92-.75,1.37-1.13.66-.56,1.36-1.07,2.11-1.51.68-.41,1.37-.82,2.08-1.17.83-.41,1.68-.78,2.54-1.11.65-.25,1.34-.42,2.01-.62.41-.12.81-.23,1.23-.32.37-.08.76-.13,1.14-.2.31-.05.61-.12.92-.15.4-.05.81-.06,1.21-.11.92-.11,1.84-.09,2.76-.06.57.02,1.15.03,1.72.15.31.06.64.06.96.09.25.03.5.06.75.11.34.07.68.15,1.02.22.41.1.82.18,1.23.3.57.17,1.14.36,1.71.55.86.29,1.69.65,2.5,1.06.69.35,1.38.73,2.04,1.13.52.31,1.02.67,1.51,1.03.45.33.88.68,1.32,1.02.88.7,1.66,1.49,2.41,2.31.61.66,1.19,1.35,1.7,2.09.52.75,1,1.52,1.47,2.3.5.83.92,1.72,1.28,2.62.28.69.54,1.38.75,2.1.12.4.24.8.34,1.2.13.52.24,1.04.34,1.56.07.36.1.73.17,1.08.16.76.16,1.54.23,2.31.07.82.07,1.65-.03,2.47-.01.08-.02.17-.03.25-.03.42-.04.85-.08,1.27-.03.27-.09.54-.14.8,0,.05-.02.09-.02.14-.04.44-.13.87-.25,1.29-.04.14-.06.29-.09.44-.06.28-.11.57-.19.84-.09.33-.21.65-.32.98-.22.68-.48,1.34-.75,2.01-.48,1.18-1.09,2.3-1.76,3.38-.58.94-1.23,1.83-1.94,2.68-.74.87-1.51,1.7-2.35,2.46-.72.65-1.49,1.25-2.28,1.82-.82.59-1.68,1.13-2.58,1.6-.96.5-1.93.97-2.95,1.33-.64.22-1.27.44-1.92.63-.55.16-1.11.27-1.67.4-.4.09-.81.17-1.21.25-.19.04-.39.05-.59.08-.29.04-.58.08-.87.1-.76.04-1.51.07-2.28.11ZM35.14,58.37c.83-.05,1.62-.06,2.4-.14.71-.07,1.42-.19,2.13-.32.59-.11,1.18-.25,1.76-.41.5-.13.99-.3,1.49-.45.8-.26,1.57-.59,2.33-.95,1.21-.58,2.39-1.2,3.46-2.01.67-.51,1.36-1,1.99-1.55,1.05-.9,1.99-1.92,2.87-2.99.86-1.05,1.61-2.17,2.26-3.36.41-.75.78-1.52,1.12-2.3.28-.65.49-1.33.72-2,.1-.29.18-.59.26-.88.08-.29.17-.59.24-.89.07-.33.12-.66.19-.99.07-.33.17-.65.16-.99,0-.04,0-.08.01-.11.05-.33.12-.67.15-1,.03-.32.05-.64.06-.96.01-.79.01-1.58.01-2.36,0-.08,0-.15-.02-.23-.11-.42.03-.87-.14-1.29.02-.51-.11-1.01-.18-1.51-.07-.48-.23-.94-.32-1.41-.08-.43-.22-.84-.34-1.26-.19-.68-.44-1.34-.7-2-.43-1.08-.94-2.11-1.53-3.11-.66-1.12-1.4-2.18-2.24-3.17-.79-.92-1.61-1.81-2.54-2.6-.58-.49-1.21-.94-1.81-1.41-.66-.53-1.38-.98-2.12-1.38-1.38-.76-2.81-1.41-4.32-1.89-.82-.26-1.65-.49-2.5-.65-.16-.03-.31-.06-.47-.09-.24-.05-.48-.11-.72-.14-.34-.05-.68-.07-1.01-.11-.48-.05-.95-.12-1.43-.15-1.17-.07-2.33.01-3.5.09-.02,0-.04,0-.06,0-.32.05-.63.13-.95.15-.37.03-.73.08-1.09.17-.5.13-1,.24-1.51.34-.66.13-1.28.36-1.91.57-.92.31-1.8.73-2.68,1.14-1.63.77-3.1,1.78-4.49,2.9-.71.58-1.38,1.2-2.01,1.87-.74.79-1.46,1.61-2.09,2.49-.62.86-1.18,1.76-1.68,2.69-.59,1.09-1.1,2.23-1.48,3.4-.25.75-.46,1.52-.67,2.28-.11.41-.19.83-.26,1.24-.08.49-.14.99-.19,1.49-.06.61-.13,1.22-.15,1.84-.03.65-.02,1.31,0,1.97.01.44.05.89.1,1.33.06.49.15.97.23,1.46.06.39.1.79.2,1.17.2.77.42,1.53.65,2.28.39,1.28.93,2.5,1.56,3.68.54,1.01,1.15,1.98,1.83,2.9.6.82,1.26,1.59,1.96,2.31.53.54,1.08,1.06,1.64,1.56.46.41.96.77,1.45,1.14.39.29.79.58,1.21.85.73.47,1.49.88,2.27,1.26,1.14.57,2.32,1.04,3.54,1.41.55.17,1.11.3,1.67.43.52.12,1.05.24,1.58.32.6.09,1.2.14,1.81.19.61.05,1.23.08,1.81.12Z"/>
        <path class="cls-2" d="M65.6,26.44c-.41.13-.74.23-1.07.33-.53.17-1.06.33-1.59.5-.27.09-.3.15-.23.41.07.28.15.56.24.88.17-.05.33-.09.49-.13.57-.15,1.08-.04,1.53.35.38.33.53,1.07.3,1.6-.16.35-.43.54-.77.65-.24.08-.49.12-.74.19-.07.02-.13.06-.2.09.05.31.09.6.14.92.46.03.93-.03,1.4,0,.08.16.16.3.1.5-.48.04-.95.08-1.42.11,0,.31,0,.59,0,.88,0,.16.11.18.24.17.36-.02.72-.04,1.08-.06.39-.02.47.07.44.51-.55.04-1.1.08-1.67.13-.07.33-.02.64.03.94.02.12.12.13.22.13.44-.02.87-.05,1.31-.07.42-.03.49.05.45.51-.63.04-1.27.08-1.93.12.01.33-.05.64.05.95.09.3.21.4.53.42.56.03,1.12.05,1.68.08.14,0,.29,0,.43.03.23.03.26.06.3.29.01.06.03.13.06.23-.09.02-.16.05-.24.05-.75-.03-1.5-.06-2.25-.1-.41-.02-.76-.18-.94-.58-.07-.15-.1-.33-.11-.49-.05-.84-.09-1.69-.13-2.53-.03-.6-.05-1.19-.11-1.79-.08-.75-.2-1.5-.38-2.23-.15-.62-.25-1.26-.38-1.88-.05-.25-.13-.49-.21-.73-.14-.42-.07-.89.52-1.05.79-.22,1.56-.49,2.34-.73.06-.02.16-.01.2.03.1.1.18.23.31.39ZM64.76,29.34c-.25.73-.79.9-1.49.87.05.19.09.35.13.49.34.04.6-.09.87-.16.44-.12.58-.32.58-.77,0-.07,0-.13,0-.2-.02-.08-.06-.15-.08-.22ZM63.67,28.88c-.13.06-.3.11-.44.22-.19.15-.13.51.1.58.28.08.54.05.77-.15.23-.21.18-.46-.11-.57-.09-.03-.18-.04-.32-.07Z"/>
        <path class="cls-2" d="M52.58,12.96c.27.22.53.44.8.66.22-.24.43-.47.63-.71.2-.24.47-.35.76-.39.14-.02.3.03.44.08.36.16.6.44.73.81.02.05,0,.11-.01.18h-.47c-.04-.08-.07-.16-.11-.25-.16-.35-.5-.46-.78-.2-.27.24-.5.53-.76.81.07.08.11.14.16.19.45.4.91.8,1.36,1.2.23.2.24.21.47.02.21-.17.41-.36.62-.54.22-.18.22-.17.46-.01.06.04.12.09.19.14-.05.06-.08.11-.12.15-.28.24-.56.48-.84.72-.15.13-.17.18-.05.32.17.21.36.41.57.63.42-.35.82-.69,1.24-1.04.09.05.18.1.27.16.15.09.17.18.04.29-.27.24-.54.47-.82.69-.44.35-.38.32-.07.69.09.11.18.22.28.32.08.09.16.12.27.03.34-.29.71-.57,1.03-.88.24-.23.3-.21.55-.04.04.03.07.06.13.11-.19.28-.47.46-.72.67-.25.22-.5.43-.76.66.14.29.37.5.59.71.19.18.43.18.65.03.41-.28.83-.56,1.24-.84.17-.12.34-.23.51-.35.21-.15.24-.15.44.02.2.17.21.19,0,.34-.66.46-1.32.92-1.99,1.36-.36.24-.84.17-1.17-.16-.13-.13-.22-.28-.34-.41-.61-.7-1.23-1.4-1.85-2.11-.74-.85-1.53-1.65-2.36-2.41-.49-.44-1-.86-1.5-1.3-.08.05-.13.08-.18.12-.67.51-1.38.31-1.84-.32-.05-.06-.05-.17-.04-.26,0-.09.04-.18.07-.27.14-.03.18.09.24.16.17.21.36.4.63.44.2.03.41.01.58-.19-.06-.05-.12-.1-.17-.15-.17-.15-.36-.29-.49-.46-.23-.29-.21-.76,0-1.11.16-.26.36-.47.64-.63.3-.17.59-.18.89-.04.22.1.4.25.54.45.24.36.16.73-.02,1.08-.11.22-.28.41-.42.61-.04.06-.09.12-.14.2ZM52.79,11.57c.05-.35-.47-.65-.75-.47-.26.16-.45.37-.55.65-.06.15-.06.34.09.47.13.12.27.24.41.34.08.06.18.06.24-.05.15-.22.3-.43.44-.65.06-.09.08-.2.12-.3Z"/>
        <path class="cls-2" d="M43.6,5.08c-.04.19-.07.35-.11.51-.17.64-.34,1.28-.51,1.92-.09.34-.26.64-.62.74-.19.05-.4.08-.58.05-.31-.06-.61-.17-.91-.26-.07-.02-.14-.07-.19-.12-.13-.16-.3-.15-.46-.1-.23.08-.44.07-.66,0-.14-.04-.3-.04-.43-.09-.17-.07-.33-.17-.52-.27-.02.02-.08.05-.12.1-.42.58-1.29.51-1.76.08-.07-.07-.12-.17-.18-.25-.06-.08-.12-.12-.24-.06-.15.07-.33.13-.49.12-.19,0-.38-.09-.56-.15-.08-.03-.15-.07-.25-.12-.2.45-.57.67-1.04.7-.47.03-.83-.2-1.1-.57-.48.28-.98.31-1.49.24-.31-.05-.52-.31-.54-.62-.03-.37-.1-.74-.14-1.12-.04-.35-.08-.69-.12-1.04-.01-.1-.02-.21-.05-.3-.03-.11,0-.19.11-.23.13-.05.24-.19.39-.09.04.03.06.11.07.17.06.57.12,1.14.18,1.71.03.25.06.51.09.76.03.23.17.35.41.33.21-.02.44-.04.64-.11.24-.09.37-.29.39-.55.03-.57.47-.97,1.07-.97.2,0,.38,0,.58.08.25.09.39.26.49.48.05.12.1.25.11.38.04.28.19.44.46.49.22.04.44.08.66-.04.18-.1.28-.24.33-.44.18-.68.69-.93,1.32-.84.12.02.24.05.35.09.39.16.53.48.54.87.01.31.11.56.41.67.28.1.58.17.88.12.2-.03.29-.21.33-.38.1-.47.17-.94.26-1.41.05-.27.11-.55.17-.82.02-.11.09-.19.21-.19.12,0,.24,0,.39,0-.04.2-.06.37-.1.55-.07.36-.15.72-.22,1.08-.06.31-.13.62-.19.94-.04.2.11.43.33.51.2.07.41.13.62.17.31.05.56-.09.65-.44.17-.68.35-1.36.53-2.04.05-.19.11-.24.3-.24.09,0,.18,0,.32.01ZM36.98,6.82s0,0,.01,0c0,.04,0,.08,0,.11.02.43.52.7.89.49.04-.02.08-.06.1-.1.19-.33.23-.67.09-1.02-.05-.12-.15-.2-.3-.22-.48-.06-.58,0-.75.44-.04.09-.04.2-.05.3ZM33.89,7.36c.36,0,.45-.07.56-.43.06-.19.03-.37-.01-.56-.07-.31-.29-.46-.54-.44-.29.02-.45.11-.55.44-.06.21-.05.41.03.61.11.3.2.38.51.38Z"/>
        <path class="cls-2" d="M6.57,29.46c-.4-.16-.78-.15-1.16-.1-.37.04-.65.56-.53.93.05.18.13.35.21.55-.06.14-.21.21-.35.29-.21-.14-.25-.37-.31-.57-.1-.31-.07-.63.04-.94.24-.7.85-.95,1.54-.85.22.03.45.06.7.09.07-.33.16-.62.2-.93.04-.28-.02-.37-.29-.47-.34-.13-.7-.23-1.05-.33-.37-.11-.74-.22-1.11-.34-.2-.06-.3-.34-.2-.53.05-.09.12-.08.2-.05.34.1.68.2,1.03.31.38.11.75.23,1.13.34.26.08.5.18.65.42.07.11.13.25.15.38.05.32-.03.63-.13.94-.1.28-.14.58-.2.87-.07.36-.15.72-.21,1.08-.07.39-.16.77-.2,1.16-.06.48-.14.75-.42,1.11.25.5.16,1.03.11,1.57-.03.3-.02.61-.02.91,0,.46,0,.93,0,1.39-.32-.04-.47-.19-.47-.44,0-.28,0-.57,0-.85,0-.08,0-.17,0-.28-.13,0-.23-.02-.33-.02-.25,0-.49,0-.74,0-.38.01-.61.31-.51.68.04.14.13.27.2.4.03.06.08.1.12.16-.2.13-.43.11-.56-.04-.44-.51-.26-1.38.35-1.67.09-.04.2-.07.3-.07.28,0,.57,0,.85,0,.09,0,.18,0,.3-.01,0-.11.02-.2.02-.29.01-.19.02-.38.04-.57,0,0,0-.02,0-.03.03-.38-.1-.57-.49-.62-.3-.04-.6-.07-.9-.09-.43-.03-.5-.11-.45-.59.13,0,.27,0,.4.02.35.04.7.08,1.04.12.36.03.55-.15.6-.52.06-.4.11-.8.19-1.2.06-.33.15-.66.22-.99.02-.09.02-.19.03-.3Z"/>
        <path class="cls-2" d="M10.68,19.94c-.23-.17-.44-.34-.65-.48-.33-.22-.56-.5-.61-.89-.03-.21.05-.43.16-.61.15-.26.35-.46.65-.55.12-.04.18,0,.2.12,0,.04,0,.08,0,.11q.01.23-.21.33c-.36.17-.42.54-.13.83.06.06.12.12.19.17.21.15.43.3.68.48.09-.1.19-.19.27-.3.17-.23.32-.46.48-.69.07-.1.14-.16.28-.15.11,0,.22-.01.32-.02.08.11,0,.18-.05.24-.22.33-.45.65-.67.98-.27.39-.55.78-.82,1.18-.18.27-.39.51-.68.67.03.57-.32.98-.57,1.44-.1.19-.24.34-.45.41-.12.04-.14.13-.07.22.09.14.07.26.01.4-.05.13-.08.27-.14.4-.22.42-.64.62-1.13.5-.37-.09-.71-.25-.99-.53-.27-.27-.34-.59-.2-.94.13-.35.3-.69.46-1.03.08-.17.14-.18.31-.1.35.16.7.32,1.05.49.35.17.58.12.81-.19.18-.25.36-.5.31-.85-.02-.12-.04-.22-.15-.29-.07-.05-.13-.1-.21-.15-.28-.17-.57-.33-.86-.5-.18-.11-.19-.14-.11-.34.02-.04.03-.09.04-.13.02-.04.03-.08.07-.15.14.08.27.15.4.22.28.16.56.34.85.49.31.16.54.12.72-.12.15-.19.27-.4.44-.65ZM6.98,23.51c-.01.09.05.2.15.3.24.23.55.31.86.4.06.02.13,0,.19-.03.2-.08.31-.24.35-.44.04-.23-.06-.41-.25-.52-.29-.16-.58-.3-.88-.44-.04-.02-.15,0-.17.04-.1.21-.25.4-.24.7Z"/>
        <path class="cls-2" d="M24.89,8.7c-.11-.35-.2-.66-.3-.98-.1-.33-.01-.47.4-.54.14.45.29.9.44,1.37.36,0,.65-.18,1-.26,0-.08,0-.15-.03-.22-.1-.34-.2-.69-.32-1.02-.14-.36-.05-.36.2-.55.03-.02.07-.04.13-.07.04.07.1.13.12.2.13.41.24.83.36,1.24.02.06.06.12.09.17.28.03.51-.08.73-.19.17-.09.24-.34.17-.55-.13-.42-.27-.83-.41-1.24q.24-.27.49-.3c.12.39.23.8.36,1.19.07.2.13.39.12.6-.03.41-.27.67-.63.82-.2.08-.41.13-.61.2-.62.19-1.25.39-1.88.57-.5.15-.99.33-1.47.53-.4.16-.76,0-.94-.43-.29-.67-.57-1.34-.86-2.02-.01-.03-.02-.05-.03-.08-.04-.12-.15-.26-.12-.35.05-.13.21-.23.35-.37.06.11.11.17.15.24.32.74.63,1.47.95,2.21.14.33.21.36.56.22.25-.1.51-.17.76-.27.08-.03.15-.08.22-.12Z"/>
        <path class="cls-2" d="M39.64,63.7c-.22.02-.42.03-.61.05-.2.02-.41.05-.65.09-.01-.19-.02-.33-.03-.47.04-.03.06-.05.09-.05.41-.06.82-.12,1.23-.18.03,0,.06,0,.08,0,.39-.03.38-.02.41.37.03.29.1.57.14.86.04.29.07.57.11.86-.37.14-.4.12-.57-.29-.04.02-.09.04-.11.07-.27.39-.66.54-1.12.61-.46.07-.85,0-1.24-.25-.25-.15-.43-.37-.55-.62-.23-.46-.37-.95-.34-1.47.05-.79.47-1.56,1.29-1.81.5-.15,1-.16,1.48.1.37.19.57.5.7.9-.09.04-.17.09-.26.12-.19.06-.27.04-.37-.14-.13-.23-.3-.4-.56-.48-.62-.2-1.4.16-1.58.78-.07.26-.17.54-.06.84.07.19.08.4.12.61.06.26.21.48.4.67.16.15.36.23.59.24.27,0,.53,0,.77-.11.43-.2.62-.55.63-1.01,0-.07,0-.13-.01-.26Z"/>
        <path class="cls-2" d="M23.71,60.41c0-.07.01-.1.02-.12.12-.48.02-.64-.33-.9-.18-.13-.4-.22-.62-.26-.22-.04-.42.09-.55.28-.11.16-.12.35,0,.5.1.14.24.26.37.39.26.25.55.47.78.74.5.57.25,1.47-.46,1.75-.32.12-.63.09-.94,0-.49-.15-.91-.39-1.19-.84-.22-.35-.23-.73-.09-1.11.08-.24.15-.26.37-.13.07.04.14.09.19.12-.02.2-.03.36-.05.53-.02.28.12.48.34.64.22.17.47.27.74.32.41.08.83-.25.71-.69-.04-.15-.17-.29-.28-.4-.25-.24-.52-.47-.78-.7-.25-.23-.45-.49-.41-.86.05-.46.31-.77.72-.97.29-.13.58-.13.88-.02.42.15.79.36,1.04.74.22.33.28.68.12,1.05-.08.19-.13.21-.32.11-.09-.05-.18-.1-.27-.16Z"/>
        <path class="cls-2" d="M45.74,63.64c-.19-.22-.38-.44-.56-.67-.26-.31-.26-.32-.62-.19-.3.11-.59.23-.89.33-.14.04-.17.12-.17.25,0,.26,0,.51,0,.77,0,.31-.05.38-.36.43-.06.01-.13.01-.2.02-.01-.04-.03-.08-.03-.11.02-1.3.04-2.6.05-3.9,0-.2.08-.29.25-.35.37-.13.37-.13.63.18.77.92,1.54,1.84,2.31,2.76.06.07.09.15.15.25-.19.08-.34.14-.55.23ZM43.58,62.61c.31-.14.66-.19.97-.39-.33-.42-.65-.82-1.01-1.22-.09.4-.06,1.43.04,1.61Z"/>
        <path class="cls-2" d="M49.09,61.96c-.16.1-.31.2-.48.31-.4-.56-.72-1.14-1.08-1.71-.36-.57-.7-1.15-1.06-1.74.6-.36,1.16-.74,1.75-1.04.56-.29,1.06-.11,1.44.45.19.29.24.62.18.95-.05.24-.18.45-.4.59-.32.21-.65.41-.97.62-.23.15-.23.15-.08.4.22.38.45.75.71,1.18ZM47.27,58.97c.23.37.44.73.66,1.07.05,0,.09,0,.11-.01.29-.18.58-.35.86-.54.25-.16.39-.36.35-.68-.05-.4-.43-.65-.81-.51-.42.15-.76.43-1.16.66Z"/>
        <path class="cls-2" d="M45.8,9.31c-.13.02-.24.03-.34.05-.3.04-.58-.06-.83-.22-.29-.19-.42-.48-.4-.83.03-.49.21-.92.57-1.26.28-.26.62-.26.95-.15.36.12.71.27,1.06.41.09.17-.03.3-.08.43-.11.32-.26.62-.38.93-.12.3-.02.57.27.74.17.1.34.2.52.26.39.13.62.02.8-.35.15-.31.29-.62.44-.93.03-.06.09-.11.13-.16.17.04.31.08.48.12-.06.14-.12.26-.17.38-.16.33-.3.66-.48.98-.19.35-.48.59-.91.55-.2-.02-.4-.08-.6-.16-.18-.07-.36-.16-.53-.27-.2-.13-.41-.27-.51-.53ZM45.38,8.9c.16-.01.3-.11.38-.28.14-.29.27-.58.38-.88.06-.15,0-.22-.16-.28-.13-.05-.27-.07-.4-.12-.2-.08-.33,0-.47.14-.17.18-.25.4-.32.62-.13.44.12.8.57.8Z"/>
        <path class="cls-2" d="M32.8,65.68h-.41c-.03-.08-.07-.16-.11-.25-.11.06-.2.11-.3.16-.61.28-1.21-.09-1.48-.6-.38-.74-.13-1.61.35-2.1.39-.4.95-.47,1.48-.12.08.05.15.11.25.18.05-.44.1-.83.15-1.23q.17-.07.49-.01c.07.67-.13,1.32-.18,1.99-.05.66-.13,1.33-.24,2ZM32.45,63.99c0-.09,0-.19-.02-.28-.02-.33-.2-.54-.54-.63-.25-.07-.6.06-.73.3-.23.4-.35.81-.18,1.29.1.27.26.44.52.5.29.07.56-.01.74-.28.18-.27.22-.57.22-.89Z"/>
        <path class="cls-2" d="M14.28,12.7c.22.23.41.44.6.64.22.23.44.47.66.7.1.11.19.11.29.01.2-.18.41-.36.6-.56.22-.23.22-.43.02-.68-.43-.54-.86-1.08-1.29-1.62-.06-.08-.12-.16-.19-.26.1-.14.18-.27.29-.43.07.06.14.1.18.15.5.62.99,1.24,1.49,1.86.28.36.28.96-.08,1.3-.23.22-.48.42-.72.63-.04.03-.08.05-.12.08.07.13.13.23.17.33.13.34.12.67-.1.97-.14.19-.3.36-.48.51-.22.18-.39.15-.75-.05.04-.04.06-.09.1-.11.13-.08.27-.13.39-.23.47-.39.53-.75.13-1.18-.43-.48-.87-.95-1.31-1.42-.17-.18-.17-.18-.04-.38.05-.07.09-.14.17-.27Z"/>
        <path class="cls-2" d="M25.67,63.99c-.24.02-.45.05-.66.06-.43.01-.86-.28-1.01-.68-.15-.42.14-1.01.58-1.1.28-.06.57-.03.84.03.17.04.34.1.52.13.13.03.24.01.33-.11.1-.14.11-.29.03-.42-.16-.26-.69-.42-.96-.29-.06.03-.1.08-.15.13-.13.13-.39.14-.5,0-.03-.04-.04-.13-.02-.18.14-.26.34-.45.65-.48.49-.06.92.11,1.29.4.3.23.38.51.23.91-.17.49-.36.97-.54,1.45-.03.09-.04.18.07.24.14.07.13.19.07.32-.05.13-.16.11-.26.1-.21-.03-.38-.11-.44-.33-.02-.05-.04-.1-.07-.17ZM25.99,62.9c-.31-.07-.62-.14-.93-.2-.21-.04-.45.13-.5.33-.05.24.05.43.28.51.06.02.12.05.18.07.48.15.99-.23.96-.71Z"/>
        <path class="cls-2" d="M27.76,61.82c.17.05.31.09.47.13.03.14.04.28-.03.43-.06.13-.08.29-.11.43-.09.36-.18.72-.26,1.09-.06.24.03.47.22.59.16.1.57.12.72-.04.22-.23.35-.49.42-.8.06-.31.16-.61.23-.91.02-.07.02-.15.03-.22.02-.22.11-.28.32-.22.08.02.16.05.25.08,0,.05.02.1.01.14-.2.87-.41,1.74-.62,2.6-.01.05-.07.09-.1.13q-.38-.06-.41-.34c-.17.05-.33.11-.5.13-.36.05-1.03-.12-1.12-.63-.03-.17-.05-.36-.02-.53.05-.32.13-.64.21-.96.09-.36.19-.72.29-1.1Z"/>
        <path class="cls-2" d="M18.85,9.97s.03.09.05.13c.12.21.25.42.35.64.19.4.47.43.78.26.56-.29,1.1-.6,1.65-.92.34-.2.38-.35.21-.7-.14-.28-.31-.56-.46-.83-.03-.06-.06-.11-.09-.17-.09-.2,0-.42.19-.49.1-.04.15.02.2.11.14.27.29.53.44.79.06.1.11.2.17.29.37.64.14,1.14-.42,1.45-.59.33-1.19.64-1.79.97-.34.19-.66.17-.98-.04-.31-.2-.42-.55-.56-.86-.05-.1.06-.28.11-.42.02-.05.05-.1.07-.15.03-.02.06-.04.08-.06Z"/>
        <path class="cls-2" d="M60.19,22.65c0-.48.3-.76.65-.97.22-.13.48-.23.73-.27.4-.06.76.12,1.01.54.36.59.24,1.13-.33,1.53-.28.2-.6.33-.95.33-.5,0-.76-.22-1.01-.73-.06-.13-.08-.29-.11-.43ZM61.31,23.26c.33,0,.59-.17.83-.37.16-.13.19-.45.11-.63-.12-.24-.31-.34-.58-.3-.26.03-.49.14-.7.29-.22.16-.3.42-.22.68.07.22.28.34.56.34Z"/>
        <path class="cls-2" d="M3.88,38.36c-.01-.56.37-.99.99-1.07.23-.03.47-.03.71,0,.42.05.77.42.82.79.03.21.05.4.01.61-.06.34-.26.54-.54.68-.38.18-.78.22-1.19.12-.5-.12-.82-.57-.8-1.12ZM5.18,37.78c-.12.03-.31.06-.49.12-.21.08-.37.33-.35.53.02.23.18.41.4.5.31.12.6.04.89-.05.26-.08.38-.33.35-.61-.03-.23-.2-.4-.45-.45-.09-.02-.19-.02-.35-.04Z"/>
        <path class="cls-2" d="M62.08,25.93c.34-.13.65-.23.95-.37.34-.15.46-.38.27-.79-.08-.17-.22-.31-.4-.38-.05-.02-.09-.05-.14-.08.26-.24.42-.25.68-.08.51.36.55,1.24.2,1.57-.12.11-.25.21-.39.27-.4.17-.81.31-1.22.46-.18.07-.2.07-.27-.11-.22-.55-.44-1.09-.66-1.64-.02-.06-.01-.13-.02-.19.39,0,.46.04.59.36.09.23.18.46.27.68.04.1.09.19.14.3Z"/>
        <path class="cls-2" d="M48.38,10.8c.24-.29.36-.31.63-.15.3.18.61.35.93.53.26-.28.39-.61.57-.9.05-.07.05-.18.05-.27,0-.24-.2-.47-.44-.51-.1-.02-.21-.02-.31-.02-.09,0-.18.02-.28.03,0-.31.11-.42.38-.46.61-.08,1.08.39,1.21.85.06.21,0,.42-.1.6-.22.39-.44.76-.67,1.15-.12.2-.18.23-.39.11-.3-.17-.6-.36-.9-.53-.17-.1-.34-.19-.51-.29-.06-.04-.11-.09-.16-.14Z"/>
        <path class="cls-2" d="M28.61,8.6c.06-.02.12-.04.18-.04.18,0,.36,0,.54,0,.48,0,.73-.47.63-.93-.06-.24-.11-.49-.15-.74-.05-.26-.11-.53-.15-.79-.03-.15-.05-.31-.08-.52.11-.07.26-.18.41-.28.12.11.15.23.17.37.03.26.1.51.14.77.03.15.06.29.08.44.05.31.13.63.14.94.02.53-.25,1-.82,1.17-.06.02-.12.04-.19.06-.43.11-.72-.03-.89-.45Z"/>
        <path class="cls-2" d="M13.48,17.78c.21-.18.42-.34.6-.53.24-.25.23-.58.02-.85-.07-.08-.14-.15-.22-.22-.47-.44-.94-.88-1.41-1.31-.03-.03-.08-.05-.13-.08.1-.18.17-.31.26-.47.08.05.15.08.21.12.53.48,1.06.96,1.58,1.46.13.13.24.29.32.46.22.45.04.85-.24,1.2-.09.11-.2.21-.31.29-.22.15-.44.12-.66-.08Z"/>
        <path class="cls-2" d="M4.62,25.11c.25.08.46.14.68.21.65.22,1.29.45,1.94.68.16.06.32.11.48.17.25.08.29.14.21.4-.02.07-.06.13-.11.22-.07-.02-.13-.03-.19-.05-.77-.27-1.53-.53-2.3-.8-.16-.06-.32-.11-.48-.17-.24-.08-.27-.11-.26-.36,0-.07.02-.15.03-.28Z"/>
        <path class="cls-2" d="M66.74,39.2c-.25-.02-.45-.03-.66-.05-.62-.06-1.24-.12-1.86-.17-.24-.02-.49-.04-.73-.07-.24-.02-.28-.08-.25-.34.02-.21.07-.25.3-.22.14.02.28.02.42.04.55.05,1.09.11,1.64.16.27.03.55.04.82.07.31.03.31.04.33.34,0,.06,0,.13,0,.23Z"/>
        <path class="cls-2" d="M58.92,20.62c.24-.16.48-.33.73-.48.65-.41,1.31-.82,1.97-1.22.08-.05.15-.15.25-.08.11.08.21.18.3.29.01.01-.06.13-.11.16-.36.23-.72.45-1.08.67-.51.32-1.02.64-1.53.96-.23.15-.25.14-.4-.09-.04-.06-.07-.13-.12-.22Z"/>
        <path class="cls-2" d="M10.31,15.3c.19.15.37.29.54.43.56.46,1.12.93,1.68,1.39.12.1.25.2.37.3.13.12.12.18,0,.33-.16.18-.21.2-.35.09-.33-.27-.66-.54-.98-.81-.39-.32-.78-.65-1.18-.96-.37-.29-.39-.35-.07-.77Z"/>
        <path class="cls-2" d="M16.21,9.85c.19.26.37.5.56.75.44.6.88,1.2,1.31,1.8.04.06.09.12.12.19.05.11.05.19-.08.25-.08.04-.15.1-.25.17-.11-.13-.21-.25-.3-.38-.51-.7-1.02-1.4-1.53-2.1-.21-.28-.21-.31.03-.58.04-.04.09-.07.14-.11Z"/>
        <path class="cls-2" d="M34.25,64.27c0,.4,0,.79,0,1.19,0,.27-.25.41-.48.28-.12-.07-.1-.19-.09-.3.02-.38.03-.76.04-1.13,0-.37,0-.74.01-1.11,0-.06-.01-.12,0-.17.03-.08.07-.21.13-.22.12-.03.26-.02.38.02.04.01.06.15.06.23,0,.41-.02.81-.03,1.22-.01,0-.02,0-.04,0Z"/>
        <path class="cls-2" d="M50.38,60.49s.05-.03.08-.05c.37-.24.48-.21.63.21.07.2.07.16-.26.38-.14.09-.2.07-.3-.07-.1-.14-.21-.27-.15-.47Z"/>
        <path class="cls-2" d="M46.97,63.05c-.08-.16-.15-.31-.22-.46,0-.02-.01-.04,0-.06.04-.18.22-.19.34-.25.11-.05.2,0,.26.1.22.36.21.4-.2.58-.05.02-.1.05-.18.08Z"/>
        <path class="cls-2" d="M42.03,64.27c.04.18.07.35.11.56-.21.04-.39.07-.6.12-.06-.21-.1-.38-.15-.55.22-.16.41-.21.63-.12Z"/>
        <path class="cls-2" d="M34.35,62s0,.05,0,.06c-.01.26-.23.38-.46.24-.04-.03-.07-.08-.08-.13-.01-.06,0-.13,0-.2,0-.29.14-.38.41-.29.17.06.15.19.14.32Z"/>
        <path class="cls-2" d="M45.96,5.81c.15.11.33.17.28.39-.03.12-.2.23-.32.23-.11,0-.25-.13-.27-.24-.04-.23.16-.26.31-.38Z"/>
        <path class="cls-2" d="M5.83,23.18c-.14,0-.29-.15-.3-.29,0-.15.14-.31.29-.32.12,0,.3.16.31.28,0,.13-.17.32-.3.32Z"/>
        <path class="cls-2" d="M7.51,33.29c0,.16-.13.29-.29.29-.14,0-.31-.17-.3-.29,0-.13.18-.29.31-.29.15,0,.28.13.28.29Z"/>
        <path class="cls-2" d="M3.47,38.95c0,.15-.16.29-.3.28-.13,0-.3-.19-.29-.31.01-.14.17-.28.32-.27.15,0,.28.15.27.31Z"/>
        <path class="cls-2" d="M7.93,30.51c0,.15-.14.29-.29.29-.15,0-.29-.14-.29-.29,0-.15.17-.3.32-.29.12,0,.26.16.26.29Z"/>
        <path class="cls-2" d="M5.87,22.2c0-.15.15-.31.3-.31.13,0,.27.16.27.31,0,.14-.15.29-.29.29-.14,0-.28-.15-.28-.29Z"/>
        <path class="cls-2" d="M63.75,22.06c0,.15-.12.27-.27.27-.17,0-.29-.14-.28-.31,0-.14.17-.29.3-.28.14.02.26.17.26.32Z"/>
        <path class="cls-2" d="M2.85,38.18c0-.16.15-.29.29-.28.14.01.27.15.27.29,0,.16-.13.29-.29.29-.16,0-.28-.13-.27-.3Z"/>
        <path class="cls-2" d="M66.32,33.62c0-.18.1-.28.29-.28.14,0,.3.16.3.28,0,.13-.18.29-.31.29-.15,0-.28-.14-.28-.3Z"/>
        <path class="cls-2" d="M19.84,9.02c0,.14-.15.32-.27.31-.12,0-.31-.2-.31-.32,0-.12.18-.29.31-.28.15,0,.28.13.27.29Z"/>
        <path class="cls-2" d="M11.02,22.18c0,.17-.11.31-.26.31-.12,0-.28-.16-.28-.3,0-.16.11-.3.27-.3.16,0,.27.11.27.29Z"/>
        <path class="cls-2" d="M46.65,6.68c-.15,0-.31-.14-.3-.28,0-.12.16-.26.29-.27.16,0,.3.12.31.27,0,.16-.12.27-.29.27Z"/>
        <path class="cls-2" d="M11.14,21.82c-.17,0-.3-.11-.31-.27,0-.16.11-.28.29-.28.14,0,.31.13.32.26,0,.13-.15.28-.3.28Z"/>
        <path class="cls-2" d="M63.42,21.36c0,.17-.1.29-.27.29-.16,0-.29-.11-.3-.27,0-.14.16-.31.31-.3.13,0,.26.15.26.29Z"/>
        <path class="cls-2" d="M13.23,12.32c0-.18.11-.26.3-.25.15,0,.27.12.28.26,0,.15-.14.3-.28.3-.17,0-.31-.15-.3-.31Z"/>
        <path class="cls-2" d="M66.91,34.37c0,.19-.09.28-.27.28-.17,0-.3-.13-.29-.28,0-.13.16-.29.29-.3.15,0,.27.13.27.3Z"/>
        <path class="cls-2" d="M46.84,10.77c-.13.27-.21.32-.4.28-.13-.03-.18-.12-.19-.24,0-.12.04-.22.16-.27.16-.06.28,0,.43.23Z"/>
        <path class="cls-2" d="M20.23,8.95c-.16,0-.3-.13-.29-.28,0-.16.13-.28.29-.28.15,0,.3.14.3.27,0,.14-.15.29-.29.29Z"/>
        <path class="cls-2" d="M7.59,32.55c0,.16-.11.28-.27.29-.15,0-.3-.14-.3-.28,0-.13.16-.29.29-.3.13-.01.28.14.28.29Z"/>
        <path class="cls-2" d="M67.52,33.96c0,.17-.12.3-.27.29-.16,0-.26-.13-.26-.3,0-.17.1-.26.26-.27.17,0,.27.1.27.28Z"/>
        <path class="cls-2" d="M47.47,11.12c0,.17-.11.27-.29.27-.16,0-.28-.13-.27-.29,0-.14.13-.27.27-.27.16,0,.28.13.28.29Z"/>
        <path class="cls-2" d="M17.96,37.86c.1.06.17.08.22.13.41.32.9.47,1.4.59.85.19,1.71.23,2.57.27.63.03,1.27.04,1.9.08.8.05,1.61.08,2.41.18,1.34.18,2.64.51,3.8,1.25.66.42,1.23.94,1.74,1.54.73.86,1.33,1.82,1.89,2.8.07.12.14.25.21.37.01.02.04.04.09.08.07-.04.15-.08.22-.14,1-.78,2.05-1.49,3.12-2.18.97-.62,1.97-1.19,3-1.72,1.4-.72,2.84-1.32,4.34-1.81,1-.32,2.01-.59,3.04-.79.77-.14,1.55-.27,2.34-.29.45-.01.89-.07,1.34-.05.67.02,1.35.06,2.01.21.21.05.43.06.64.1.08.01.15.04.23.07,0,.02,0,.04,0,.06-.09.04-.18.09-.27.11-.46.12-.91.24-1.37.34-.59.13-1.19.23-1.77.38-.6.16-1.19.37-1.77.58-1.76.64-3.39,1.52-5,2.47-1.28.75-2.52,1.57-3.71,2.45-1.1.81-2.14,1.68-3.17,2.57-1.05.91-2.06,1.85-3.02,2.84-.47.48-.93.97-1.4,1.46-.07.07-.15.13-.26.22-.04-.18-.09-.31-.11-.45-.04-.28-.05-.57-.09-.84-.05-.3-.12-.59-.19-.88-.08-.32-.16-.64-.24-.95-.11-.42-.22-.83-.32-1.25-.08-.32-.17-.63-.25-.95-.13-.54-.33-1.05-.54-1.56-.3-.71-.68-1.38-1.17-1.97-.5-.6-1.07-1.14-1.73-1.59-.79-.53-1.64-.91-2.55-1.13-.71-.18-1.44-.23-2.17-.18-.42.03-.97.17-1.26.34.09.02.14.04.2.04.68,0,1.36.08,2.04.19.94.16,1.84.42,2.67.91.82.49,1.47,1.14,1.96,1.96.32.55.59,1.12.76,1.73.07.24.17.47.24.71.02.07,0,.14,0,.23-.06,0-.1.02-.15.02-.5-.06-1-.13-1.49-.19-.17-.02-.34-.04-.51-.05-.72-.05-1.43-.11-2.14-.25-.57-.12-1.14-.25-1.7-.43-1.48-.5-2.75-1.33-3.76-2.53-.53-.63-.95-1.34-1.3-2.09-.31-.67-.53-1.37-.75-2.07-.07-.23-.13-.47-.18-.71-.02-.07,0-.15,0-.27Z"/>
        <path class="cls-2" d="M38.04,31.82c-.21.11-.43.21-.64.32-.73.4-1.45.82-2.12,1.32-.68.51-1.31,1.06-1.77,1.78-.08.13-.14.27-.21.4-.03.05-.07.11-.13.2-.02-.12-.05-.19-.05-.26,0-.33,0-.66.04-.99.03-.38.07-.75.13-1.13.15-.9.43-1.75.88-2.55.48-.85,1.14-1.53,1.93-2.08.45-.31.96-.53,1.48-.68.69-.2,1.39-.34,2.08-.53.87-.24,1.72-.56,2.44-1.13.21-.17.44-.32.7-.51,0,.12.01.2,0,.29-.05.3-.11.6-.17.89-.14.67-.26,1.34-.43,1.99-.18.68-.38,1.36-.61,2.03-.33,1.01-.75,1.98-1.25,2.92-.59,1.09-1.31,2.08-2.25,2.9-.61.53-1.31.93-2.08,1.19-.65.22-1.32.24-1.99.2-.14,0-.23-.08-.28-.2-.12-.25-.14-.51-.08-.78.15-.64.47-1.19.84-1.72.85-1.22,1.9-2.26,2.97-3.27.15-.14.31-.27.47-.41.05-.04.09-.09.13-.14,0-.02-.02-.04-.03-.06Z"/>
        <path class="cls-2" d="M22.49,26.18c.18.13.35.27.53.4.75.54,1.58.92,2.48,1.13.7.17,1.41.32,2.11.51.9.24,1.71.66,2.41,1.3.9.83,1.49,1.84,1.86,2.98.32.99.42,2.01.43,3.05,0,.09-.03.18-.06.33-.42-1-1.15-1.64-1.93-2.22-.92-.69-1.92-1.23-2.95-1.73-.02-.01-.05,0-.13-.02.06.07.1.11.14.14,1,.84,1.93,1.75,2.8,2.72.49.54.92,1.12,1.27,1.76.22.4.42.83.38,1.31,0,.13-.06.25-.09.38-.03.13-.13.17-.25.18-.96.13-1.87-.03-2.74-.43-1.02-.47-1.83-1.19-2.54-2.05-.66-.8-1.18-1.69-1.64-2.61-.4-.82-.74-1.67-1.02-2.54-.21-.65-.38-1.32-.56-1.98-.11-.41-.22-.82-.31-1.23-.1-.44-.17-.88-.25-1.33,0-.01.02-.03.05-.06Z"/>
        <path class="cls-2" d="M32.55,16.37c.29.48.56.9.8,1.34.42.78.82,1.57,1.21,2.37.39.8.7,1.62.96,2.47.13.42.18.87.28,1.29.17.66.14,1.34.08,2.01-.04.51-.25.99-.55,1.4-.52.71-1.23,1.1-2.1,1.22-.28.04-.57.07-.85.06-.92-.02-1.74-.33-2.41-.98-.35-.34-.56-.77-.71-1.25-.17-.55-.19-1.1-.15-1.65.02-.32.04-.65.15-.97.11-.33.16-.69.25-1.03.16-.62.38-1.22.62-1.81.5-1.19,1.09-2.34,1.73-3.46.2-.34.43-.65.68-1.03ZM29.82,24.81c-.01.07-.03.1-.03.14,0,.46.05.92.2,1.36.12.36.33.68.65.89.58.39,1.41.49,2.12.28-.05-.03-.08-.06-.12-.08-.22-.09-.44-.17-.65-.28-.59-.31-1.09-.73-1.49-1.28-.22-.3-.4-.61-.55-.94-.02-.04-.08-.05-.13-.09Z"/>
        <path class="cls-2" d="M35.5,43.4c-.19-.38-.35-.71-.52-1.04-.17-.34-.33-.68-.5-1.01-.11-.2-.1-.38.04-.55.95-1.22,2.08-2.2,3.57-2.69.67-.22,1.35-.33,2.05-.4.91-.09,1.82-.1,2.73-.07.8.02,1.61.1,2.41.15.09,0,.19,0,.28.01.07,0,.13.03.25.07-.09.06-.13.1-.18.12-.93.37-1.86.73-2.79,1.1-.6.24-1.15.57-1.7.9-.85.51-1.71,1-2.56,1.52-.84.52-1.72.99-2.52,1.58-.16.12-.35.2-.57.32Z"/>
      </g>
    </g>
  </g>
</svg>