<?xml version="1.0" encoding="utf-8"?>
<!-- Generator: Adobe Illustrator 29.4.0, SVG Export Plug-In . SVG Version: 9.03 Build 0)  -->
<svg version="1.1" id="Layer_2_00000064331934455851539820000005958584411091866782_"
	 xmlns="http://www.w3.org/2000/svg" xmlns:xlink="http://www.w3.org/1999/xlink" x="0px" y="0px" viewBox="0 0 59.6 77.6"
	 style="enable-background:new 0 0 59.6 77.6;" xml:space="preserve">
<style type="text/css">
	.st0{fill:#106841;}
	.st1{fill:#04713F;}
</style>
<g id="Layer_1-2">
	<g>
		<g>
			<path class="st0" d="M59.5,77.4L59.5,77.4L0.2,77.5V0.2h59.3v54H0.2v23.2L59.5,77.4L59.5,77.4z M28.6,8c-0.1-0.1-0.4,0.1-0.4,0.2
				l-1.4,5.3l-2.7-1.3c-0.5,0-0.5,0.1-0.2,0.4c0.7,0.7,1.5,1.3,2.2,2c0.3,0.3,1.6,1.6,1.8,1.6c0,0,0.2-0.1,0.2-0.1
				c0,0,0.1-0.6,0.1-0.7c0.2-2.2,0.4-4.6,0.4-6.8C28.6,8.4,28.8,8.1,28.6,8L28.6,8z M31.2,12.4c-0.2-1-0.7-1.9-1-2.8
				c-0.1-0.2-0.3-0.2-0.5-0.2c0,1.5,0.3,3.1,0.2,4.6c0.1,0.2,0,1.1,0.3,1.1c0.3,0.1,1.3-0.9,1.6-1.2c1.3-1.1,2.6-2.1,3.8-3.3
				c0.1-0.1,0.5-0.4,0.5-0.6c-0.1-0.5-1,0.3-1.2,0.4L31.2,12.4L31.2,12.4z M39,16.2c-0.1-0.2-3.6-0.9-4-1.2l1.2-2.8
				c0.1-0.4-0.2-0.4-0.5-0.2c-1,1.4-2.3,2.6-3.3,3.9c-0.1,0.1-0.3,0.5,0,0.6c0.3,0,0.7,0,1.1,0c1.2,0.1,2.5,0.2,3.7,0.2
				c0.3,0,1.9,0.1,1.9,0C39,16.6,39,16.2,39,16.2L39,16.2z M25.2,15.8c-1-0.9-1.9-2.3-2.9-3.1c-0.3-0.2-0.5-0.2-0.5,0.2
				c0.9,1.4,1.7,2.9,2.7,4.3c0,0.2-2.5,1.1-2.8,1.2c-0.3,0.2-0.2,0.5,0.2,0.5c1.4-0.1,2.9-0.2,4.3-0.4c0.2,0,1-0.1,1-0.1
				c0.1-0.1,0.1-0.3,0-0.5L25.2,15.8L25.2,15.8z M38.8,17.5l-5.6,0.5c-0.1,0-0.1,0.2-0.1,0.3c0,0.1,0.5,0.7,0.6,0.8
				c0.8,0.9,1.8,1.9,2.6,2.8c0.6,0.6,1.1,1.4,1.8,1.9c0.3,0.2,0.5,0.2,0.5-0.2L36,19c0.5-0.2,2.7-1,2.9-1.3
				C38.9,17.7,38.8,17.5,38.8,17.5L38.8,17.5z M25.1,28.7c0,0-0.1,0.2-0.1,0.3c0,0.1,0.2,0.2,0.3,0.3c0.6,0.5,1.5,1,2.1,1.5
				c1,0.7,2,1.4,3,2c0.1,0,0.2,0,0.3-0.1c0.1-0.1,0.1-1.2,0-1.4c-0.1-2.6-0.2-5.3-0.3-7.9c0-1.5,0.2-3.5,0-5c0-0.2-0.1-0.4-0.3-0.4
				c-0.4-0.1-0.3,0.5-0.3,0.7c-0.2,1.9-0.3,4-0.4,5.9c-0.1,1.3-0.2,2.6-0.3,4c0,0.5,0,1,0,1.4l-3.6-1.3
				C25.4,28.7,25.1,28.7,25.1,28.7L25.1,28.7z M28.4,20.2c-0.1-0.2-1.9-0.1-2.2-0.1c-1.1,0-2.2-0.2-3.4-0.2c-0.6,0-1.3,0-1.9,0
				c-0.4,0-0.5,0.3-0.2,0.5c0.6,0.2,4.7,1,4.8,1.2c0.1,0.1,0,0.4-0.1,0.5c-0.3,0.7-0.6,1.5-1,2.2c-0.1,0.4,0.1,0.5,0.5,0.3
				c0.8-1,1.7-2.1,2.5-3.1C27.7,21.3,28.6,20.5,28.4,20.2L28.4,20.2z M33.5,22.9l2.8,1c0.6,0,0.5-0.2,0.1-0.5c-1.2-1.1-2.8-1.9-4-3
				C31.8,20,32,20.6,32,20.9c0,1.2,0,2.4,0.1,3.6c0,0.6-0.1,1.6,0,2.2c0,0.3,0.4,0.5,0.5,0.1L33.5,22.9z M29.9,36.6h-0.7v3.3
				c-0.3,0-1.6,0.1-1.6-0.2v-1.4h-0.7v1.4c0,0.3-0.6,0.4-0.8,0.2s0-1.1-0.1-1.4h-0.8c-0.1,0.5,0.3,1.5-0.4,1.6
				c-0.9,0.2-0.4-1.3-0.5-1.5c0,0-0.7,0-0.8,0.1c-0.2,0.3,0.1,1.2-0.2,1.3c-0.2,0-2,0-2.1,0c-0.5-0.2-0.5-1.4,0.2-1.5
				c0.4,0,0.4,0.4,0.5,0.5c0.1,0.1,0.5,0,0.7,0c-0.1-1-1.1-1.3-2-0.9c-0.7,0.3-0.7,1.3-0.3,1.9h-1.3c0-0.7,0-1.6-0.7-1.9
				c-1.3-0.5-2.2,0.4-2,1.8c0.2,0.9,1.2,0.8,1.9,0.8c0.1,0.9-1.2,0.7-1.3,0.8c0,0,0,0.5,0.2,0.6c0.5,0.2,1.3-0.2,1.6-0.7
				c0.2-0.2,0.2-0.7,0.5-0.7c1.6,0,3.1,0.1,4.7,0c0.3-0.4,0.2-0.1,0.5,0c0.4,0.2,0.8,0.2,1.1,0c0.1,0,0.2-0.2,0.3-0.2
				s0.2,0.2,0.3,0.3c0.5,0.3,1,0,1.4-0.3c0,0.2,0.2,0.3,0.4,0.3c0.6,0.1,1.3,0,1.9,0L29.9,36.6L29.9,36.6z M30.8,36.6v3.9h0.8v-3.9
				H30.8z M36.7,36.6h-0.7v3.9h1.6c0.1,0,0.2-0.3,0.4-0.3c0.1,0,0.4,0.4,0.7,0.5c0.3,0.1,1,0,1.3-0.1c0.1-0.1,0.3-0.3,0.4-0.3
				c0.2,0,0.2,0.2,0.3,0.2c0.2,0.1,1.4,0.1,1.6,0s0.5-0.3,0.6-0.3c0.2,0,0.3,0.3,0.6,0.3c1.1,0.1,2.5-0.1,3.6,0v-0.6h-1.5
				c-0.3,0-0.7-1.3,0.1-1.5c0.4-0.1,0.6,0.1,0.6,0.5h0.7c0-1-1.1-1.3-2-0.9c-0.7,0.3-0.7,1.3-0.3,1.9c-0.3-0.1-1.2,0.1-1.4,0
				c-0.3-0.2-0.2-1.3-0.2-1.6h-0.8v1.6c-0.4,0.1-1.3,0.2-1.6,0c-0.3-0.1-0.2-0.6-0.2-0.9c-0.2-1.3-2.6-1.3-2.8,0
				c0,0.3,0.1,0.7-0.2,0.9c-0.2,0.1-0.6,0-0.9,0L36.7,36.6L36.7,36.6z M42.7,36.6h-0.6v0.6h0.6V36.6z M43.7,36.6H43v0.6
				c0.2,0,0.6,0.1,0.7-0.2C43.7,37,43.7,36.7,43.7,36.6z M50.9,36.6h-0.7v3.3h-1.1v-2.3h-0.8v2.3h-0.6v0.6h3.2V36.6L50.9,36.6z
				 M52.6,36.6h-0.8v3.9h0.8V36.6z M12.8,37.9h-1.6c0,0-0.4,0.2-0.5,0.2c-0.9,0.5-0.2,2.1-0.5,2.6c-0.1,0.1-1.1,0.1-1.4,0.1
				c-1-0.2-0.7-1.1-0.7-1.9H7.3v1.5c0,0.1,0.3,0.5,0.4,0.6c0.6,0.6,1.7,0.3,2.5,0.3c0.1,0,0.8,0.2,0.8,0v-2.4c0-0.4,0.7-0.3,1-0.5
				v2.1h0.8L12.8,37.9L12.8,37.9z M15.8,40.5c0.2-1.6-0.2-2.8-2.1-2.6v0.6c1.1-0.2,1.4,0.4,1.3,1.4h-1.5v0.6L15.8,40.5L15.8,40.5z
				 M35.2,40.5c0.1-1.6-0.3-2.8-2.1-2.6v0.6c1.1-0.2,1.3,0.4,1.3,1.4H33v0.6L35.2,40.5L35.2,40.5z M9.1,42H8.5v0.5h0.6V42z M9.9,42
				H9.3v0.5h0.6V42z M18.4,43.3h-0.7v1.5c-0.3,0.1-0.1-0.1-0.3-0.2c-0.9-0.4-1.6,0.1-1.7,1c-0.1,1.3,0.7,2.1,1.9,1.3l0.1,0.2h0.6
				C18.4,47.1,18.4,43.3,18.4,43.3z M36.9,43.3h-0.6v1.5c-0.2,0-0.3-0.2-0.5-0.2c-0.6-0.2-1.4,0.1-1.5,0.8c-0.1,1,0.2,2.2,1.4,1.9
				c0.2,0,0.3-0.3,0.5-0.3l0.1,0.2h0.5L36.9,43.3L36.9,43.3z M46.3,44v-0.7c-0.2,0.1-0.5,0.1-0.7,0.1V44H46.3z M19.7,43.4H19V44h0.7
				V43.4z M38.3,43.4h-0.7V44h0.7V43.4z M9.4,43.6c-0.8-0.2-2.1-0.3-2.2,0.8c0,0.2,0,0.5,0.1,0.7c0.3,0.5,1.5,0.5,1.5,1.1
				c0,0.8-1.4,0.3-1.5,0.3c0,0.2,0,0.4-0.1,0.6c0.8,0.2,2.3,0.2,2.4-0.9s-1.7-1.1-1.7-1.7c0-0.5,1-0.5,1.4-0.3L9.4,43.6z M25.1,47.1
				l-1.3-3.5c-0.1-0.2-0.7-0.1-0.9-0.1l-1.4,3.5h0.8c0.1-0.4,0.1-0.8,0.5-0.8c0.2,0,1.2,0,1.3,0.1s0.1,0.5,0.2,0.7
				C24.3,47.1,25.1,47.1,25.1,47.1z M39.1,45v1.4c0,0,0.2,0.4,0.2,0.5c0.3,0.5,0.7,0.3,1.2,0.3v-0.6c-0.2,0.2-0.6,0-0.6-0.2V45h0.6
				v-0.5h-0.6l0-0.7c-0.5,0.1-0.9,0.1-0.7,0.7h-0.4V45C38.7,45,39.1,45,39.1,45z M44,45v1.8c0,0,0.4,0.4,0.5,0.4
				c0.2,0.1,0.9,0.2,0.8-0.2c0-0.5-0.2-0.2-0.5-0.3c0,0-0.2-0.2-0.2-0.2V45h0.6v-0.5h-0.6l0-0.7c-0.5,0-0.7,0.2-0.6,0.7h-0.5V45
				L44,45L44,45z M12.3,47.1c-0.3-0.7,0.2-1.7-0.3-2.3s-1.3-0.3-1.9-0.2v0.7c0.4-0.4,1.5-0.5,1.5,0.3c-0.8-0.1-2,0-1.8,1.1
				c0.1,0.7,1.4,0.8,1.7,0.2l0.1,0.3L12.3,47.1L12.3,47.1z M13.5,44.5c-0.2,0-0.6-0.1-0.7,0.2c-0.1,0.2,0,1.4,0,1.7
				c0.1,1.1,1.1,1.2,1.9,0.5v0.4h0.6v-2.8h-0.7v1.7c0,0.1-0.4,0.5-0.6,0.5c-0.3,0-0.5-0.2-0.5-0.5C13.5,46.3,13.5,44.4,13.5,44.5z
				 M19.7,44.5H19v2.7h0.7C19.7,47.1,19.7,44.5,19.7,44.5z M27.1,45c0.3-0.7-0.4-0.7-0.9-0.6c-1.2,0.2-1.4,2.6,0.1,2.8
				c0.5,0.1,1.1,0.1,0.9-0.6C25.6,47.3,25.5,44.5,27.1,45L27.1,45z M29.4,44.5c-1-0.2-2,0.2-2,1.3s0.8,1.6,1.8,1.4
				c0.4-0.1,0.1-0.3,0.1-0.6c-0.5,0.2-1.1,0.1-1.2-0.5c-0.1-0.9,0.3-1.4,1.2-1V44.5L29.4,44.5z M29.9,44.5v2.7h0.6
				c0-0.7-0.2-2.2,0.9-2.1c0-0.5,0-0.8-0.5-0.5c-0.2,0.1-0.3,0.5-0.4,0.5l0-0.5H29.9z M34.1,46c0-0.6-0.1-1.4-0.8-1.5
				c-1.2-0.3-2.1,0.7-1.7,1.8c0.2,0.8,1.1,1,1.8,0.9c0.5-0.1,0.6-0.2,0.5-0.8c-0.6,0.5-1.6,0.5-1.7-0.4H34.1z M38.3,44.5h-0.7v2.7
				h0.7C38.3,47.1,38.3,44.5,38.3,44.5z M42.8,44.7c-0.3-0.3-1.6-0.3-1.8,0c-0.1,0.1,0,0.4,0,0.6c0.3-0.3,1.4-0.5,1.5,0
				c0,0.1,0,0.2,0,0.2c-0.1,0.1-1.2-0.2-1.6,0.3c-0.5,0.7,0.2,1.5,0.9,1.3c0.3,0,0.4-0.3,0.5-0.3c0.1,0,0.6,0.3,0.8,0.2
				C43.1,46.5,43.3,45.1,42.8,44.7L42.8,44.7z M46.3,44.5h-0.7v2.7h0.7C46.3,47.1,46.3,44.5,46.3,44.5z M49.7,45.8
				c0-0.8-0.6-1.4-1.4-1.4s-1.4,0.6-1.4,1.4s0.6,1.4,1.4,1.4S49.7,46.6,49.7,45.8z M50.1,44.5v2.7h0.7v-1.6c0-0.1,0.4-0.5,0.5-0.5
				c0.2,0,0.5,0.1,0.5,0.3v1.8h0.7v-2c0,0-0.2-0.4-0.2-0.4c-0.3-0.4-1.2-0.2-1.5,0.1v-0.3L50.1,44.5L50.1,44.5z"/>
			<path class="st0" d="M3.2,59.6h1.3l0,0.3l0.6,2.2l0.7-2.6h1.3v4H6.3v-2.8l-0.7,2.5l0,0.3H4.7c0-0.4-0.2-0.7-0.3-1.1
				c-0.1-0.4-0.2-0.8-0.2-1.2c0-0.1,0-0.3-0.2-0.3v2.6H3.2L3.2,59.6L3.2,59.6z"/>
			<path class="st0" d="M23.1,68.4h1.3c0.2,0.8,0.5,1.6,0.6,2.4c0.2,0,0.2,0,0.2-0.2c0.1-0.7,0.5-1.5,0.5-2.2h1.3v3.9h-0.8v-2.6
				c-0.1,0-0.1,0.2-0.1,0.3c-0.1,0.3-0.5,2.3-0.6,2.3c-0.2,0-0.7,0-0.8-0.1L24,69.5L23.9,70v2.1c0,0,0.1,0.1,0.1,0.1
				c0,0.2-0.9,0.2-0.9,0L23.1,68.4L23.1,68.4z"/>
			<path class="st0" d="M17.5,68.4l0.9,0c0.4,0.6,0.7,1.3,1.1,1.9c0.1,0.2,0.2,0.4,0.4,0.5v-2.4h0.8v4c-0.5,0-0.8,0.1-1.1-0.4
				c-0.4-0.6-0.8-1.5-1.3-2v2.4c-0.2,0-0.8,0.1-0.8-0.2C17.5,72.2,17.5,68.4,17.5,68.4z"/>
			<path class="st0" d="M40.8,60.8c-0.2,0-0.5,0-0.7,0c-0.2-0.1-0.2-0.4-0.5-0.5c-0.2,0-0.8-0.1-0.8,0.2c0,0.5,1,0.5,1.4,0.7
				c0.8,0.3,1.1,1,0.6,1.8c-0.2,0.4-0.6,0.5-1.1,0.6c-1,0.1-1.9-0.4-1.9-1.5h0.8c0,0.9,1.6,0.9,1.6,0.2s-1.9-0.3-2.2-1.5
				C37.4,59.2,40.9,58.9,40.8,60.8L40.8,60.8z"/>
			<path class="st0" d="M26.8,63.5v-2c0-0.3-0.6-0.3-0.7,0c0,0-0.1,0.4-0.1,0.4v1.6h-0.8v-2c0-0.3-0.4-0.3-0.6-0.2
				c0,0-0.3,0.3-0.3,0.3v1.9h-0.8v-2.9h0.7V61c0,0.1,0.6-0.6,1.3-0.3c0.1,0.1,0.3,0.3,0.4,0.3c0.2,0,0.7-0.8,1.5-0.2
				c0.5,0.4,0.3,1.7,0.3,2.3c0,0.1,0.1,0.3,0.1,0.3C27.6,63.6,26.9,63.5,26.8,63.5L26.8,63.5z"/>
			<path class="st0" d="M56.5,63.5c0,0-0.6,0-0.7,0c-0.2-0.1-0.1-0.3-0.1-0.4c0-0.3,0-0.8,0-1.1c0-0.1-0.1-0.7-0.1-0.7
				c-0.1-0.1-0.8,0-0.8,0.3v1.9H54v-2c0-0.3-0.9-0.3-0.9,0v2c-0.5,0-1,0.2-0.8-0.4v-2.4l0.7,0l0,0.3c0.3-0.4,0.8-0.5,1.3-0.3
				c0.1,0.1,0.3,0.3,0.4,0.3c0.1,0,0.2-0.2,0.3-0.3c0.4-0.2,0.9-0.2,1.2,0.2c0.1,0.1,0.2,0.5,0.2,0.5C56.5,61.7,56.6,63.5,56.5,63.5
				L56.5,63.5z"/>
			<path class="st0" d="M19.7,63.9c-0.1,0.4-0.4,0.6-0.8,0.7c-0.5,0.2-1.5,0.1-1.8-0.3c0-0.1-0.2-0.5-0.2-0.5c0.1-0.2,0.7,0,0.9,0
				c0.1,0,0,0.4,0.7,0.3c0.5-0.1,0.4-0.5,0.4-0.9c-1.4,1.3-2.6-0.9-1.7-2.1c0.5-0.6,1.2-0.7,1.8-0.1l0-0.3h0.8L19.7,63.9L19.7,63.9z
				 M18.1,61.3c-0.5,0.2-0.5,1.4,0,1.5C19.2,63.2,19.2,60.9,18.1,61.3z"/>
			<path class="st0" d="M42.2,68.4c0.7-0.2,1.4,0.1,1.6,0.8s0.2,2.8-0.7,3.1c-0.3,0.1-0.8,0.1-1.1-0.1C41,71.6,41.1,68.6,42.2,68.4z
				 M42.4,69.1c-0.1,0-0.2,0.1-0.2,0.2c-0.1,0.2-0.1,1.8,0,2c0.1,0.3,0.5,0.5,0.7,0.2C43,71.2,43,70,43,69.6
				C42.9,69.3,42.8,69,42.4,69.1z"/>
			<path class="st0" d="M33.2,68.4c1.5-0.3,1.7,1.4,1.6,2.5c-0.1,1-0.6,1.6-1.6,1.4c-1.2-0.2-1.1-2.6-0.7-3.4
				C32.7,68.7,32.9,68.5,33.2,68.4L33.2,68.4z M33.2,69.4c-0.1,0.4,0,1.5,0,2c0,0.2,0.5,0.4,0.7,0.1c0.2-0.2,0.1-1.6,0.1-2
				C33.9,68.9,33.3,68.9,33.2,69.4L33.2,69.4z"/>
			<path class="st0" d="M36.2,68.4c0.7-0.2,1.2,0.1,1.4,0.7c0.3,0.8,0.4,3.1-0.8,3.2c-0.4,0.1-0.9,0-1.2-0.3
				C35,71.3,35,68.7,36.2,68.4L36.2,68.4z M36.8,71.6c0.2-0.2,0.3-2.2,0-2.5c-0.4-0.3-0.6,0.1-0.6,0.5s-0.1,1.8,0.2,2
				C36.4,71.7,36.8,71.7,36.8,71.6L36.8,71.6z"/>
			<path class="st0" d="M30.2,68.4c1.7-0.4,1.9,1.8,1.6,3c-0.2,0.8-0.7,1.1-1.5,1c-0.4-0.1-0.9-0.6-0.9-1c0-0.3,0-1.5,0-1.9
				S29.8,68.5,30.2,68.4z M30.3,71.6c0.3,0.2,0.6-0.1,0.7-0.4s0-1.7-0.1-2c-0.1-0.2-0.4-0.2-0.6,0c-0.2,0.3-0.2,1.5-0.2,1.9
				C30.1,71.2,30.3,71.6,30.3,71.6L30.3,71.6z"/>
			<path class="st0" d="M38.2,72.3c0-0.1,0-0.2,0-0.3c0.2-1.1,1.7-1.6,1.8-2.4c0-0.4,0-0.6-0.5-0.6c-0.4,0-0.5,0.3-0.4,0.6l-0.8-0.1
				c-0.2-1.3,2-1.7,2.4-0.5s-0.8,1.8-1.4,2.5c0.3,0.1,1.2-0.1,1.4,0c0.2,0.1,0.1,0.8-0.1,0.8C40.7,72.3,38.2,72.3,38.2,72.3z"/>
			<path class="st0" d="M16.6,63.5h-0.7l-0.1-0.2c-0.8,0.6-2.2,0.2-1.8-0.9c0.2-0.6,1.3-0.7,1.8-0.8c0-0.2-0.2-0.4-0.4-0.4
				c-0.6-0.1-0.7,0.5-1.3,0.2c-0.1-1,1.7-1.1,2.2-0.6C16.7,61.5,16.3,62.8,16.6,63.5z M15.7,62.2c-0.3,0-1.1,0.1-1,0.5
				S15.9,62.8,15.7,62.2z"/>
			<path class="st0" d="M10.2,63.5H9.5l-0.1-0.2c-0.6,0.3-1.5,0.5-1.8-0.3c-0.4-1.1,1-1.3,1.7-1.4c0-0.5-0.4-0.5-0.7-0.4
				c-0.1,0-0.2,0.3-0.4,0.3c-0.1,0-0.5-0.1-0.5-0.1c0,0,0-0.2,0.1-0.3c0.2-0.5,1-0.7,1.6-0.6C10.7,60.9,9.9,62.6,10.2,63.5
				L10.2,63.5z M9.3,62.2c-0.6-0.2-1.5,0.7-0.6,0.7C9.2,63,9.3,62.7,9.3,62.2z"/>
			<path class="st0" d="M42.6,62.5c0.1,0,0.2-0.1,0.2-0.2c0.2-0.5,0.3-1,0.5-1.5H44c0.1,0-0.3,0.9-0.3,1.1c-0.2,0.6-0.6,1.9-1,2.4
				s-0.8,0.6-1.4,0.4c0.1-0.2-0.2-0.7,0.1-0.6c0.4,0,0.7,0.1,0.7-0.5c0-0.4-1.1-2.7-1-2.8c0.2,0,0.7-0.1,0.8,0.1
				C42.2,60.9,42.5,62.1,42.6,62.5L42.6,62.5z"/>
			<path class="st0" d="M51.9,62.3H50c0,0.3,0,0.5,0.4,0.6c0.6,0.1,0.6-0.4,0.7-0.4c0.1,0,0.3,0.1,0.5,0.1c0.1,0,0.3-0.1,0.2,0.1
				c-0.3,0.8-1.2,1-2,0.7c-1.2-0.6-0.8-2.9,0.6-2.9C51.5,60.6,51.9,61.4,51.9,62.3z M51,61.9c0.1-0.1-0.1-0.5-0.3-0.6
				c-0.4-0.1-0.6,0.1-0.6,0.4c0,0.2,0,0.1,0.2,0.2C50.3,61.9,51,61.9,51,61.9z"/>
			<path class="st0" d="M22.9,62.3H21c0,0.4,0.4,0.7,0.7,0.6c0.2,0,0.3-0.3,0.4-0.4c0.1,0,0.4,0.2,0.6,0.1c0,1-1.6,1.3-2.2,0.6
				c-0.5-0.6-0.5-1.8,0.1-2.3C21.8,60,23.1,61.1,22.9,62.3L22.9,62.3z M22.1,61.9c-0.1-0.8-1-0.8-1.1,0H22.1z"/>
			<path class="st0" d="M30.7,62.3h-1.9c0.1,0.2,0.1,0.5,0.4,0.6c0.6,0.2,0.6-0.3,0.8-0.4c0,0,0.4,0.1,0.5,0.1s0.3-0.1,0.2,0.1
				c-0.4,1-2,1.1-2.5,0.2s-0.1-2.4,1.1-2.4C30.3,60.6,30.8,61.5,30.7,62.3z M29.9,61.9c0-0.8-1.1-0.8-1,0H29.9z"/>
			<path class="st0" d="M33.9,63.5h-0.8v-1.9c0,0-0.2-0.3-0.2-0.3c-0.2-0.2-0.8,0-0.8,0.3v1.9c-0.2,0-0.8,0.1-0.9-0.2
				c0.1-0.5-0.1-2.3,0-2.6c0.1-0.1,0.7-0.1,0.7-0.1c0,0.1-0.1,0.3,0.1,0.3c0.4-0.4,1-0.5,1.5-0.2c0.1,0.1,0.3,0.4,0.3,0.5
				C33.9,61.2,33.9,63.5,33.9,63.5z"/>
			<path class="st0" d="M46.8,61.5c-0.2-0.1-0.5,0.1-0.6,0.1s-0.3-0.3-0.5-0.4c-0.3,0-0.8,0.1-0.4,0.4c0.3,0.2,1.3,0.3,1.5,0.6
				c0.5,0.8-0.4,1.5-1.2,1.5c-0.5,0-1.3-0.3-1.4-0.8c-0.1-0.2,0-0.1,0.2-0.2c0.2,0,0.5-0.2,0.7-0.1c0.1,0.1,0.1,0.3,0.3,0.3
				c0.5,0.2,1.2-0.1,0.6-0.4s-1.8-0.2-1.5-1.3C44.7,60.3,46.8,60.3,46.8,61.5L46.8,61.5z"/>
			<path class="st0" d="M13.4,63.5h-0.8v-1.8c0,0-0.2-0.4-0.2-0.4c-0.1-0.1-0.5-0.1-0.6,0c-0.3,0.2-0.3,1.4-0.3,1.8
				c0,0.1,0.1,0.3,0.1,0.3c0,0.2-0.7,0.1-0.9,0.1v-2.9h0.8l0.1,0.3c0.4-0.5,1.2-0.5,1.6-0.1c0.1,0.1,0.2,0.4,0.2,0.5V63.5L13.4,63.5
				z"/>
			<path class="st0" d="M34.7,61.4h-0.4v-0.7h0.4c-0.1-0.6,0.3-0.8,0.8-1v1H36c0.2,0.9-0.3,0.6-0.5,0.7c-0.1,0,0,1.3,0,1.4
				c0.1,0.2,0.3,0,0.5,0.1l0.1,0.5c-0.2,0.4-1.4,0.2-1.4-0.2C34.7,63.2,34.7,61.4,34.7,61.4z"/>
			<path class="st0" d="M47.6,61.4h-0.4v-0.7h0.4c-0.1-0.6,0.2-0.8,0.7-1l0,1h0.5v0.7h-0.5v1.4c0,0.2,0.5,0,0.5,0
				c-0.1,0.2,0.2,0.5,0,0.6c-0.3,0.2-1.3,0.1-1.3-0.3V61.4L47.6,61.4z"/>
			<path class="st0" d="M29.1,71.2h-1.6v-0.8H29C29.2,70.5,29.1,71.1,29.1,71.2z"/>
			<rect x="21.3" y="70.5" class="st0" width="1.5" height="0.8"/>
			<path class="st0" d="M18.3,39.9c-0.4,0-0.9,0.1-1.1-0.3c-0.2-0.5,0.2-1.3,0.8-1.2C18.5,38.6,18.3,39.5,18.3,39.9L18.3,39.9z"/>
			<path class="st0" d="M39,38.6c1.1-0.3,1.1,1.3,0.6,1.5C38.4,40.4,38.4,38.8,39,38.6z"/>
			<path class="st0" d="M23.8,45.7h-1.1c0.2-0.4,0.2-1,0.5-1.4L23.8,45.7L23.8,45.7z"/>
			<path class="st0" d="M16.9,45c0.9-0.3,1.1,1.8,0.2,1.8C16.3,46.7,16.2,45.1,16.9,45z"/>
			<path class="st0" d="M36,45.1c0.5,0.5,0.2,1.8-0.5,1.6C34.6,46.5,35.1,44.3,36,45.1z"/>
			<path class="st0" d="M48.1,45c1-0.2,1.1,1.7,0.2,1.8C47.5,46.8,47.2,45.1,48.1,45z"/>
			<path class="st0" d="M33.3,45.1c0.1,0.1,0.2,0.4,0.1,0.5h-1.2C32.1,45,32.9,44.8,33.3,45.1z"/>
			<path class="st0" d="M42.5,45.9c0,0.4-0.2,0.8-0.6,0.8c-0.4,0-0.5-0.1-0.5-0.5C41.5,45.8,42.1,45.9,42.5,45.9z"/>
			<path class="st0" d="M11.6,45.9c0.1,0.7-1.2,1.2-1.1,0.3C10.6,45.9,11.3,45.9,11.6,45.9z"/>
		</g>
		<path class="st1" d="M59.6,77.6H0V0h59.6V77.6z M0.3,77.3h59v-77h-59V77.3L0.3,77.3z"/>
	</g>
</g>
</svg>
