<?xml version="1.0" encoding="UTF-8"?>
<svg id="Layer_2" data-name="Layer 2" xmlns="http://www.w3.org/2000/svg" viewBox="0 0 51.7 77.64">
  <defs>
    <style>
      .cls-1 {
        fill: #a4be3b;
      }
    </style>
  </defs>
  <g id="Layer_1-2" data-name="Layer 1">
    <g>
      <path class="cls-1" d="M27.29,77.64c-.26-.05-.51-.08-.77-.14-1.68-.38-2.88-1.62-3.19-3.32-.22-1.2-.15-2.37.38-3.48.66-1.38,1.79-2.16,3.27-2.43.96-.18,1.93-.13,2.87.17.36.11.36.12.25.47-.06.2-.12.41-.18.61-.31-.09-.6-.19-.89-.25-.74-.15-1.48-.14-2.21.08-.93.28-1.61.86-1.98,1.76-.5,1.2-.51,2.43-.01,3.64.45,1.08,1.31,1.66,2.45,1.84.9.14,1.79.04,2.66-.31.08.31.16.61.25.93-.36.18-.74.27-1.13.33-.25.04-.51.07-.76.11h-1.02Z"/>
      <path class="cls-1" d="M34.92,77.64c-.3-.06-.6-.09-.89-.17-1.71-.46-2.72-1.57-3.07-3.29-.23-1.11-.17-2.22.28-3.27.63-1.49,1.79-2.35,3.36-2.65.96-.18,1.93-.13,2.87.17.12.04.23.09.36.14-.1.33-.19.64-.28.93-.38-.1-.74-.22-1.11-.28-1.17-.17-2.27-.03-3.2.78-.57.5-.89,1.14-1.04,1.88-.19.99-.17,1.97.26,2.91.48,1.05,1.33,1.62,2.45,1.8.9.14,1.79.03,2.65-.32.07.28.15.56.22.83.03.1-.02.14-.11.16-.41.1-.82.21-1.23.31-.17.04-.34.05-.52.07h-1.02Z"/>
      <path class="cls-1" d="M6.06,35.14c.49.39.95.78,1.44,1.14,2,1.46,4.19,2.52,6.53,3.3,1.55.52,3.13.88,4.75,1.11,1.87.27,3.75.34,5.63.28,5.47-.18,10.29-2.07,14.51-5.52,3.34-2.73,5.92-6.06,7.7-9.99.63-1.38,1.11-2.81,1.38-4.31.12-.65.21-1.3.25-1.96.08-1.25.17-2.5.17-3.76,0-3.36-.5-6.65-1.66-9.81-.71-1.94-1.66-3.75-2.88-5.43-.04-.05-.07-.1-.07-.17.2.25.4.49.59.74,2.8,3.69,4.92,7.73,6.2,12.19.41,1.44.71,2.91.9,4.41.19,1.49.25,2.99.19,4.49-.13,3.02-.76,5.93-1.9,8.72-1.29,3.18-3.06,6.07-5.29,8.67-3.16,3.69-6.97,6.49-11.45,8.37-2.1.88-4.27,1.49-6.51,1.87-2.07.35-4.16.47-6.26.38-4.75-.21-9.22-1.46-13.46-3.58-2.39-1.2-4.62-2.64-6.73-4.28-.03-.02-.05-.05-.09-.08,2.03-2.27,4.05-4.53,6.06-6.79Z"/>
      <path class="cls-1" d="M7.03,0c2.09,1.87,4.16,3.72,6.23,5.57-.31.49-.63.96-.91,1.45-1.24,2.13-2.09,4.41-2.61,6.81-.38,1.76-.57,3.53-.52,5.33.11,3.45,1.04,6.63,3.12,9.43,1.5,2.03,3.41,3.58,5.61,4.79,1.76.98,3.63,1.67,5.62,2.02,1.23.21,2.47.3,3.73.23,3.77-.2,7.17-1.45,10.28-3.55.12-.08.24-.17.4-.28-.04.06-.06.09-.07.11-2.29,2.44-4.92,4.4-8.05,5.65-1.5.6-3.05.99-4.65,1.18-1.5.18-3,.18-4.5,0-3.41-.4-6.53-1.6-9.41-3.44-3.34-2.13-6.06-4.87-8.07-8.3-1.17-2-1.94-4.14-2.34-6.42-.24-1.39-.36-2.79-.33-4.19.07-3.39.88-6.62,2.28-9.7C3.87,4.38,5.18,2.23,6.79.27c.07-.09.15-.17.24-.27Z"/>
      <path class="cls-1" d="M16.59,29.02c-.22-.29-.45-.56-.65-.86-1.17-1.75-2-3.66-2.62-5.67-.41-1.32-.7-2.67-.83-4.04-.25-2.55,0-5.03,1.03-7.41.8-1.87,2-3.45,3.5-4.81,1.75-1.59,3.75-2.75,6.02-3.42,1.63-.48,3.29-.66,4.99-.62,2.71.07,5.3.7,7.79,1.74.57.24,1.13.52,1.72.79-.22.26-.42.48-.62.71-1.35,1.53-2.7,3.06-4.04,4.6-.14.17-.28.2-.48.17-1.48-.17-2.97-.26-4.47-.22-1.06.03-2.12.12-3.16.3-2.5.43-4.81,1.31-6.78,2.97-1.32,1.12-2.41,2.42-3.1,4.02-.55,1.29-.74,2.64-.67,4.03.14,2.7,1.04,5.17,2.33,7.52.03.06.06.11.09.16-.02.01-.03.03-.05.04Z"/>
      <path class="cls-1" d="M23.46,29.1c-2.08-2.08-4.15-4.16-6.21-6.21.71-.72,1.43-1.45,2.15-2.17,1.34,1.34,2.68,2.69,4.04,4.05,4-4.01,7.99-8.01,11.97-11.99.74.74,1.46,1.47,2.18,2.18-4.7,4.71-9.42,9.43-14.13,14.15Z"/>
      <path class="cls-1" d="M20.81,56.7v6.96h-2.13v-10.56h.67c.46,0,.91.01,1.37,0,.32-.01.52.13.66.41.48.96.98,1.92,1.46,2.88.55,1.09,1.09,2.19,1.63,3.28.05.1.09.21.13.31.25-.52.5-1.04.76-1.56.82-1.62,1.65-3.24,2.46-4.86.17-.33.39-.48.77-.47.59.02,1.18,0,1.77,0h.2v10.56h-2.14v-6.96c-.03.06-.06.11-.09.16-.88,1.71-1.77,3.41-2.64,5.12-.22.42-.54.63-1,.61-.13,0-.26,0-.38-.01-.35-.05-.58-.25-.74-.57-.77-1.5-1.55-3-2.33-4.5-.14-.27-.28-.54-.42-.81Z"/>
      <path class="cls-1" d="M41.22,54.4c-.25.38-.49.76-.75,1.13-.21.3-.55.36-.89.18-.2-.1-.38-.22-.58-.32-.84-.42-1.74-.5-2.64-.28-.98.24-1.61.89-1.93,1.83-.34,1.02-.33,2.05.05,3.06.46,1.19,1.43,1.85,2.7,1.89.54.01,1.07-.07,1.58-.25.11-.04.15-.09.15-.21,0-.48,0-.95,0-1.45-.09,0-.16,0-.22,0-.31,0-.62,0-.93-.02-.22-.01-.37-.16-.38-.38-.01-.43,0-.85,0-1.28,0-.1.05-.11.13-.11.25,0,.5,0,.75,0,.88,0,1.76,0,2.64,0h.22c0,.07.01.12.01.18,0,1.38,0,2.75,0,4.13,0,.12-.04.19-.14.25-.79.54-1.67.84-2.61.96-.67.08-1.34.12-2.01.03-2.02-.27-3.5-1.3-4.27-3.19-.77-1.91-.6-3.79.6-5.5.76-1.08,1.87-1.69,3.15-1.94,1.38-.27,2.74-.18,4.04.41.48.22.91.51,1.3.88Z"/>
      <path class="cls-1" d="M10.02,62.4c.26-.4.5-.79.75-1.17.19-.29.56-.36.9-.17.19.1.37.22.55.33.63.38,1.3.56,2.04.39.69-.16,1.06-.82.83-1.5-.09-.28-.3-.47-.55-.58-.4-.17-.82-.3-1.23-.44-.45-.16-.92-.29-1.36-.5-.96-.45-1.42-1.24-1.51-2.28-.07-.91.17-1.71.79-2.38.55-.6,1.25-.94,2.04-1.05,1.25-.18,2.45,0,3.54.69.14.09.28.19.4.31.03.03.05.12.03.16-.18.36-.37.71-.57,1.06-.21.35-.49.43-.86.24-.31-.15-.62-.32-.94-.45-.46-.18-.94-.18-1.41-.05-.55.15-.85.69-.71,1.23.07.24.23.42.44.52.39.18.8.33,1.21.49.5.19,1.01.35,1.5.57,1.19.56,1.65,1.6,1.53,2.84-.09.87-.41,1.62-1.07,2.21-.55.5-1.21.78-1.94.88-1.46.19-2.78-.16-3.99-.99-.14-.1-.27-.22-.42-.34Z"/>
      <path class="cls-1" d="M13.56,68.33v9.15h-1.18v-4.28h-4.44v4.28h-1.19v-9.16h1.18v3.81h4.44v-3.81h1.19Z"/>
      <path class="cls-1" d="M22.62,77.49h-1.27c-.16-.46-.31-.92-.47-1.38-.15-.45-.31-.89-.45-1.34-.04-.12-.08-.16-.22-.16-.98,0-1.96,0-2.94,0-.13,0-.18.04-.22.16-.28.86-.57,1.71-.84,2.57-.04.12-.1.16-.22.16-.34,0-.69,0-1.05,0,.03-.09.04-.16.07-.24.99-2.91,1.98-5.82,2.96-8.73.06-.17.13-.22.31-.21.34.02.69.01,1.03,0,.13,0,.19.04.24.16.94,2.78,1.89,5.56,2.84,8.33.07.22.15.44.23.68ZM17.39,73.67h2.72c-.47-1.43-.93-2.85-1.37-4.2-.43,1.35-.89,2.77-1.35,4.2Z"/>
      <path class="cls-1" d="M39.31,68.41c.33-.04.67-.1,1-.12.55-.03,1.11-.05,1.66-.04.48,0,.96.1,1.41.28,1.2.48,1.64,1.52,1.57,2.64-.05.78-.33,1.45-.95,1.95-.46.38-1,.58-1.58.69-.63.12-1.27.11-1.93.02v3.66h-1.18v-9.08ZM40.5,69.27s-.01.06-.01.08c0,1.13,0,2.26,0,3.39,0,.1.04.14.13.14.46.01.92.07,1.37.02.9-.09,1.67-.6,1.77-1.68.09-.89-.28-1.65-1.24-1.92-.67-.19-1.34-.13-2.02-.04Z"/>
    </g>
  </g>
</svg>