<?xml version="1.0" encoding="UTF-8"?>
<svg id="Layer_2" data-name="Layer 2" xmlns="http://www.w3.org/2000/svg" viewBox="0 0 55.76 77.63">
  <defs>
    <style>
      .cls-1 {
        fill: #a4be3b;
      }
    </style>
  </defs>
  <g id="Layer_1-2" data-name="Layer 1">
    <g>
      <path class="cls-1" d="M13.17,77.63c-.29-.06-.6-.1-.88-.2-1.16-.37-1.98-1.14-2.42-2.26-.66-1.68-.62-3.35.24-4.95.75-1.37,1.96-2.05,3.52-2.09,1.18-.03,2.21.35,3.03,1.23.59.64.93,1.41,1.08,2.26.21,1.23.15,2.43-.36,3.58-.63,1.42-1.74,2.21-3.28,2.39-.04,0-.08.02-.12.03h-.81ZM16.59,72.82c-.01-.85-.19-1.71-.69-2.48-.62-.94-1.5-1.34-2.61-1.22-.94.11-1.62.64-2.04,1.47-.6,1.17-.68,2.4-.37,3.66.19.75.56,1.41,1.18,1.89,1.09.84,2.95.73,3.88-.78.47-.76.64-1.61.65-2.54Z"/>
      <path class="cls-1" d="M38.36,77.63c-.12-.03-.25-.06-.37-.09-.76-.22-1.27-.74-1.63-1.42-.31-.59-.47-1.23-.56-1.88-.13-.98-.11-1.96.1-2.92.18-.8.49-1.54,1.09-2.13,1.1-1.08,3.19-1.04,4.1.64.34.62.51,1.3.59,2,.09.77.09,1.55,0,2.32-.11.89-.32,1.74-.88,2.47-.43.56-1,.9-1.71.99-.03,0-.05.02-.08.03h-.67ZM36.93,73.26c.02.28.04.74.11,1.19.08.58.24,1.14.59,1.63.59.82,1.62.84,2.23.04.23-.31.37-.66.46-1.03.3-1.24.3-2.49.09-3.73-.08-.51-.24-1-.56-1.41-.53-.69-1.47-.75-2.05-.1-.19.21-.34.46-.45.72-.35.8-.4,1.66-.43,2.7Z"/>
      <path class="cls-1" d="M45.37,77.63c-.12-.03-.25-.06-.37-.09-.63-.17-1.09-.56-1.44-1.1-.39-.58-.59-1.24-.7-1.92-.18-1.13-.18-2.26.1-3.39.15-.61.39-1.17.78-1.66,1.11-1.44,3.52-1.43,4.45.49.28.58.44,1.2.51,1.84.11.98.09,1.97-.1,2.94-.15.78-.42,1.5-.98,2.09-.41.43-.92.68-1.52.76-.03,0-.07.02-.1.03h-.63ZM47.58,73.01c-.05-.52-.08-1.03-.15-1.55-.08-.55-.24-1.08-.59-1.53-.54-.7-1.49-.73-2.08-.07-.33.37-.51.82-.62,1.3-.27,1.12-.28,2.24-.1,3.37.09.55.24,1.09.58,1.56.59.81,1.62.83,2.22.03.14-.19.25-.41.34-.63.31-.8.36-1.63.39-2.48Z"/>
      <path class="cls-1" d="M52.35,77.63c-.11-.03-.22-.05-.33-.09-.71-.2-1.21-.66-1.56-1.29-.35-.62-.53-1.29-.63-1.99-.1-.73-.11-1.45-.03-2.18.11-.97.36-1.88.98-2.67,1.07-1.33,3.28-1.34,4.25.26.36.6.56,1.24.65,1.92.15,1.09.13,2.19-.1,3.27-.14.65-.37,1.26-.8,1.79-.43.53-.99.84-1.66.93-.03,0-.07.02-.1.03h-.67ZM54.59,73.02c-.05-.5-.08-1.01-.14-1.51-.07-.53-.22-1.04-.53-1.48-.57-.81-1.6-.86-2.2-.07-.21.28-.38.62-.48.96-.38,1.28-.38,2.59-.12,3.89.1.51.28,1,.62,1.41.53.63,1.41.67,1.99.08.25-.26.41-.57.52-.9.26-.77.32-1.56.35-2.37Z"/>
      <path class="cls-1" d="M4.93,77.63c-.31-.05-.63-.07-.93-.15-.37-.1-.72-.25-1.08-.37-.1-.04-.14-.09-.1-.21.1-.28.17-.56.26-.86.45.26.91.44,1.4.53.52.09,1.04.12,1.56-.05.6-.19.99-.58,1.08-1.22.09-.62-.11-1.16-.65-1.5-.38-.24-.8-.43-1.22-.6-.52-.22-1.04-.44-1.47-.82-1.26-1.11-1.02-3.04.48-3.84.68-.36,1.41-.43,2.16-.37.47.04.93.13,1.37.33.06.03.12.06.2.1-.11.32-.21.64-.32.94-.32-.11-.63-.23-.95-.31-.51-.12-1.03-.15-1.54.01-.52.17-.89.5-.98,1.05-.09.56.08,1.05.56,1.35.4.25.83.45,1.26.64.61.27,1.21.53,1.68,1.01.52.53.7,1.19.64,1.91-.1,1.3-1.03,2.1-2.26,2.34-.24.05-.49.07-.74.11h-.42Z"/>
      <path class="cls-1" d="M45.55,0c.34.44.69.88,1.02,1.33,2.4,3.28,4.27,6.83,5.51,10.71.53,1.67.92,3.37,1.15,5.1.22,1.58.29,3.16.23,4.75-.14,3.33-.89,6.51-2.25,9.55-1.78,4.01-4.26,7.53-7.48,10.51-3.85,3.56-8.33,5.97-13.44,7.21-1.37.33-2.75.55-4.15.69-1.5.14-3.01.18-4.51.09-3.79-.21-7.42-1.09-10.91-2.57-3.19-1.35-6.13-3.13-8.86-5.25-.04-.03-.08-.07-.13-.11,2.03-2.27,4.06-4.54,6.09-6.82.86.8,1.8,1.48,2.79,2.08,2.37,1.45,4.91,2.44,7.61,3.07,1.19.27,2.39.47,3.6.59,1.38.13,2.77.2,4.16.12.95-.06,1.91-.11,2.86-.23,1.76-.22,3.47-.69,5.13-1.33,2.69-1.05,5.12-2.55,7.3-4.44,2.82-2.45,5.08-5.34,6.74-8.7.81-1.64,1.44-3.34,1.76-5.14.12-.66.19-1.33.26-1.99.13-1.31.19-2.63.17-3.95-.04-2.97-.44-5.88-1.36-8.71-.75-2.32-1.83-4.48-3.28-6.45-.02-.02-.03-.05-.05-.07.01-.01.02-.02.03-.03Z"/>
      <path class="cls-1" d="M39.74,31.93c-.45.44-.89.88-1.34,1.31-1.44,1.35-3.02,2.52-4.76,3.45-1.87,1-3.85,1.69-5.94,2.03-1.4.23-2.82.29-4.24.19-4.21-.29-7.98-1.78-11.4-4.18-3.08-2.16-5.58-4.86-7.39-8.17-1.02-1.86-1.69-3.84-2.05-5.93-.24-1.38-.36-2.78-.33-4.18.07-3.52.94-6.85,2.42-10.03.98-2.11,2.19-4.09,3.65-5.91.13-.16.26-.31.41-.49,2.09,1.87,4.17,3.73,6.26,5.6-.59.83-1.1,1.69-1.55,2.59-1.04,2.09-1.76,4.28-2.17,6.58-.26,1.47-.39,2.95-.34,4.44.11,3.43,1.04,6.59,3.08,9.38,1.39,1.9,3.15,3.38,5.17,4.58,1.82,1.07,3.76,1.84,5.84,2.24,1.41.27,2.83.36,4.27.26,3.72-.25,7.07-1.52,10.13-3.61.08-.06.16-.11.24-.17,0,0,0,0,.04.03Z"/>
      <path class="cls-1" d="M39.28,4.76c-.69.79-1.37,1.55-2.04,2.32-.89,1.01-1.77,2.02-2.66,3.03-.09.1-.17.14-.31.13-.79-.07-1.58-.17-2.37-.19-.99-.03-1.99-.05-2.98,0-.93.05-1.86.16-2.78.33-2.31.41-4.43,1.27-6.26,2.77-1.39,1.14-2.54,2.48-3.26,4.14-.56,1.29-.74,2.65-.67,4.05.14,2.7,1.03,5.17,2.32,7.51.03.06.07.12.07.2-.11-.12-.22-.24-.32-.37-.86-1.13-1.49-2.38-2.05-3.67-.73-1.68-1.26-3.43-1.57-5.24-.24-1.43-.33-2.88-.21-4.33.31-3.7,1.87-6.78,4.63-9.26,1.74-1.57,3.72-2.72,5.98-3.38,1.64-.48,3.32-.67,5.03-.62,2.67.08,5.22.69,7.68,1.71.54.23,1.07.49,1.6.74.06.03.11.06.18.1Z"/>
      <path class="cls-1" d="M37.17,12.79c.76.76,1.48,1.48,2.19,2.19-4.72,4.72-9.44,9.44-14.16,14.16-2.06-2.07-4.14-4.14-6.2-6.21.71-.71,1.44-1.44,2.17-2.17,1.33,1.33,2.67,2.68,4.02,4.02,4.01-4.01,8-8,11.99-11.99Z"/>
      <path class="cls-1" d="M32.31,63.77h-2.14v-6.99c-.05.09-.08.15-.11.21-.88,1.7-1.76,3.39-2.62,5.09-.21.42-.54.61-1,.6-.07,0-.14,0-.21,0-.42,0-.72-.18-.91-.56-.72-1.39-1.44-2.78-2.16-4.17-.17-.34-.35-.67-.52-1.01-.03-.05-.06-.1-.08-.14v6.96h-2.13v-10.57c.12,0,.24,0,.35,0,.55,0,1.1.02,1.65,0,.36-.02.57.14.73.45.57,1.14,1.15,2.28,1.72,3.41.51,1,1.01,2.01,1.51,3,.09-.2.18-.43.29-.66.98-1.95,1.97-3.9,2.96-5.85.12-.24.3-.36.58-.36.65,0,1.3,0,1.94,0,.05,0,.09,0,.15,0v10.57Z"/>
      <path class="cls-1" d="M42.99,54.51c-.25.37-.49.76-.76,1.13-.21.3-.55.34-.9.16-.27-.15-.54-.31-.82-.43-.78-.31-1.59-.37-2.4-.15-.85.22-1.47.77-1.8,1.58-.49,1.19-.48,2.4.07,3.56.51,1.09,1.41,1.6,2.6,1.64.54.02,1.06-.07,1.56-.25.12-.04.16-.1.16-.23,0-.43,0-.85,0-1.28,0-.05,0-.1-.01-.17-.33,0-.65,0-.97,0-.42,0-.56-.14-.56-.56,0-.4,0-.8,0-1.22h3.77v.16c0,1.38,0,2.77,0,4.15,0,.11-.04.18-.13.24-.81.56-1.72.88-2.7.96-.61.05-1.24.1-1.85.03-1.98-.21-3.43-1.21-4.29-3.02-.45-.94-.56-1.94-.47-2.97.09-1.01.41-1.93,1.03-2.75.77-1.02,1.82-1.63,3.06-1.89,1.42-.3,2.81-.2,4.14.4.49.22,1.04.6,1.28.89Z"/>
      <path class="cls-1" d="M11.76,62.5c.26-.41.51-.81.77-1.2.18-.26.54-.32.85-.15.19.1.37.22.56.33.63.39,1.3.56,2.04.41.71-.14,1.09-.83.85-1.51-.12-.33-.39-.53-.69-.65-.34-.14-.7-.24-1.06-.36-.46-.16-.92-.29-1.36-.5-.98-.45-1.46-1.26-1.53-2.32-.07-1.01.23-1.87.98-2.55.6-.55,1.32-.83,2.12-.9,1.08-.1,2.12.07,3.07.6.24.13.46.31.71.48-.25.44-.46.87-.71,1.27-.17.27-.45.31-.77.16-.29-.14-.57-.3-.86-.43-.5-.21-1.02-.23-1.54-.08-.53.16-.82.69-.68,1.21.06.21.19.38.37.47.36.18.73.34,1.1.48.56.22,1.15.39,1.7.64,1.19.56,1.64,1.6,1.52,2.83-.08.82-.38,1.55-.97,2.13-.59.58-1.31.89-2.12.98-1.45.17-2.77-.2-3.96-1.04-.13-.09-.24-.2-.37-.31Z"/>
      <path class="cls-1" d="M23.51,76.48h4v.99h-5.66c0-.23,0-.47,0-.71,0-.05.06-.09.1-.13.72-.71,1.45-1.4,2.17-2.12.52-.52,1.02-1.06,1.42-1.69.34-.53.57-1.11.55-1.76-.03-.97-.64-1.58-1.61-1.62-.68-.02-1.28.2-1.83.59-.07.05-.13.1-.21.15-.12-.26-.24-.51-.34-.77-.02-.04.02-.12.06-.15.56-.44,1.2-.7,1.91-.79.51-.07,1.01-.04,1.51.11,1.07.33,1.72,1.28,1.71,2.47,0,.76-.27,1.42-.67,2.05-.5.79-1.15,1.46-1.8,2.11-.36.36-.74.7-1.1,1.05-.06.05-.12.11-.21.2Z"/>
      <path class="cls-1" d="M30.57,76.48h3.94v1h-5.64c0-.23,0-.46,0-.69,0-.06.06-.12.11-.16.83-.83,1.68-1.64,2.5-2.48.49-.49.93-1.03,1.26-1.65.3-.57.45-1.16.31-1.8-.17-.75-.72-1.19-1.49-1.24-.75-.04-1.4.21-1.98.65-.04.03-.07.05-.12.09-.13-.29-.25-.56-.38-.84.5-.42,1.07-.69,1.7-.82.65-.13,1.3-.13,1.93.1.93.33,1.55,1.22,1.59,2.2.04.89-.26,1.67-.74,2.39-.57.85-1.3,1.57-2.03,2.29-.28.27-.57.54-.85.8-.04.04-.08.07-.13.11,0,.01.01.02.02.04Z"/>
      <path class="cls-1" d="M0,68.28h1.17v9.19H0v-9.19Z"/>
    </g>
  </g>
</svg>