<svg width="197" height="85" viewBox="0 0 197 85" fill="none" xmlns="http://www.w3.org/2000/svg">
<path d="M4.80887 16.5997C5.00324 16.2596 5.3434 16.2353 5.82933 16.5269L9.83828 18.7136C10.227 18.9565 10.2999 19.2724 10.057 19.6611C9.18227 21.0217 8.33189 22.6982 7.5058 24.6905C6.72831 26.6829 6.33956 28.7724 6.33956 30.9591C6.33956 33.0486 6.67971 34.7737 7.36002 36.1343C8.08892 37.5435 9.01219 38.6368 10.1298 39.4143C11.2475 40.2404 12.4623 40.8235 13.7743 41.1637C15.0864 41.5038 16.3741 41.6739 17.6375 41.6739C20.7475 41.6739 23.2986 40.8721 25.291 39.2685C27.2833 37.665 28.2795 35.0652 28.2795 31.4693V10.1854C28.2795 9.6995 28.5224 9.45653 29.0084 9.45653H33.6733C34.1592 9.45653 34.4022 9.6995 34.4022 10.1854V22.3581C34.4022 24.0102 34.9853 25.2494 36.1516 26.0754C37.3664 26.9015 38.97 27.3146 40.9623 27.3146H41.2539C42.2257 27.3146 42.9546 27.5332 43.4406 27.9706C43.9265 28.3593 44.1695 29.0396 44.1695 30.0115C44.1695 31.2749 43.9265 32.101 43.4406 32.4898C43.0032 32.8299 42.2743 33 41.2539 33H40.2334C37.7066 33 35.7628 32.2225 34.4022 30.6675V31.5422C34.4022 36.5473 32.9201 40.4591 29.9559 43.2775C27.0403 46.0959 22.8127 47.5051 17.2731 47.5051C14.649 47.5051 12.2679 47.1407 10.1298 46.4118C8.04033 45.7315 6.24237 44.711 4.73598 43.3504C3.27818 41.9898 2.13624 40.3133 1.31015 38.321C0.484063 36.3772 0.07102 34.1176 0.07102 31.5422C0.07102 28.6752 0.532657 25.9297 1.45593 23.3056C2.4278 20.633 3.54544 18.3977 4.80887 16.5997ZM17.2731 7.63428C16.7871 7.63428 16.5442 7.39131 16.5442 6.90538V1.58441C16.5442 1.09848 16.7871 0.855509 17.2731 0.855509H22.2296C22.7155 0.855509 22.9585 1.09848 22.9585 1.58441V6.90538C22.9585 7.39131 22.7155 7.63428 22.2296 7.63428H17.2731ZM41.1284 33C40.1565 33 39.5005 32.8056 39.1604 32.4169C38.8202 31.9795 38.6501 31.2506 38.6501 30.2302C38.6501 29.0153 38.8202 28.2379 39.1604 27.8977C39.4519 27.509 40.1079 27.3146 41.1284 27.3146H49.1463C50.1182 27.3146 50.8471 27.509 51.333 27.8977C51.8189 28.2864 52.0619 28.991 52.0619 30.0115C52.0619 31.2263 51.8189 32.0281 51.333 32.4169C50.8956 32.8056 50.1667 33 49.1463 33H41.1284ZM49.0191 33C48.0472 33 47.3912 32.8056 47.0511 32.4169C46.7109 31.9795 46.5408 31.2506 46.5408 30.2302C46.5408 29.0153 46.7109 28.2379 47.0511 27.8977C47.3426 27.509 47.9986 27.3146 49.0191 27.3146H57.037C58.0089 27.3146 58.7378 27.509 59.2237 27.8977C59.7096 28.2864 59.9526 28.991 59.9526 30.0115C59.9526 31.2263 59.7096 32.0281 59.2237 32.4169C58.7864 32.8056 58.0575 33 57.037 33H49.0191ZM56.9098 33C55.9379 33 55.2819 32.8056 54.9418 32.4169C54.6016 31.9795 54.4315 31.2506 54.4315 30.2302C54.4315 29.0153 54.6016 28.2379 54.9418 27.8977C55.2333 27.509 55.8893 27.3146 56.9098 27.3146H64.9277C65.8996 27.3146 66.6285 27.509 67.1144 27.8977C67.6003 28.2864 67.8433 28.991 67.8433 30.0115C67.8433 31.2263 67.6003 32.0281 67.1144 32.4169C66.6771 32.8056 65.9482 33 64.9277 33H56.9098ZM64.8005 33C63.8286 33 63.1726 32.8056 62.8325 32.4169C62.4923 31.9795 62.3222 31.2506 62.3222 30.2302C62.3222 29.0153 62.4923 28.2379 62.8325 27.8977C63.124 27.509 63.78 27.3146 64.8005 27.3146H72.8184C73.7903 27.3146 74.5192 27.509 75.0051 27.8977C75.491 28.2864 75.734 28.991 75.734 30.0115C75.734 31.2263 75.491 32.0281 75.0051 32.4169C74.5678 32.8056 73.8389 33 72.8184 33H64.8005ZM72.6912 33C71.7193 33 71.0633 32.8056 70.7232 32.4169C70.383 31.9795 70.213 31.2506 70.213 30.2302C70.213 29.0153 70.383 28.2379 70.7232 27.8977C71.0147 27.509 71.6708 27.3146 72.6912 27.3146H80.7091C81.681 27.3146 82.4099 27.509 82.8958 27.8977C83.3817 28.2864 83.6247 28.991 83.6247 30.0115C83.6247 31.2263 83.3817 32.0281 82.8958 32.4169C82.4585 32.8056 81.7296 33 80.7091 33H72.6912ZM80.5819 33C79.6101 33 78.954 32.8056 78.6139 32.4169C78.2737 31.9795 78.1037 31.2506 78.1037 30.2302C78.1037 29.0153 78.2737 28.2379 78.6139 27.8977C78.9055 27.509 79.5615 27.3146 80.5819 27.3146H88.5998C89.5717 27.3146 90.3006 27.509 90.7865 27.8977C91.2725 28.2864 91.5154 28.991 91.5154 30.0115C91.5154 31.2263 91.2725 32.0281 90.7865 32.4169C90.3492 32.8056 89.6203 33 88.5998 33H80.5819ZM88.4726 33C87.5008 33 86.8447 32.8056 86.5046 32.4169C86.1644 31.9795 85.9944 31.2506 85.9944 30.2302C85.9944 29.0153 86.1644 28.2379 86.5046 27.8977C86.7962 27.509 87.4522 27.3146 88.4726 27.3146H96.4905C97.4624 27.3146 98.1913 27.509 98.6772 27.8977C99.1632 28.2864 99.4061 28.991 99.4061 30.0115C99.4061 31.2263 99.1632 32.0281 98.6772 32.4169C98.2399 32.8056 97.511 33 96.4905 33H88.4726ZM96.3633 33C95.3915 33 94.7355 32.8056 94.3953 32.4169C94.0552 31.9795 93.8851 31.2506 93.8851 30.2302C93.8851 29.0153 94.0552 28.2379 94.3953 27.8977C94.6869 27.509 95.3429 27.3146 96.3633 27.3146H104.381C105.353 27.3146 106.082 27.509 106.568 27.8977C107.054 28.2864 107.297 28.991 107.297 30.0115C107.297 31.2263 107.054 32.0281 106.568 32.4169C106.131 32.8056 105.402 33 104.381 33H96.3633ZM104.254 33C103.282 33 102.626 32.8056 102.286 32.4169C101.946 31.9795 101.776 31.2506 101.776 30.2302C101.776 29.0153 101.946 28.2379 102.286 27.8977C102.578 27.509 103.234 27.3146 104.254 27.3146H112.272C113.244 27.3146 113.973 27.509 114.459 27.8977C114.945 28.2864 115.188 28.991 115.188 30.0115C115.188 31.2263 114.945 32.0281 114.459 32.4169C114.021 32.8056 113.292 33 112.272 33H104.254ZM112.145 33C111.173 33 110.517 32.8056 110.177 32.4169C109.837 31.9795 109.666 31.2506 109.666 30.2302C109.666 29.0153 109.837 28.2379 110.177 27.8977C110.468 27.509 111.124 27.3146 112.145 27.3146H120.163C121.135 27.3146 121.863 27.509 122.349 27.8977C122.835 28.2864 123.078 28.991 123.078 30.0115C123.078 31.2263 122.835 32.0281 122.349 32.4169C121.912 32.8056 121.183 33 120.163 33H112.145ZM120.035 33C119.064 33 118.408 32.8056 118.067 32.4169C117.727 31.9795 117.557 31.2506 117.557 30.2302C117.557 29.0153 117.727 28.2379 118.067 27.8977C118.359 27.509 119.015 27.3146 120.035 27.3146H128.053C129.025 27.3146 129.754 27.509 130.24 27.8977C130.726 28.2864 130.969 28.991 130.969 30.0115C130.969 31.2263 130.726 32.0281 130.24 32.4169C129.803 32.8056 129.074 33 128.053 33H120.035ZM127.926 33C126.954 33 126.298 32.8056 125.958 32.4169C125.618 31.9795 125.448 31.2506 125.448 30.2302C125.448 29.0153 125.618 28.2379 125.958 27.8977C126.25 27.509 126.906 27.3146 127.926 27.3146H135.944C136.916 27.3146 137.645 27.509 138.131 27.8977C138.617 28.2864 138.86 28.991 138.86 30.0115C138.86 31.2263 138.617 32.0281 138.131 32.4169C137.693 32.8056 136.965 33 135.944 33H127.926ZM135.817 33C134.845 33 134.189 32.8056 133.849 32.4169C133.509 31.9795 133.339 31.2506 133.339 30.2302C133.339 29.0153 133.509 28.2379 133.849 27.8977C134.14 27.509 134.796 27.3146 135.817 27.3146H143.835C144.807 27.3146 145.536 27.509 146.021 27.8977C146.507 28.2864 146.75 28.991 146.75 30.0115C146.75 31.2263 146.507 32.0281 146.021 32.4169C145.584 32.8056 144.855 33 143.835 33H135.817ZM143.708 33C142.736 33 142.08 32.8056 141.74 32.4169C141.399 31.9795 141.229 31.2506 141.229 30.2302C141.229 29.0153 141.399 28.2379 141.74 27.8977C142.031 27.509 142.687 27.3146 143.708 27.3146H151.725C152.697 27.3146 153.426 27.509 153.912 27.8977C154.398 28.2864 154.641 28.991 154.641 30.0115C154.641 31.2263 154.398 32.0281 153.912 32.4169C153.475 32.8056 152.746 33 151.725 33H143.708ZM151.598 33C150.626 33 149.97 32.8056 149.63 32.4169C149.29 31.9795 149.12 31.2506 149.12 30.2302C149.12 29.0153 149.29 28.2379 149.63 27.8977C149.922 27.509 150.578 27.3146 151.598 27.3146H159.616C160.588 27.3146 161.317 27.509 161.803 27.8977C162.289 28.2864 162.532 28.991 162.532 30.0115C162.532 31.2263 162.289 32.0281 161.803 32.4169C161.366 32.8056 160.637 33 159.616 33H151.598ZM193.018 27.3146C193.504 27.3146 193.747 27.5575 193.747 28.0435V32.2711C193.747 32.757 193.504 33 193.018 33H159.416C157.472 33 156.501 32.0281 156.501 30.0844C156.501 28.8696 156.743 28.1164 157.229 27.8248C157.667 27.4847 158.396 27.3146 159.416 27.3146H167.726C166.608 26.1969 165.66 24.7877 164.883 23.087C164.105 21.3862 163.717 19.3453 163.717 16.9642C163.717 15.4578 163.935 13.8299 164.373 12.0806C164.81 10.2826 165.612 8.63044 166.778 7.12405C167.944 5.61766 169.524 4.37853 171.516 3.40666C173.557 2.3862 176.157 1.87597 179.315 1.87597C182.182 1.87597 184.66 2.4105 186.75 3.47955C188.839 4.50001 190.516 5.93351 191.779 7.78006C192.022 8.16881 191.949 8.50896 191.561 8.80052L188.353 11.4246C187.965 11.7161 187.625 11.6918 187.333 11.3517C185.146 8.82482 182.401 7.56139 179.096 7.56139C176.084 7.56139 173.848 8.46037 172.391 10.2583C170.933 12.0077 170.204 14.2187 170.204 16.8913C170.204 18.6893 170.495 20.22 171.079 21.4834C171.662 22.7468 172.318 23.7916 173.047 24.6176C173.824 25.4437 174.602 26.0754 175.379 26.5128C176.157 26.9015 176.764 27.1688 177.201 27.3146H193.018Z" fill="#A0A0A0"/>
<path d="M85.7853 63.4822C85.7853 63.2629 85.8949 63.1533 86.1142 63.1533H90.1268C90.3461 63.1533 90.4557 63.2629 90.4557 63.4822V71.2442C90.4995 71.7924 90.7298 72.2309 91.1464 72.5598C91.5849 72.8668 92.1879 73.0203 92.9553 73.0203H93.6789C94.1174 73.0203 94.4463 73.1738 94.6656 73.4808C94.8849 73.7877 94.9945 74.2921 94.9945 74.9937C94.9945 76.3312 94.556 77 93.6789 77C92.9553 77 92.3304 76.9342 91.8042 76.8027C91.2779 76.6492 90.8284 76.3422 90.4557 75.8817V76.408C90.4557 78.9076 89.9733 80.7495 89.0085 81.9335C88.0438 83.1395 86.3993 83.7425 84.075 83.7425H82.5621C82.3428 83.7425 82.2332 83.6328 82.2332 83.4136V80.0917C82.2332 79.8724 82.3428 79.7628 82.5621 79.7628H83.2857C83.8777 79.7628 84.3381 79.6641 84.667 79.4668C84.9959 79.2913 85.2371 79.0173 85.3906 78.6445C85.566 78.2937 85.6757 77.8551 85.7195 77.3289C85.7634 76.8027 85.7853 76.1997 85.7853 75.5199V63.4822ZM95.0866 83.7425C94.8673 83.7425 94.7577 83.6328 94.7577 83.4136V80.1903C94.7577 79.9711 94.8673 79.8614 95.0866 79.8614H98.3756C98.5948 79.8614 98.7045 79.9711 98.7045 80.1903V83.4136C98.7045 83.6328 98.5948 83.7425 98.3756 83.7425H95.0866ZM100.152 83.7425C99.9323 83.7425 99.8227 83.6328 99.8227 83.4136V80.1903C99.8227 79.9711 99.9323 79.8614 100.152 79.8614H103.474C103.693 79.8614 103.802 79.9711 103.802 80.1903V83.4136C103.802 83.6328 103.693 83.7425 103.474 83.7425H100.152ZM97.1586 63.4822C97.1586 63.2629 97.2683 63.1533 97.4875 63.1533H101.467C101.686 63.1533 101.796 63.2629 101.796 63.4822V71.2442C101.84 71.7924 102.07 72.2309 102.487 72.5598C102.925 72.8668 103.528 73.0203 104.296 73.0203H105.052C105.491 73.0203 105.82 73.1738 106.039 73.4808C106.258 73.7877 106.368 74.2921 106.368 74.9937C106.368 76.3312 105.929 77 105.052 77C104.219 77 103.495 76.9013 102.881 76.704C102.268 76.5066 101.752 76.0572 101.336 75.3555C100.985 76.0572 100.459 76.5066 99.7569 76.704C99.0772 76.9013 98.1344 77 96.9284 77H93.5407C93.1022 77 92.7733 76.8684 92.554 76.6053C92.3348 76.3203 92.2251 75.805 92.2251 75.0595C92.2251 74.314 92.3348 73.7877 92.554 73.4808C92.7514 73.1738 93.0803 73.0203 93.5407 73.0203H95.5799C96.2816 73.0203 96.7201 72.823 96.8955 72.4283C97.0709 72.0117 97.1586 71.31 97.1586 70.3233V63.4822ZM110.602 59.8643C110.382 59.8643 110.273 59.7547 110.273 59.5354V56.3122C110.273 56.0929 110.382 55.9833 110.602 55.9833H114.68C114.899 55.9833 115.009 56.0929 115.009 56.3122V59.5354C115.009 59.7547 114.899 59.8643 114.68 59.8643H110.602ZM106.293 65.2254C107.061 64.4579 107.927 63.833 108.891 63.3506C109.878 62.8463 111.073 62.5942 112.476 62.5942C113.924 62.5942 115.141 62.8025 116.127 63.2191C117.136 63.6357 117.947 64.2168 118.561 64.9623C119.197 65.6858 119.657 66.5519 119.942 67.5606C120.228 68.5473 120.37 69.6217 120.37 70.7838V71.31C120.436 71.8363 120.666 72.2529 121.061 72.5598C121.477 72.8668 122.069 73.0203 122.837 73.0203H123.593C124.032 73.0203 124.361 73.1738 124.58 73.4808C124.799 73.7877 124.909 74.2921 124.909 74.9937C124.909 76.3312 124.47 77 123.593 77C122.672 77 121.872 76.8794 121.192 76.6382C120.513 76.3751 119.953 75.8269 119.515 74.9937C119.076 75.7831 118.451 76.3203 117.64 76.6053C116.851 76.8684 115.908 77 114.812 77H104.813C104.375 77 104.046 76.8575 103.826 76.5724C103.607 76.2655 103.497 75.7611 103.497 75.0595C103.497 74.3578 103.596 73.8426 103.793 73.5137C103.991 73.1848 104.331 73.0203 104.813 73.0203H112.97C113.496 73.0203 113.924 72.9874 114.252 72.9216C114.581 72.8339 114.834 72.7024 115.009 72.527C115.206 72.3296 115.338 72.0775 115.404 71.7705C115.491 71.4416 115.535 71.0359 115.535 70.5536C115.535 70.0054 115.48 69.4901 115.371 69.0077C115.261 68.5253 115.075 68.1087 114.812 67.7579C114.549 67.3852 114.198 67.1001 113.759 66.9028C113.343 66.6835 112.816 66.5739 112.18 66.5739C111.479 66.5739 110.854 66.7164 110.306 67.0014C109.758 67.2646 109.253 67.6044 108.793 68.021C108.639 68.1745 108.486 68.1855 108.332 68.0539L106.392 65.7187C106.194 65.5214 106.162 65.3569 106.293 65.2254ZM123.379 77C122.94 77 122.611 76.9233 122.392 76.7698C122.173 76.6163 122.063 76.3093 122.063 75.8489C122.063 75.5857 122.096 75.2897 122.162 74.9608C122.206 74.6319 122.282 74.3249 122.392 74.0399C122.48 73.7549 122.611 73.5137 122.787 73.3163C122.94 73.119 123.138 73.0203 123.379 73.0203H124.53C125.078 73.0203 125.473 72.8997 125.714 72.6585C125.977 72.3954 126.109 71.9349 126.109 71.2771V54.9637C126.109 54.7444 126.218 54.6348 126.438 54.6348H130.45C130.669 54.6348 130.779 54.7444 130.779 54.9637V72.8559C130.779 74.2811 130.483 75.3336 129.891 76.0133C129.299 76.6711 128.312 77 126.931 77H123.379ZM139.144 76.6711C139.144 76.8904 139.035 77 138.816 77H134.836C134.617 77 134.507 76.8904 134.507 76.6711V54.9637C134.507 54.7444 134.617 54.6348 134.836 54.6348H138.816C139.035 54.6348 139.144 54.7444 139.144 54.9637V76.6711ZM166.557 76.2764C166.557 77.6578 166.337 78.8309 165.899 79.7956C165.482 80.7824 164.901 81.5827 164.156 82.1966C163.41 82.8325 162.522 83.293 161.492 83.578C160.483 83.885 159.398 84.0385 158.235 84.0385C157.095 84.0385 156.01 83.885 154.979 83.578C153.971 83.293 153.083 82.8325 152.315 82.1966C151.548 81.5827 150.934 80.7714 150.473 79.7628C150.035 78.7761 149.816 77.592 149.816 76.2106C149.816 75.1143 149.969 74.007 150.276 72.8888C150.605 71.7486 151.054 70.6851 151.625 69.6984C151.712 69.5669 151.877 69.534 152.118 69.5997L155.67 70.7509C155.78 70.7948 155.834 70.8605 155.834 70.9482C155.856 71.014 155.845 71.0908 155.802 71.1785C155.495 71.7924 155.21 72.4831 154.946 73.2505C154.683 74.018 154.552 74.8841 154.552 75.8489C154.552 76.6163 154.661 77.2631 154.881 77.7894C155.1 78.3156 155.385 78.7432 155.736 79.0721C156.109 79.401 156.514 79.6312 156.953 79.7628C157.413 79.9162 157.874 79.993 158.334 79.993C159.452 79.993 160.329 79.6751 160.965 79.0392C161.601 78.4033 161.919 77.4166 161.919 76.0791V54.9637C161.919 54.7444 162.029 54.6348 162.248 54.6348H166.228C166.447 54.6348 166.557 54.7444 166.557 54.9637V71.2442C166.6 71.7924 166.831 72.2309 167.247 72.5598C167.686 72.8668 168.289 73.0203 169.056 73.0203H169.813C170.251 73.0203 170.58 73.1738 170.799 73.4808C171.019 73.7877 171.128 74.2921 171.128 74.9937C171.128 76.3312 170.69 77 169.813 77C169.111 77 168.497 76.9452 167.971 76.8355C167.445 76.704 166.973 76.4189 166.557 75.9804V76.2764ZM179.83 77.2302C178.668 77.2302 177.594 77.0877 176.607 76.8027C175.642 76.4957 174.831 75.9694 174.173 75.2239C173.866 75.6625 173.504 76.0023 173.088 76.2435C172.693 76.4628 172.288 76.6382 171.871 76.7698C171.454 76.8794 171.049 76.9452 170.654 76.9671C170.259 76.989 169.909 77 169.602 77C169.163 77 168.834 76.8575 168.615 76.5724C168.396 76.2874 168.286 75.7831 168.286 75.0595C168.286 74.2921 168.396 73.7658 168.615 73.4808C168.812 73.1738 169.141 73.0203 169.602 73.0203H170.555C171.038 73.0203 171.487 72.812 171.904 72.3954C172.32 71.9788 172.551 71.2004 172.595 70.0602V69.4024C172.595 68.1087 172.792 67.0234 173.187 66.1463C173.603 65.2692 174.14 64.5676 174.798 64.0413C175.478 63.5151 176.245 63.1423 177.1 62.9231C177.978 62.7038 178.887 62.5942 179.83 62.5942C180.795 62.5942 181.716 62.7148 182.593 62.956C183.47 63.1972 184.238 63.6028 184.895 64.1729C185.575 64.743 186.112 65.5104 186.507 66.4752C186.902 67.418 187.099 68.613 187.099 70.0602C187.099 71.3977 186.913 72.527 186.54 73.4479C186.167 74.3688 185.652 75.1143 184.994 75.6844C184.358 76.2326 183.591 76.6272 182.692 76.8684C181.815 77.1096 180.861 77.2302 179.83 77.2302ZM179.83 66.5739C178.01 66.5739 177.1 67.6812 177.1 69.8958C177.1 71.1456 177.331 72.0226 177.791 72.527C178.252 73.0093 178.931 73.2505 179.83 73.2505C180.751 73.2505 181.431 73.0093 181.87 72.527C182.308 72.0226 182.527 71.1456 182.527 69.8958C182.527 67.6812 181.628 66.5739 179.83 66.5739ZM195.035 76.6711C195.035 76.8904 194.925 77 194.706 77H190.726C190.507 77 190.398 76.8904 190.398 76.6711V54.9637C190.398 54.7444 190.507 54.6348 190.726 54.6348H194.706C194.925 54.6348 195.035 54.7444 195.035 54.9637V76.6711ZM190.167 51.0498C190.036 50.8086 189.926 50.5455 189.838 50.2604C189.751 49.9754 189.707 49.6574 189.707 49.3066C189.707 48.9119 189.773 48.5173 189.904 48.1226C190.058 47.7279 190.277 47.3771 190.562 47.0701C190.847 46.7412 191.209 46.489 191.647 46.3136C192.108 46.1163 192.656 46.0176 193.292 46.0176C193.994 46.0176 194.597 46.1492 195.101 46.4123C195.627 46.6535 196.033 46.9605 196.318 47.3332C196.384 47.4429 196.373 47.5415 196.285 47.6292L195.298 48.6488C195.189 48.7804 195.079 48.7913 194.969 48.6817C194.509 48.1774 193.994 47.9252 193.423 47.9252C193.007 47.9252 192.667 48.0568 192.404 48.3199C192.141 48.583 192.009 48.9339 192.009 49.3724C192.009 49.7671 192.108 50.1069 192.305 50.392C192.524 50.677 192.755 50.8963 192.996 51.0498H196.285C196.416 51.0498 196.482 51.1265 196.482 51.28V52.7601C196.482 52.9136 196.416 52.9903 196.285 52.9903H188.95C188.819 52.9903 188.753 52.9136 188.753 52.7601V51.28C188.753 51.1265 188.819 51.0498 188.95 51.0498H190.167Z" fill="#1E1E1E"/>
</svg>
