<?xml version="1.0" encoding="utf-8"?>
<!-- Generator: Adobe Illustrator 29.4.0, SVG Export Plug-In . SVG Version: 9.03 Build 0)  -->
<svg version="1.1" id="Layer_1" xmlns="http://www.w3.org/2000/svg" xmlns:xlink="http://www.w3.org/1999/xlink" x="0px" y="0px"
	 viewBox="0 0 841.9 251.2" style="enable-background:new 0 0 841.9 251.2;" xml:space="preserve">
<style type="text/css">
	.st0{fill:#F9AE42;}
	.st1{fill:#009247;}
	.st2{fill:#8C734B;}
</style>
<g>
	<g>
		<g>
			<path d="M771.5,211.7l5.7,39.5l12.5-20.2l-3.8-27.6c0.3-0.3,0.8-0.5,1.1-0.9c1.6-1.3,3.1-2.5,4.3-3.7c1.5,1.5,3.2,3,4.9,4.2
				c1.7,1.2,3.7,2.5,6,3.8c3.2,1.9,6.5,3.4,9.6,4.6c3.2,1.2,6,1.9,8.4,1.9c2.7,0.1,5.4-1,7.9-3.4c2.5-2.4,4.9-5.7,7.3-10
				c0.4-0.8,0.8-1.6,0.9-2.7s0.2-2.3,0-3.6c-0.1-1.3-0.3-2.7-0.5-4c-0.2-1.4-0.7-2.8-1.2-4.4c-0.8-2.4-1.6-4.8-2.7-7.1
				c-1.1-2.3-2.3-4.5-3.6-6.5c-1.3-2-2.6-3.6-4-4.9c-1.4-1.3-2.7-2.1-4-2.4c-2.5-0.4-4.8,0-6.8,1.4c-3.6,2.3-6.7,5-9.3,8
				c-2.6,3-4.8,6.1-6.8,9.6l-10.6,11c0.3,0.4,0.5,0.8,0.8,1c0.2,0.2,0.4,0.7,0.9,1.2c-1,0.4-2.1,0.9-3.2,1.3l-12.1-87.6l-13.6,15.5
				l10.7,74.7h-5.2l-9-72.8l-13.3,13.8l9,72.6l0,0l0,0l1.9,14.3c-1.5-0.5-3.1-1.1-4.7-1.7c-1.6-0.7-3.2-1.3-4.7-2.1
				c-3.2-1.5-6.3-3.2-9.4-5c-3.2-1.9-6-3.9-8.7-6c-2.6-2.1-5-4.2-7.1-6.3c-2.1-2.2-3.5-4.3-4.4-6.3c0.3,0,0.7,0,1,0
				c0.3,0,0.7-0.1,1-0.2c1.7-0.2,3.7-0.4,5.8-0.5c2.2,0,4.6-0.2,7.2-0.3l13.2-13.7c-2.5,0-4.9,0-7,0.2c-2.2,0.2-4.2,0.3-6.1,0.7
				c-1.9,0.3-3.6,0.7-5.1,1.1c-1.5,0.3-3,0.8-4,1.2c-2.1,1-5.1,3.5-9.2,7.5c-3.6,3.7-6.2,6.6-8,8.7c-1.7,2.2-2.6,3.6-2.6,4.3
				c-0.3,2.2,0.3,4.6,2.1,7.2c1.7,2.6,4,5.1,7,7.8c3,2.6,6.2,5,10.1,7.4c3.7,2.4,7.5,4.5,11.4,6.2c2.3,1.2,4.7,2.3,6.9,3.1
				c2.3,0.9,4.4,1.4,6.3,1.9c2,0.4,3.8,0.7,5.4,0.7c1.5,0,2.7-0.2,3.7-0.8c4-2.3,7.2-4.6,9.7-6.8c2.4-2.3,4-4.6,4.8-6.8
				c0.2-0.7,0.3-1.3,0.5-2c0.1-0.7,0.1-1.5,0-2.5l-1.4-10.8l5.1-2.4L771.5,211.7z M819.2,199.1c-2.2-1-4.3-2-6.3-3.2
				c-2.3-1.4-4.6-2.8-6.9-4.5c-2.3-1.5-4.2-3.2-5.7-4.8c1.3-1.9,2.4-3.6,3.4-5.4c0.9-1.7,1.7-3.6,2.6-5.5c0-0.2,0.2-0.4,0.4-0.5
				c1-0.2,2-0.1,3,0c1.3,0.2,2.6,1.1,4,2.4c1.4,1.3,2.7,3,4,4.9c1.3,2,2.5,4,3.6,6.5c1.1,2.3,2.1,4.7,2.8,7.1c0.2,1,0.5,1.9,0.7,2.6
				c0.2,0.8,0.3,1.6,0.5,2.6c-2-0.5-4-1.4-6.1-2.4L819.2,199.1z"/>
			<path d="M741.7,107.4c0.5,0.4,1.2,0.5,2.1,0.2s2.1-0.7,3.6-1.2c1.5-0.5,3.3-1.1,5.2-1.6c2-0.5,4-0.8,6.1-0.8l-4.5,5l3.4,13.8
				l12.5-13.9v-0.2h0.1l-3.3-13.9c-2.2-1.9-4.3-3.2-6.5-3.8c-2.1-0.7-4.2-1-6.1-0.9c-2,0-3.8,0.3-5.6,0.9s-3.4,1.1-4.9,1.5
				c-0.9,0.3-1.6,0.5-2.3,0.9c-0.7,0.3-1.3,0.4-1.9,0.3c0.3-2.2,0.9-4.3,1.7-6.1c0.8-1.9,1.7-3.3,2.8-4.2l-3.4-13.9
				c-1.1,1.1-2.2,2.8-3.1,5.1c-0.9,2.3-1.4,4.8-1.7,7.4c-0.4,4.6-0.2,9.1,0.5,13.6c0.8,4.4,2.5,8.3,5.1,11.6L741.7,107.4z"/>
			<polygon points="632,174.8 625.2,170.5 616.3,177.9 624.1,182.7 629.2,178.3 636,182.7 644.8,175.3 637,170.5 			"/>
			<polygon points="685.8,126.3 675.4,121.2 668.1,132.3 678.5,137.3 			"/>
			<path d="M701.3,165.3l4.4,33.4l13.5-13.8l-2.6-19.6h3.5l13.2-13l-9.5-69.8l-13.2,13l8.6,59.7h-4l-8-58.8l-13.2,13.8l6,45.4
				c-0.5-0.1-1.1-0.3-1.7-0.5c-1.9-0.7-3.9-1.5-5.9-2.7c-2.1-1.1-4.2-2.4-6.2-3.7c-2.1-1.4-4.3-2.8-6.3-4.4c-2.5-1.6-5-3.3-7.4-4.9
				c-2.4-1.5-4.8-3-7-3.9c-2.3-1-4.4-1.7-6.3-2.1c-2-0.3-3.8,0-5.4,0.8c-2.2,1.1-4,2.2-5.6,3.3c-1.5,1.2-2.7,2.4-3.8,3.6
				c-1,1.2-1.7,2.5-2.3,3.8c-0.5,1.3-0.9,2.6-1,3.9c-0.2,1.1-0.2,2.1,0,3.2c0.1,1.1,0.3,2.2,0.5,3.3l8.7-9.6c0-0.5-0.2-1-0.3-1.5
				c0-0.5-0.2-1.1-0.2-1.6c1.6,0.1,3.6,0.7,5.7,1.6s4.3,2.2,6.5,3.5c2.2,1.3,4.4,2.8,6.7,4.3c2.2,1.5,4.4,2.8,6.3,4.2H638l-4.5-26.2
				l-10.9,9.3l2.3,13.2c-1.5-0.9-3-1.9-4.2-3c-1.7-1.6-3.2-3.5-4.4-5.5c-1.1-2.1-2.1-4-2.8-6.1c-0.8-2.1-1.3-4-1.9-5.9
				c-0.5-1.9-1-3.4-1.3-4.6c-0.4-1-0.8-2-1.2-3c-0.3-1-0.8-2-1.2-3l-5,5.1l-4.9,5c1,2.2,1.7,4.7,2.5,7.2c0.8,2.6,1.4,5.2,2,7.9
				c0.8,3.6,1.4,7,1.9,10.2c0.4,3.2,0.8,5.9,0.8,8.2c0,0.5-0.1,1-0.5,1.4c-0.4,0.4-1,0.8-1.6,1.1c-0.8,0.3-1.5,0.7-2.5,0.9
				c-1,0.3-2,0.5-3.1,0.9c-1.6,0.4-3.4,0.9-5.1,1.3c-1.7,0.4-3.4,1-5.1,1.6c-1.6,0.7-3.3,1.3-4.8,2.2c-1.5,0.9-3,1.9-4.2,3
				l-9.7,10.1c1.2-1.1,2.6-2.1,4.2-2.8s3.1-1.5,4.7-2.2s3.3-1.2,5-1.6c1.7-0.4,3.5-0.9,5.2-1.3c3.4-0.9,6.7-1.7,9.7-2.6
				c3.1-0.9,5.9-2.1,8.4-3.5c2.5-1.4,4.6-3.2,6.2-5.2s2.7-4.7,3.2-7.9c0,0,0.1,0.1,0.2,0.2l-0.2,0.2h0.5c1.5,1.4,3.1,2.4,4.5,3.2
				c0.9,0.4,1.9,0.8,2.8,1c0.3,0.1,0.9,0.2,1.5,0.2c0,0,0,0,0.1,0c0.3,0,0.8,0,1.2,0l0,0c15,0.2,55.1,0.3,72.5,0.3l0,0h3.1V165.3z"
				/>
		</g>
		<g>
			<path class="st0" d="M826.6,125c-15,33.4-31.5,58.4-35.3,56.3c-3.8-2.2,5-33.6,20-66.9c15-33.4,25.2-80.2,29-78.1
				C844.1,38.3,841.6,91.6,826.6,125"/>
			<path class="st1" d="M812.7,90.6c-9.7,35.2-22.2,62.6-26.4,61c-4.2-1.5-0.1-33.9,9.6-69.1c9.7-35.2,12.7-83.1,16.8-81.6
				c4.2,1.5,9.7,54.5,0,89.7"/>
			<path class="st2" d="M797.7,52.8c-7.1,37.7-12.9,64.6-17.2,63.6c-4.3-1.1-2.6-33.7,3.1-69.8c5.7-36.2,4.5-47.7,8.7-46.6
				c4.3,1,10,28.4,5.4,52.8"/>
		</g>
	</g>
	<g>
		<g>
			<g>
				<path d="M20,76.5L0.1,120.9h8.4l4.4-10.3h22.2l4.4,10.3h8.6l-20-44.4L20,76.5L20,76.5z M15.6,104.2l8.3-19.4l8.3,19.4H15.6z"/>
				<polygon points="95.5,76.5 78.1,105.9 60.5,76.5 53.7,76.5 53.7,120.9 61.6,120.9 61.6,91.9 76.2,115.9 79.9,115.9 94.4,91.5 
					94.4,120.9 102.4,120.9 102.2,76.5 				"/>
				<path d="M127.9,76.5L108,120.9h8.4l4.4-10.3H143l4.4,10.3h8.6l-20-44.4L127.9,76.5L127.9,76.5z M123.6,104.2l8.3-19.4l8.3,19.4
					H123.6L123.6,104.2z"/>
				<polygon points="169.9,76.5 161.7,76.5 161.7,120.9 193.1,120.9 193.1,113.9 169.9,113.9 				"/>
				<path d="M248.4,76.5l-19.9,44.4h8.4l4.4-10.3h22.2l4.4,10.3h8.6l-20-44.4L248.4,76.5L248.4,76.5z M244,104.2l8.3-19.4l8.3,19.4
					H244z"/>
				<polygon points="290.3,76.5 282,76.5 282,120.9 313.5,120.9 313.5,113.9 290.3,113.9 				"/>
				<polygon points="377,76.5 367.6,76.5 345.8,99.3 345.8,76.5 337.5,76.5 337.5,120.9 345.8,120.9 345.8,109.4 352.8,102.3 
					368.4,120.9 378.2,120.9 358.3,96.4 				"/>
				<polygon points="414.9,94.9 391.9,94.9 391.9,76.5 383.7,76.5 383.7,120.9 391.9,120.9 391.9,101.9 414.9,101.9 414.9,120.9 
					423,120.9 423,76.5 414.9,76.5 				"/>
				<path d="M448.7,76.5l-19.9,44.4h8.4l4.4-10.3h22.2l4.4,10.3h8.6l-20-44.4L448.7,76.5L448.7,76.5z M444.3,104.2l8.3-19.4
					l8.3,19.4H444.3z"/>
				<rect x="482.5" y="76.5" width="8.2" height="44.4"/>
				<path d="M540.6,120.9l-10.2-14.5c0.2,0,0.4-0.1,0.7-0.2c2.8-1.3,4.9-3.1,6.5-5.4c1.5-2.3,2.3-5.1,2.3-8.3s-0.8-6.1-2.3-8.5
					c-1.5-2.4-3.7-4.2-6.5-5.5c-2.8-1.2-6.1-1.9-10.1-1.9h-18.3V121h8.2v-12.9H521c0.5,0,1.1,0,1.7,0l9.1,13h8.9L540.6,120.9z
					 M528.7,85.8c1.9,1.5,2.7,3.7,2.7,6.5c0,2.7-0.9,4.9-2.7,6.6c-1.9,1.5-4.6,2.3-8.2,2.3h-9.6V83.4h9.6c3.6,0,6.3,0.8,8.2,2.3
					V85.8z"/>
			</g>
			<rect y="142.3" class="st2" width="540.6" height="1.3"/>
		</g>
		<g>
			<path d="M222.9,237.8c-1.4,0-2.6-0.3-3.6-0.9c-1-0.5-1.9-1.4-2.4-2.4c-0.5-1-0.9-2.2-0.9-3.5c0-1.3,0.3-2.4,0.9-3.5
				c0.5-1,1.3-1.7,2.3-2.4c1-0.5,2.1-0.9,3.3-0.9c1.2,0,2.3,0.3,3.3,0.9c1,0.5,1.7,1.3,2.3,2.4c0.5,1,0.9,2.2,0.9,3.5
				c0,1.3,0,0.2,0,0.2s0,0.2,0,0.3h-11.5v-1.3h10.5l-0.7,0.5c0-1-0.2-1.7-0.7-2.5c-0.4-0.8-1-1.3-1.6-1.7c-0.7-0.4-1.5-0.7-2.4-0.7
				s-1.7,0.2-2.4,0.7c-0.8,0.4-1.3,1-1.6,1.7c-0.4,0.8-0.7,1.6-0.7,2.6v0.3c0,1,0.2,1.9,0.7,2.6c0.4,0.8,1.1,1.3,1.9,1.7
				s1.7,0.7,2.7,0.7c1,0,1.5-0.1,2.3-0.4c0.7-0.3,1.3-0.8,1.7-1.3l1,1.2c-0.5,0.7-1.3,1.2-2.2,1.6c-0.9,0.3-1.9,0.5-2.8,0.5
				L222.9,237.8z"/>
			<path d="M236,237.8c-1.1,0-2.1-0.1-3.1-0.4c-1-0.3-1.7-0.7-2.3-1.2l0.8-1.4c0.5,0.4,1.2,0.8,2.1,1.1s1.7,0.4,2.6,0.4
				c0.9,0,2.2-0.2,2.7-0.5c0.5-0.3,0.9-0.9,0.9-1.5s-0.1-0.9-0.4-1.1c-0.3-0.3-0.8-0.4-1.2-0.7c-0.5-0.1-1.1-0.2-1.6-0.3
				c-0.7,0-1.2-0.2-1.9-0.3c-0.7-0.1-1.2-0.3-1.6-0.5c-0.5-0.2-0.9-0.7-1.2-1.1s-0.4-1.1-0.4-1.9s0.2-1.3,0.7-2c0.4-0.5,1-1,1.7-1.3
				c0.8-0.3,1.7-0.4,2.8-0.4s1.7,0.1,2.5,0.3c0.9,0.2,1.5,0.5,2.1,0.9l-0.8,1.4c-0.5-0.4-1.2-0.7-1.9-0.9c-0.7-0.2-1.3-0.2-2-0.2
				c-1.2,0-2.1,0.2-2.6,0.7c-0.5,0.4-0.9,1-0.9,1.5c0,0.5,0.1,0.9,0.4,1.2c0.3,0.3,0.8,0.5,1.2,0.7c0.5,0.1,1.1,0.3,1.6,0.4
				c0.5,0.1,1.2,0.2,1.9,0.3c0.7,0.1,1.2,0.3,1.6,0.5c0.5,0.2,0.9,0.5,1.2,1c0.3,0.4,0.4,1,0.4,1.7s-0.2,1.4-0.7,2
				c-0.4,0.5-1.1,1-1.9,1.3c-0.8,0.3-1.7,0.4-3,0.4L236,237.8z"/>
			<path d="M242.6,226v-1.5h8.2v1.5H242.6z M248.8,237.8c-1.2,0-2.2-0.3-2.8-1c-0.7-0.7-1-1.6-1-2.8v-12.4h1.7v12.2
				c0,0.8,0.2,1.3,0.5,1.7c0.4,0.4,1,0.7,1.6,0.7c0.7,0,1.4-0.2,2-0.7l0.7,1.3c-0.3,0.3-0.8,0.5-1.3,0.7c-0.5,0.1-1,0.2-1.5,0.2
				L248.8,237.8z"/>
			<path d="M255.2,237.8c-0.3,0-0.7-0.1-1-0.4c-0.2-0.2-0.4-0.5-0.4-1s0.1-0.8,0.4-1c0.2-0.2,0.5-0.3,1-0.3s0.7,0.1,1,0.3
				c0.2,0.2,0.4,0.5,0.4,1s-0.1,0.7-0.4,1C256,237.6,255.7,237.8,255.2,237.8z"/>
			<path d="M265.5,237.7v-1.3l7.3-7.1c0.7-0.7,1.2-1.2,1.5-1.7c0.3-0.5,0.5-1,0.7-1.4c0.1-0.4,0.2-0.9,0.2-1.2c0-1-0.3-1.9-1.1-2.4
				c-0.7-0.5-1.7-0.9-3.1-0.9c-1.3,0-2,0.1-2.7,0.4c-0.8,0.3-1.4,0.8-2.1,1.5l-1.3-1.1c0.7-0.8,1.5-1.4,2.6-1.9
				c1.1-0.4,2.3-0.7,3.6-0.7s2.2,0.2,3.1,0.5c0.9,0.3,1.5,0.9,2,1.6c0.4,0.8,0.8,1.5,0.8,2.5c0,1,0,1.1-0.2,1.6
				c-0.1,0.5-0.4,1.1-0.9,1.7c-0.4,0.7-1,1.3-1.7,2.1l-6.7,6.6l-0.5-0.7h10.9v1.6L265.5,237.7L265.5,237.7z"/>
			<path d="M287,237.9c-1.3,0-2.5-0.3-3.6-1.1c-1.1-0.7-1.9-1.7-2.5-3.1c-0.7-1.3-0.9-3-0.9-4.8s0.3-3.5,0.9-4.8
				c0.5-1.3,1.4-2.3,2.5-3.1c1.1-0.7,2.3-1.1,3.6-1.1s2.5,0.3,3.6,1.1c1.1,0.7,1.9,1.7,2.5,3.1c0.7,1.3,0.9,3,0.9,4.8
				s-0.3,3.5-0.9,4.8c-0.7,1.3-1.4,2.3-2.5,3.1C289.5,237.5,288.3,237.9,287,237.9z M287,236.3c1,0,2-0.3,2.7-0.9
				c0.8-0.5,1.4-1.4,1.9-2.4c0.4-1.1,0.7-2.4,0.7-3.9s-0.2-2.8-0.7-3.9s-1-1.9-1.9-2.4c-0.8-0.5-1.6-0.9-2.7-0.9
				c-1.1,0-1.9,0.3-2.7,0.9c-0.8,0.5-1.4,1.4-1.9,2.4c-0.4,1.1-0.7,2.4-0.7,3.9s0.2,3,0.7,3.9c0.4,1.1,1.1,1.9,1.9,2.4
				C285,236,285.9,236.3,287,236.3z"/>
			<path d="M303.6,237.9c-1.3,0-2.5-0.3-3.6-1.1c-1.1-0.7-1.9-1.7-2.5-3.1c-0.7-1.3-0.9-3-0.9-4.8s0.3-3.5,0.9-4.8
				c0.5-1.3,1.4-2.3,2.5-3.1c1.1-0.7,2.3-1.1,3.6-1.1s2.5,0.3,3.6,1.1c1.1,0.7,1.9,1.7,2.5,3.1c0.7,1.3,0.9,3,0.9,4.8
				s-0.3,3.5-0.9,4.8c-0.7,1.3-1.4,2.3-2.5,3.1C306.1,237.5,304.9,237.9,303.6,237.9z M303.6,236.3c1,0,2-0.3,2.7-0.9
				c0.8-0.5,1.4-1.4,1.9-2.4c0.4-1.1,0.7-2.4,0.7-3.9s-0.2-2.8-0.7-3.9s-1-1.9-1.9-2.4c-0.8-0.5-1.6-0.9-2.7-0.9
				c-1.1,0-1.9,0.3-2.7,0.9c-0.8,0.5-1.4,1.4-1.9,2.4c-0.4,1.1-0.7,2.4-0.7,3.9s0.2,3,0.7,3.9c0.4,1.1,1.1,1.9,1.9,2.4
				C301.6,236,302.5,236.3,303.6,236.3z"/>
			<path d="M318.2,237.9c-1.3,0-2.5-0.2-3.6-0.7s-2.1-1-2.7-1.6l0.9-1.4c0.5,0.5,1.3,1.1,2.3,1.4c1,0.4,2,0.5,3.2,0.5s2.6-0.3,3.4-1
				c0.8-0.7,1.2-1.5,1.2-2.5c0-1-0.3-2-1.1-2.5c-0.8-0.7-2-1-3.6-1h-1.2v-1.3l5.5-6.8l0.2,0.7h-9.7v-1.6h11.3v1.3l-5.5,6.8l-0.9-0.5
				h0.7c2.1,0,3.7,0.4,4.7,1.4c1.1,1,1.5,2.2,1.5,3.6s-0.2,1.9-0.7,2.6c-0.4,0.8-1.2,1.4-2.1,1.9c-1,0.4-2.1,0.7-3.5,0.7
				L318.2,237.9z"/>
		</g>
		<g>
			<polygon points="25.6,179.2 5.2,179.2 5.2,163.6 0,163.6 0,200.1 5.2,200.1 5.2,184 25.6,184 25.6,200.1 30.7,200.1 30.7,163.6 
				25.6,163.6 			"/>
			<path d="M78.2,168.6c-1.7-1.6-3.7-3-6-3.9c-4.7-1.9-10.6-1.9-15.2,0c-2.3,0.9-4.4,2.2-6.1,3.9c-1.7,1.6-3.1,3.6-4,5.9
				c-1,2.2-1.4,4.7-1.4,7.3c0,2.6,0.4,5.1,1.4,7.3c1,2.2,2.3,4.2,4,5.9c1.7,1.6,3.7,3,6.1,3.9c2.3,0.9,4.9,1.4,7.5,1.4
				s5.2-0.4,7.5-1.4c2.3-0.9,4.4-2.2,6-3.8c1.7-1.6,3.1-3.6,4-5.9c1-2.3,1.4-4.7,1.4-7.4s-0.4-5.1-1.4-7.4c-1-2.3-2.3-4.3-4-5.9
				L78.2,168.6z M78.4,181.8c0,2-0.3,3.8-1,5.5c-0.7,1.6-1.6,3.1-2.8,4.4c-1.2,1.2-2.7,2.2-4.4,2.8c-3.4,1.3-7.7,1.3-11,0
				c-1.6-0.7-3.2-1.6-4.4-2.8c-1.2-1.2-2.2-2.7-3-4.4c-0.7-1.6-1-3.5-1-5.5c0-2,0.3-3.8,1-5.5s1.6-3.1,3-4.4
				c1.2-1.2,2.7-2.2,4.4-2.8s3.5-1,5.6-1s3.8,0.3,5.5,1c1.6,0.7,3.2,1.6,4.4,2.8c1.2,1.2,2.2,2.7,2.8,4.4
				C78.1,178,78.4,179.9,78.4,181.8z"/>
			<polygon points="103.6,163.6 98.3,163.6 98.3,200.1 123.1,200.1 123.1,195.3 103.6,195.3 			"/>
			<path d="M160.9,165.9c-3-1.5-6.3-2.3-10.2-2.3h-15v36.5h15c3.8,0,7.2-0.8,10.2-2.3s5.2-3.7,6.9-6.5c1.6-2.7,2.4-5.9,2.4-9.5
				c0-3.6-0.9-6.8-2.4-9.5C166.1,169.6,163.8,167.4,160.9,165.9L160.9,165.9z M164.9,181.8c0,2.6-0.5,5-1.7,7s-2.8,3.6-5,4.7
				c-2.2,1.1-4.7,1.7-7.7,1.7H141v-26.9h9.5c3,0,5.6,0.5,7.7,1.7c2.2,1.1,3.8,2.7,5,4.7S164.9,179.2,164.9,181.8L164.9,181.8z"/>
			<rect x="184.8" y="163.6" width="5.2" height="36.5"/>
			<polygon points="233.4,190.5 212,163.6 207.9,163.6 207.9,200.1 213.1,200.1 213.1,173.3 234.1,199.8 234.4,200.1 238.6,200.1 
				238.6,163.6 233.4,163.6 			"/>
			<path d="M262.5,172.1c1.3-1.2,2.7-2.2,4.5-2.8c3.3-1.3,7.7-1.3,11-0.1c1.6,0.5,3.2,1.5,4.6,3l0.5,0.5l3.4-3.5l-0.5-0.5
				c-1.6-1.7-3.6-3.2-6-4c-4.6-1.7-10.6-1.7-15.2,0c-2.3,0.9-4.4,2.2-6.1,3.8s-3.1,3.6-4,5.9c-1,2.3-1.4,4.7-1.4,7.4
				s0.4,5.1,1.4,7.4c1,2.3,2.3,4.3,4,5.9c1.7,1.6,3.7,3,6.1,3.8c2.3,0.9,4.9,1.4,7.7,1.4s4.9-0.4,7.2-1.2c2.3-0.8,4.4-2,6.1-3.5
				l0.2-0.2v-14.4h-5.1v12.1c-1,0.7-1.9,1.2-3,1.5c-3.5,1.2-7.7,1.1-11-0.1c-1.7-0.7-3.2-1.6-4.5-2.8s-2.3-2.7-3-4.4
				c-0.7-1.6-1.1-3.5-1.1-5.5s0.3-3.8,1.1-5.5c0.7-1.6,1.7-3.1,3-4.4L262.5,172.1z"/>
			<path d="M330,172.1c1.3-1.2,2.7-2.2,4.5-2.8c3.3-1.3,7.7-1.3,11-0.1c1.6,0.5,3.2,1.5,4.5,3l0.5,0.5l3.4-3.5l-0.5-0.5
				c-1.6-1.7-3.6-3.2-5.9-4c-4.6-1.7-10.6-1.7-15.2,0c-2.3,0.9-4.4,2.2-6.1,3.8c-1.7,1.6-3.1,3.6-4,5.9c-1,2.3-1.4,4.7-1.4,7.4
				s0.4,5.1,1.4,7.4c1,2.3,2.3,4.3,4,5.9c1.7,1.6,3.7,3,6.1,3.8c2.3,0.9,4.9,1.4,7.7,1.4c2.7,0,4.9-0.4,7.2-1.2
				c2.3-0.8,4.4-2,6.1-3.5l0.2-0.2v-14.4h-5.1v12.1c-1,0.7-2,1.2-3,1.5c-3.5,1.2-7.7,1.1-11-0.1c-1.7-0.7-3.2-1.6-4.5-2.8
				c-1.2-1.2-2.3-2.7-3-4.4c-0.7-1.6-1.1-3.5-1.1-5.5s0.3-3.8,1.1-5.5c0.7-1.6,1.7-3.1,3-4.4L330,172.1z"/>
			<path d="M392.2,187.5c2.3-1,4-2.5,5.2-4.4c1.2-1.9,1.9-4.2,1.9-6.8s-0.7-5-1.9-6.9c-1.2-1.9-3-3.4-5.2-4.4c-2.2-1-4.9-1.5-8-1.5
				h-13.9v36.5h5.2v-11h8.5c0.8,0,1.5,0,2.4-0.1l8,11.2h6l-8.9-12.4c0.1,0,0.3-0.1,0.4-0.2H392.2z M375.6,168.4h8.5
				c3.3,0,5.8,0.7,7.4,2.1c1.6,1.4,2.4,3.3,2.4,5.9s-0.8,4.5-2.4,5.8c-1.6,1.4-4.2,2.1-7.4,2.1h-8.5v-16V168.4z"/>
			<path d="M444.1,168.6c-1.7-1.6-3.7-3-6-3.9c-4.7-1.9-10.6-1.9-15.2,0c-2.3,0.9-4.4,2.2-6,3.9c-1.7,1.6-3.1,3.6-4,5.9
				c-1,2.2-1.4,4.7-1.4,7.3c0,2.6,0.4,5.1,1.4,7.3c1,2.2,2.3,4.2,4,5.9c1.7,1.6,3.7,3,6.1,3.9c2.3,0.9,4.9,1.4,7.5,1.4
				c2.6,0,5.2-0.4,7.5-1.4c2.3-0.9,4.4-2.2,6-3.8c1.7-1.6,3.1-3.6,4-5.9c1-2.3,1.4-4.7,1.4-7.4s-0.4-5.1-1.4-7.4
				c-1-2.3-2.3-4.3-4-5.9V168.6z M444.2,181.8c0,2-0.3,3.8-1,5.5l0,0c-0.7,1.6-1.6,3.1-2.8,4.4c-1.2,1.2-2.7,2.2-4.4,2.8
				c-3.4,1.3-7.7,1.3-11,0c-1.6-0.7-3.2-1.6-4.4-2.8c-1.2-1.2-2.2-2.7-3-4.4c-0.7-1.6-1-3.5-1-5.5c0-2,0.3-3.8,1-5.5s1.6-3.1,3-4.4
				c1.2-1.2,2.7-2.2,4.4-2.8c1.7-0.7,3.6-1,5.6-1s3.8,0.3,5.5,1c1.6,0.7,3.2,1.6,4.4,2.8c1.2,1.2,2.2,2.7,2.8,4.4
				S444.2,179.9,444.2,181.8z"/>
			<path d="M488.9,184.2c0,3.9-0.9,6.8-2.6,8.5c-1.7,1.7-4.2,2.7-7.3,2.7c-3.2,0-5.6-0.9-7.3-2.7c-1.7-1.7-2.6-4.7-2.6-8.5v-20.7
				h-5.2v20.8c0,5.2,1.4,9.2,4,11.9c2.7,2.7,6.5,4,11,4s8.4-1.4,11-4c2.7-2.7,4-6.7,4-11.9v-20.8h-5.1v20.7H488.9z"/>
			<path d="M538.7,169.5c-1.2-1.9-3-3.4-5.2-4.4c-2.2-1-4.9-1.5-8-1.5h-13.9v36.5h5.2v-11h8.6c3.1,0,5.7-0.5,8-1.5
				c2.3-1,4-2.5,5.2-4.4c1.2-1.9,1.9-4.2,1.9-6.8S539.9,171.3,538.7,169.5z M535.3,176.4c0,2.5-0.8,4.5-2.4,5.8
				c-1.6,1.4-4.2,2.1-7.4,2.1h-8.5v-15.9h8.5c3.3,0,5.8,0.7,7.4,2.1C534.5,171.9,535.3,173.7,535.3,176.4L535.3,176.4z"/>
		</g>
	</g>
</g>
</svg>
