<?xml version="1.0" encoding="UTF-8"?>
<svg id="Layer_1" xmlns="http://www.w3.org/2000/svg" version="1.1" viewBox="0 0 841.9 595.3">
  <!-- Generator: Adobe Illustrator 29.4.0, SVG Export Plug-In . SVG Version: 2.1.0 Build 152)  -->
  <defs>
    <style>
      .st0 {
        fill: #8c734b;
      }

      .st1 {
        fill: #009247;
      }

      .st2 {
        fill: #f9ae42;
      }
    </style>
  </defs>
  <g>
    <g>
      <g>
        <path d="M109.8,378.6l-24.8,55.1h10.5l5.5-12.8h27.6l5.5,12.8h10.8l-24.9-55.1h-10.1ZM104.4,412.9l10.4-24.1,10.3,24.1h-20.7Z"/>
        <polygon points="203.6 378.6 182.1 415.1 160.2 378.6 151.8 378.6 151.8 433.7 161.6 433.7 161.6 397.7 179.7 427.5 184.3 427.5 202.4 397.1 202.4 433.7 212.2 433.7 212 378.6 203.6 378.6"/>
        <path d="M244,378.6l-24.8,55.1h10.5l5.5-12.8h27.6l5.5,12.8h10.8l-24.9-55.1h-10.1ZM238.6,412.9l10.4-24.1,10.3,24.1h-20.7Z"/>
        <polygon points="296.2 378.6 286 378.6 286 433.7 325 433.7 325 425 296.2 425 296.2 378.6"/>
        <path d="M393.6,378.6l-24.8,55.1h10.5l5.5-12.8h27.6l5.5,12.8h10.8l-24.9-55.1h-10.1ZM388.2,412.9l10.4-24.1,10.3,24.1h-20.7Z"/>
        <polygon points="445.8 378.6 435.6 378.6 435.6 433.7 474.6 433.7 474.6 425 445.8 425 445.8 378.6"/>
        <polygon points="553.5 378.6 541.9 378.6 514.7 406.9 514.7 378.6 504.5 378.6 504.5 433.7 514.7 433.7 514.7 419.5 523.5 410.6 542.9 433.7 555 433.7 530.3 403.2 553.5 378.6"/>
        <polygon points="600.6 401.3 572.1 401.3 572.1 378.6 561.9 378.6 561.9 433.7 572.1 433.7 572.1 410.1 600.6 410.1 600.6 433.7 610.8 433.7 610.8 378.6 600.6 378.6 600.6 401.3"/>
        <path d="M642.7,378.6l-24.8,55.1h10.5l5.5-12.8h27.6l5.5,12.8h10.8l-24.9-55.1h-10.1ZM637.3,412.9l10.4-24.1,10.3,24.1h-20.7Z"/>
        <rect x="684.7" y="378.6" width="10.2" height="55.1"/>
        <path d="M756.9,433.7l-12.7-18.1c.3-.1.6-.2.8-.3,3.5-1.6,6.2-3.8,8.1-6.7,1.9-2.9,2.8-6.4,2.8-10.4s-.9-7.6-2.8-10.6c-1.9-2.9-4.6-5.2-8.1-6.7-3.5-1.5-7.7-2.3-12.6-2.3h-22.7v55.1h10.2v-16.1h12.4c.7,0,1.4,0,2.1,0l11.3,16.2h11ZM742.2,390.1c2.3,1.9,3.4,4.6,3.4,8.1s-1.1,6.2-3.4,8.1c-2.3,1.9-5.7,2.9-10.2,2.9h-12v-22h12c4.5,0,7.9,1,10.2,2.9Z"/>
      </g>
      <rect class="st0" x="85" y="460.4" width="671.8" height="1.6"/>
    </g>
    <g>
      <path d="M362,579.1c-1.7,0-3.2-.4-4.5-1.1-1.3-.7-2.3-1.7-3-3-.7-1.3-1.1-2.7-1.1-4.3s.3-3.1,1-4.3c.7-1.2,1.7-2.2,2.9-2.9,1.2-.7,2.6-1.1,4.1-1.1s2.9.3,4.1,1c1.2.7,2.1,1.7,2.8,2.9.7,1.3,1,2.7,1,4.3s0,.2,0,.3c0,.1,0,.2,0,.4h-14.2v-1.7h13.1l-.9.7c0-1.2-.3-2.2-.8-3.2-.5-.9-1.2-1.6-2.1-2.2-.9-.5-1.9-.8-3-.8s-2.1.3-3,.8c-.9.5-1.6,1.2-2.1,2.2-.5.9-.7,2-.7,3.2v.3c0,1.2.3,2.3.8,3.3.6.9,1.3,1.7,2.3,2.2,1,.5,2.1.8,3.4.8s1.9-.2,2.8-.5c.9-.4,1.6-.9,2.2-1.6l1.2,1.4c-.7.9-1.6,1.5-2.7,2-1.1.5-2.3.7-3.6.7Z"/>
      <path d="M378.3,579.1c-1.4,0-2.6-.2-3.8-.6-1.2-.4-2.2-.9-2.8-1.4l1-1.7c.7.5,1.5.9,2.6,1.3,1,.4,2.1.5,3.3.5s2.7-.2,3.4-.7c.7-.5,1-1.1,1-1.9s-.2-1.1-.6-1.4c-.4-.3-.9-.6-1.5-.8-.6-.2-1.3-.3-2.1-.5-.8-.1-1.5-.3-2.3-.4-.8-.2-1.4-.4-2.1-.7-.6-.3-1.1-.8-1.5-1.3-.4-.6-.6-1.3-.6-2.2s.2-1.7.7-2.4c.5-.7,1.2-1.3,2.2-1.7,1-.4,2.1-.6,3.5-.6s2.1.1,3.2.4c1.1.3,1.9.6,2.6,1.1l-1,1.8c-.7-.5-1.5-.9-2.3-1.1-.8-.2-1.7-.3-2.5-.3-1.5,0-2.6.3-3.3.8-.7.5-1,1.2-1,1.9s.2,1.1.6,1.5c.4.4.9.6,1.5.8.6.2,1.3.4,2.1.5.8.1,1.5.3,2.3.5.8.2,1.5.4,2.1.7.6.3,1.1.7,1.5,1.3.4.6.6,1.3.6,2.2s-.3,1.8-.8,2.5c-.5.7-1.3,1.2-2.3,1.6-1,.4-2.2.6-3.7.6Z"/>
      <path d="M386.5,564.4v-1.8h10.1v1.8h-10.1ZM394.3,579.1c-1.5,0-2.7-.4-3.6-1.2-.8-.8-1.2-2-1.2-3.5v-15.4h2.2v15.2c0,1,.2,1.7.7,2.2.5.5,1.2.8,2.1.8s1.8-.3,2.4-.8l.8,1.6c-.4.4-1,.7-1.6.9-.6.2-1.2.3-1.9.3Z"/>
      <path d="M402.3,579.1c-.5,0-.8-.2-1.2-.5-.3-.3-.5-.7-.5-1.2s.2-.9.5-1.2c.3-.3.7-.5,1.2-.5s.8.2,1.2.5c.3.3.5.7.5,1.2s-.2.9-.5,1.2c-.3.3-.7.5-1.2.5Z"/>
      <path d="M415,578.9v-1.6l9.1-8.9c.8-.8,1.5-1.5,1.9-2.1.4-.6.7-1.2.8-1.7.1-.5.2-1.1.2-1.5,0-1.3-.4-2.3-1.3-3-.9-.7-2.1-1.1-3.8-1.1s-2.4.2-3.4.6c-1,.4-1.8,1-2.5,1.8l-1.6-1.4c.9-1,1.9-1.8,3.3-2.3,1.3-.5,2.8-.8,4.5-.8s2.8.2,3.8.7c1.1.5,1.9,1.1,2.5,2,.6.9.9,1.9.9,3.1s0,1.4-.3,2.1c-.2.7-.6,1.4-1.1,2.2-.5.8-1.3,1.6-2.2,2.6l-8.3,8.2-.6-.9h13.5v2h-15.3Z"/>
      <path d="M441.7,579.1c-1.7,0-3.2-.4-4.5-1.3-1.3-.9-2.3-2.2-3.1-3.8-.7-1.7-1.1-3.6-1.1-6s.4-4.3,1.1-6c.7-1.7,1.8-2.9,3.1-3.8,1.3-.9,2.8-1.3,4.5-1.3s3.2.4,4.5,1.3c1.3.9,2.3,2.1,3.1,3.8.8,1.7,1.1,3.6,1.1,6s-.4,4.3-1.1,6c-.8,1.7-1.8,2.9-3.1,3.8-1.3.9-2.8,1.3-4.5,1.3ZM441.7,577.1c1.3,0,2.4-.3,3.4-1,1-.7,1.7-1.7,2.2-3.1.5-1.3.8-3,.8-4.9s-.3-3.6-.8-4.9c-.5-1.3-1.3-2.4-2.2-3.1-1-.7-2.1-1-3.4-1s-2.4.3-3.3,1c-1,.7-1.7,1.7-2.3,3.1-.5,1.3-.8,3-.8,4.9s.3,3.6.8,4.9c.5,1.3,1.3,2.4,2.3,3.1,1,.7,2.1,1,3.3,1Z"/>
      <path d="M462.3,579.1c-1.7,0-3.2-.4-4.5-1.3-1.3-.9-2.3-2.2-3.1-3.8-.7-1.7-1.1-3.6-1.1-6s.4-4.3,1.1-6c.7-1.7,1.8-2.9,3.1-3.8,1.3-.9,2.8-1.3,4.5-1.3s3.2.4,4.5,1.3c1.3.9,2.3,2.1,3.1,3.8.8,1.7,1.1,3.6,1.1,6s-.4,4.3-1.1,6c-.8,1.7-1.8,2.9-3.1,3.8-1.3.9-2.8,1.3-4.5,1.3ZM462.3,577.1c1.3,0,2.4-.3,3.4-1,1-.7,1.7-1.7,2.2-3.1.5-1.3.8-3,.8-4.9s-.3-3.6-.8-4.9c-.5-1.3-1.3-2.4-2.2-3.1-1-.7-2.1-1-3.4-1s-2.4.3-3.3,1c-1,.7-1.7,1.7-2.3,3.1-.5,1.3-.8,3-.8,4.9s.3,3.6.8,4.9c.5,1.3,1.3,2.4,2.3,3.1,1,.7,2.1,1,3.3,1Z"/>
      <path d="M480.5,579.1c-1.6,0-3.1-.3-4.5-.8-1.4-.5-2.5-1.2-3.4-2l1.1-1.8c.7.7,1.7,1.3,2.9,1.8,1.2.5,2.5.7,3.9.7s3.2-.4,4.2-1.2c1-.8,1.4-1.8,1.4-3.2s-.5-2.4-1.4-3.2c-.9-.8-2.4-1.2-4.5-1.2h-1.6v-1.7l6.7-8.5.3.9h-12.2v-2h14v1.6l-6.7,8.5-1.1-.7h.8c2.6,0,4.6.6,5.9,1.7,1.3,1.2,1.9,2.7,1.9,4.5s-.3,2.3-.9,3.3c-.6,1-1.5,1.7-2.6,2.3-1.2.6-2.6.8-4.4.8Z"/>
    </g>
    <g>
      <polygon points="116.8 506.1 91.6 506.1 91.6 486.8 85 486.8 85 532.1 91.6 532.1 91.6 512.1 116.8 512.1 116.8 532.1 123.2 532.1 123.2 486.8 116.8 486.8 116.8 506.1"/>
      <path d="M182.2,492.9c-2.1-2.1-4.7-3.7-7.5-4.8-5.8-2.3-13.2-2.3-18.9,0-2.9,1.1-5.4,2.8-7.5,4.9-2.1,2.1-3.8,4.5-5,7.3-1.2,2.8-1.8,5.9-1.8,9.2s.6,6.4,1.8,9.1c1.2,2.8,2.8,5.2,5,7.3,2.1,2.1,4.7,3.7,7.6,4.8,2.9,1.1,6.1,1.7,9.4,1.7s6.5-.6,9.4-1.7c2.9-1.1,5.4-2.8,7.5-4.8,2.1-2.1,3.8-4.5,5-7.3,1.2-2.8,1.8-5.9,1.8-9.2s-.6-6.4-1.8-9.2c-1.2-2.8-2.9-5.3-5-7.3ZM182.4,509.4c0,2.5-.4,4.7-1.3,6.8-.9,2-2.1,3.8-3.6,5.4-1.5,1.5-3.4,2.7-5.4,3.6-4.2,1.7-9.5,1.7-13.7,0-2.1-.8-3.9-2-5.5-3.6-1.5-1.5-2.8-3.3-3.6-5.4-.9-2.1-1.3-4.3-1.3-6.7s.4-4.7,1.3-6.8c.9-2,2.1-3.8,3.6-5.4,1.6-1.5,3.4-2.7,5.5-3.6,2.1-.8,4.4-1.3,6.9-1.3s4.8.4,6.9,1.3c2.1.8,3.9,2,5.4,3.6,1.5,1.5,2.7,3.3,3.6,5.4.9,2.1,1.3,4.3,1.3,6.8Z"/>
      <polygon points="213.8 486.8 207.2 486.8 207.2 532.1 238 532.1 238 526.2 213.8 526.2 213.8 486.8"/>
      <path d="M284.9,489.6c-3.6-1.9-7.9-2.9-12.6-2.9h-18.6v45.3h18.6c4.8,0,9-1,12.6-2.9,3.6-1.9,6.5-4.6,8.5-8,2-3.4,3-7.4,3-11.8s-1-8.4-3-11.8c-2-3.4-4.9-6.1-8.5-8ZM290,509.4c0,3.3-.7,6.2-2.2,8.7-1.5,2.5-3.6,4.5-6.2,5.9-2.7,1.4-5.9,2.1-9.5,2.1h-11.8v-33.5h11.8c3.7,0,6.9.7,9.5,2.1,2.7,1.4,4.7,3.4,6.2,5.9,1.5,2.5,2.2,5.4,2.2,8.7Z"/>
      <rect x="314.7" y="486.8" width="6.6" height="45.3"/>
      <polygon points="375 520.1 348.6 486.8 343.3 486.8 343.3 532.1 349.9 532.1 349.9 498.8 376 531.7 376.3 532.1 381.5 532.1 381.5 486.8 375 486.8 375 520.1"/>
      <path d="M411.3,497.3c1.6-1.5,3.4-2.7,5.6-3.6,4.1-1.6,9.5-1.7,13.8-.1,2,.7,3.9,2,5.6,3.7l.7.7,4.2-4.3-.6-.7c-2-2.2-4.5-3.9-7.4-5-5.7-2.2-13.1-2.2-18.9,0-2.9,1.1-5.5,2.8-7.6,4.8-2.1,2.1-3.8,4.5-5,7.3-1.2,2.8-1.8,5.9-1.8,9.2s.6,6.4,1.8,9.2c1.2,2.8,2.9,5.3,5,7.3,2.1,2.1,4.7,3.7,7.6,4.8,2.9,1.1,6.1,1.7,9.5,1.7s6.1-.5,9-1.4c2.9-1,5.4-2.4,7.6-4.3l.3-.3v-18h-6.4v15c-1.2.8-2.4,1.4-3.6,1.9-4.3,1.5-9.6,1.4-13.7-.2-2.1-.8-4-2-5.6-3.6-1.6-1.5-2.8-3.3-3.7-5.4-.9-2.1-1.3-4.3-1.3-6.7s.4-4.7,1.3-6.8c.9-2,2.1-3.8,3.7-5.4Z"/>
      <path d="M495.2,497.3c1.6-1.5,3.5-2.7,5.6-3.6,4.1-1.6,9.5-1.7,13.8-.1,2,.7,3.9,2,5.6,3.7l.7.7,4.2-4.3-.6-.7c-2-2.2-4.5-3.9-7.4-5-5.7-2.1-13.1-2.2-18.9,0-2.9,1.1-5.5,2.8-7.6,4.8-2.2,2.1-3.8,4.5-5,7.3-1.2,2.8-1.8,5.9-1.8,9.2s.6,6.4,1.8,9.2c1.2,2.8,2.9,5.3,5,7.3,2.1,2.1,4.7,3.7,7.6,4.8,2.9,1.1,6.1,1.7,9.5,1.7s6.1-.5,9-1.4c2.9-1,5.4-2.4,7.6-4.3l.3-.3v-18h-6.4v15c-1.2.8-2.4,1.4-3.6,1.9-4.3,1.4-9.6,1.4-13.7-.2-2.1-.8-4-2-5.6-3.6-1.6-1.5-2.8-3.3-3.7-5.4-.9-2.1-1.3-4.3-1.3-6.7s.4-4.7,1.3-6.8c.9-2,2.1-3.8,3.7-5.4Z"/>
      <path d="M572.4,516.5c2.8-1.2,5-3.1,6.5-5.4,1.5-2.4,2.3-5.2,2.3-8.4s-.8-6.2-2.3-8.5c-1.5-2.4-3.7-4.2-6.5-5.4-2.8-1.2-6.1-1.9-9.9-1.9h-17.2v45.3h6.6v-13.8h10.7c.9,0,1.9,0,3-.2l9.9,13.9h7.4l-11-15.4c.2,0,.4-.1.5-.2ZM551.9,492.7h10.5c4.1,0,7.2.9,9.2,2.6,2,1.7,3,4.1,3,7.3s-1,5.5-3,7.2c-2.1,1.7-5.2,2.6-9.2,2.6h-10.5v-19.8Z"/>
      <path d="M636.9,492.9c-2.1-2.1-4.7-3.7-7.5-4.8-5.8-2.3-13.2-2.3-18.9,0-2.9,1.1-5.4,2.8-7.5,4.9-2.1,2.1-3.8,4.5-5,7.3-1.2,2.8-1.8,5.9-1.8,9.2s.6,6.4,1.8,9.1c1.2,2.8,2.8,5.2,5,7.3,2.1,2.1,4.7,3.7,7.6,4.8,2.9,1.1,6.1,1.7,9.4,1.7s6.5-.6,9.4-1.7c2.9-1.1,5.4-2.8,7.5-4.8,2.1-2.1,3.8-4.5,5-7.3,1.2-2.8,1.8-5.9,1.8-9.2s-.6-6.4-1.8-9.2c-1.2-2.8-2.9-5.3-5-7.3ZM637.2,509.4c0,2.5-.4,4.7-1.3,6.8h0c-.9,2-2.1,3.9-3.6,5.4-1.5,1.5-3.3,2.7-5.4,3.6-4.2,1.7-9.5,1.7-13.7,0-2.1-.8-4-2-5.5-3.6-1.5-1.5-2.8-3.3-3.6-5.4-.9-2.1-1.3-4.3-1.3-6.7s.4-4.7,1.3-6.8c.9-2,2.1-3.8,3.6-5.4,1.6-1.5,3.4-2.7,5.5-3.6,2.1-.8,4.4-1.3,6.9-1.3s4.8.4,6.8,1.3c2.1.8,3.9,2,5.4,3.6,1.5,1.5,2.8,3.3,3.6,5.4.9,2,1.3,4.3,1.3,6.8Z"/>
      <path d="M692.8,512.4c0,4.8-1.1,8.4-3.2,10.7-2.1,2.2-5.2,3.3-9.1,3.3s-7-1.1-9.1-3.3c-2.1-2.2-3.2-5.8-3.2-10.7v-25.6h-6.5v25.8c0,6.5,1.7,11.5,5.1,14.8,3.4,3.4,8,5.1,13.8,5.1s10.4-1.7,13.7-5.1c3.3-3.4,5-8.3,5-14.8v-25.8h-6.4v25.6Z"/>
      <path d="M754.6,494.1c-1.5-2.4-3.7-4.2-6.5-5.4-2.8-1.2-6.1-1.9-9.9-1.9h-17.2v45.3h6.5v-13.7h10.7c3.8,0,7.1-.6,9.9-1.9,2.8-1.3,5-3.1,6.5-5.5,1.5-2.4,2.3-5.2,2.3-8.4s-.8-6.2-2.3-8.5ZM750.3,502.6c0,3.2-1,5.5-3,7.2-2,1.7-5.2,2.6-9.2,2.6h-10.5v-19.7h10.5c4.1,0,7.2.9,9.2,2.6,2,1.7,3,4.1,3,7.3Z"/>
    </g>
  </g>
  <g>
    <g>
      <path d="M503.5,279.3l7,49.1,15.5-25.2-4.8-34.2c.5-.4,1-.7,1.4-1.1,2-1.6,3.7-3.2,5.2-4.7,1.9,1.9,4,3.6,6.1,5.2,2.2,1.5,4.7,3.1,7.5,4.8,4,2.3,8,4.2,12,5.7,4,1.5,7.5,2.3,10.5,2.4,3.4.2,6.7-1.2,9.8-4.2,3.1-3,6.1-7.1,9-12.4.6-.9,1-2.1,1.1-3.4.2-1.4.2-2.9.1-4.4-.2-1.7-.4-3.3-.7-5.1-.3-1.7-.8-3.5-1.4-5.4-.9-3-2.1-5.9-3.4-8.9-1.4-2.9-2.9-5.6-4.5-8-1.6-2.4-3.3-4.4-5.1-6.1-1.7-1.6-3.4-2.6-5-2.9-3.2-.6-6,0-8.5,1.8-4.5,2.9-8.3,6.2-11.5,9.9-3.2,3.7-6,7.7-8.4,11.9l-13.2,13.7c.4.5.7.9.9,1.2.2.3.6.8,1.1,1.4-1.3.6-2.6,1.1-4,1.6l-15.2-108.9-16.9,19.3,13.3,92.8h-6.5l-11.1-90.5-16.6,17.1,11.1,90.2h-.1c0,.1.1.1.1.1l2.4,17.9c-1.9-.7-3.9-1.4-5.9-2.2-2-.8-3.9-1.6-5.9-2.6-3.9-1.8-7.8-3.9-11.7-6.3-3.9-2.4-7.5-4.8-10.9-7.4-3.3-2.6-6.3-5.2-8.8-7.9-2.5-2.7-4.4-5.4-5.4-7.9.4,0,.8,0,1.2-.1.4,0,.8-.2,1.2-.2,2.2-.3,4.6-.6,7.2-.7,2.7-.1,5.7-.3,9-.4l16.5-17c-3.2,0-6.1.1-8.7.3-2.7.2-5.2.5-7.6.8-2.3.4-4.5.9-6.4,1.3-2,.5-3.6.9-5,1.4-2.6,1.2-6.4,4.3-11.5,9.4-4.5,4.6-7.8,8.2-9.9,10.9-2.1,2.7-3.2,4.5-3.3,5.4-.4,2.7.4,5.7,2.6,8.9,2.1,3.2,5,6.4,8.7,9.6,3.7,3.2,7.8,6.3,12.5,9.2,4.7,2.9,9.4,5.6,14.1,7.8,2.9,1.5,5.8,2.8,8.6,3.9,2.8,1.1,5.4,1.8,7.9,2.2,2.5.6,4.7.9,6.6.9s3.5-.3,4.6-1c5-2.8,9-5.7,12-8.5,3-2.8,5-5.7,5.9-8.5.3-.8.5-1.6.6-2.4.2-.8.2-1.9,0-3.2l-1.7-13.5,6.3-3ZM562.6,263.8c-2.7-1.2-5.3-2.5-7.9-3.9-2.9-1.7-5.8-3.6-8.5-5.6-2.8-2-5.1-3.9-7.1-5.9,1.7-2.3,3-4.5,4.2-6.6,1.1-2.2,2.2-4.4,3.3-6.9,0-.3.3-.5.5-.6,1.2-.2,2.4-.2,3.6.1,1.6.3,3.3,1.3,5,2.9,1.7,1.6,3.4,3.6,5.1,6.1,1.6,2.4,3.1,5.1,4.6,8,1.4,2.9,2.6,5.9,3.5,8.9.3,1.2.6,2.3.9,3.2.3,1,.5,2.1.6,3.2-2.4-.7-5-1.7-7.7-2.9Z"/>
      <path d="M466.3,149.7c.6.6,1.5.7,2.6.3,1.1-.4,2.6-.9,4.4-1.5,1.9-.7,4-1.3,6.5-2,2.4-.7,5-1,7.7-.9l-5.6,6.2,4.2,17.1,15.6-17.2v-.3s.2.1.2.1l-4.1-17.2c-2.7-2.3-5.4-3.9-8-4.7-2.6-.8-5.2-1.2-7.6-1.2-2.4,0-4.8.4-7,1.1-2.2.7-4.2,1.3-6.1,1.9-1.1.3-2.1.7-2.9,1.1-.8.4-1.6.5-2.3.4.4-2.8,1.1-5.3,2.1-7.7,1-2.3,2.2-4.1,3.5-5.2l-4.3-17.3c-1.4,1.4-2.7,3.5-3.8,6.4-1.1,2.9-1.8,6-2.2,9.2-.5,5.7-.3,11.3.6,16.8.9,5.5,3.1,10.3,6.4,14.4Z"/>
      <polygon points="330 233.5 321.5 228.1 310.5 237.3 320.2 243.4 326.5 237.9 335.1 243.4 345.9 234.1 336.3 228.1 330 233.5"/>
      <polygon points="396.8 173.3 383.9 166.9 374.9 180.6 387.8 187 396.8 173.3"/>
      <path d="M416.2,221.8l5.5,41.4,16.7-17.1-3.3-24.3h4.4l16.5-16.2-11.9-86.7-16.5,16.2,10.7,74.2h-5l-9.9-73.1-16.5,17.1,7.5,56.4c-.7-.2-1.4-.4-2.1-.6-2.4-.8-4.8-2-7.4-3.3-2.5-1.4-5.1-2.9-7.7-4.7-2.6-1.7-5.3-3.5-7.9-5.4-3.2-2.1-6.2-4.1-9.3-6.1-3-2-5.9-3.6-8.7-4.9-2.8-1.3-5.4-2.1-7.9-2.5-2.5-.4-4.7,0-6.7.9-2.7,1.3-5,2.7-6.9,4.1-1.9,1.5-3.5,3-4.7,4.5-1.2,1.5-2.2,3.1-2.8,4.7-.7,1.6-1.1,3.2-1.2,4.9-.2,1.3-.3,2.6,0,3.9.2,1.3.4,2.7.7,4.1l10.8-11.9c-.1-.6-.2-1.3-.3-1.9-.1-.7-.2-1.4-.3-2.1,2.1.2,4.4.9,7,2.1,2.6,1.2,5.3,2.7,8,4.4,2.7,1.7,5.5,3.5,8.2,5.4,2.8,1.9,5.4,3.6,7.9,5.1h-45.7l-5.6-32.6-13.6,11.5,2.9,16.4c-2-1-3.7-2.3-5.2-3.7-2.2-2-4-4.3-5.4-6.9-1.4-2.5-2.6-5.1-3.5-7.6-.9-2.6-1.7-5-2.3-7.3-.6-2.3-1.2-4.2-1.7-5.7-.5-1.2-1-2.5-1.4-3.7-.5-1.2-.9-2.4-1.4-3.6l-6.2,6.4-6.1,6.3c1.2,2.8,2.2,5.8,3.2,9,.9,3.2,1.7,6.5,2.4,9.8,1,4.4,1.8,8.7,2.3,12.6.6,4,.9,7.4,1,10.1,0,.7-.1,1.3-.6,1.8-.5.5-1.2,1-2.1,1.4-.9.4-2,.8-3.1,1.1-1.2.3-2.5.7-3.8,1.1-2.1.5-4.2,1-6.4,1.6-2.2.6-4.3,1.3-6.3,2-2.1.8-4.1,1.6-6,2.7-1.9,1.1-3.6,2.3-5.2,3.7l-12.1,12.5c1.5-1.4,3.3-2.5,5.1-3.6,1.9-1,3.8-1.9,5.9-2.7,2-.8,4.1-1.5,6.3-2,2.2-.6,4.3-1.1,6.5-1.6,4.2-1,8.2-2.1,12.1-3.3,3.9-1.1,7.3-2.6,10.4-4.4,3.1-1.8,5.7-3.9,7.7-6.5,2-2.6,3.3-5.9,3.9-9.8,0,0,.2.1.3.2l-.3.2h.6c1.9,1.7,3.8,3,5.6,4,1.1.6,2.3,1,3.5,1.3.4.2,1,.3,1.8.3,0,0,.1,0,.2,0,.5,0,.9,0,1.4,0h0c18.6.3,68.4.4,90.1.4h0s3.9,0,3.9,0Z"/>
    </g>
    <g>
      <path class="st2" d="M571.9,171.6c-18.6,41.5-39.1,72.6-43.9,70-4.8-2.7,6.2-41.7,24.8-83.2,18.6-41.5,31.3-99.7,36.1-97,4.8,2.6,1.6,68.7-17,110.2"/>
      <path class="st1" d="M554.6,128.9c-12.1,43.8-27.6,77.7-32.8,75.8-5.1-1.9-.2-42.1,11.9-86,12.1-43.8,15.8-103.3,20.9-101.4,5.1,1.9,12,67.7,0,111.5"/>
      <path class="st0" d="M535.9,81.9c-8.8,46.9-16,80.4-21.3,79.1-5.3-1.3-3.3-41.8,3.7-86.8,7-44.9,5.6-59.3,10.9-58,5.3,1.3,12.4,35.4,6.7,65.6"/>
    </g>
  </g>
</svg>