<svg width="787" height="228" viewBox="0 0 787 228" fill="none" xmlns="http://www.w3.org/2000/svg">
<g clip-path="url(#clip0_238_42)">
<path d="M723.388 192.146L728.496 228.012L739.782 209.637L736.318 184.668C736.651 184.405 737.008 184.142 737.342 183.867C738.794 182.684 740.068 181.549 741.151 180.45C742.544 181.848 744.033 183.102 745.604 184.237C747.176 185.36 748.985 186.531 751.045 187.75C753.95 189.446 756.855 190.844 759.76 191.931C762.665 193.019 765.201 193.604 767.391 193.664C769.868 193.795 772.249 192.768 774.511 190.605C776.785 188.455 778.976 185.432 781.095 181.537C781.512 180.868 781.785 180.032 781.904 179.028C782.035 178.025 782.059 176.95 782 175.791C781.881 174.584 781.714 173.342 781.5 172.099C781.285 170.857 780.94 169.542 780.464 168.145C779.797 165.958 778.976 163.808 777.964 161.669C776.964 159.543 775.868 157.607 774.69 155.839C773.511 154.071 772.285 152.601 771.011 151.419C769.737 150.236 768.522 149.519 767.38 149.28C765.07 148.85 763.022 149.28 761.2 150.558C757.938 152.685 755.14 155.098 752.795 157.798C750.462 160.498 748.426 163.402 746.676 166.508L737.056 176.532C737.353 176.902 737.58 177.189 737.734 177.392C737.889 177.607 738.139 177.953 738.508 178.443C737.58 178.885 736.603 179.267 735.603 179.614L724.579 100.105L712.268 114.179L721.924 181.932L717.221 181.932L709.137 115.888L697.077 128.372L705.149 194.237L705.065 194.321L705.149 194.321L706.875 207.355C705.482 206.865 704.053 206.34 702.601 205.766C701.148 205.193 699.732 204.56 698.339 203.891C695.493 202.552 692.648 201.011 689.814 199.291C686.969 197.559 684.326 195.755 681.921 193.879C679.504 191.991 677.373 190.068 675.527 188.096C673.682 186.125 672.36 184.19 671.575 182.314C671.884 182.314 672.17 182.29 672.444 182.218C672.718 182.159 673.003 182.099 673.301 182.039C674.873 181.8 676.635 181.621 678.575 181.537C680.504 181.442 682.683 181.334 685.111 181.215L697.1 168.814C694.791 168.814 692.671 168.897 690.743 169.053C688.802 169.196 686.957 169.387 685.207 169.65C683.504 169.949 681.944 170.271 680.528 170.606C679.111 170.94 677.885 171.275 676.849 171.645C674.968 172.493 672.194 174.775 668.503 178.479C665.241 181.824 662.836 184.464 661.288 186.4C659.74 188.347 658.943 189.65 658.883 190.319C658.574 192.314 659.205 194.5 660.74 196.842C662.276 199.183 664.384 201.513 667.051 203.855C669.717 206.196 672.73 208.442 676.123 210.593C679.516 212.743 682.933 214.643 686.385 216.28C688.505 217.367 690.6 218.311 692.648 219.099C694.695 219.888 696.6 220.425 698.362 220.736C700.184 221.166 701.779 221.369 703.184 221.369C704.589 221.369 705.696 221.13 706.542 220.641C710.173 218.586 713.09 216.519 715.304 214.452C717.507 212.385 718.947 210.318 719.614 208.251C719.804 207.642 719.947 207.057 720.066 206.471C720.185 205.898 720.185 205.121 720.066 204.153L718.793 194.309L723.412 192.135L723.388 192.146ZM766.439 180.761C764.475 179.889 762.546 178.933 760.677 177.893C758.557 176.615 756.486 175.265 754.462 173.831C752.426 172.41 750.724 170.964 749.331 169.507C750.545 167.858 751.545 166.257 752.366 164.68C753.188 163.103 753.986 161.43 754.771 159.674C754.831 159.423 754.962 159.268 755.141 159.208C756.045 159.029 756.914 159.065 757.772 159.304C758.926 159.543 760.141 160.259 761.403 161.442C762.677 162.637 763.903 164.106 765.082 165.863C766.26 167.631 767.368 169.566 768.392 171.693C769.427 173.82 770.273 175.97 770.939 178.156C771.177 179.005 771.392 179.793 771.57 180.522C771.761 181.251 771.904 182.039 772.035 182.887C770.273 182.338 768.415 181.633 766.451 180.749" fill="#3A383C"/>
<path d="M696.327 97.4651C696.779 97.8713 697.41 97.943 698.243 97.6682C699.065 97.3934 700.148 97.047 701.47 96.6049C702.839 96.127 704.411 95.6491 706.173 95.1593C707.947 94.6814 709.804 94.4544 711.744 94.5022L707.661 99.0302L710.732 111.515L722.043 98.9346L722.067 98.7196L722.162 98.8032L719.162 86.2467C717.197 84.5502 715.257 83.4152 713.352 82.8179C711.435 82.2325 709.59 81.9457 707.828 81.9696C706.054 82.0055 704.363 82.2683 702.744 82.7701C701.137 83.2719 699.66 83.7497 698.339 84.1798C697.529 84.4307 696.827 84.6816 696.231 84.9684C695.636 85.2431 695.077 85.3507 694.553 85.279C694.85 83.2599 695.374 81.3962 696.1 79.6758C696.827 77.9673 697.684 76.7009 698.66 75.8646L695.553 63.2245C694.517 64.24 693.6 65.817 692.814 67.9197C692.017 70.0344 691.481 72.2685 691.207 74.634C690.838 78.8036 690.993 82.8895 691.672 86.9157C692.362 90.93 693.91 94.4425 696.327 97.4532" fill="#3A383C"/>
<path d="M597.212 158.706L591.009 154.728L583.021 161.466L590.045 165.875L594.664 161.884L600.867 165.875L608.784 159.136L601.76 154.728L597.212 158.706Z" fill="#3A383C"/>
<path d="M645.787 114.693L636.381 110.069L629.821 120.093L639.227 124.705L645.787 114.693Z" fill="#3A383C"/>
<path d="M659.895 150.104L663.895 180.355L676.063 167.882L673.67 150.104L676.861 150.104L688.838 138.301L680.218 75.0283L668.241 86.8321L676.063 140.977L672.444 140.977L665.265 87.6087L653.287 100.094L658.74 141.263C658.228 141.132 657.716 140.989 657.193 140.798C655.466 140.188 653.68 139.376 651.835 138.36C649.99 137.357 648.109 136.21 646.204 134.943C644.299 133.665 642.37 132.351 640.441 131.001C638.143 129.484 635.893 128.002 633.703 126.568C631.512 125.135 629.393 123.94 627.369 122.996C625.333 122.052 623.416 121.431 621.606 121.144C619.797 120.858 618.178 121.085 616.737 121.825C614.773 122.769 613.094 123.773 611.725 124.836C610.344 125.911 609.213 127.011 608.308 128.134C607.403 129.257 606.724 130.415 606.248 131.586C605.772 132.757 605.486 133.94 605.355 135.135C605.189 136.078 605.165 137.034 605.284 137.99C605.415 138.97 605.57 139.961 605.784 140.977L613.665 132.291C613.582 131.837 613.499 131.359 613.415 130.869C613.332 130.38 613.249 129.866 613.165 129.34C614.689 129.46 616.392 129.973 618.273 130.869C620.154 131.777 622.107 132.853 624.095 134.071C626.083 135.302 628.083 136.604 630.095 137.978C632.107 139.352 634.012 140.606 635.822 141.717L602.569 141.717L598.486 117.943L588.628 126.33L590.699 138.301C589.283 137.536 588.009 136.64 586.913 135.601C585.342 134.107 584.032 132.446 583.008 130.595C581.973 128.743 581.115 126.879 580.449 125.015C579.782 123.14 579.222 121.371 578.77 119.699C578.318 118.038 577.913 116.64 577.556 115.505C577.186 114.597 576.841 113.701 576.508 112.805C576.174 111.897 575.829 111.025 575.46 110.165L570.948 114.836L566.495 119.436C567.34 121.467 568.114 123.665 568.781 126.031C569.46 128.396 570.043 130.786 570.531 133.175C571.246 136.425 571.817 139.495 572.222 142.41C572.627 145.326 572.865 147.787 572.96 149.818C573.008 150.308 572.853 150.761 572.496 151.132C572.138 151.514 571.627 151.849 570.984 152.147C570.329 152.446 569.567 152.721 568.698 152.96C567.817 153.211 566.876 153.473 565.9 153.736C564.376 154.095 562.816 154.501 561.245 154.919C559.673 155.349 558.126 155.839 556.637 156.365C555.125 156.914 553.673 157.571 552.28 158.336C550.887 159.113 549.625 160.009 548.506 161.036L539.743 170.176C540.862 169.172 542.112 168.312 543.482 167.571C544.851 166.83 546.279 166.173 547.756 165.612C549.232 165.05 550.768 164.549 552.339 164.13C553.911 163.7 555.494 163.306 557.054 162.936C560.114 162.171 563.043 161.371 565.852 160.534C568.662 159.698 571.186 158.635 573.448 157.356C575.686 156.066 577.556 154.477 579.044 152.577C580.52 150.678 581.472 148.288 581.877 145.409C581.937 145.457 581.996 145.505 582.068 145.564L581.877 145.72L582.342 145.803C583.711 146.974 585.068 147.918 586.425 148.623C587.223 149.041 588.08 149.34 588.985 149.543C589.295 149.662 589.735 149.746 590.33 149.758C590.366 149.758 590.414 149.758 590.461 149.758C590.807 149.782 591.152 149.818 591.497 149.818L591.533 149.782C605.046 150.033 641.322 150.081 657.097 150.092L659.907 150.092L659.895 150.104Z" fill="#3A383C"/>
<path d="M773.19 113.462C759.641 143.748 744.747 166.484 741.259 164.56C737.782 162.625 745.771 134.143 759.332 103.857C772.88 73.5707 782.071 31.0865 785.56 33.01C789.036 34.9455 786.75 83.1882 773.19 113.462Z" fill="#F9AE42"/>
<path d="M760.581 82.2922C751.759 114.287 740.484 139.029 736.746 137.655C733.008 136.282 736.603 106.903 745.425 74.8969C754.247 42.9023 756.914 -0.501755 760.641 0.884118C764.367 2.25804 769.403 50.2977 760.581 82.2922Z" fill="#009247"/>
<path d="M746.973 47.9799C740.544 82.2205 735.329 106.653 731.46 105.721C727.591 104.777 729.055 75.1717 734.186 42.3767C739.306 9.58167 738.234 -0.884068 742.104 0.0597594C745.973 1.00359 751.128 25.9015 746.985 47.9799" fill="#8C734B"/>
<path d="M18.049 69.5446L1.37713e-10 109.783L7.61962 109.783L11.608 100.476L31.6572 100.476L35.6336 109.783L43.4795 109.783L25.3829 69.5446L18.049 69.5446ZM14.1201 94.6097L21.6564 76.9996L29.1689 94.6097L14.1201 94.6097Z" fill="#3A383C"/>
<path d="M86.2804 69.5446L70.6245 96.2107L54.7066 69.5446L48.5752 69.5446L48.5752 109.783L55.6829 109.783L55.6829 83.475L68.8624 105.243L72.2437 105.243L85.3637 83.0568L85.3637 109.783L92.519 109.783L92.3999 69.5446L86.2804 69.5446Z" fill="#3A383C"/>
<path d="M115.664 69.5446L97.6147 109.783L105.234 109.783L109.223 100.476L129.272 100.476L133.248 109.783L141.094 109.783L122.998 69.5446L115.664 69.5446ZM111.735 94.6097L119.271 76.9996L126.784 94.6097L111.735 94.6097Z" fill="#3A383C"/>
<path d="M153.643 69.5446L146.202 69.5446L146.202 109.783L174.609 109.783L174.609 103.463L153.643 103.463L153.643 69.5446Z" fill="#3A383C"/>
<path d="M224.505 69.5446L206.456 109.783L214.076 109.783L218.064 100.476L238.125 100.476L242.09 109.783L249.936 109.783L231.839 69.5446L224.505 69.5446ZM220.576 94.6097L228.112 76.9996L235.625 94.6097L220.576 94.6097Z" fill="#3A383C"/>
<path d="M262.484 69.5446L255.043 69.5446L255.043 109.783L283.462 109.783L283.462 103.463L262.484 103.463L262.484 69.5446Z" fill="#3A383C"/>
<path d="M340.8 69.5446L332.382 69.5446L312.619 90.1893L312.619 69.5446L305.166 69.5446L305.166 109.783L312.619 109.783L312.619 99.4245L318.977 92.9491L333.12 109.783L341.883 109.783L323.929 87.5251L340.8 69.5446Z" fill="#3A383C"/>
<path d="M375.112 86.1511L354.384 86.1511L354.384 69.5446L346.931 69.5446L346.931 109.783L354.384 109.783L354.384 92.5429L375.112 92.5429L375.112 109.783L382.505 109.783L382.505 69.5446L375.112 69.5446L375.112 86.1511Z" fill="#3A383C"/>
<path d="M405.71 69.5445L387.661 109.783L395.28 109.783L399.269 100.476L419.33 100.476L423.294 109.783L431.14 109.783L413.044 69.5445L405.71 69.5445ZM401.781 94.6097L409.317 76.9995L416.83 94.6097L401.781 94.6097Z" fill="#3A383C"/>
<path d="M443.7 69.5446L436.248 69.5446L436.248 109.783L443.7 109.783L443.7 69.5446Z" fill="#3A383C"/>
<path d="M488.775 109.783L479.536 96.5691C479.739 96.4854 479.953 96.4257 480.144 96.3301C482.68 95.1832 484.644 93.5584 486.013 91.4437C487.394 89.341 488.073 86.8082 488.073 83.8573C488.073 80.9063 487.382 78.3018 486.013 76.1513C484.632 74.0008 482.68 72.3641 480.144 71.2291C477.608 70.1061 474.56 69.5326 471.012 69.5326L454.511 69.5326L454.511 109.771L461.952 109.771L461.952 98.0505L471.012 98.0505C471.548 98.0505 472.048 98.0147 472.56 97.9788L480.751 109.771L488.775 109.771V109.783ZM478.084 77.9673C479.751 79.3651 480.572 81.3245 480.572 83.8573C480.572 86.3901 479.751 88.3613 478.084 89.7831C476.429 91.2048 473.953 91.9097 470.667 91.9097L461.964 91.9097L461.964 75.8765L470.667 75.8765C473.953 75.8765 476.429 76.5814 478.084 77.9792" fill="#3A383C"/>
<path d="M488.775 129.292L0 129.292L0 130.451L488.775 130.451L488.775 129.292Z" fill="#8C734B"/>
<path d="M23.0732 162.637L4.76226 162.637L4.76226 148.527L0 148.527L1.13261e-10 181.621L4.76226 181.621L4.76226 167.01L23.0732 167.01L23.0732 181.621L27.7997 181.621L27.7997 148.527L23.0732 148.527L23.0732 162.637Z" fill="#3A383C"/>
<path d="M70.696 153.02C69.1483 151.514 67.3029 150.331 65.2075 149.495C60.9929 147.822 55.6353 147.834 51.4803 149.495C49.3849 150.331 47.5395 151.526 45.9917 153.043C44.444 154.561 43.2296 156.365 42.3724 158.372C41.5152 160.403 41.0747 162.649 41.0747 165.062C41.0747 167.476 41.5152 169.71 42.3605 171.741C43.2177 173.76 44.4321 175.552 45.9917 177.093C47.5395 178.61 49.3968 179.805 51.5041 180.641C53.6114 181.466 55.9211 181.896 58.3617 181.896C60.8024 181.896 63.1121 181.478 65.2075 180.641C67.291 179.805 69.1364 178.622 70.696 177.117C72.2437 175.6 73.47 173.808 74.3272 171.765C75.1844 169.722 75.6249 167.476 75.6249 165.062C75.6249 162.649 75.1844 160.403 74.3272 158.36C73.47 156.317 72.2437 154.525 70.696 153.02ZM70.8627 165.062C70.8627 166.854 70.5412 168.515 69.9221 170.008C69.303 171.49 68.422 172.816 67.3029 173.939C66.1837 175.062 64.8622 175.934 63.3502 176.544C60.3262 177.774 56.4211 177.774 53.3614 176.544C51.8374 175.934 50.4921 175.062 49.361 173.939C48.2419 172.816 47.349 171.49 46.7299 169.985C46.1108 168.479 45.7893 166.819 45.7893 165.062C45.7893 163.306 46.1108 161.598 46.7299 160.116C47.349 158.623 48.2419 157.309 49.361 156.186C50.4921 155.062 51.8374 154.19 53.3614 153.581C54.8853 152.96 56.5759 152.661 58.3736 152.661C60.1714 152.661 61.8501 152.972 63.3621 153.581C64.8622 154.19 66.1957 155.062 67.3148 156.186C68.4339 157.309 69.3149 158.623 69.934 160.116C70.5531 161.621 70.8746 163.282 70.8746 165.074" fill="#3A383C"/>
<path d="M93.65 148.527L88.8877 148.527L88.8877 181.621L111.318 181.621L111.318 177.284L93.65 177.284L93.65 148.527Z" fill="#3A383C"/>
<path d="M145.404 150.618C142.773 149.232 139.677 148.515 136.213 148.515L122.652 148.515L122.652 181.609L136.213 181.609C139.677 181.609 142.773 180.904 145.404 179.506C148.047 178.109 150.143 176.149 151.607 173.652C153.083 171.167 153.833 168.276 153.833 165.062C153.833 161.848 153.083 158.945 151.607 156.46C150.131 153.975 148.047 152.004 145.404 150.606M149.107 165.062C149.107 167.452 148.559 169.59 147.488 171.418C146.416 173.246 144.904 174.68 142.975 175.707C141.035 176.747 138.701 177.272 136.034 177.272L127.415 177.272L127.415 152.84L136.034 152.84C138.701 152.84 141.035 153.366 142.975 154.405C144.916 155.445 146.428 156.878 147.499 158.682C148.571 160.486 149.107 162.637 149.107 165.05" fill="#3A383C"/>
<path d="M171.858 148.527L167.096 148.527L167.096 181.621L171.858 181.621L171.858 148.527Z" fill="#3A383C"/>
<path d="M210.992 172.864L191.729 148.527L187.919 148.527L187.919 181.621L192.681 181.621L192.681 157.285L211.683 181.346L211.897 181.621L215.707 181.621L215.707 148.527L210.992 148.527L210.992 172.864Z" fill="#3A383C"/>
<path d="M237.34 156.197C238.482 155.074 239.852 154.202 241.387 153.581C244.376 152.398 248.269 152.35 251.412 153.473C252.9 153.999 254.269 154.907 255.519 156.162L256.031 156.675L259.079 153.557L258.627 153.055C257.151 151.442 255.341 150.224 253.234 149.423C249.067 147.846 243.673 147.834 239.471 149.495C237.363 150.319 235.506 151.514 233.946 153.008C232.387 154.513 231.149 156.305 230.291 158.36C229.434 160.403 228.994 162.649 228.994 165.074C228.994 167.499 229.434 169.734 230.291 171.777C231.149 173.82 232.375 175.612 233.923 177.129C235.482 178.634 237.328 179.817 239.435 180.641C241.542 181.478 243.864 181.896 246.34 181.896C248.59 181.896 250.793 181.537 252.876 180.833C254.972 180.128 256.829 179.064 258.401 177.69L258.639 177.475L258.639 164.357L254.007 164.357L254.007 175.337C253.15 175.934 252.281 176.376 251.364 176.699C248.209 177.762 244.4 177.726 241.399 176.555C239.852 175.946 238.494 175.062 237.351 173.951C236.208 172.84 235.304 171.514 234.673 169.996C234.042 168.491 233.72 166.83 233.72 165.074C233.72 163.318 234.042 161.621 234.673 160.128C235.316 158.635 236.22 157.32 237.363 156.197" fill="#3A383C"/>
<path d="M298.403 156.197C299.558 155.074 300.915 154.202 302.451 153.581C305.451 152.398 309.333 152.35 312.476 153.473C313.952 153.999 315.345 154.907 316.583 156.15L317.095 156.663L320.143 153.545L319.691 153.043C318.214 151.431 316.417 150.212 314.309 149.411C310.142 147.846 304.749 147.822 300.546 149.483C298.439 150.319 296.582 151.502 295.022 152.996C293.451 154.501 292.224 156.293 291.355 158.348C290.498 160.391 290.069 162.649 290.069 165.062C290.069 167.476 290.51 169.722 291.355 171.765C292.212 173.796 293.439 175.6 294.998 177.117C296.546 178.622 298.403 179.805 300.499 180.629C302.606 181.466 304.928 181.884 307.404 181.884C309.666 181.884 311.857 181.525 313.94 180.821C316.047 180.116 317.893 179.052 319.464 177.678L319.703 177.463L319.703 164.345L315.071 164.345L315.071 175.325C314.226 175.922 313.333 176.364 312.428 176.687C309.273 177.738 305.475 177.726 302.463 176.543C300.915 175.934 299.558 175.05 298.415 173.939C297.272 172.816 296.379 171.502 295.736 169.984C295.105 168.479 294.784 166.818 294.784 165.062C294.784 163.306 295.105 161.61 295.736 160.116C296.367 158.635 297.272 157.309 298.415 156.197" fill="#3A383C"/>
<path d="M354.61 170.223C356.658 169.315 358.253 167.977 359.36 166.245C360.468 164.525 361.027 162.458 361.027 160.092C361.027 157.727 360.468 155.564 359.36 153.856C358.253 152.123 356.646 150.785 354.61 149.877C352.598 148.981 350.193 148.527 347.431 148.527L334.906 148.527L334.906 181.621L339.669 181.621L339.669 171.573L347.431 171.573C348.122 171.573 348.824 171.538 349.622 171.454L356.801 181.621L362.206 181.621L354.229 170.391C354.36 170.343 354.479 170.283 354.61 170.223ZM339.669 152.852L347.336 152.852C350.3 152.852 352.562 153.497 354.062 154.764C355.551 156.018 356.265 157.763 356.265 160.092C356.265 162.422 355.539 164.118 354.062 165.385C352.562 166.651 350.3 167.296 347.336 167.296L339.669 167.296L339.669 152.852Z" fill="#3A383C"/>
<path d="M401.53 153.02C399.983 151.514 398.149 150.331 396.054 149.495C391.839 147.822 386.47 147.834 382.315 149.495C380.219 150.331 378.374 151.526 376.838 153.043C375.29 154.561 374.064 156.365 373.195 158.384C372.338 160.415 371.909 162.661 371.909 165.074C371.909 167.488 372.35 169.722 373.195 171.753C374.052 173.772 375.267 175.564 376.838 177.105C378.386 178.634 380.231 179.817 382.339 180.653C384.446 181.478 386.756 181.908 389.208 181.908C391.661 181.908 393.958 181.49 396.054 180.653C398.149 179.817 399.995 178.634 401.53 177.129C403.078 175.624 404.304 173.82 405.174 171.777C406.031 169.722 406.471 167.464 406.471 165.074C406.471 162.685 406.031 160.427 405.174 158.372C404.304 156.329 403.078 154.525 401.53 153.031M401.697 165.074C401.697 166.878 401.376 168.539 400.757 170.02C400.137 171.502 399.256 172.828 398.137 173.951C397.03 175.062 395.697 175.946 394.185 176.555C391.161 177.786 387.256 177.786 384.196 176.555C382.672 175.946 381.315 175.074 380.196 173.951C379.076 172.828 378.183 171.502 377.552 169.996C376.933 168.479 376.624 166.83 376.624 165.074C376.624 163.318 376.945 161.621 377.552 160.128C378.183 158.635 379.064 157.321 380.196 156.197C381.338 155.074 382.672 154.202 384.196 153.593C385.732 152.972 387.41 152.673 389.208 152.673C391.006 152.673 392.685 152.984 394.185 153.593C395.697 154.202 397.018 155.074 398.137 156.197C399.256 157.321 400.137 158.635 400.757 160.116C401.376 161.61 401.697 163.282 401.697 165.074Z" fill="#3A383C"/>
<path d="M442.129 167.249C442.129 170.773 441.343 173.401 439.807 175.038C438.271 176.663 436.033 177.487 433.164 177.487C430.295 177.487 428.092 176.663 426.556 175.038C425.008 173.401 424.223 170.785 424.223 167.249L424.223 148.527L419.46 148.527L419.46 167.38C419.46 172.111 420.699 175.743 423.139 178.204C425.592 180.653 428.961 181.896 433.152 181.896C437.343 181.896 440.724 180.653 443.141 178.204C445.57 175.755 446.796 172.111 446.796 167.392L446.796 148.539L442.117 148.539L442.117 167.261L442.129 167.249Z" fill="#3A383C"/>
<path d="M487.108 153.856C486.001 152.135 484.394 150.797 482.358 149.877C480.346 148.981 477.929 148.527 475.167 148.527L462.642 148.527L462.642 181.621L467.404 181.621L467.404 171.621L475.167 171.621C477.941 171.621 480.358 171.155 482.358 170.247C484.406 169.315 486.001 167.977 487.108 166.257C488.215 164.537 488.775 162.47 488.775 160.104C488.775 157.739 488.215 155.576 487.108 153.856ZM484.013 160.104C484.013 162.41 483.287 164.13 481.81 165.373C480.322 166.627 478.06 167.261 475.084 167.261L467.404 167.261L467.404 152.864L475.084 152.864C478.06 152.864 480.31 153.497 481.81 154.776C483.298 156.03 484.013 157.774 484.013 160.104Z" fill="#3A383C"/>
</g>
<defs>
<clipPath id="clip0_238_42">
<rect width="787" height="228" fill="white"/>
</clipPath>
</defs>
</svg>
