<?xml version="1.0" encoding="utf-8"?>
<!-- Generator: Adobe Illustrator 29.4.0, SVG Export Plug-In . SVG Version: 9.03 Build 0)  -->
<svg version="1.1" id="Layer_1" xmlns="http://www.w3.org/2000/svg" xmlns:xlink="http://www.w3.org/1999/xlink" x="0px" y="0px"
	 viewBox="0 0 512 512" style="enable-background:new 0 0 512 512;" xml:space="preserve">
<style type="text/css">
	.st0{fill:#666666;}
</style>
<g>
	<path class="st0" d="M454,0c8.2,2,15.5,3.6,23,7.5c19.6,10.1,31.4,29.1,35,50.5v396c-3.6,21.4-15.4,40.5-35,50.5
		c-7.6,3.9-14.9,5.5-23,7.5H58c-21.4-3.6-40.5-15.4-50.5-35C3.6,469.5,2,462.2,0,454V58C4,28.7,28.1,3.2,58,0H454z M482,279V62.5
		c0-16-18.6-32.7-34.5-32.5L66.5,30C49.8,28.9,30,45.7,30,62.5V352l79.1-67.4c21.5-15.9,37.7-11.7,57.4,3.4
		c15.3,11.8,29.6,25.2,44.5,37.5l2.3,0.4L353,186.5c20.9-15.8,42.1-11.6,59,7c23.1,25.4,43.1,56.3,66.1,81.9
		C479.2,276.7,480.4,278.3,482,279z M376.7,207.2c-6.7,1.5-22.2,20.7-27.7,26.3c-40.9,41.4-82.6,82.1-123.5,123.5
		c-5.3,5.2-13.4,7-19.9,2.8l-62.7-52.3c-3.3-2.2-6.2-3.3-10.2-2.4L30.5,391c1.3,33.5-13.2,86.9,35,91h381.1
		c19.8-1.2,33.8-14.8,35.4-34.6l-0.2-119.8l-95.4-117.6C383.7,207.7,380.3,206.4,376.7,207.2z"/>
	<path class="st0" d="M233.9,135.7c0,40.1-32.5,72.6-72.6,72.6s-72.6-32.5-72.6-72.6S121.1,63,161.2,63S233.9,95.6,233.9,135.7z
		 M203.6,135.7c0-23.4-19-42.4-42.4-42.4s-42.4,19-42.4,42.4s19,42.4,42.4,42.4S203.6,159.1,203.6,135.7z"/>
</g>
</svg>
