<?xml version="1.0" encoding="utf-8"?>
<!-- Generator: Adobe Illustrator 29.4.0, SVG Export Plug-In . SVG Version: 9.03 Build 0)  -->
<svg version="1.1" xmlns="http://www.w3.org/2000/svg" xmlns:xlink="http://www.w3.org/1999/xlink" x="0px" y="0px"
	 viewBox="0 0 841.9 251.2" style="enable-background:new 0 0 841.9 251.2;" xml:space="preserve">
<style type="text/css">
	.st0{fill:#F9AE42;}
	.st1{fill:#009247;}
	.st2{fill:#8C734B;}
	.st3{fill:#237D26;}
</style>
<g id="Layer_1">
</g>
<g id="Layer_2">
	<g>
		<g>
			<g>
				<path d="M771.5,211.7l5.7,39.5l12.5-20.2l-3.8-27.6c0.3-0.3,0.8-0.5,1.1-0.9c1.6-1.3,3.1-2.5,4.3-3.7c1.5,1.5,3.2,3,4.9,4.2
					s3.7,2.5,6,3.8c3.2,1.9,6.5,3.4,9.6,4.6c3.2,1.2,6,1.9,8.4,1.9c2.7,0.1,5.4-1,7.9-3.4s4.9-5.7,7.3-10c0.4-0.8,0.8-1.6,0.9-2.7
					s0.2-2.3,0-3.6c-0.1-1.3-0.3-2.7-0.5-4c-0.2-1.4-0.7-2.8-1.2-4.4c-0.8-2.4-1.6-4.8-2.7-7.1c-1.1-2.3-2.3-4.5-3.6-6.5
					s-2.6-3.6-4-4.9c-1.4-1.3-2.7-2.1-4-2.4c-2.5-0.4-4.8,0-6.8,1.4c-3.6,2.3-6.7,5-9.3,8s-4.8,6.1-6.8,9.6l-10.6,11
					c0.3,0.4,0.5,0.8,0.8,1c0.2,0.2,0.4,0.7,0.9,1.2c-1,0.4-2.1,0.9-3.2,1.3l-12.1-87.6l-13.6,15.5l10.7,74.7h-5.2l-9-72.8
					l-13.3,13.8l9,72.6l0,0l0,0l1.9,14.3c-1.5-0.5-3.1-1.1-4.7-1.7c-1.6-0.7-3.2-1.3-4.7-2.1c-3.2-1.5-6.3-3.2-9.4-5
					c-3.2-1.9-6-3.9-8.7-6c-2.6-2.1-5-4.2-7.1-6.3c-2.1-2.2-3.5-4.3-4.4-6.3c0.3,0,0.7,0,1,0s0.7-0.1,1-0.2c1.7-0.2,3.7-0.4,5.8-0.5
					c2.2,0,4.6-0.2,7.2-0.3l13.2-13.7c-2.5,0-4.9,0-7,0.2c-2.2,0.2-4.2,0.3-6.1,0.7c-1.9,0.3-3.6,0.7-5.1,1.1c-1.5,0.3-3,0.8-4,1.2
					c-2.1,1-5.1,3.5-9.2,7.5c-3.6,3.7-6.2,6.6-8,8.7c-1.7,2.2-2.6,3.6-2.6,4.3c-0.3,2.2,0.3,4.6,2.1,7.2c1.7,2.6,4,5.1,7,7.8
					c3,2.6,6.2,5,10.1,7.4c3.7,2.4,7.5,4.5,11.4,6.2c2.3,1.2,4.7,2.3,6.9,3.1c2.3,0.9,4.4,1.4,6.3,1.9c2,0.4,3.8,0.7,5.4,0.7
					c1.5,0,2.7-0.2,3.7-0.8c4-2.3,7.2-4.6,9.7-6.8c2.4-2.3,4-4.6,4.8-6.8c0.2-0.7,0.3-1.3,0.5-2c0.1-0.7,0.1-1.5,0-2.5l-1.4-10.8
					l5.1-2.4L771.5,211.7z M819.2,199.1c-2.2-1-4.3-2-6.3-3.2c-2.3-1.4-4.6-2.8-6.9-4.5c-2.3-1.5-4.2-3.2-5.7-4.8
					c1.3-1.9,2.4-3.6,3.4-5.4c0.9-1.7,1.7-3.6,2.6-5.5c0-0.2,0.2-0.4,0.4-0.5c1-0.2,2-0.1,3,0c1.3,0.2,2.6,1.1,4,2.4
					c1.4,1.3,2.7,3,4,4.9c1.3,2,2.5,4,3.6,6.5c1.1,2.3,2.1,4.7,2.8,7.1c0.2,1,0.5,1.9,0.7,2.6c0.2,0.8,0.3,1.6,0.5,2.6
					c-2-0.5-4-1.4-6.1-2.4V199.1z"/>
				<path d="M741.7,107.4c0.5,0.4,1.2,0.5,2.1,0.2s2.1-0.7,3.6-1.2s3.3-1.1,5.2-1.6c2-0.5,4-0.8,6.1-0.8l-4.5,5l3.4,13.8l12.5-13.9
					v-0.2h0.1l-3.3-13.9c-2.2-1.9-4.3-3.2-6.5-3.8c-2.1-0.7-4.2-1-6.1-0.9c-2,0-3.8,0.3-5.6,0.9s-3.4,1.1-4.9,1.5
					c-0.9,0.3-1.6,0.5-2.3,0.9c-0.7,0.3-1.3,0.4-1.9,0.3c0.3-2.2,0.9-4.3,1.7-6.1c0.8-1.9,1.7-3.3,2.8-4.2l-3.4-13.9
					c-1.1,1.1-2.2,2.8-3.1,5.1c-0.9,2.3-1.4,4.8-1.7,7.4c-0.4,4.6-0.2,9.1,0.5,13.6c0.8,4.4,2.5,8.3,5.1,11.6L741.7,107.4z"/>
				<polygon points="632,174.8 625.2,170.5 616.3,177.9 624.1,182.7 629.2,178.3 636,182.7 644.8,175.3 637,170.5 				"/>
				<polygon points="685.8,126.3 675.4,121.2 668.1,132.3 678.5,137.3 				"/>
				<path d="M701.3,165.3l4.4,33.4l13.5-13.8l-2.6-19.6h3.5l13.2-13l-9.5-69.8l-13.2,13l8.6,59.7h-4l-8-58.8L694,110.2l6,45.4
					c-0.5-0.1-1.1-0.3-1.7-0.5c-1.9-0.7-3.9-1.5-5.9-2.7c-2.1-1.1-4.2-2.4-6.2-3.7c-2.1-1.4-4.3-2.8-6.3-4.4c-2.5-1.6-5-3.3-7.4-4.9
					c-2.4-1.5-4.8-3-7-3.9c-2.3-1-4.4-1.7-6.3-2.1c-2-0.3-3.8,0-5.4,0.8c-2.2,1.1-4,2.2-5.6,3.3c-1.5,1.2-2.7,2.4-3.8,3.6
					c-1,1.2-1.7,2.5-2.3,3.8c-0.5,1.3-0.9,2.6-1,3.9c-0.2,1.1-0.2,2.1,0,3.2c0.1,1.1,0.3,2.2,0.5,3.3l8.7-9.6c0-0.5-0.2-1-0.3-1.5
					c0-0.5-0.2-1.1-0.2-1.6c1.6,0.1,3.6,0.7,5.7,1.6s4.3,2.2,6.5,3.5s4.4,2.8,6.7,4.3c2.2,1.5,4.4,2.8,6.3,4.2h-37l-4.5-26.2
					l-10.9,9.3l2.3,13.2c-1.5-0.9-3-1.9-4.2-3c-1.7-1.6-3.2-3.5-4.4-5.5c-1.1-2.1-2.1-4-2.8-6.1c-0.8-2.1-1.3-4-1.9-5.9
					c-0.5-1.9-1-3.4-1.3-4.6c-0.4-1-0.8-2-1.2-3c-0.3-1-0.8-2-1.2-3l-5,5.1l-4.9,5c1,2.2,1.7,4.7,2.5,7.2c0.8,2.6,1.4,5.2,2,7.9
					c0.8,3.6,1.4,7,1.9,10.2c0.4,3.2,0.8,5.9,0.8,8.2c0,0.5-0.1,1-0.5,1.4s-1,0.8-1.6,1.1c-0.8,0.3-1.5,0.7-2.5,0.9
					c-1,0.3-2,0.5-3.1,0.9c-1.6,0.4-3.4,0.9-5.1,1.3c-1.7,0.4-3.4,1-5.1,1.6c-1.6,0.7-3.3,1.3-4.8,2.2s-3,1.9-4.2,3l-9.7,10.1
					c1.2-1.1,2.6-2.1,4.2-2.8s3.1-1.5,4.7-2.2s3.3-1.2,5-1.6c1.7-0.4,3.5-0.9,5.2-1.3c3.4-0.9,6.7-1.7,9.7-2.6
					c3.1-0.9,5.9-2.1,8.4-3.5s4.6-3.2,6.2-5.2s2.7-4.7,3.2-7.9c0,0,0.1,0.1,0.2,0.2l-0.2,0.2h0.5c1.5,1.4,3.1,2.4,4.5,3.2
					c0.9,0.4,1.9,0.8,2.8,1c0.3,0.1,0.9,0.2,1.5,0.2c0,0,0,0,0.1,0c0.3,0,0.8,0,1.2,0l0,0c15,0.2,55.1,0.3,72.5,0.3l0,0h3.1v-0.2
					H701.3z"/>
			</g>
			<g>
				<path class="st0" d="M826.6,125c-15,33.4-31.5,58.4-35.3,56.3c-3.8-2.2,5-33.6,20-66.9c15-33.4,25.2-80.2,29-78.1
					C844.1,38.3,841.6,91.6,826.6,125"/>
				<path class="st1" d="M812.7,90.6c-9.7,35.2-22.2,62.6-26.4,61c-4.2-1.5-0.1-33.9,9.6-69.1c9.7-35.2,12.7-83.1,16.8-81.6
					C816.9,2.4,822.4,55.4,812.7,90.6"/>
				<path class="st2" d="M797.7,52.8c-7.1,37.7-12.9,64.6-17.2,63.6c-4.3-1.1-2.6-33.7,3.1-69.8c5.7-36.2,4.5-47.7,8.7-46.6
					C796.6,1,802.3,28.4,797.7,52.8"/>
			</g>
		</g>
		<g>
			<path class="st3" d="M592.4,215.9c-0.2-1.6-0.5-3.3-0.9-5.1c-0.3-1.3-0.6-2.6-1-3.9c-0.4-1.3-0.8-2.5-1.3-3.6l-4.9,5.1
				c0.5,1.1,0.9,2.3,1.3,3.6c0.4,1.3,0.7,2.6,1,3.9c0.4,1.8,0.7,3.5,0.9,5.1c0.2,1.6,0.4,3,0.5,4.1c0,0.3-0.1,0.5-0.3,0.7
				c-0.2,0.2-0.5,0.4-0.9,0.6c-0.4,0.2-0.8,0.3-1.3,0.4c-0.5,0.1-1,0.3-1.5,0.4c-0.8,0.2-1.7,0.4-2.6,0.6c-0.9,0.2-1.7,0.5-2.5,0.8
				c-0.8,0.3-1.6,0.7-2.4,1.1c-0.8,0.4-1.4,0.9-2.1,1.5l-4.9,5c0.6-0.5,1.3-1,2.1-1.4c0.8-0.4,1.6-0.8,2.4-1.1
				c0.8-0.3,1.7-0.6,2.5-0.8c0.9-0.2,1.7-0.5,2.5-0.7c1.9-0.5,3.7-1,5.4-1.5c1.7-0.5,3.2-1.2,4.5-2.1c1.3-0.9,2.3-2,2.9-3.3
				c0.7-1.4,1-3.1,0.8-5.3C592.8,218.9,592.7,217.5,592.4,215.9z"/>
			<polygon class="st3" points="654.6,203.5 658.1,205.7 662.6,201.9 658.6,199.4 656,201.7 652.5,199.4 648,203.2 652,205.7 			"/>
			<path class="st3" d="M687.4,218.3l-4.9-35.6l-6.8,6.6l4.4,30.5H678l-4-30.1l-6.8,7l3,23h-8l-2.2-13l-5.6,4.7l1.4,8.2l-4.3,0.1
				c-0.4,0-0.8,0-1.2-0.1c-0.6-0.1-1.1-0.2-1.6-0.4c-0.5-0.2-0.9-0.5-1.3-0.8c-0.4-0.4-0.7-1-1-1.8c-0.3-0.8-0.7-1.7-1.2-2.6
				c-0.5-0.9-1.1-1.8-1.8-2.6c-0.7-0.8-1.7-1.5-2.8-1.9c-0.4-0.2-1-0.2-1.6-0.2c-0.7,0-1.4,0.2-2.2,0.5c-1.3,0.3-2.3,0.8-3.3,1.4
				c-0.9,0.6-1.8,1.3-2.5,2c-0.8,0.7-1.4,1.5-2.1,2.3c-0.6,0.8-1.3,1.5-1.9,2.1c-0.6,0.6-1.3,1.2-2,1.6c-0.7,0.4-1.5,0.6-2.3,0.6
				c-0.3,0-0.6,0-0.7,0c-0.4,0-0.7,0-1.2,0c-0.4,0-0.9-0.1-1.5-0.1c-0.6-0.1-1.3-0.1-2.2-0.2c0-1.1-0.1-2.4-0.4-3.9
				c-0.2-1.5-0.5-3.1-0.9-4.7c-0.4-1.6-0.8-3.3-1.3-4.9c-0.5-1.6-1.1-3.1-1.7-4.4c-0.4-0.8-0.8-1.5-1.2-2.1
				c-0.4-0.6-0.8-1.1-1.3-1.4c-0.4-0.4-0.9-0.6-1.4-0.7c-0.5-0.1-1,0-1.4,0.3c-1.6,0.9-3.1,2.2-4.4,3.7c-1.3,1.5-2.5,3.4-3.4,5.6
				c-1,2.3-1.6,4.3-1.7,6.1c-0.1,1.7,0.1,3.2,0.7,4.5c0.6,1.3,1.4,2.3,2.5,3.2c1.1,0.9,2.4,1.6,3.7,2.1c1.1,0.5,2.3,0.8,3.6,1.1
				c1.2,0.3,2.5,0.5,3.7,0.6c0.1,0.4,0.1,0.7-0.1,1c-0.2,0.3-0.5,0.5-0.9,0.7c-0.4,0.2-0.8,0.4-1.3,0.5c-0.5,0.1-0.9,0.2-1.3,0.3
				c-0.8,0.2-1.7,0.4-2.5,0.6c-0.9,0.2-1.7,0.5-2.6,0.8c-0.9,0.3-1.7,0.7-2.5,1.1c-0.8,0.4-1.5,0.9-2.2,1.5l-4.9,5
				c0.6-0.5,1.4-1,2.1-1.4c0.8-0.4,1.6-0.8,2.4-1.1c0.8-0.3,1.7-0.6,2.6-0.8c0.9-0.2,1.8-0.5,2.6-0.7c1.5-0.4,3-0.7,4.4-1.1
				c1.4-0.4,2.7-0.8,3.9-1.4c1.2-0.5,2.2-1.2,3-1.9c0.8-0.7,1.5-1.7,1.9-2.8c0.4,0,0.7,0,0.8,0c0.1,0,1.9,0,1.2,0l0,0
				c1-0.1,2-0.2,2.8-0.5c1.1-0.4,2.1-0.9,3.1-1.5c0.9-0.6,1.7-1.4,2.4-2.2c0.7-0.8,1.4-1.7,2-2.6c0.2,0.9,0.7,1.9,1.2,2.9
				c0.6,1,1.2,2,2,2.8c0.9,1,1.9,1.9,3,2.5c1.1,0.7,2.3,1,3.6,1c0.6,0,1.2-0.2,1.6-0.5c0.8-0.6,1.4-1.3,2.1-1.9
				c0.6-0.6,1.1-1.2,1.5-1.7c0.7,0.6,1.4,1,2.2,1.3c0.7,0.2,1.5,0.4,2.3,0.4v0h0c0,0,0,0,0,0h0h31.7L687.4,218.3z M610.1,217.8
				c-1.4-0.5-2.6-1.2-3.7-2.1c-1.1-0.8-1.9-1.9-2.5-3.1c-0.6-1.2-0.9-2.7-0.8-4.3c0-1.7,0.5-3.6,1.4-5.8c0.9,0.4,1.6,0.9,2.1,1.6
				c0.5,0.7,1,1.6,1.5,2.7c0.4,0.8,0.7,1.6,1.1,2.6c0.3,0.9,0.7,1.9,1,2.9c0.3,1,0.6,2,0.8,3.1c0.2,1,0.5,2,0.7,3L610.1,217.8z
				 M639,222c-0.9-0.6-1.7-1.3-2.5-2.1c-0.8-0.9-1.5-1.9-2.1-2.9c-0.6-1-1-2-1.2-3c0.7-0.2,1.4-0.4,2.1-0.5c0.7-0.1,1.2,0,1.6,0.2
				c0.2,0.1,0.5,0.4,0.9,0.7c0.3,0.4,0.7,0.8,1,1.3c0.4,0.5,0.7,1.1,1.1,1.8c0.4,0.7,0.7,1.3,1,2c0.3,0.6,0.5,1.3,0.7,1.9
				c0.2,0.6,0.3,1.2,0.4,1.8C640.8,223,639.9,222.6,639,222z"/>
		</g>
		<g>
			<rect x="-0.4" y="131.3" class="st2" width="540.6" height="1.3"/>
			<g>
				<path d="M46.6,109.8c0,0.4-0.1,0.7-0.4,0.9c-0.3,0.2-0.6,0.3-1,0.3h-7.9c-0.4,0-0.7-0.1-0.9-0.4c-0.3-0.2-0.4-0.5-0.5-0.9
					l-3.4-14.2H15.2l-3.5,14.2c-0.1,0.4-0.3,0.7-0.5,0.9c-0.3,0.3-0.6,0.4-0.9,0.4h-8c-0.4,0-0.7-0.1-1-0.3
					c-0.3-0.2-0.4-0.5-0.4-0.9c0,0,0-0.1,0-0.1c0,0,0-0.1,0-0.2l12.3-47c0.5-1.8,1.1-3.1,2-4.1c0.8-1,1.8-1.8,2.7-2.3
					c1-0.5,2-0.9,3-1c1-0.1,1.9-0.2,2.7-0.2c0.8,0,1.7,0.1,2.7,0.2c1,0.2,2,0.5,3,1c1,0.5,1.9,1.3,2.7,2.3c0.8,1,1.5,2.4,1.9,4.1
					l12.3,47c0,0.1,0,0.2,0,0.2C46.6,109.7,46.6,109.7,46.6,109.8z M25,64.7c-0.1-0.4-0.2-0.8-0.4-0.9c-0.1-0.2-0.4-0.3-0.8-0.3
					c-0.4,0-0.7,0.1-0.8,0.3c-0.1,0.2-0.3,0.5-0.4,0.9L17.2,87h13.2L25,64.7z"/>
				<path d="M101.8,109.9c0,0.4-0.1,0.7-0.4,0.9c-0.3,0.2-0.6,0.3-0.9,0.3H93c-0.4,0-0.6-0.2-0.9-0.5s-0.3-0.6-0.3-1V74.7
					c0-0.5-0.1-0.8-0.2-0.8c-0.1,0-0.2,0.1-0.4,0.5L84,88.7c-0.3,0.4-0.6,0.7-1,0.9c-0.4,0.2-0.9,0.3-1.4,0.3H74
					c-0.5,0-1-0.1-1.4-0.3c-0.4-0.2-0.8-0.5-1-0.9l-7.3-14.3c-0.2-0.3-0.3-0.5-0.4-0.5c-0.1,0-0.2,0.3-0.2,0.8v34.9
					c0,0.4-0.1,0.8-0.3,1s-0.5,0.5-0.9,0.5H55c-0.4,0-0.7-0.1-0.9-0.3c-0.3-0.2-0.4-0.5-0.4-0.9V58.3c0-0.8,0.3-1.6,0.9-2.1
					c0.6-0.6,1.3-0.9,2.1-0.9h6.1c0.6,0,1.1,0.2,1.6,0.5c0.5,0.3,0.9,0.8,1.1,1.3l11.3,22.9c0.2,0.4,0.3,0.6,0.5,0.8
					c0.1,0.2,0.2,0.3,0.4,0.3c0.1,0,0.3-0.1,0.4-0.3c0.1-0.2,0.2-0.4,0.4-0.8l11.3-22.9c0.2-0.5,0.6-1,1.1-1.3
					c0.5-0.3,1-0.5,1.6-0.5h6.1c0.8,0,1.6,0.3,2.1,0.9c0.6,0.6,0.9,1.3,0.9,2.1V109.9z"/>
				<path d="M154.5,109.8c0,0.4-0.1,0.7-0.4,0.9c-0.3,0.2-0.6,0.3-1,0.3h-7.9c-0.4,0-0.7-0.1-0.9-0.4c-0.3-0.2-0.4-0.5-0.5-0.9
					l-3.4-14.2h-17.2l-3.5,14.2c-0.1,0.4-0.3,0.7-0.5,0.9c-0.3,0.3-0.6,0.4-0.9,0.4h-8c-0.4,0-0.7-0.1-1-0.3
					c-0.3-0.2-0.4-0.5-0.4-0.9c0,0,0-0.1,0-0.1c0,0,0-0.1,0-0.2l12.3-47c0.5-1.8,1.1-3.1,2-4.1c0.8-1,1.8-1.8,2.7-2.3
					c1-0.5,2-0.9,3-1c1-0.1,1.9-0.2,2.7-0.2c0.8,0,1.7,0.1,2.7,0.2c1,0.2,2,0.5,3,1c1,0.5,1.9,1.3,2.7,2.3c0.8,1,1.5,2.4,1.9,4.1
					l12.3,47c0,0.1,0,0.2,0,0.2C154.5,109.7,154.5,109.7,154.5,109.8z M132.9,64.7c-0.1-0.4-0.2-0.8-0.4-0.9
					c-0.1-0.2-0.4-0.3-0.8-0.3c-0.4,0-0.7,0.1-0.8,0.3c-0.1,0.2-0.3,0.5-0.4,0.9L125.1,87h13.2L132.9,64.7z"/>
				<path d="M193.1,109c0,0.6-0.1,0.9-0.3,1.1c-0.2,0.2-0.6,0.4-1.2,0.5c-0.6,0.2-1.3,0.3-2.4,0.4c-1,0.1-2.1,0.2-3.3,0.3
					c-1.2,0.1-2.4,0.2-3.7,0.2c-1.3,0-2.4,0.1-3.4,0.1c-2.5,0-4.7-0.2-6.8-0.6s-3.9-1.2-5.5-2.3c-1.6-1.1-2.8-2.7-3.7-4.7
					c-0.9-2-1.4-4.6-1.4-7.8V56.8c0-0.4,0.1-0.8,0.5-1c0.3-0.3,0.6-0.5,1-0.5h7.4c0.4,0,0.8,0.2,1.1,0.5c0.3,0.3,0.4,0.7,0.4,1v39.5
					c0,2.5,0.4,4.2,1.3,5.1c0.8,0.9,2.4,1.3,4.6,1.3h13.8c0.4,0,0.8,0.2,1,0.5s0.5,0.7,0.5,1V109z"/>
				<path d="M260.4,109.8c0,0.4-0.1,0.7-0.4,0.9c-0.3,0.2-0.6,0.3-1,0.3h-7.9c-0.4,0-0.7-0.1-0.9-0.4c-0.3-0.2-0.4-0.5-0.5-0.9
					l-3.4-14.2H229l-3.5,14.2c-0.1,0.4-0.3,0.7-0.5,0.9c-0.3,0.3-0.6,0.4-0.9,0.4h-8c-0.4,0-0.7-0.1-1-0.3c-0.3-0.2-0.4-0.5-0.4-0.9
					c0,0,0-0.1,0-0.1c0,0,0-0.1,0-0.2l12.3-47c0.5-1.8,1.1-3.1,2-4.1c0.8-1,1.8-1.8,2.7-2.3c1-0.5,2-0.9,3-1c1-0.1,1.9-0.2,2.7-0.2
					c0.8,0,1.7,0.1,2.7,0.2c1,0.2,2,0.5,3,1c1,0.5,1.9,1.3,2.7,2.3c0.8,1,1.5,2.4,1.9,4.1l12.3,47c0,0.1,0,0.2,0,0.2
					C260.4,109.7,260.4,109.7,260.4,109.8z M238.8,64.7c-0.1-0.4-0.2-0.8-0.4-0.9c-0.1-0.2-0.4-0.3-0.8-0.3c-0.4,0-0.7,0.1-0.8,0.3
					c-0.1,0.2-0.3,0.5-0.4,0.9L231,87h13.2L238.8,64.7z"/>
				<path d="M299,109c0,0.6-0.1,0.9-0.3,1.1c-0.2,0.2-0.6,0.4-1.2,0.5c-0.6,0.2-1.3,0.3-2.4,0.4c-1,0.1-2.1,0.2-3.3,0.3
					c-1.2,0.1-2.4,0.2-3.7,0.2c-1.3,0-2.4,0.1-3.4,0.1c-2.5,0-4.7-0.2-6.8-0.6s-3.9-1.2-5.5-2.3c-1.6-1.1-2.8-2.7-3.7-4.7
					c-0.9-2-1.4-4.6-1.4-7.8V56.8c0-0.4,0.1-0.8,0.5-1c0.3-0.3,0.6-0.5,1-0.5h7.4c0.4,0,0.8,0.2,1.1,0.5c0.3,0.3,0.4,0.7,0.4,1v39.5
					c0,2.5,0.4,4.2,1.3,5.1c0.8,0.9,2.4,1.3,4.6,1.3h13.8c0.4,0,0.8,0.2,1,0.5s0.5,0.7,0.5,1V109z"/>
				<path d="M365.4,110.4c0,0.4-0.4,0.7-1.1,0.7h-10c-0.8,0-1.4-0.3-1.7-0.8l-17.2-25.6v24.9c0,0.4-0.1,0.8-0.4,1
					c-0.3,0.3-0.7,0.5-1.1,0.5h-7.4c-0.4,0-0.8-0.2-1-0.5c-0.3-0.3-0.5-0.6-0.5-1V56.8c0-0.4,0.1-0.7,0.5-1c0.3-0.3,0.6-0.4,1-0.4
					h7.4c0.4,0,0.8,0.1,1.1,0.4c0.3,0.3,0.4,0.6,0.4,1v23.9L353.7,56c0.2-0.2,0.4-0.4,0.7-0.5c0.3-0.1,0.6-0.1,1-0.1h8.6
					c0.9,0,1.4,0.3,1.4,0.9c0,0.4-0.2,0.8-0.5,1.2l-19.2,24.8l19.4,27.2C365.2,109.9,365.4,110.2,365.4,110.4z"/>
				<path d="M415.2,109.6c0,0.4-0.1,0.8-0.4,1c-0.3,0.3-0.7,0.5-1.1,0.5h-7.4c-0.4,0-0.8-0.2-1.1-0.5c-0.3-0.3-0.4-0.6-0.4-1v-23
					h-21.3v23c0,0.4-0.1,0.8-0.4,1c-0.3,0.3-0.7,0.5-1.1,0.5h-7.4c-0.4,0-0.8-0.2-1-0.5c-0.3-0.3-0.5-0.6-0.5-1V56.8
					c0-0.4,0.1-0.7,0.5-1c0.3-0.3,0.6-0.4,1-0.4h7.4c0.4,0,0.8,0.1,1.1,0.4c0.3,0.3,0.4,0.6,0.4,1v20.7h21.3V56.8
					c0-0.4,0.1-0.7,0.4-1c0.3-0.3,0.6-0.4,1.1-0.4h7.4c0.4,0,0.8,0.1,1.1,0.4c0.3,0.3,0.4,0.6,0.4,1V109.6z"/>
				<path d="M467.9,109.8c0,0.4-0.1,0.7-0.4,0.9c-0.3,0.2-0.6,0.3-1,0.3h-7.9c-0.3,0-0.7-0.1-0.9-0.4c-0.2-0.2-0.4-0.5-0.5-0.9
					l-3.4-14.2h-17.2l-3.4,14.2c-0.1,0.4-0.3,0.7-0.5,0.9c-0.3,0.3-0.6,0.4-0.9,0.4h-7.9c-0.4,0-0.7-0.1-1-0.3
					c-0.2-0.2-0.4-0.5-0.4-0.9c0,0,0-0.1,0-0.1c0,0,0-0.1,0-0.2l12.3-47c0.5-1.8,1.1-3.1,2-4.1c0.8-1,1.8-1.8,2.7-2.3
					c1-0.5,2-0.9,3-1c1-0.1,1.9-0.2,2.7-0.2c0.8,0,1.7,0.1,2.7,0.2c1,0.2,2,0.5,3,1c1,0.5,1.9,1.3,2.7,2.3s1.5,2.4,2,4.1l12.3,47
					c0,0.1,0,0.2,0,0.2S467.9,109.7,467.9,109.8z M446.3,64.7c-0.1-0.4-0.2-0.8-0.4-0.9c-0.1-0.2-0.4-0.3-0.8-0.3s-0.7,0.1-0.8,0.3
					c-0.2,0.2-0.3,0.5-0.4,0.9L438.5,87h13.2L446.3,64.7z"/>
				<path d="M485.4,109.6c0,0.4-0.1,0.8-0.5,1c-0.3,0.3-0.7,0.5-1,0.5h-7.4c-0.4,0-0.8-0.2-1-0.5s-0.5-0.6-0.5-1V56.8
					c0-0.4,0.2-0.7,0.5-1c0.3-0.3,0.6-0.4,1-0.4h7.4c0.4,0,0.8,0.1,1,0.4c0.3,0.3,0.5,0.6,0.5,1V109.6z"/>
				<path d="M537.1,110.2c0,0.6-0.3,0.9-0.9,0.9h-9.1c-0.4,0-0.7-0.1-0.9-0.4c-0.2-0.3-0.4-0.6-0.6-1l-10.8-20h-1.1
					c-1,0-2.2,0-3.4-0.1c-1.3-0.1-2.4-0.1-3.2-0.2v20.3c0,0.4-0.1,0.7-0.4,1c-0.3,0.3-0.6,0.4-1,0.4h-7.5c-0.4,0-0.8-0.2-1-0.5
					s-0.5-0.6-0.5-1V58c0-0.8,0.2-1.3,0.6-1.6c0.4-0.3,1-0.5,1.8-0.6c2-0.3,4.2-0.5,6.8-0.7c2.6-0.2,5.2-0.3,8-0.3
					c2.9,0,5.7,0.3,8.3,0.9c2.6,0.6,4.9,1.5,6.9,2.8c2,1.3,3.6,3,4.7,5.2c1.2,2.2,1.8,4.9,1.8,8.1v0.7c0,4-0.9,7.2-2.8,9.8
					c-1.8,2.5-4.3,4.3-7.4,5.5l11.8,21.9C537.1,109.7,537.1,109.9,537.1,110.2z M525,71.7c0-2.9-0.9-4.9-2.8-6.2
					c-1.9-1.2-4.7-1.9-8.4-1.9c-0.4,0-0.9,0-1.5,0c-0.6,0-1.3,0-1.9,0.1c-0.7,0-1.3,0.1-1.8,0.1c-0.6,0-1,0.1-1.4,0.1v16.9
					c0.3,0,0.8,0,1.4,0c0.6,0,1.3,0,2,0.1s1.3,0,2,0.1c0.6,0,1.1,0,1.4,0c3.9,0,6.8-0.6,8.6-1.9c1.8-1.2,2.7-3.5,2.7-6.8V71.7z"/>
			</g>
			<g>
				<path d="M33.4,182.4c0,3.1-0.4,5.8-1.2,8c-0.8,2.3-2,4.1-3.5,5.6c-1.5,1.5-3.4,2.6-5.5,3.3c-2.2,0.7-4.6,1.1-7.2,1.1
					c-1.1,0-2.2,0-3.3-0.1c-1.1,0-2.1-0.1-3-0.1c-0.9-0.1-1.8-0.1-2.5-0.2c-0.7-0.1-1.3-0.1-1.7-0.2c-0.8-0.1-1.2-0.6-1.2-1.4v-39.8
					c0-0.8,0.4-1.3,1.2-1.4c0.4-0.1,1-0.1,1.7-0.2c0.7-0.1,1.6-0.1,2.5-0.2c0.9-0.1,1.9-0.1,3-0.1c1.1,0,2.2-0.1,3.3-0.1
					c2.7,0,5.1,0.3,7.2,1c2.2,0.7,4,1.8,5.5,3.3c1.5,1.5,2.7,3.4,3.5,5.6c0.8,2.3,1.2,5,1.2,8.1V182.4z M28.1,174.6
					c0-2.6-0.3-4.8-1-6.6c-0.6-1.7-1.5-3.1-2.6-4.1c-1.1-1-2.4-1.7-3.9-2.2c-1.5-0.4-3.1-0.6-4.8-0.6c-1.3,0-2.5,0-3.5,0
					c-1,0-2,0.1-2.9,0.1v34.6c0.9,0.1,1.9,0.1,2.9,0.1s2.2,0,3.5,0c1.7,0,3.3-0.2,4.8-0.6c1.5-0.4,2.8-1.2,3.9-2.2
					c1.1-1,2-2.4,2.6-4.1c0.6-1.7,1-3.9,1-6.5V174.6z"/>
				<path d="M80.9,199.1c0,0.6-0.3,0.9-1,0.9h-3.4c-0.3,0-0.5-0.1-0.6-0.3c-0.2-0.2-0.3-0.4-0.3-0.6l-3.8-13.3h-15l-3.7,13.3
					c-0.1,0.2-0.2,0.4-0.4,0.6c-0.2,0.2-0.4,0.3-0.6,0.3h-3.4c-0.7,0-1-0.3-1-0.9c0-0.2,0-0.3,0.1-0.4L58.4,161
					c0.2-0.9,0.6-1.6,1-2.2c0.4-0.6,0.9-1,1.5-1.3c0.5-0.3,1.1-0.6,1.7-0.7c0.6-0.1,1.2-0.2,1.7-0.2c0.5,0,1.1,0.1,1.7,0.2
					c0.6,0.1,1.1,0.3,1.7,0.7c0.5,0.3,1,0.8,1.5,1.3c0.4,0.6,0.8,1.3,1,2.2l10.7,37.7C80.9,198.8,80.9,198.9,80.9,199.1z
					 M65.4,162.2c-0.2-0.7-0.6-1-1.1-1c-0.6,0-1,0.3-1.2,1l-5.3,19h12.8L65.4,162.2z"/>
				<path d="M124,160.6c0,0.6-0.4,0.9-1.1,0.9h-11.3v37.4c0,0.3-0.1,0.6-0.3,0.8c-0.2,0.2-0.4,0.3-0.8,0.3h-3.2
					c-0.3,0-0.6-0.1-0.8-0.3c-0.2-0.2-0.3-0.5-0.3-0.8v-37.4H95.1c-0.3,0-0.6-0.1-0.8-0.2c-0.2-0.2-0.3-0.4-0.3-0.7v-2.5
					c0-0.3,0.1-0.6,0.3-0.7c0.2-0.2,0.5-0.3,0.8-0.3h27.8c0.7,0,1.1,0.3,1.1,1V160.6z"/>
				<path d="M164,199.4c0,0.2,0,0.4-0.1,0.5c-0.1,0.2-0.2,0.3-0.4,0.3c-0.5,0.1-1.3,0.1-2.2,0.1c-0.9,0-1.9,0-3,0.1
					c-1.1,0-2.1,0.1-3.2,0.1c-1.1,0-2,0-2.9,0c-4.1,0-7.2-0.8-9.2-2.5c-2.1-1.7-3.1-4.4-3.1-8.3v-22.3c0-3.9,1-6.6,3.1-8.3
					c2.1-1.7,5.1-2.5,9.2-2.5c0.8,0,1.8,0,2.9,0c1.1,0,2.1,0,3.2,0.1s2,0.1,3,0.1s1.7,0.1,2.3,0.1c0.2,0,0.3,0.1,0.4,0.3
					c0.1,0.2,0.1,0.3,0.1,0.5v2.9c0,0.5-0.2,0.7-0.6,0.7h-11.2c-1.5,0-2.8,0.1-3.7,0.3c-0.9,0.2-1.6,0.6-2.1,1
					c-0.5,0.5-0.8,1.1-1,1.9c-0.2,0.8-0.3,1.7-0.3,2.8v8h17.8c0.3,0,0.6,0.1,0.8,0.3c0.2,0.2,0.3,0.5,0.3,0.8v2.2
					c0,0.3-0.1,0.6-0.3,0.8s-0.5,0.3-0.8,0.3h-17.8v9.8c0,1.1,0.1,2.1,0.3,2.8c0.2,0.8,0.5,1.4,1,1.9c0.5,0.5,1.2,0.8,2.1,1
					c0.9,0.2,2.2,0.3,3.7,0.3h11.2c0.4,0,0.6,0.2,0.6,0.7V199.4z"/>
				<path d="M205.4,188.9c0,1.4-0.2,2.8-0.6,4.2c-0.4,1.4-1.2,2.6-2.2,3.7c-1.1,1.1-2.5,2-4.4,2.7c-1.9,0.7-4.2,1-7.1,1
					c-2,0-3.8-0.1-5.4-0.3c-1.5-0.2-3-0.4-4.2-0.5c-0.5-0.1-0.8-0.2-0.9-0.3c-0.1-0.2-0.2-0.4-0.2-0.7v-2.3c0-0.3,0.1-0.5,0.3-0.7
					c0.2-0.2,0.4-0.2,0.7-0.2h0.2c0.7,0.1,1.4,0.1,2.2,0.2c0.8,0,1.7,0.1,2.5,0.1c0.9,0,1.7,0,2.5,0.1c0.8,0,1.6,0,2.2,0
					c1.7,0,3.2-0.2,4.3-0.5c1.1-0.3,2-0.8,2.7-1.4c0.7-0.6,1.1-1.3,1.4-2.2c0.3-0.8,0.4-1.8,0.4-2.8c0-0.7-0.1-1.4-0.3-2
					s-0.6-1.2-1.2-1.8c-0.5-0.6-1.3-1.2-2.1-1.8c-0.9-0.6-2-1.4-3.3-2.2l-5.6-3.4c-2.7-1.6-4.7-3.3-6-4.9s-2-3.6-2-5.9
					c0-3.5,1.2-6.1,3.6-7.8c2.4-1.7,5.8-2.5,10.3-2.5c0.8,0,1.7,0,2.7,0.1c0.9,0,1.9,0.1,2.8,0.1c0.9,0.1,1.8,0.1,2.6,0.2
					c0.8,0.1,1.5,0.2,2,0.3c0.7,0.1,1,0.4,1,1v2.5c0,0.6-0.3,0.9-1,0.9h-0.1c-1.3-0.1-2.8-0.2-4.7-0.2c-1.8-0.1-3.6-0.1-5.3-0.1
					c-3,0-5.2,0.4-6.5,1.2s-2,2.2-2,4.3c0,1.4,0.5,2.5,1.5,3.5c1,1,2.6,2.2,4.8,3.5l5.3,3.2c1.7,1,3.1,2,4.2,2.9
					c1.2,0.9,2.1,1.9,2.8,2.8c0.7,0.9,1.3,1.9,1.6,2.9C205.3,186.6,205.4,187.7,205.4,188.9z"/>
				<path d="M270.7,198.5c0,0.3-0.1,0.6-0.3,0.8s-0.5,0.3-0.8,0.4c-0.6,0.1-1.2,0.2-1.9,0.3c-0.6,0.1-1.3,0.2-2,0.2
					c-0.7,0.1-1.6,0.1-2.5,0.1c-0.9,0-2,0.1-3.2,0.1c-1.8,0-3.6-0.3-5.4-0.8c-1.8-0.5-3.5-1.5-4.9-2.9c-1.5-1.4-2.7-3.2-3.6-5.5
					c-0.9-2.3-1.4-5.2-1.4-8.7v-8c0-3.6,0.5-6.5,1.4-8.8c0.9-2.3,2.1-4.1,3.6-5.5c1.5-1.4,3.1-2.3,4.9-2.8c1.8-0.5,3.6-0.8,5.4-0.8
					c1.9,0,3.6,0.1,5.3,0.3c1.7,0.2,3.2,0.4,4.4,0.6c0.6,0.1,0.9,0.3,0.9,0.8v3c0,0.2,0,0.3-0.1,0.5c-0.1,0.1-0.3,0.2-0.6,0.2h-0.2
					c-0.5,0-1.2-0.1-1.9-0.1c-0.8-0.1-1.6-0.1-2.4-0.2c-0.9-0.1-1.8-0.1-2.7-0.1c-0.9,0-1.8-0.1-2.7-0.1c-1.4,0-2.8,0.2-4,0.7
					c-1.2,0.4-2.3,1.2-3.2,2.2c-0.9,1-1.6,2.4-2.1,4.1c-0.5,1.7-0.8,3.8-0.8,6.2v8c0,2.4,0.3,4.5,0.8,6.2s1.2,3,2.1,4.1
					c0.9,1,2,1.8,3.2,2.2c1.2,0.5,2.5,0.7,4,0.7c0.8,0,1.7,0,2.6-0.1c0.9,0,1.8-0.1,2.7-0.1c0.9,0,1.7-0.1,2.4-0.1
					c0.7-0.1,1.4-0.1,1.9-0.1h0.2c0.6,0,0.9,0.3,0.9,0.9V198.5z"/>
				<path d="M316.8,182.3c0,3.2-0.4,6-1.2,8.2c-0.8,2.3-1.9,4.2-3.2,5.6c-1.4,1.5-3,2.5-5,3.2c-1.9,0.7-4,1-6.3,1
					c-2.3,0-4.4-0.3-6.3-1c-1.9-0.7-3.6-1.8-5-3.2c-1.4-1.5-2.5-3.3-3.3-5.6c-0.8-2.3-1.2-5-1.2-8.2v-7.5c0-3.2,0.4-6,1.2-8.2
					c0.8-2.3,1.9-4.2,3.3-5.6c1.4-1.5,3-2.5,5-3.2c1.9-0.7,4-1,6.3-1c2.3,0,4.4,0.3,6.3,1c1.9,0.7,3.6,1.8,5,3.2
					c1.4,1.5,2.5,3.3,3.2,5.6c0.8,2.3,1.2,5,1.2,8.2V182.3z M311.4,174.8c0-2.4-0.2-4.5-0.7-6.2c-0.5-1.7-1.2-3.1-2-4.2
					c-0.9-1.1-2-1.9-3.2-2.3c-1.3-0.5-2.7-0.7-4.3-0.7c-1.6,0-3,0.2-4.3,0.7c-1.3,0.5-2.4,1.3-3.3,2.3c-0.9,1.1-1.6,2.5-2.1,4.2
					c-0.5,1.7-0.7,3.8-0.7,6.2v7.5c0,2.4,0.2,4.5,0.7,6.2c0.5,1.7,1.2,3.1,2,4.2c0.9,1.1,2,1.9,3.3,2.3c1.3,0.5,2.7,0.7,4.3,0.7
					c1.6,0,3-0.2,4.3-0.7s2.3-1.3,3.2-2.3c0.9-1.1,1.6-2.5,2-4.2c0.5-1.7,0.7-3.8,0.7-6.2V174.8z"/>
				<path d="M369,198.9c0,0.3-0.1,0.6-0.3,0.8c-0.2,0.2-0.5,0.3-0.8,0.3h-2.8c-0.3,0-0.6-0.1-0.8-0.3s-0.3-0.5-0.3-0.8v-34.3
					c0-0.1,0-0.2-0.1-0.2c0,0-0.1,0-0.1,0.1l-8.3,17.1c-0.3,0.6-0.6,1-1,1.3c-0.3,0.3-0.9,0.4-1.6,0.4h-2.7c-0.7,0-1.3-0.1-1.6-0.4
					c-0.3-0.3-0.7-0.7-1-1.3l-8.3-17.1c0-0.1-0.1-0.1-0.1-0.1c0,0-0.1,0.1-0.1,0.2v34.3c0,0.3-0.1,0.6-0.3,0.8
					c-0.2,0.2-0.5,0.3-0.8,0.3h-2.8c-0.3,0-0.6-0.1-0.8-0.3c-0.2-0.2-0.3-0.5-0.3-0.8v-40.2c0-0.5,0.2-0.9,0.5-1.2
					c0.3-0.3,0.7-0.5,1.2-0.5h3.7c0.5,0,0.9,0.1,1.2,0.2c0.3,0.1,0.5,0.4,0.7,0.8l9.6,19.9c0.2,0.4,0.4,0.6,0.7,0.6
					c0.3,0,0.5-0.2,0.7-0.6l9.6-19.9c0.2-0.4,0.4-0.6,0.7-0.8c0.3-0.1,0.6-0.2,1.2-0.2h3.7c0.5,0,0.8,0.2,1.2,0.5
					c0.3,0.3,0.5,0.7,0.5,1.2V198.9z"/>
				<path d="M414.5,169.9c0,2.4-0.4,4.5-1.2,6.1s-1.9,3-3.4,4c-1.4,1-3.2,1.8-5.1,2.2c-2,0.4-4.1,0.7-6.5,0.7c-0.9,0-1.9,0-3-0.1
					c-1.1-0.1-2-0.1-2.8-0.2v16.3c0,0.3-0.1,0.6-0.3,0.8c-0.2,0.2-0.4,0.3-0.8,0.3h-3.1c-0.3,0-0.6-0.1-0.8-0.3
					c-0.2-0.2-0.3-0.5-0.3-0.8v-40.4c0-0.8,0.5-1.3,1.4-1.4c1.2-0.2,2.7-0.3,4.5-0.3c1.7-0.1,3.5-0.1,5.2-0.1c2.4,0,4.5,0.2,6.5,0.7
					c2,0.4,3.7,1.2,5.1,2.1c1.4,1,2.6,2.3,3.4,3.9s1.2,3.6,1.2,5.9V169.9z M409.3,169.2c0-2.9-0.9-5-2.7-6.2
					c-1.8-1.2-4.5-1.8-8.3-1.8c-0.9,0-1.9,0-3,0.1c-1.1,0-2.1,0.1-2.8,0.2v16.9c0.3,0,0.8,0,1.3,0.1c0.5,0,1,0.1,1.6,0.1
					c0.5,0,1.1,0,1.6,0.1c0.5,0,1,0,1.4,0c4,0,6.8-0.7,8.5-2c1.7-1.3,2.5-3.5,2.5-6.5V169.2z"/>
				<path d="M461.4,199.1c0,0.6-0.3,0.9-1,0.9H457c-0.3,0-0.5-0.1-0.6-0.3s-0.3-0.4-0.3-0.6l-3.8-13.3h-15l-3.7,13.3
					c-0.1,0.2-0.2,0.4-0.4,0.6c-0.2,0.2-0.4,0.3-0.6,0.3h-3.4c-0.7,0-1-0.3-1-0.9c0-0.2,0-0.3,0.1-0.4l10.7-37.7
					c0.2-0.9,0.6-1.6,1-2.2c0.4-0.6,0.9-1,1.5-1.3c0.5-0.3,1.1-0.6,1.7-0.7c0.6-0.1,1.2-0.2,1.7-0.2c0.5,0,1.1,0.1,1.7,0.2
					c0.6,0.1,1.1,0.3,1.7,0.7c0.5,0.3,1,0.8,1.5,1.3s0.8,1.3,1,2.2l10.7,37.7C461.4,198.8,461.4,198.9,461.4,199.1z M445.9,162.2
					c-0.2-0.7-0.6-1-1.1-1c-0.6,0-1,0.3-1.2,1l-5.3,19h12.8L445.9,162.2z"/>
				<path d="M507.1,198.4c0,0.5-0.2,0.9-0.5,1.2c-0.3,0.3-0.7,0.5-1.2,0.5h-3.5c-0.9,0-1.5-0.3-1.9-0.9l-17.9-34
					c-0.1-0.1-0.1-0.2-0.2-0.2c0,0-0.1,0.1-0.1,0.2v33.8c0,0.3-0.1,0.6-0.3,0.8c-0.2,0.2-0.4,0.3-0.8,0.3h-3c-0.3,0-0.6,0-0.8-0.1
					c-0.2-0.1-0.3-0.3-0.3-0.6v-40.7c0-0.5,0.2-0.8,0.5-1.2c0.3-0.3,0.7-0.5,1.2-0.5h3.2c0.8,0,1.4,0.1,1.6,0.3
					c0.3,0.2,0.5,0.5,0.8,0.9l17.8,33.8l0.1,0.2c0,0,0.1-0.1,0.1-0.2v-33.9c0-0.3,0.1-0.6,0.3-0.8c0.2-0.2,0.4-0.3,0.7-0.3h3
					c0.3,0,0.6,0.1,0.7,0.3c0.2,0.2,0.3,0.5,0.3,0.8V198.4z"/>
				<path d="M552.7,157.8c0,0.2-0.1,0.4-0.2,0.6l-9,20.1c-0.5,1.2-1.1,2-1.6,2.6c-0.5,0.6-1,1-1.6,1.2v16.4c0,0.3-0.1,0.6-0.3,0.8
					s-0.4,0.3-0.8,0.3h-3.2c-0.3,0-0.6-0.1-0.8-0.3s-0.3-0.5-0.3-0.8v-16.4c-0.5-0.2-1.1-0.6-1.6-1.2c-0.5-0.6-1-1.5-1.6-2.6
					l-8.9-20.1c-0.1-0.2-0.2-0.4-0.2-0.6c0-0.5,0.3-0.8,1-0.8h3.5c0.2,0,0.4,0.1,0.6,0.3c0.2,0.2,0.4,0.4,0.4,0.6l8,18.8
					c0.3,0.7,0.6,1.1,0.8,1.2c0.2,0.2,0.4,0.3,0.6,0.3c0.2,0,0.4-0.1,0.6-0.3c0.2-0.2,0.4-0.6,0.8-1.2l8-18.8
					c0.1-0.2,0.2-0.4,0.4-0.6c0.2-0.2,0.4-0.3,0.6-0.3h3.5C552.4,157,552.7,157.3,552.7,157.8z"/>
			</g>
		</g>
	</g>
</g>
</svg>
