<?xml version="1.0" encoding="utf-8"?>
<!-- Generator: Adobe Illustrator 29.4.0, SVG Export Plug-In . SVG Version: 9.03 Build 0)  -->
<svg version="1.1" xmlns="http://www.w3.org/2000/svg" xmlns:xlink="http://www.w3.org/1999/xlink" x="0px" y="0px"
	 viewBox="0 0 841.9 251.2" style="enable-background:new 0 0 841.9 251.2;" xml:space="preserve">
<style type="text/css">
	.st0{fill:#063FB2;}
	.st1{fill:#F9AE42;}
	.st2{fill:#009247;}
	.st3{fill:#8C734B;}
</style>
<g id="Layer_1">
</g>
<g id="Layer_2">
	<g>
		<g>
			<g>
				<path d="M771.5,211.7l5.7,39.5l12.5-20.2l-3.8-27.6c0.3-0.3,0.8-0.5,1.1-0.9c1.6-1.3,3.1-2.5,4.3-3.7c1.5,1.5,3.2,3,4.9,4.2
					s3.7,2.5,6,3.8c3.2,1.9,6.5,3.4,9.6,4.6c3.2,1.2,6,1.9,8.4,1.9c2.7,0.1,5.4-1,7.9-3.4s4.9-5.7,7.3-10c0.4-0.8,0.8-1.6,0.9-2.7
					s0.2-2.3,0-3.6c-0.1-1.3-0.3-2.7-0.5-4c-0.2-1.4-0.7-2.8-1.2-4.4c-0.8-2.4-1.6-4.8-2.7-7.1c-1.1-2.3-2.3-4.5-3.6-6.5
					s-2.6-3.6-4-4.9c-1.4-1.3-2.7-2.1-4-2.4c-2.5-0.4-4.8,0-6.8,1.4c-3.6,2.3-6.7,5-9.3,8s-4.8,6.1-6.8,9.6l-10.6,11
					c0.3,0.4,0.5,0.8,0.8,1c0.2,0.2,0.4,0.7,0.9,1.2c-1,0.4-2.1,0.9-3.2,1.3l-12.1-87.6l-13.6,15.5l10.7,74.7h-5.2l-9-72.8
					l-13.3,13.8l9,72.6l0,0l0,0l1.9,14.3c-1.5-0.5-3.1-1.1-4.7-1.7c-1.6-0.7-3.2-1.3-4.7-2.1c-3.2-1.5-6.3-3.2-9.4-5
					c-3.2-1.9-6-3.9-8.7-6c-2.6-2.1-5-4.2-7.1-6.3c-2.1-2.2-3.5-4.3-4.4-6.3c0.3,0,0.7,0,1,0s0.7-0.1,1-0.2c1.7-0.2,3.7-0.4,5.8-0.5
					c2.2,0,4.6-0.2,7.2-0.3l13.2-13.7c-2.5,0-4.9,0-7,0.2c-2.2,0.2-4.2,0.3-6.1,0.7c-1.9,0.3-3.6,0.7-5.1,1.1c-1.5,0.3-3,0.8-4,1.2
					c-2.1,1-5.1,3.5-9.2,7.5c-3.6,3.7-6.2,6.6-8,8.7c-1.7,2.2-2.6,3.6-2.6,4.3c-0.3,2.2,0.3,4.6,2.1,7.2c1.7,2.6,4,5.1,7,7.8
					c3,2.6,6.2,5,10.1,7.4c3.7,2.4,7.5,4.5,11.4,6.2c2.3,1.2,4.7,2.3,6.9,3.1c2.3,0.9,4.4,1.4,6.3,1.9c2,0.4,3.8,0.7,5.4,0.7
					c1.5,0,2.7-0.2,3.7-0.8c4-2.3,7.2-4.6,9.7-6.8c2.4-2.3,4-4.6,4.8-6.8c0.2-0.7,0.3-1.3,0.5-2c0.1-0.7,0.1-1.5,0-2.5l-1.4-10.8
					l5.1-2.4L771.5,211.7z M819.2,199.1c-2.2-1-4.3-2-6.3-3.2c-2.3-1.4-4.6-2.8-6.9-4.5c-2.3-1.5-4.2-3.2-5.7-4.8
					c1.3-1.9,2.4-3.6,3.4-5.4c0.9-1.7,1.7-3.6,2.6-5.5c0-0.2,0.2-0.4,0.4-0.5c1-0.2,2-0.1,3,0c1.3,0.2,2.6,1.1,4,2.4
					c1.4,1.3,2.7,3,4,4.9c1.3,2,2.5,4,3.6,6.5c1.1,2.3,2.1,4.7,2.8,7.1c0.2,1,0.5,1.9,0.7,2.6c0.2,0.8,0.3,1.6,0.5,2.6
					c-2-0.5-4-1.4-6.1-2.4V199.1z"/>
				<path d="M741.7,107.4c0.5,0.4,1.2,0.5,2.1,0.2s2.1-0.7,3.6-1.2s3.3-1.1,5.2-1.6c2-0.5,4-0.8,6.1-0.8l-4.5,5l3.4,13.8l12.5-13.9
					v-0.2h0.1l-3.3-13.9c-2.2-1.9-4.3-3.2-6.5-3.8c-2.1-0.7-4.2-1-6.1-0.9c-2,0-3.8,0.3-5.6,0.9s-3.4,1.1-4.9,1.5
					c-0.9,0.3-1.6,0.5-2.3,0.9c-0.7,0.3-1.3,0.4-1.9,0.3c0.3-2.2,0.9-4.3,1.7-6.1c0.8-1.9,1.7-3.3,2.8-4.2l-3.4-13.9
					c-1.1,1.1-2.2,2.8-3.1,5.1c-0.9,2.3-1.4,4.8-1.7,7.4c-0.4,4.6-0.2,9.1,0.5,13.6c0.8,4.4,2.5,8.3,5.1,11.6L741.7,107.4z"/>
				<polygon points="632,174.8 625.2,170.5 616.3,177.9 624.1,182.7 629.2,178.3 636,182.7 644.8,175.3 637,170.5 				"/>
				<polygon points="685.8,126.3 675.4,121.2 668.1,132.3 678.5,137.3 				"/>
				<path d="M701.3,165.3l4.4,33.4l13.5-13.8l-2.6-19.6h3.5l13.2-13l-9.5-69.8l-13.2,13l8.6,59.7h-4l-8-58.8L694,110.2l6,45.4
					c-0.5-0.1-1.1-0.3-1.7-0.5c-1.9-0.7-3.9-1.5-5.9-2.7c-2.1-1.1-4.2-2.4-6.2-3.7c-2.1-1.4-4.3-2.8-6.3-4.4c-2.5-1.6-5-3.3-7.4-4.9
					c-2.4-1.5-4.8-3-7-3.9c-2.3-1-4.4-1.7-6.3-2.1c-2-0.3-3.8,0-5.4,0.8c-2.2,1.1-4,2.2-5.6,3.3c-1.5,1.2-2.7,2.4-3.8,3.6
					c-1,1.2-1.7,2.5-2.3,3.8c-0.5,1.3-0.9,2.6-1,3.9c-0.2,1.1-0.2,2.1,0,3.2c0.1,1.1,0.3,2.2,0.5,3.3l8.7-9.6c0-0.5-0.2-1-0.3-1.5
					c0-0.5-0.2-1.1-0.2-1.6c1.6,0.1,3.6,0.7,5.7,1.6s4.3,2.2,6.5,3.5s4.4,2.8,6.7,4.3c2.2,1.5,4.4,2.8,6.3,4.2h-37l-4.5-26.2
					l-10.9,9.3l2.3,13.2c-1.5-0.9-3-1.9-4.2-3c-1.7-1.6-3.2-3.5-4.4-5.5c-1.1-2.1-2.1-4-2.8-6.1c-0.8-2.1-1.3-4-1.9-5.9
					c-0.5-1.9-1-3.4-1.3-4.6c-0.4-1-0.8-2-1.2-3c-0.3-1-0.8-2-1.2-3l-5,5.1l-4.9,5c1,2.2,1.7,4.7,2.5,7.2c0.8,2.6,1.4,5.2,2,7.9
					c0.8,3.6,1.4,7,1.9,10.2c0.4,3.2,0.8,5.9,0.8,8.2c0,0.5-0.1,1-0.5,1.4s-1,0.8-1.6,1.1c-0.8,0.3-1.5,0.7-2.5,0.9
					c-1,0.3-2,0.5-3.1,0.9c-1.6,0.4-3.4,0.9-5.1,1.3c-1.7,0.4-3.4,1-5.1,1.6c-1.6,0.7-3.3,1.3-4.8,2.2s-3,1.9-4.2,3l-9.7,10.1
					c1.2-1.1,2.6-2.1,4.2-2.8s3.1-1.5,4.7-2.2s3.3-1.2,5-1.6c1.7-0.4,3.5-0.9,5.2-1.3c3.4-0.9,6.7-1.7,9.7-2.6
					c3.1-0.9,5.9-2.1,8.4-3.5s4.6-3.2,6.2-5.2s2.7-4.7,3.2-7.9c0,0,0.1,0.1,0.2,0.2l-0.2,0.2h0.5c1.5,1.4,3.1,2.4,4.5,3.2
					c0.9,0.4,1.9,0.8,2.8,1c0.3,0.1,0.9,0.2,1.5,0.2c0,0,0,0,0.1,0c0.3,0,0.8,0,1.2,0l0,0c15,0.2,55.1,0.3,72.5,0.3l0,0h3.1v-0.2
					H701.3z"/>
			</g>
			<g>
				<path class="st0" d="M668.8,196.7h5.1c0,0,0,0,0,0c0.1,0,0.2-0.1,0.3-0.2l2.2-3c0-0.1,0.1-0.1,0.1-0.2c0-0.7-0.1-1.4-0.4-2
					c-0.3-0.6-0.6-1-1-1.4c-0.4-0.4-0.8-0.7-1.3-1l-0.1-0.1c-0.4-0.2-0.7-0.4-1.1-0.6c-0.2-0.1-0.3-0.2-0.4-0.2
					c0.3-0.1,0.6-0.3,0.9-0.4c0.5-0.2,0.9-0.2,1.2-0.2c0.1,0,0.2,0,0.3-0.2l2.2-2.9c0.1-0.1,0.1-0.2,0-0.4s-0.2-0.2-0.3-0.2
					c-0.5-0.1-1.1,0-1.8,0.3c-0.7,0.2-1.3,0.6-1.9,1c-1.1,0.7-2,1.5-2.7,2.5c-0.8,0.9-1.3,2-1.5,3.1c0,0.3,0.2,0.6,0.6,0.8
					c0.2,0.1,0.3,0.2,0.5,0.3l0.3,0.2c0.4,0.2,0.8,0.4,1.3,0.7c0.2,0.1,0.3,0.2,0.5,0.3h-0.9c-0.1,0-0.2,0.1-0.3,0.2l-2.1,3
					c-0.1,0.1-0.1,0.3,0,0.4C668.6,196.6,668.7,196.7,668.8,196.7z"/>
				<path class="st0" d="M692.3,197.7c0-0.2-0.1-0.3-0.3-0.3c-0.1,0-0.3,0-0.4,0.1l-3.6,4.9c-0.1,0.1-0.1,0.2-0.1,0.3l2,20.9h-1.1
					c-1.1,0-2.1-0.2-2.8-0.5c-0.8-0.3-1.4-0.8-1.8-1.5c-0.5-0.7-0.9-1.6-1.2-2.7c-0.3-1.2-0.6-2.6-0.7-4.2l-1.5-16.9
					c0-0.2-0.1-0.3-0.3-0.3c-0.2,0-0.3,0-0.4,0.1l-3.7,4.9c-0.1,0.1-0.1,0.2-0.1,0.3l2.3,25.6c-0.2-0.1-0.5-0.1-0.8-0.2
					c-0.4-0.1-0.9-0.3-1.3-0.4l-0.3-0.1c-0.6-0.2-1.1-0.4-1.6-0.6c-0.5-0.2-0.9-0.4-1.3-0.6c-0.2-0.1-0.4-0.2-0.6-0.3l2.5-3.4
					c0.1-0.1,0.1-0.2,0.1-0.3l-2.4-24.7c0-0.2-0.1-0.3-0.3-0.3c-0.2,0-0.3,0-0.4,0.1l-3.6,4.9c-0.1,0.1-0.1,0.2-0.1,0.3l2.1,22
					c-0.6-0.4-1.1-0.9-1.5-1.3c-0.5-0.5-0.9-1-1.1-1.5l1.8-2.4c0.1-0.1,0.1-0.3,0-0.4c-0.1-0.1-0.3-0.2-0.4-0.2
					c-1.2,0.3-2.2,0.7-3,1.2c-0.8,0.5-1.5,1-2,1.7c-0.5,0.7-0.8,1.4-0.9,2.1c-0.1,0.8-0.2,1.6,0,2.5c0.1,0.5,0.3,1,0.7,1.4
					c0.3,0.5,0.8,0.9,1.3,1.5c0.5,0.5,1.2,1,1.8,1.4c0.7,0.5,1.4,0.9,2.1,1.3c0.7,0.5,1.6,0.8,2.5,1.2c0.9,0.3,1.8,0.6,2.7,0.8
					c1,0.2,1.7,0.4,2.4,0.5c0.5,0.1,0.9,0.1,1.3,0.1c0.2,0,0.3,0,0.5,0c0.6,0,1.2-0.2,1.8-0.5c0.6-0.3,1.1-0.6,1.6-1
					c0.5-0.5,0.8-0.9,1.1-1.4c0.3-0.6,0.4-1.2,0.4-1.8l-0.1-1.4c0.2,0.1,0.3,0.2,0.5,0.3c0.3,0.2,0.6,0.3,0.9,0.3c0.1,0,0.1,0,0.2,0
					h5.9c0.1,0,0.2-0.1,0.3-0.2l3.6-4.9c0.1-0.1,0.1-0.2,0.1-0.3L692.3,197.7z"/>
				<path class="st0" d="M570.2,217.1h5c0,0,0,0,0,0c0.1,0,0.2-0.1,0.3-0.2l2.2-2.9c0-0.1,0.1-0.1,0.1-0.2c0-0.7-0.1-1.4-0.4-1.9
					c-0.3-0.5-0.6-1-1-1.4c-0.4-0.4-0.8-0.7-1.3-0.9l-0.3-0.2c-0.3-0.2-0.6-0.3-0.9-0.5c-0.1-0.1-0.3-0.1-0.4-0.2
					c0.3-0.1,0.6-0.2,0.9-0.3c0.5-0.2,0.9-0.2,1.2-0.2c0.1,0,0.2-0.1,0.3-0.2l2.1-2.9c0.1-0.1,0.1-0.3,0-0.4s-0.2-0.2-0.3-0.2
					c-0.5,0-1.1,0.1-1.7,0.3c-0.6,0.2-1.3,0.5-1.8,0.9c-1.1,0.7-1.9,1.5-2.7,2.4c-0.8,0.9-1.3,1.9-1.5,3.1c0,0.3,0.2,0.6,0.5,0.8
					c0.2,0.1,0.3,0.2,0.6,0.3l0.3,0.2c0.4,0.2,0.8,0.4,1.2,0.7c0.2,0.1,0.3,0.2,0.4,0.3h-0.8c-0.1,0-0.2,0.1-0.3,0.2l-2.1,2.9
					c-0.1,0.1-0.1,0.3,0,0.4C569.9,217,570.1,217.1,570.2,217.1z"/>
				<path class="st0" d="M587,211.8l-1.3-14.8c0-0.2-0.1-0.3-0.3-0.3c-0.2,0-0.3,0-0.4,0.1l-3.6,4.8c-0.1,0.1-0.1,0.2-0.1,0.3
					l2.3,25.2c-0.2-0.1-0.5-0.1-0.8-0.2c-0.5-0.1-0.9-0.3-1.4-0.4l-0.1,0c-0.5-0.2-1.1-0.4-1.6-0.5c-0.5-0.2-0.9-0.4-1.3-0.6
					c-0.3-0.1-0.5-0.3-0.9-0.5l-1.1-0.7c-0.8-0.6-1.5-1.2-2.1-1.8c-0.5-0.5-0.9-1-1.1-1.4l1.8-2.4c0.1-0.1,0.1-0.3,0-0.4
					c-0.1-0.1-0.2-0.2-0.4-0.2c-1.2,0.3-2.2,0.7-3,1.2c-0.8,0.5-1.4,1-1.9,1.7c-0.5,0.7-0.8,1.4-0.9,2.1c-0.1,0.7-0.2,1.5,0,2.4
					c0.1,0.5,0.3,0.9,0.7,1.4c0.3,0.4,0.7,0.9,1.3,1.5c0.5,0.5,1.1,1,1.8,1.4c0.8,0.5,1.4,0.9,2.1,1.3c0.7,0.4,1.5,0.8,2.4,1.1
					c0.9,0.3,1.7,0.6,2.6,0.8c1,0.2,1.7,0.4,2.3,0.5c0.5,0.1,0.9,0.1,1.3,0.1c0.2,0,0.3,0,0.4,0c0.6,0,1.1-0.2,1.8-0.5
					c0.5-0.2,1-0.6,1.5-1c0.5-0.4,0.8-0.9,1.1-1.4c0.3-0.6,0.4-1.1,0.4-1.8L587,211.8C587,211.8,587,211.8,587,211.8z"/>
				<path class="st0" d="M661.4,219.4c-0.1,0-0.2,0-0.3,0c-0.1,0-0.2,0.1-0.2,0.2c0,0-1.1,2.6-2.8,4h-4.3c0.7-1,1.3-2.3,1.3-3.9
					c0-0.2-0.1-0.3-0.3-0.4c-0.2,0-0.3,0-0.4,0.2c0,0-2.1,3.7-6.5,4.1h-0.4c0.8-0.7,1.9-1.9,2-2.7c0-0.1-0.1-0.3-0.2-0.4
					c-0.1-0.1-0.3-0.1-0.4,0c0,0-3.4,2.6-6.3,3h-6.9l-2,0l-0.2,0c-0.3,0-0.6,0-0.9-0.1c-0.6-0.1-1-0.2-1.5-0.4
					c-0.4-0.2-0.8-0.4-1.1-0.7c-0.3-0.3-0.6-0.8-0.9-1.6c-0.3-0.8-0.6-1.6-1.1-2.5c-0.5-0.9-1.1-1.8-1.7-2.6
					c-0.7-0.8-1.7-1.5-2.8-1.9c-0.5-0.2-1-0.2-1.7-0.2c-0.7,0.1-1.4,0.2-2.1,0.5c-1.3,0.3-2.3,0.8-3.2,1.4c-0.9,0.6-1.7,1.3-2.5,2
					c-0.8,0.8-1.4,1.5-2,2.2c-0.6,0.8-1.2,1.4-1.8,2c-0.6,0.6-1.2,1.1-1.8,1.4c-1,0.6-2.2,0.6-3.4,0.5l-0.2,0
					c-0.9,0-1.9-0.1-2.7-0.3c-1.2-0.3-2.1-0.9-2.7-1.7c-0.5-0.7-0.9-1.6-1.2-2.7c-0.3-1.2-0.5-2.6-0.7-4.2l-1.4-16.9
					c0-0.2-0.1-0.3-0.3-0.3c-0.1,0-0.3,0-0.4,0.1l-3.7,4.9c-0.1,0.1-0.1,0.2-0.1,0.3c0,0.4,0.1,0.9,0.1,1.3l0.1,1.1
					c0.1,1.6,0.3,3.2,0.4,4.8l0.5,5.5c0,0.4,0.1,0.8,0.1,1.2c0.1,0.7,0.1,1.4,0.2,2.1l0,0.1c0,1.1,0.1,2.2,0.4,3.3
					c0.3,1.1,0.7,2,1.4,2.9c0.5,0.7,1.2,1.4,2.1,2.1c0.1,0.1,0.2,0.1,0.3,0.2c0.1,0.1,0.2,0.2,0.4,0.3c0.7,0.5,1.5,0.9,2.3,1.2
					c1.3,0.5,2.8,0.4,2.9,0.4c1.1-0.1,2-0.2,2.8-0.5c1.1-0.4,2.1-0.9,3-1.5c0.9-0.6,1.7-1.3,2.4-2.2c0.5-0.6,1-1.2,1.5-1.9
					c0.2,0.7,0.5,1.4,0.9,2.1c0.6,1,1.2,1.9,2,2.7c0.8,1,1.9,1.8,3,2.5c1.1,0.7,2.3,1,3.6,1c0.7,0,1.3-0.2,1.7-0.6
					c0.7-0.6,1.4-1.2,2-1.8c0.5-0.5,0.9-0.9,1.2-1.3c0.6,0.5,1.2,0.8,1.9,1.1c0.7,0.2,1.4,0.4,2.3,0.4h1c0,0,0.1,0,0.1,0l26.3,0
					c0.1,0,2.7-0.3,4-5.2c0,0,0,0,0-0.1C662.5,223.4,663,220.1,661.4,219.4z M623.9,226.7c-0.7-0.2-1.4-0.5-2.1-1
					c-0.8-0.6-1.6-1.2-2.3-2c-0.8-0.9-1.4-1.8-1.9-2.7c-0.5-0.8-0.8-1.6-1-2.4c0.5-0.2,1-0.3,1.6-0.3c0.6,0,1,0,1.3,0.2
					c0.1,0.1,0.4,0.2,0.7,0.6c0.3,0.3,0.6,0.7,0.9,1.2c0.3,0.5,0.7,1,1,1.6c0.3,0.6,0.6,1.2,0.9,1.9c0.2,0.6,0.4,1.1,0.6,1.8
					C623.7,226,623.8,226.3,623.9,226.7z"/>
			</g>
			<g>
				<path class="st1" d="M826.6,125c-15,33.4-31.5,58.4-35.3,56.3c-3.8-2.2,5-33.6,20-66.9c15-33.4,25.2-80.2,29-78.1
					C844.1,38.3,841.6,91.6,826.6,125"/>
				<path class="st2" d="M812.7,90.6c-9.7,35.2-22.2,62.6-26.4,61c-4.2-1.5-0.1-33.9,9.6-69.1c9.7-35.2,12.7-83.1,16.8-81.6
					C816.9,2.4,822.4,55.4,812.7,90.6"/>
				<path class="st3" d="M797.7,52.8c-7.1,37.7-12.9,64.6-17.2,63.6c-4.3-1.1-2.6-33.7,3.1-69.8c5.7-36.2,4.5-47.7,8.7-46.6
					C796.6,1,802.3,28.4,797.7,52.8"/>
			</g>
		</g>
		<g>
			<rect x="-0.4" y="131.3" class="st3" width="540.6" height="1.3"/>
			<g>
				<path d="M46.6,109.8c0,0.4-0.1,0.7-0.4,0.9c-0.3,0.2-0.6,0.3-1,0.3h-7.9c-0.4,0-0.7-0.1-0.9-0.4c-0.3-0.2-0.4-0.5-0.5-0.9
					l-3.4-14.2H15.2l-3.5,14.2c-0.1,0.3-0.3,0.7-0.5,0.9c-0.3,0.3-0.6,0.4-0.9,0.4h-8c-0.4,0-0.7-0.1-1-0.3
					c-0.3-0.2-0.4-0.5-0.4-0.9c0,0,0-0.1,0-0.2c0,0,0-0.1,0-0.2l12.3-47c0.5-1.8,1.1-3.1,2-4.1c0.8-1,1.8-1.8,2.7-2.3
					c1-0.5,2-0.9,3-1c1-0.1,1.9-0.2,2.7-0.2c0.8,0,1.7,0.1,2.7,0.2c1,0.2,2,0.5,3,1c1,0.5,1.9,1.3,2.7,2.3c0.8,1,1.5,2.4,1.9,4.1
					l12.3,47c0,0.1,0,0.2,0,0.2C46.6,109.7,46.6,109.7,46.6,109.8z M25,64.7c-0.1-0.4-0.2-0.8-0.4-0.9c-0.1-0.2-0.4-0.3-0.8-0.3
					c-0.4,0-0.7,0.1-0.8,0.3c-0.1,0.2-0.3,0.5-0.4,0.9L17.2,87h13.2L25,64.7z"/>
				<path d="M101.8,109.9c0,0.4-0.1,0.7-0.4,0.9c-0.3,0.2-0.6,0.3-0.9,0.3H93c-0.4,0-0.6-0.1-0.9-0.5c-0.2-0.3-0.3-0.6-0.3-1V74.7
					c0-0.5-0.1-0.8-0.2-0.8c-0.1,0-0.2,0.1-0.4,0.5L84,88.7c-0.3,0.4-0.6,0.7-1,0.9c-0.4,0.2-0.9,0.3-1.4,0.3H74
					c-0.5,0-1-0.1-1.4-0.3c-0.4-0.2-0.8-0.5-1-0.9l-7.3-14.3c-0.2-0.3-0.3-0.5-0.4-0.5c-0.1,0-0.2,0.3-0.2,0.8v34.9
					c0,0.4-0.1,0.8-0.3,1c-0.2,0.3-0.5,0.5-0.9,0.5H55c-0.4,0-0.7-0.1-0.9-0.3c-0.3-0.2-0.4-0.5-0.4-0.9V58.3c0-0.8,0.3-1.6,0.9-2.1
					c0.6-0.6,1.3-0.9,2.1-0.9h6.1c0.6,0,1.1,0.2,1.6,0.5c0.5,0.3,0.9,0.8,1.1,1.3l11.3,22.9c0.2,0.4,0.3,0.6,0.5,0.8
					c0.1,0.2,0.2,0.3,0.4,0.3c0.1,0,0.3-0.1,0.4-0.3c0.1-0.2,0.2-0.4,0.4-0.8l11.3-22.9c0.2-0.5,0.6-1,1.1-1.3
					c0.5-0.3,1-0.5,1.6-0.5h6.1c0.8,0,1.6,0.3,2.1,0.9c0.6,0.6,0.9,1.3,0.9,2.1V109.9z"/>
				<path d="M154.5,109.8c0,0.4-0.1,0.7-0.4,0.9c-0.3,0.2-0.6,0.3-1,0.3h-7.9c-0.4,0-0.7-0.1-0.9-0.4c-0.3-0.2-0.4-0.5-0.5-0.9
					l-3.4-14.2h-17.2l-3.5,14.2c-0.1,0.3-0.3,0.7-0.5,0.9c-0.3,0.3-0.6,0.4-0.9,0.4h-8c-0.4,0-0.7-0.1-1-0.3
					c-0.3-0.2-0.4-0.5-0.4-0.9c0,0,0-0.1,0-0.2c0,0,0-0.1,0-0.2l12.3-47c0.5-1.8,1.1-3.1,2-4.1c0.8-1,1.8-1.8,2.7-2.3
					c1-0.5,2-0.9,3-1c1-0.1,1.9-0.2,2.7-0.2c0.8,0,1.7,0.1,2.7,0.2c1,0.2,2,0.5,3,1c1,0.5,1.9,1.3,2.7,2.3c0.8,1,1.5,2.4,1.9,4.1
					l12.3,47c0,0.1,0,0.2,0,0.2C154.5,109.7,154.5,109.7,154.5,109.8z M132.9,64.7c-0.1-0.4-0.2-0.8-0.4-0.9
					c-0.1-0.2-0.4-0.3-0.8-0.3c-0.4,0-0.7,0.1-0.8,0.3c-0.1,0.2-0.3,0.5-0.4,0.9L125.1,87h13.2L132.9,64.7z"/>
				<path d="M193.1,109c0,0.6-0.1,0.9-0.3,1.1c-0.2,0.2-0.6,0.3-1.2,0.4c-0.6,0.2-1.3,0.3-2.4,0.4c-1,0.1-2.1,0.2-3.3,0.3
					c-1.2,0.1-2.4,0.2-3.7,0.2c-1.3,0-2.4,0.1-3.4,0.1c-2.5,0-4.7-0.2-6.8-0.6s-3.9-1.2-5.5-2.3c-1.6-1.1-2.8-2.7-3.7-4.7
					c-0.9-2-1.4-4.6-1.4-7.8V56.8c0-0.4,0.1-0.8,0.5-1c0.3-0.3,0.6-0.5,1-0.5h7.4c0.4,0,0.8,0.2,1.1,0.5c0.3,0.3,0.4,0.7,0.4,1v39.5
					c0,2.5,0.4,4.2,1.3,5.1c0.8,0.9,2.4,1.3,4.6,1.3h13.8c0.4,0,0.8,0.2,1,0.5s0.5,0.7,0.5,1V109z"/>
				<path d="M260.4,109.8c0,0.4-0.1,0.7-0.4,0.9c-0.3,0.2-0.6,0.3-1,0.3h-7.9c-0.4,0-0.7-0.1-0.9-0.4c-0.3-0.2-0.4-0.5-0.5-0.9
					l-3.4-14.2H229l-3.5,14.2c-0.1,0.3-0.3,0.7-0.5,0.9c-0.3,0.3-0.6,0.4-0.9,0.4h-8c-0.4,0-0.7-0.1-1-0.3c-0.3-0.2-0.4-0.5-0.4-0.9
					c0,0,0-0.1,0-0.2c0,0,0-0.1,0-0.2l12.3-47c0.5-1.8,1.1-3.1,2-4.1c0.8-1,1.8-1.8,2.7-2.3c1-0.5,2-0.9,3-1c1-0.1,1.9-0.2,2.7-0.2
					c0.8,0,1.7,0.1,2.7,0.2c1,0.2,2,0.5,3,1c1,0.5,1.9,1.3,2.7,2.3c0.8,1,1.5,2.4,1.9,4.1l12.3,47c0,0.1,0,0.2,0,0.2
					C260.4,109.7,260.4,109.7,260.4,109.8z M238.8,64.7c-0.1-0.4-0.2-0.8-0.4-0.9c-0.1-0.2-0.4-0.3-0.8-0.3c-0.4,0-0.7,0.1-0.8,0.3
					c-0.1,0.2-0.3,0.5-0.4,0.9L231,87h13.2L238.8,64.7z"/>
				<path d="M299,109c0,0.6-0.1,0.9-0.3,1.1c-0.2,0.2-0.6,0.3-1.2,0.4c-0.6,0.2-1.3,0.3-2.4,0.4c-1,0.1-2.1,0.2-3.3,0.3
					c-1.2,0.1-2.4,0.2-3.7,0.2c-1.3,0-2.4,0.1-3.4,0.1c-2.5,0-4.7-0.2-6.8-0.6s-3.9-1.2-5.5-2.3c-1.6-1.1-2.8-2.7-3.7-4.7
					c-0.9-2-1.4-4.6-1.4-7.8V56.8c0-0.4,0.1-0.8,0.5-1c0.3-0.3,0.6-0.5,1-0.5h7.4c0.4,0,0.8,0.2,1.1,0.5c0.3,0.3,0.4,0.7,0.4,1v39.5
					c0,2.5,0.4,4.2,1.3,5.1c0.8,0.9,2.4,1.3,4.6,1.3h13.8c0.4,0,0.8,0.2,1,0.5s0.5,0.7,0.5,1V109z"/>
				<path d="M365.4,110.4c0,0.4-0.4,0.7-1.1,0.7h-10c-0.8,0-1.4-0.3-1.7-0.8l-17.2-25.6v24.9c0,0.4-0.1,0.8-0.4,1
					c-0.3,0.3-0.7,0.5-1.1,0.5h-7.4c-0.4,0-0.8-0.1-1-0.5c-0.3-0.3-0.5-0.6-0.5-1V56.8c0-0.4,0.1-0.7,0.5-1c0.3-0.3,0.6-0.4,1-0.4
					h7.4c0.4,0,0.8,0.1,1.1,0.4c0.3,0.3,0.4,0.6,0.4,1v23.9L353.7,56c0.2-0.2,0.4-0.4,0.7-0.5c0.3-0.1,0.6-0.1,1-0.1h8.6
					c0.9,0,1.4,0.3,1.4,0.9c0,0.4-0.2,0.8-0.5,1.2l-19.2,24.8l19.4,27.2C365.2,109.9,365.4,110.2,365.4,110.4z"/>
				<path d="M415.2,109.6c0,0.4-0.1,0.8-0.4,1c-0.3,0.3-0.7,0.5-1.1,0.5h-7.4c-0.4,0-0.8-0.1-1.1-0.5c-0.3-0.3-0.4-0.6-0.4-1v-23
					h-21.3v23c0,0.4-0.1,0.8-0.4,1c-0.3,0.3-0.7,0.5-1.1,0.5h-7.4c-0.4,0-0.8-0.1-1-0.5c-0.3-0.3-0.5-0.6-0.5-1V56.8
					c0-0.4,0.1-0.7,0.5-1c0.3-0.3,0.6-0.4,1-0.4h7.4c0.4,0,0.8,0.1,1.1,0.4c0.3,0.3,0.4,0.6,0.4,1v20.7h21.3V56.8
					c0-0.4,0.1-0.7,0.4-1c0.3-0.3,0.6-0.4,1.1-0.4h7.4c0.4,0,0.8,0.1,1.1,0.4c0.3,0.3,0.4,0.6,0.4,1V109.6z"/>
				<path d="M467.9,109.8c0,0.4-0.1,0.7-0.4,0.9c-0.3,0.2-0.6,0.3-1,0.3h-7.9c-0.3,0-0.7-0.1-0.9-0.4c-0.2-0.2-0.4-0.5-0.5-0.9
					l-3.4-14.2h-17.2l-3.4,14.2c-0.1,0.3-0.3,0.7-0.5,0.9c-0.3,0.3-0.6,0.4-0.9,0.4h-7.9c-0.4,0-0.7-0.1-1-0.3
					c-0.2-0.2-0.4-0.5-0.4-0.9c0,0,0-0.1,0-0.2c0,0,0-0.1,0-0.2l12.3-47c0.5-1.8,1.1-3.1,2-4.1c0.8-1,1.8-1.8,2.7-2.3
					c1-0.5,2-0.9,3-1c1-0.1,1.9-0.2,2.7-0.2c0.8,0,1.7,0.1,2.7,0.2c1,0.2,2,0.5,3,1c1,0.5,1.9,1.3,2.7,2.3s1.5,2.4,2,4.1l12.3,47
					c0,0.1,0,0.2,0,0.2C467.9,109.7,467.9,109.7,467.9,109.8z M446.3,64.7c-0.1-0.4-0.2-0.8-0.4-0.9c-0.1-0.2-0.4-0.3-0.8-0.3
					s-0.7,0.1-0.8,0.3c-0.2,0.2-0.3,0.5-0.4,0.9L438.5,87h13.2L446.3,64.7z"/>
				<path d="M485.4,109.6c0,0.4-0.1,0.8-0.5,1c-0.3,0.3-0.7,0.5-1,0.5h-7.4c-0.4,0-0.8-0.1-1-0.5c-0.3-0.3-0.5-0.6-0.5-1V56.8
					c0-0.4,0.2-0.7,0.5-1c0.3-0.3,0.6-0.4,1-0.4h7.4c0.4,0,0.8,0.1,1,0.4c0.3,0.3,0.5,0.6,0.5,1V109.6z"/>
				<path d="M537.1,110.2c0,0.6-0.3,0.9-0.9,0.9h-9.1c-0.4,0-0.7-0.1-0.9-0.4c-0.2-0.3-0.4-0.6-0.6-1l-10.8-20h-1.1
					c-1,0-2.2,0-3.4-0.1c-1.3-0.1-2.4-0.1-3.2-0.2v20.3c0,0.4-0.1,0.7-0.4,1c-0.3,0.3-0.6,0.4-1,0.4h-7.5c-0.4,0-0.8-0.1-1-0.5
					c-0.3-0.3-0.5-0.6-0.5-1V58c0-0.8,0.2-1.3,0.6-1.6c0.4-0.3,1-0.5,1.8-0.6c2-0.3,4.2-0.5,6.8-0.7c2.6-0.2,5.2-0.3,8-0.3
					c2.9,0,5.7,0.3,8.3,0.9c2.6,0.6,4.9,1.5,6.9,2.8c2,1.3,3.6,3,4.7,5.2c1.2,2.2,1.8,4.9,1.8,8.1v0.7c0,4-0.9,7.2-2.8,9.8
					c-1.8,2.5-4.3,4.3-7.4,5.6l11.8,21.9C537.1,109.7,537.1,109.9,537.1,110.2z M525,71.7c0-2.9-0.9-4.9-2.8-6.1s-4.7-1.9-8.4-1.9
					c-0.4,0-0.9,0-1.5,0c-0.6,0-1.3,0.1-1.9,0.1c-0.7,0-1.3,0.1-1.8,0.1c-0.6,0-1,0.1-1.4,0.1v16.9c0.3,0,0.8,0,1.4,0
					c0.6,0,1.3,0,2,0.1s1.3,0.1,2,0.1c0.6,0,1.1,0,1.4,0c3.9,0,6.8-0.6,8.6-1.9c1.8-1.2,2.7-3.5,2.7-6.8V71.7z"/>
			</g>
			<g>
				<path d="M31.5,182c0,0.3-0.1,0.6-0.4,0.9c-0.3,0.3-0.6,0.4-0.9,0.4H10.5v21.1c0,0.3-0.1,0.6-0.4,0.9s-0.6,0.4-0.9,0.4H5.9
					c-0.3,0-0.6-0.1-0.9-0.4c-0.3-0.3-0.4-0.6-0.4-0.9v-35c0-4.3,1.1-7.4,3.4-9.2c2.3-1.8,5.7-2.8,10.3-2.8c0.9,0,2,0,3.2,0
					c1.2,0,2.3,0,3.5,0.1c1.2,0,2.3,0.1,3.3,0.1c1,0.1,1.9,0.1,2.6,0.2c0.2,0,0.4,0.2,0.5,0.3c0.1,0.2,0.2,0.4,0.2,0.6v3.2
					c0,0.5-0.2,0.8-0.7,0.8H18.4c-1.7,0-3.1,0.1-4.1,0.4c-1,0.2-1.8,0.6-2.4,1.2c-0.6,0.5-0.9,1.2-1.1,2.1c-0.2,0.9-0.3,1.9-0.3,3.1
					v8.9h19.7c0.3,0,0.6,0.1,0.9,0.4c0.3,0.3,0.4,0.6,0.4,0.9V182z"/>
				<path d="M56.9,204.4c0,0.3-0.1,0.6-0.3,0.9c-0.2,0.3-0.5,0.4-0.8,0.4h-3.5c-0.3,0-0.6-0.1-0.8-0.4c-0.2-0.3-0.3-0.6-0.3-0.9
					v-45.3c0-0.3,0.1-0.6,0.3-0.9c0.2-0.2,0.5-0.4,0.8-0.4h3.5c0.3,0,0.6,0.1,0.8,0.4c0.2,0.2,0.3,0.5,0.3,0.9V204.4z"/>
				<path d="M105,193.2c0,1.5-0.2,3.1-0.7,4.6c-0.5,1.5-1.3,2.9-2.5,4.1c-1.2,1.2-2.8,2.2-4.9,3c-2.1,0.8-4.7,1.1-7.8,1.1
					c-2.3,0-4.3-0.1-6-0.3c-1.7-0.2-3.3-0.4-4.7-0.6c-0.6-0.1-0.9-0.2-1-0.4c-0.1-0.2-0.2-0.4-0.2-0.8v-2.6c0-0.3,0.1-0.6,0.3-0.8
					c0.2-0.2,0.5-0.3,0.8-0.3h0.2c0.7,0.1,1.6,0.2,2.5,0.2c0.9,0,1.9,0.1,2.8,0.1c1,0,1.9,0,2.8,0.1c0.9,0,1.7,0,2.5,0
					c1.9,0,3.5-0.2,4.8-0.5c1.3-0.4,2.3-0.9,3-1.5c0.7-0.7,1.2-1.5,1.5-2.4c0.3-0.9,0.5-2,0.5-3.1c0-0.8-0.1-1.6-0.4-2.2
					c-0.3-0.7-0.7-1.3-1.3-2c-0.6-0.6-1.4-1.3-2.4-2c-1-0.7-2.2-1.5-3.7-2.4l-6.2-3.8c-3-1.8-5.2-3.6-6.7-5.4
					c-1.5-1.8-2.2-4-2.2-6.6c0-3.9,1.3-6.8,4-8.6c2.7-1.8,6.5-2.8,11.4-2.8c0.9,0,1.9,0,3,0.1c1.1,0,2.1,0.1,3.1,0.2
					c1,0.1,2,0.2,2.9,0.3c0.9,0.1,1.7,0.2,2.3,0.3c0.7,0.1,1.1,0.5,1.1,1.1v2.8c0,0.7-0.4,1-1.1,1h-0.1c-1.4-0.1-3.1-0.2-5.2-0.3
					c-2-0.1-4-0.1-5.9-0.1c-3.3,0-5.8,0.4-7.2,1.3c-1.5,0.9-2.2,2.5-2.2,4.8c0,1.5,0.6,2.8,1.7,3.9c1.1,1.1,2.9,2.4,5.3,3.9l5.9,3.5
					c1.8,1.1,3.4,2.2,4.7,3.2c1.3,1,2.3,2.1,3.1,3.1s1.4,2.1,1.7,3.2C104.8,190.8,105,192,105,193.2z"/>
				<path d="M157.2,204.4c0,0.3-0.1,0.6-0.4,0.9c-0.3,0.3-0.6,0.4-0.9,0.4h-3.3c-0.3,0-0.6-0.1-0.9-0.4s-0.4-0.6-0.4-0.9v-21.3h-22
					v21.3c0,0.3-0.1,0.6-0.4,0.9s-0.6,0.4-0.9,0.4h-3.3c-0.3,0-0.6-0.1-0.9-0.4c-0.3-0.3-0.4-0.6-0.4-0.9v-45.2
					c0-0.3,0.1-0.6,0.4-0.9c0.3-0.3,0.6-0.4,0.9-0.4h3.3c0.3,0,0.6,0.1,0.9,0.4c0.3,0.3,0.4,0.6,0.4,0.9v18.7h22v-18.7
					c0-0.3,0.1-0.6,0.4-0.9c0.3-0.3,0.6-0.4,0.9-0.4h3.3c0.3,0,0.6,0.1,0.9,0.4c0.3,0.3,0.4,0.6,0.4,0.9V204.4z"/>
				<path d="M231.5,204c0,0.4-0.1,0.7-0.4,0.9c-0.3,0.2-0.6,0.3-0.9,0.4c-0.7,0.1-1.4,0.2-2.1,0.4c-0.7,0.1-1.4,0.2-2.3,0.3
					c-0.8,0.1-1.7,0.1-2.8,0.2c-1,0-2.2,0.1-3.6,0.1c-2,0-4-0.3-6-0.9c-2-0.6-3.8-1.7-5.5-3.2c-1.6-1.5-3-3.6-4-6.1
					s-1.5-5.8-1.5-9.7v-8.9c0-3.9,0.5-7.2,1.5-9.7c1-2.6,2.4-4.6,4-6.1c1.6-1.5,3.5-2.6,5.5-3.2c2-0.6,4-0.9,6-0.9
					c2.1,0,4,0.1,5.9,0.4c1.9,0.2,3.5,0.5,4.9,0.7c0.7,0.1,1,0.4,1,0.8v3.3c0,0.2,0,0.4-0.1,0.5c-0.1,0.1-0.3,0.2-0.6,0.2h-0.2
					c-0.6,0-1.3-0.1-2.2-0.2s-1.7-0.1-2.7-0.2s-2-0.1-3-0.2c-1,0-2-0.1-3-0.1c-1.6,0-3.1,0.2-4.4,0.7c-1.4,0.5-2.5,1.3-3.5,2.4
					c-1,1.1-1.8,2.6-2.4,4.5c-0.6,1.9-0.9,4.2-0.9,6.9v8.9c0,2.7,0.3,5,0.9,6.9c0.6,1.9,1.4,3.4,2.4,4.5c1,1.1,2.2,2,3.5,2.5
					c1.4,0.5,2.8,0.8,4.4,0.8c0.9,0,1.9,0,2.9-0.1c1,0,2-0.1,3-0.1c1,0,1.9-0.1,2.7-0.2c0.8-0.1,1.5-0.1,2.1-0.2h0.3
					c0.7,0,1,0.3,1,1V204z"/>
				<path d="M282.8,185.9c0,3.6-0.4,6.6-1.3,9.2c-0.9,2.6-2.1,4.6-3.6,6.3c-1.5,1.6-3.4,2.8-5.5,3.6c-2.1,0.8-4.5,1.2-7,1.2
					c-2.5,0-4.9-0.4-7-1.2c-2.1-0.8-4-2-5.5-3.6c-1.5-1.6-2.8-3.7-3.6-6.3c-0.9-2.6-1.3-5.6-1.3-9.2v-8.3c0-3.6,0.4-6.6,1.3-9.2
					c0.9-2.6,2.1-4.6,3.6-6.3c1.5-1.6,3.4-2.8,5.5-3.6c2.1-0.8,4.5-1.2,7-1.2c2.5,0,4.9,0.4,7,1.2c2.1,0.8,4,2,5.5,3.6
					c1.5,1.6,2.7,3.7,3.6,6.3c0.9,2.6,1.3,5.6,1.3,9.2V185.9z M276.8,177.6c0-2.7-0.3-5-0.8-6.9c-0.5-1.9-1.3-3.4-2.3-4.6
					c-1-1.2-2.2-2.1-3.6-2.6c-1.4-0.5-3-0.8-4.7-0.8c-1.8,0-3.3,0.3-4.7,0.8c-1.4,0.5-2.6,1.4-3.6,2.6c-1,1.2-1.8,2.7-2.3,4.6
					c-0.5,1.9-0.8,4.2-0.8,6.9v8.3c0,2.7,0.3,5,0.8,6.9c0.5,1.9,1.3,3.4,2.3,4.6c1,1.2,2.2,2.1,3.6,2.6c1.4,0.5,3,0.8,4.8,0.8
					c1.8,0,3.3-0.3,4.7-0.8c1.4-0.5,2.6-1.4,3.6-2.6c1-1.2,1.7-2.7,2.3-4.6c0.5-1.9,0.8-4.2,0.8-6.9V177.6z"/>
				<path d="M340.8,204.4c0,0.3-0.1,0.6-0.4,0.9c-0.3,0.3-0.6,0.4-0.9,0.4h-3.1c-0.3,0-0.6-0.1-0.9-0.4c-0.3-0.3-0.4-0.6-0.4-0.9
					v-38.1c0-0.1,0-0.2-0.1-0.2c0,0-0.1,0-0.1,0.1l-9.2,19c-0.3,0.6-0.7,1.1-1.1,1.4c-0.4,0.3-1,0.5-1.8,0.5h-3
					c-0.8,0-1.4-0.1-1.8-0.5c-0.4-0.3-0.8-0.8-1.1-1.4l-9.2-19c0-0.1-0.1-0.1-0.1-0.1c0,0-0.1,0.1-0.1,0.2v38.1
					c0,0.3-0.1,0.6-0.4,0.9c-0.3,0.3-0.6,0.4-0.9,0.4h-3.1c-0.3,0-0.6-0.1-0.9-0.4c-0.3-0.3-0.4-0.6-0.4-0.9v-44.6
					c0-0.5,0.2-1,0.5-1.3c0.4-0.4,0.8-0.5,1.3-0.5h4.1c0.6,0,1,0.1,1.3,0.2c0.3,0.2,0.5,0.4,0.7,0.9l10.6,22.1
					c0.2,0.5,0.5,0.7,0.8,0.7c0.3,0,0.6-0.2,0.8-0.7l10.6-22.1c0.2-0.4,0.5-0.7,0.7-0.9c0.3-0.2,0.7-0.2,1.3-0.2h4.1
					c0.5,0,0.9,0.2,1.3,0.5c0.4,0.4,0.5,0.8,0.5,1.3V204.4z"/>
				<path d="M391.3,172.2c0,2.7-0.5,5-1.4,6.8c-0.9,1.8-2.2,3.3-3.8,4.4c-1.6,1.1-3.5,2-5.7,2.4c-2.2,0.5-4.6,0.7-7.2,0.7
					c-1,0-2.1,0-3.3-0.1c-1.2-0.1-2.2-0.1-3.1-0.2v18.1c0,0.3-0.1,0.6-0.3,0.9c-0.2,0.3-0.5,0.4-0.8,0.4h-3.5
					c-0.3,0-0.6-0.1-0.8-0.4c-0.2-0.3-0.3-0.6-0.3-0.9v-44.8c0-0.9,0.5-1.5,1.5-1.6c1.4-0.2,3-0.3,5-0.4c1.9-0.1,3.8-0.1,5.7-0.1
					c2.6,0,5,0.2,7.2,0.7c2.2,0.5,4.1,1.3,5.7,2.4c1.6,1.1,2.9,2.5,3.8,4.3c0.9,1.8,1.4,4,1.4,6.5V172.2z M385.5,171.3
					c0-3.2-1-5.6-3-6.9c-2-1.4-5-2.1-9.2-2.1c-1,0-2.1,0-3.4,0.1c-1.3,0-2.3,0.1-3.1,0.2v18.8c0.4,0,0.9,0,1.4,0.1
					c0.6,0,1.1,0.1,1.7,0.1c0.6,0,1.2,0,1.8,0.1c0.6,0,1.1,0,1.5,0c4.4,0,7.5-0.7,9.4-2.2c1.8-1.5,2.8-3.9,2.8-7.2V171.3z"/>
				<path d="M443.4,204.6c0,0.7-0.4,1-1.1,1h-3.8c-0.3,0-0.5-0.1-0.7-0.3c-0.2-0.2-0.3-0.4-0.4-0.7l-4.2-14.8h-16.7l-4.1,14.8
					c-0.1,0.3-0.2,0.5-0.5,0.7c-0.2,0.2-0.5,0.3-0.7,0.3h-3.8c-0.7,0-1.1-0.3-1.1-1c0-0.2,0-0.4,0.1-0.5l11.9-41.9
					c0.3-1,0.6-1.8,1.1-2.4c0.5-0.6,1-1.1,1.6-1.5c0.6-0.4,1.2-0.6,1.9-0.8c0.7-0.2,1.3-0.2,1.9-0.2c0.6,0,1.2,0.1,1.9,0.2
					c0.6,0.1,1.3,0.4,1.9,0.7c0.6,0.4,1.1,0.9,1.6,1.5c0.5,0.6,0.9,1.4,1.1,2.4l11.9,41.9C443.4,204.3,443.4,204.4,443.4,204.6z
					 M426.1,163.6c-0.2-0.8-0.6-1.2-1.2-1.2c-0.6,0-1.1,0.4-1.3,1.2l-5.9,21.2H432L426.1,163.6z"/>
				<path d="M494.2,203.8c0,0.5-0.2,1-0.5,1.3c-0.4,0.4-0.8,0.5-1.3,0.5h-3.9c-1,0-1.7-0.3-2.1-1l-19.9-37.8
					c-0.1-0.1-0.2-0.2-0.2-0.2s-0.1,0.1-0.1,0.2v37.6c0,0.3-0.1,0.6-0.3,0.9c-0.2,0.2-0.5,0.4-0.8,0.4h-3.3c-0.3,0-0.6,0-0.8-0.1
					c-0.2-0.1-0.3-0.3-0.3-0.6v-45.2c0-0.5,0.2-0.9,0.5-1.3c0.4-0.3,0.8-0.5,1.3-0.5h3.5c0.9,0,1.5,0.1,1.8,0.3
					c0.3,0.2,0.6,0.5,0.8,1l19.7,37.6l0.1,0.2c0,0,0.1-0.1,0.1-0.2v-37.6c0-0.3,0.1-0.6,0.3-0.9s0.5-0.4,0.8-0.4h3.4
					c0.3,0,0.6,0.1,0.8,0.4s0.3,0.5,0.3,0.9V203.8z"/>
				<path d="M544.9,158.8c0,0.2-0.1,0.5-0.2,0.7l-10,22.4c-0.6,1.3-1.2,2.3-1.7,2.9c-0.6,0.6-1.1,1.1-1.7,1.4v18.3
					c0,0.3-0.1,0.6-0.3,0.9c-0.2,0.3-0.5,0.4-0.8,0.4h-3.5c-0.3,0-0.6-0.1-0.8-0.4c-0.2-0.3-0.3-0.6-0.3-0.9v-18.3
					c-0.6-0.2-1.2-0.7-1.7-1.3c-0.6-0.7-1.1-1.6-1.7-2.9l-9.9-22.4c-0.1-0.3-0.2-0.5-0.2-0.7c0-0.6,0.4-0.9,1.1-0.9h3.9
					c0.2,0,0.4,0.1,0.7,0.3c0.2,0.2,0.4,0.4,0.5,0.6l8.9,20.8c0.3,0.7,0.6,1.2,0.8,1.4c0.2,0.2,0.4,0.3,0.6,0.3
					c0.2,0,0.4-0.1,0.6-0.3c0.2-0.2,0.5-0.7,0.8-1.4l8.9-20.8c0.1-0.2,0.2-0.4,0.4-0.6c0.2-0.2,0.4-0.3,0.7-0.3h3.9
					C544.5,157.9,544.9,158.2,544.9,158.8z"/>
			</g>
		</g>
	</g>
</g>
</svg>
