<?xml version="1.0" encoding="utf-8"?>
<!-- Generator: Adobe Illustrator 29.4.0, SVG Export Plug-In . SVG Version: 9.03 Build 0)  -->
<svg version="1.1" id="Layer_1" xmlns="http://www.w3.org/2000/svg" xmlns:xlink="http://www.w3.org/1999/xlink" x="0px" y="0px"
	 viewBox="0 0 279.4 268.4" style="enable-background:new 0 0 279.4 268.4;" xml:space="preserve">
<style type="text/css">
	.st0{fill:url(#SVGID_1_);}
</style>
<linearGradient id="SVGID_1_" gradientUnits="userSpaceOnUse" x1="139.2061" y1="-0.7196" x2="142.2699" y2="264.8123">
	<stop  offset="0" style="stop-color:#FFFFFF"/>
	<stop  offset="1" style="stop-color:#F0B100"/>
</linearGradient>
<path class="st0" d="M77.7,37.8c-2.1-2.1-6-3.2-8.8-4.1c-14.7-4.2-26.2-1.9-39.3,5.5c-3.4,1.9-9.2,7.9-12.7,5.6
	c-3.1-2-1-5.7,0.1-8.2C23.1,22.9,36.5,10.4,50.4,5c37-14.4,79.2,7.8,88.8,45.9c1.3,0.2,0.8,0,1.1-0.7c3.4-9.4,6.6-17.4,13.1-25.3
	c2.2-2.7,6.4-8.5,10-4.8s-1.8,7-3.7,9.5c-10,12.9-15.3,28.6-15.8,44.9l6.6-11c5.6-7.4,12.5-13.7,20.7-18.2c3.7-2,8.5-3.2,11.8-5.1
	c2.3-1.3,5.2-4.3,7.7-5.9c13.4-8.7,29.2-12.9,45-9.4c4.4,1,8.4,3.2,12.7,4.4C236.7,13.3,216.3,6,196.8,9c-3.5,0.5-11,4-12.7-0.2
	c-1.3-3.2,0.5-4.7,3.2-5.7c26.2-9.7,58.6,4.6,72.3,28c1.8,3.1,8.6,14.5,0.7,14.5c-1.8,0-8.1-5-10.4-6.3c-13.1-7.4-24.6-9.7-39.3-5.5
	c-2.8,0.8-6.8,2-8.8,4.1h7.6c22.5,0,50.1,25.9,53.6,47.8c0.6,3.5,0.3,6.9-4.2,6.3c-2.4-0.3-5.7-4.9-7.7-6.6
	c-12.5-10.6-28.1-16.4-44.6-16l15.9,4.3c29.2,11.5,46,44.4,37.4,75c-0.9,3.3-2.4,9.3-7,6.5c-2.6-1.6-3.1-8.1-4.1-11.1
	c-12.6-37.1-52.9-52.7-88.9-40v12.1c2.8-1.2,5.2-2.9,8.4-3.4c11-1.7,20.6,3.8,24,14.4c0.3,1,0.4,3.6,0.8,4.2
	c0.1,0.2,3.2,1.7,4.1,2.5c3.5,3,5.1,7.7,5.7,12.1c0.3,1.8-0.3,4.1,0.2,5.6c0.3,1.1,3.4,3.3,4.3,4.6c7.6,10.7,2.8,31.2-13.1,29.4
	c-1.1-0.1-2-1.2-3.1-1c-1.8,0.5-3.3,4.6-8.6,5.1c-16.9,1.7-20.1-27.3-6.6-34.4c-1.3-9-0.9-16.4,6.4-22.5c0.6-0.5,2-0.8,2.4-1.3
	c0.6-1-0.7-3.5-1.3-4.6c-5.5-10.5-21.8-7.8-23.7,3.8v100.2c16.9,4.4,33.4,12.2,43.8,26.7c2.4,3.4,6.4,7.7,1.4,10.7l-130.7-0.2
	c-3.6-2.8-1.8-5.4,0.2-8.5c9.6-15.2,28.3-24.6,45.3-28.5l0.1-100c-1.4-11.9-18.1-14.9-23.8-4.3c-0.6,1-1.9,3.6-1.3,4.6
	c0.4,0.6,1.7,0.8,2.4,1.3c7.4,6.2,7.6,13.4,6.4,22.5c13.6,7.1,10.3,36.2-6.6,34.4c-5-0.5-6.8-4.7-8.6-5.1c-1-0.3-2,0.8-3.1,1
	c-15.9,1.8-20.7-18.6-13.1-29.4c0.9-1.3,4-3.5,4.3-4.6c0.5-1.6-0.1-3.8,0.2-5.6c0.6-4.4,2.2-9.1,5.7-12.1c1-0.8,4-2.3,4.1-2.5
	c0.2-0.3,0.6-3.9,1-5c3.8-11.2,16.5-16.7,27.4-12.5c1.7,0.7,3,1.9,4.7,2.4v-12.1c-6.4-1.8-12.9-3.8-19.7-4.2
	c-3.3-0.2-7.4,0.5-10.5,0c-4.6-0.7-4.8-7.2,0.5-7.9c10.9-1.3,23.6,1.9,33.9,5.3c-15.2-16.5-36.6-24.1-58.7-18
	c-24.5,6.8-40.9,30.6-40,55.8c1.4,0.3,0.9-0.4,1.3-1c3.6-6.2,5.9-11.4,10.8-17.1c3.5-4,17.4-16.4,22.3-16.6c2.8-0.1,4.6,2.7,3.8,5.4
	c-0.4,1.4-10.1,7.1-12.2,8.8c-9.5,7.5-16.6,18.1-20.4,29.5c-1.2,3.5-2,14.4-7.9,11.3c-2.7-1.4-4.6-12.2-5.1-15.4
	c-4.3-34.5,20.8-66.2,55.1-70.3c-16.3-1-32.4,5.4-44.7,15.7c-2.7,2.3-7,9.2-11,5.8c-3-2.5,1.5-13.2,2.9-16.5
	c7.6-17.2,30.4-36.8,49.9-36.8L77.7,37.8L77.7,37.8z M135.5,74.6c-0.7-21.9-10.1-44.3-28.9-56.4C81.9,2.4,49.4,5.7,31,29.1
	c0.3,0.7,1.4,0,1.9-0.2c20.7-8,36.9-6.7,55.8,5.5c2.5,1.6,5.4,4.6,7.7,5.9c3.3,1.8,8,3,11.8,5.1c8.2,4.5,15.1,10.7,20.7,18.2
	L135.5,74.6z M250,74.6c0.7-0.7-5.4-8.7-6.3-9.7c-22.4-26-62.6-25.9-84.6,0.6c-5.9,7.1-9.5,15.7-12.1,24.4
	C171.7,59.9,217.8,51.9,250,74.6z M132.3,89.8c-4.7-18-15.7-32.3-32.9-39.8c-24.2-10.6-53-2-67.6,19.9c-0.8,1.2-2.5,3.5-2.2,4.7
	C61.6,51.7,107.9,60.1,132.3,89.8z M254.2,135c0.6-24-13.4-46.2-36.1-54.5c-23.1-8.4-46.1-0.9-62.6,16.4l11.5-3.2
	c32.3-7.1,66,5.5,82.9,34.2c1.1,1.9,1.9,4,3,5.9C253.3,134.6,252.8,135.2,254.2,135z M151.3,108.2c-3.2,0.8-9,7-11.8,6.8
	c-2.7-0.1-8.2-6.1-11.3-6.8v27c0,0.2-0.5,0.3-0.5,0.5c0.7,1.2,1.2,0.3,2.3,0.3c1.5,0,3.3-0.1,4.7,0.1c1.8,0.3,3.8,1.8,4.9,1.9
	c0.7,0.1,4-1.7,5.8-1.9c2-0.2,4,0,6-0.1L151.3,108.2L151.3,108.2z M89.1,138.7c-3.3,0.8-5.2,8.1-4.5,11.1c0.3,0.8,3.1,1.6,4.1,2.2
	c1,0.6,3.9,3.3,4.4,3.3C98,155,97.6,136.8,89.1,138.7z M192,139.9c-7.7-7.4-12.2,13.7-6.1,15.4c1.4,0.4,2.3-1.6,3.5-2.3
	c1.8-1.2,3.6-1.9,5.4-3C195.6,147.5,193.9,141.6,192,139.9z M151.2,144.5c-4.8-3.1-8.4,2.7-11.7,2.6c-2.7-0.1-3.3-2.6-5.4-3.1
	c-2.1-0.5-5.6-0.5-6,2.2c-0.5,4.1,0.4,9.2,0,13.4c1.8-0.7,4.5-0.8,6.5-0.5c1.8,0.2,4.3,2.1,5.3,2c0.8,0,3.5-1.8,5.3-2
	c1.9-0.3,4,0.1,6,0L151.2,144.5z M79.5,176.3c1.2,1.2,5.1,2.1,5.6,0.4c0.1-0.4-0.6-5.5-0.4-7.2c0.2-2,2.4-7.4,2.4-7.9
	c-0.1-1.1-2.7-3.3-3.8-3.4C76.4,157.1,74.7,171.7,79.5,176.3z M199.9,176.3c4.9-4.7,2.9-19.5-4.2-18.1c-1.1,0.2-3.3,2.4-3.4,3.3
	c0,0.5,2.2,5.9,2.4,7.9c0.2,1.8-0.5,6.8-0.4,7.2C194.9,178.4,198.7,177.4,199.9,176.3z M95.2,163.5c-4.7,4.6-3.1,19.2,3.7,18.2
	c5-0.7,5.5-9.5,4.9-13.3C103.2,164.4,99.2,159.7,95.2,163.5z M184.2,163.5c-6.9-6.6-12.4,10.4-6.3,16.6c4.6,4.7,8.4-1.6,9-6.1
	C187.2,170.8,186.6,165.8,184.2,163.5z M151.3,182.8c-0.4-4.2,0.5-9.3,0-13.4c-0.3-2.7-3.3-2.6-5.4-2.2c-2.3,0.5-3.5,3-5.9,3.1
	c-3.4,0.1-7.1-6-11.5-2.1l-0.3,14.7c4-2.5,9.3,1.5,11.8,1.5c1,0,3.8-1.8,5.8-2C147.6,182.1,149.6,182,151.3,182.8z M151.3,205.9
	c-0.4-4.2,0.5-9.3,0-13.4c-0.2-1.9-1.2-2.2-2.9-2.4c-4.5-0.4-5.2,3.1-8.4,3.2c-3,0.1-2.5-1-4.3-2.1c-2.3-1.3-5-1.9-7.3-0.1
	l-0.3,14.7c1.9-0.3,3.4-0.7,5.5-0.5c2.2,0.2,4.5,2,5.9,2C142,207.6,147.6,203.5,151.3,205.9z M151.3,229.5v-15
	c-4.3-4.5-9,2.5-11.8,2.4c-2.6-0.2-7-6.7-11.3-2.4v15H151.3z M195.9,260.5c-26.7-31.7-85.7-31.7-112.4,0H195.9z M173.4,10
	c2.2,0,4,1.8,4,4s-1.8,4-4,4s-4-1.8-4-4S171.2,10,173.4,10z M74.7,95.1c2.2,0,4,1.8,4,4s-1.8,4-4,4s-4-1.8-4-4S72.5,95.1,74.7,95.1z
	"/>
</svg>
