<?xml version="1.0" encoding="utf-8"?>
<!-- Generator: Adobe Illustrator 29.4.0, SVG Export Plug-In . SVG Version: 9.03 Build 0)  -->
<svg version="1.1" id="Layer_1" xmlns="http://www.w3.org/2000/svg" xmlns:xlink="http://www.w3.org/1999/xlink" x="0px" y="0px"
	 viewBox="0 0 279.4 268.4" style="enable-background:new 0 0 279.4 268.4;" xml:space="preserve">
<style type="text/css">
	.st0{fill:url(#SVGID_1_);}
</style>
<linearGradient id="SVGID_1_" gradientUnits="userSpaceOnUse" x1="137.5587" y1="-4.3824" x2="140.3756" y2="270.2655">
	<stop  offset="0" style="stop-color:#FFFFFF"/>
	<stop  offset="1" style="stop-color:#F0B100"/>
</linearGradient>
<path class="st0" d="M0.1,207.6c0.7-1.2,2.7-2.7,4.1-2.7h24.3l-5.7-5.4c-6.1-7.1-9.5-15.9-10.1-25.3c-0.9-13.8,0.7-28.5,0.1-42.4
	c-8.7-1.6-13.3-9.1-10.5-17.6c2.7-8.1,9.9-9.3,17.6-8.8c-2.4-23.7,9.6-57,35.9-61.5c0.1-2.8,2.7-14.4,4.9-15.5
	c2.1-1,5.9,0.8,6.5,2.8c0.6,2.3-3.8,12.5-3.2,13.2c15.3,3.2,24.1,17.7,29.7,31c5.1-13.5,14.5-28.2,29.7-31
	c-2.8-16.2-16.5-42.2-36.7-34.7c-4.2,1.6-9.5,8.2-12.9,3.5C70.3,8.4,79,3.9,82.6,2.4c21.9-9.1,39.5,10.5,45.6,29.5l6.1-12.1
	c24.6-40.3,62.5-12.1,67,24.1c26.4,4.5,38.2,37.8,35.9,61.5c6.5-0.3,13.2,0.1,16.7,6.5c4.5,8.4,0,18.5-9.6,19.9V148
	c18.2,4.3,28.3,21.7,32.8,38.6l2.1,11.2v12c-1.1,3.3-1.6,11.9-3.8,14.4c-2.2,2.5-7.3,0.7-7.1-3.3c0.1-3.3,2.4-8.9,2.7-13.1
	c1-14.3-4.7-34.5-15.2-44.6c-23.6-22.8-46.1,13.6-46.3,35.3c7.7,6.1,13.8,14.7,15.1,24.7c0.4,2.7-0.5,12.3,0.6,13.6
	c1.8,2,12.2,4.1,15,4.1c5.3,0,8.9-2.4,13.2-3.2c5.4-1,8.4,4.9,2,8c-10.2,4.9-23.1,3.7-33.1-1c-7.2,13.8-19.7,21.5-35,23.3
	c-21.3,2.5-56-8.3-62.3-31.2c-2.5-9.1-0.2-15.6,3.8-23.6H2.6c-0.6,0-2-1.6-2.5-2.2C0.1,211,0.1,207.6,0.1,207.6z M193.1,44.3
	c-2.2-19.3-21.8-48.2-43-30.7c-8.9,7.4-14,19.4-16.4,30.5c15,3.5,24.9,17.4,29.5,31.3c0.5,0.4,4.3-8.7,4.8-9.6
	C173.2,56.1,181.9,46.6,193.1,44.3z M89,105.3c1-5.8,0.3-12.2-0.8-18C85.4,72.8,74.6,51,57.1,51.9C36.8,53,24.7,88.1,28,105.2
	L89,105.3L89,105.3z M229.1,105.3c1.1-5.8,0.3-12.2-0.8-18c-2.8-14.6-13.6-36.3-31.1-35.4c-20.3,1.1-32.4,36.2-29.1,53.3
	L229.1,105.3L229.1,105.3z M159.3,105.3c0.7-12.8-1.7-26-8.3-37.2c-12.5-21.2-33-20.8-45.2,0.3c-6.4,11.1-8.8,24.1-8.1,36.8
	L159.3,105.3L159.3,105.3z M13.6,113.6c-5.1,0.9-6.1,7.1-1.5,9.4h232.8c4.1-1.9,3.7-7.9-0.7-9.2L13.6,113.6z M236.2,131.4H20.9v43.8
	c0,15.5,15.4,28.6,30.2,29.7c27.6,2,57.7-1.6,85.6,0c18.5-14,43-18.7,65.2-10.9c2.7-18.9,13.8-42,34.3-45.7V131.4z M175.6,198.5
	c-17,1.2-49.2,14.3-42.6,36.2c9.4,31.1,88.5,39.4,83.6-10C214.6,204.7,193,197.2,175.6,198.5z M191.6,210.4c3.8-3.8,11.6,3.6,13.7,7
	c2.3,3.7,6.7,16.1-1,15.8c-4.8-0.2-3.5-5.1-4.3-8.2c-1.6-5.9-8.5-7.4-9.4-10.3C190.2,213.4,190.7,211.3,191.6,210.4z M135.1,63.6
	c4-0.2,10.2,10.9,11.6,14.3c1,2.4,2.3,5.6-1,7c-5.8,2.4-7-5.5-9.6-9.5c-1.3-2-5.3-5.9-5.1-7.9C131.1,65.7,133.3,63.7,135.1,63.6z
	 M169,20c4.5-1,8.1,5.4,10.1,8.8c1.8,3.2,6.4,10.4,1.4,12.5c-5.3,2.1-6.1-4.5-8.1-7.9c-1.3-2.2-6.2-7.5-6.2-9.4
	C166.1,22.4,167.3,20.4,169,20z"/>
</svg>
