<?xml version="1.0" encoding="utf-8"?>
<!-- Generator: Adobe Illustrator 29.4.0, SVG Export Plug-In . SVG Version: 9.03 Build 0)  -->
<svg version="1.1" id="Layer_1" xmlns="http://www.w3.org/2000/svg" xmlns:xlink="http://www.w3.org/1999/xlink" x="0px" y="0px"
	 viewBox="0 0 279.4 268.4" style="enable-background:new 0 0 279.4 268.4;" xml:space="preserve">
<style type="text/css">
	.st0{fill:#FFFFFF;}
</style>
<g>
	<path class="st0" d="M243.3,268.1H237c-5.3-1.2-10.7-2.8-16.1-3.5c-15.2-2.1-36.1,2.4-52.1,3c-3.7,0.1-7.8-0.6-11.3,0.5h-35.6
		c-3.5-1.1-7.6-0.4-11.3-0.5c-16-0.6-37-5.1-52.1-3c-5.4,0.7-10.8,2.4-16.1,3.5c-2.3-0.2-5.1,0.3-7.3,0c-13.7-1.7-24.4-16-23.6-29.6
		c0.7-11.5,8.1-17.3,14.8-25.4c0.4-38.1,11.2-74.9,29.5-108c-4.9-11-25.7-27.4-11.7-38.9c5.3-4.3,9.7-2.5,15.7-3.6
		c17.4-15.8,33.1-35.4,50.7-50.8c17.2-15.1,40.1-15.6,57.6-0.5l51.2,51.3c2,1.1,6.8,0.2,9.4,0.6c7.7,0.9,12.1,7.9,11.3,15.4
		c-0.6,5.8-11.9,19.1-15.1,25.2c-0.4,0.7-1.1,1.6-1,2.4c17.9,32.7,28.7,69.5,28.9,107.1c7,7.8,14.2,14,15,25.3
		C268.8,252.9,257.6,266.5,243.3,268.1z M204.5,63.1l-0.8-1.6c-25-19.4-51.2-72.7-87.4-40.8c-14.1,12.4-26.8,28.1-40.8,40.8
		l-0.8,1.6H204.5z M221.8,125.8v39c0,1.6-3.9,3.5-5.5,3.4c-2.1-0.1-5-3-5-5v-51h-11.5v19.1c0,2-3.5,4-5.5,4c-1.8-0.1-5-2.2-5-4
		v-19.1h-30.1c-0.2,0-2.6-1.6-2.9-2c-2.4-3.2-0.5-7.9,3.4-8.5l54.1-0.3l15.3-23.4c0.7-1.7,0.9-3.7-1.1-4.3L50.8,74.3
		c-0.8,1-1.4,2.1-0.6,3.3l16.3,24l53.1,0.3c5.5,1.2,6,7.4,1.2,10l-56.8,0.5c-13.1,24.3-22.5,51-25.6,78.7c-1,9-0.9,18-1.9,26.9
		c-8.3,9.3-21.2,19.4-11,32.9c8.9,11.7,20.6,4.9,32,3.3c10.8-1.5,20.1,0.6,30.7,1.4c29.8,2.2,59.6,2.9,89.4,1
		c13.9-0.9,30.4-4.3,43.9-2.5c10.3,1.4,19.7,7,29.3-0.2c7.5-5.6,8.8-16.5,3.2-23.9c-2.2-2.9-10-9.5-10.9-12.1
		c-1.6-4-0.5-10.5-0.8-14.9c-1.7-24.9-7.8-49.5-17.7-72.2L221.8,125.8z"/>
	<path class="st0" d="M146.5,146.8c3.5-2.1,5.7-0.4,8.4,1.8c5.9,4.9,11.8,12.6,13.6,20.1c5.5-2.5,11.4,4.3,14.6,8.1
		c12.9,15.2,10.5,30.2-1,45.4c2.9,4.4,13.7,10.3,10.8,16.2c-4.6,9.4-14.5-5.5-18.5-8.5c-14.7,11.3-29.9,14-44.9,1.5
		c-4-3.3-11.2-9.5-8.6-15.1c-7.7-1.6-16.2-8.2-20.9-14.4c-1.8-2.4-3-4.8-1.1-7.6c-7.7-2-15.8-7.9-20.7-14.1
		c-5.2-6.6-0.8-9.7,4.5-13.8c8.1-6.3,14.9-9,25.3-8.7c0.7,0,2.2,0.9,2.3-0.2c0-0.1-0.5-0.9-0.5-1.6c-0.3-10.5,2.5-17.5,8.9-25.6
		c2.2-2.8,5.1-6.9,9.1-6.6c2.7,0.2,9.1,6.6,11,8.9C142.3,136.6,145.2,141.7,146.5,146.8z M130.3,170.3c6-9.2,9.6-16.4,3.6-26.8
		c-0.7-1.2-5.2-7.5-6.4-7.2C117.3,147.5,118.2,161.2,130.3,170.3z M149.9,158.3c-10.3,11.1-9.8,24.4,2.1,34
		C162.3,181.6,160.9,167.7,149.9,158.3z M122.4,178.1c-9.3-12.1-22.7-13-34-2.9c-0.3,1.2,5.9,5.7,7.2,6.4
		C106,187.8,113.2,184.2,122.4,178.1z M174.7,214.8c5.8-9.3,9.7-16.3,3.6-26.8c-0.7-1.2-5.1-7.4-6.4-7.1
		C161.6,191.8,162.7,205.7,174.7,214.8z M125.5,190.3c-5.6,0.5-10.8,4-15,7.4c9.3,11.1,23.4,12.4,34,2.1
		C139.7,194.6,132.9,189.6,125.5,190.3z M145.8,212.8c-4.2,0.7-9.6,4.4-12.9,7c8.5,11.6,23.2,12.4,33.4,2.5
		C161.7,215.8,153.9,211.5,145.8,212.8z"/>
	<circle class="st0" cx="139.9" cy="107" r="5.2"/>
	<circle class="st0" cx="108.8" cy="46.2" r="5.2"/>
	<circle class="st0" cx="120.4" cy="31.7" r="3.7"/>
</g>
</svg>
