<?xml version="1.0" encoding="utf-8"?>
<!-- Generator: Adobe Illustrator 29.4.0, SVG Export Plug-In . SVG Version: 9.03 Build 0)  -->
<svg version="1.1" id="Layer_1" xmlns="http://www.w3.org/2000/svg" xmlns:xlink="http://www.w3.org/1999/xlink" x="0px" y="0px"
	 viewBox="0 0 279.4 268.4" style="enable-background:new 0 0 279.4 268.4;" xml:space="preserve">
<style type="text/css">
	.st0{fill:url(#SVGID_1_);}
</style>
<linearGradient id="SVGID_1_" gradientUnits="userSpaceOnUse" x1="139.7" y1="-0.3131" x2="139.7" y2="260.1625">
	<stop  offset="0" style="stop-color:#FFFFFF"/>
	<stop  offset="1" style="stop-color:#F0B100"/>
</linearGradient>
<path class="st0" d="M212.3,60c2.2,0,3.9,1.7,3.9,3.9c0,2.2-1.7,3.9-3.9,3.9s-3.9-1.7-3.9-3.9C208.4,61.7,210.2,60,212.3,60z
	 M192.5,106.9c-7.5-13.3-11.8-28.2-11-43.7c0.1-1.5,1.5-9.1,1-9.7c-5-0.7-9.9-2-14.9-2.6c-8.1-0.8-17-0.8-25-0.1
	c-6.3,0.6-15.4,3.7-20.9,3.7c-5.1,0-6.4-5.8-1.3-7.6c3.1-1.1,9.5-2.2,13-2.7c17-2.6,34.7-2.5,51.4,1.9l4.7-13.1
	c-32.2-9.8-66.8-4.4-94.3,14.7C87,53.4,78.8,60.4,72.4,68L87,59.8c4.8-1.3,11.3-6.4,16-7c3.8-0.5,5.6,4.2,3.1,6.8
	c-11.6,5-22.9,10.8-33.4,17.9c-10,6.7-18.8,13.7-25.4,23.7l-31.1,20.4l25.3-1.6c14.8-0.3,22.5,15.9,32.7,24.1l-6.7-32.2
	C66,103.1,77.1,97.7,84.4,97c10.9-0.9,15.7,3.7,24.7,7.8c10.9,4.9,24.1,8.3,36,9c6.9,0.4,13.8-0.6,20.7-0.3c3.6,2.4,2.5,6.9-1.9,7.6
	c-12.2,1.8-25.5,0.1-37.6-2c-9.5,7-24.7,11.5-36,6.1c-10.5-5,1.5-13.3,4.8-18.4c-2.9-1.9-7.8-2.2-11.2-1.8c-2.2,0.3-8.7,3.1-8.7,5.4
	l7.9,38.2c-0.7,5.2-6.3,8.1-10.7,5c-7.4-5.2-18.1-21.9-25.5-24.7c-2-0.8-3.7-1-5.9-1c-8.8,0.2-19,2.3-27.6,2.1
	c-6.9-0.2-10.2-7.6-5.3-12.5l35.3-23.3C60.7,64,87,37.3,120.8,26.4c-2.1-7.3-12.4-12.8-7.2-21.1c2.6-4.2,8.2-4.7,12.7-5
	c16.5-1.1,34.7,4.5,47.8,14.4c2.6,2,7.6,7.8,9.5,8.8c3.8,2,13.2,3.8,18.3,5.8c12.2,5,36.6,19.7,43.3,30.9c5.3,8.9,1,16.6-5.6,22.9
	c12.7,9.4-0.7,15.1-9.2,19c-10.9,5-35.2,13.7-46.6,15.1c-1.9,0.2-4.2,0.1-5.1-2C175.8,108.6,188.8,108.5,192.5,106.9z M169.5,20.6
	C157.3,12.5,143.3,7.4,128.4,8c-1.5,0.1-8.5,0.6-8.6,1.9l9.2,13.8c11.3-2.1,22.3-3.5,33.9-3.1c1.4,0.1,2.7,0.5,4.1,0.6
	C167.7,21.2,169.6,21.5,169.5,20.6z M235.9,90.7c-2.4-2.1-4.8-3.9-4.7-7.6c0.2-6.2,10.1-9,8.3-17.2c-0.9-3.9-14.6-14.6-18.3-17.2
	c-7.4-5.2-15.4-9.7-23.9-12.7c-10.1,18.7-10.4,42.1-1,61.2c0.6,1.2,3.1,6,3.9,6.6c0.8,0.7,1,0.6,1.9,0.4c3.5-0.5,13-4.3,16.8-5.8
	C224.6,96.1,230.2,93.2,235.9,90.7z M116.1,115.8l-13.8-5.2l-6.1,7.5c4.8,2.4,10.2,1.1,15.2,0L116.1,115.8z M168.3,72.8
	c-1.8,1.5-7.1-0.2-10,0.2c-10.5,1.5-9.6,20.1,4.1,18.2c2.9-0.4,9.5-6,10.5,0.5c0.8,4.9-8.5,7.6-12.2,7.7c-26.6,0.3-20.2-41.4,4.4-34
	C168.6,66.5,171.7,70,168.3,72.8z M273.6,164.5v3.1c-1,2.7-2.4,3.5-4.5,5.1c-8.9,6.6-25.4,14.2-32.6,21.3
	c-3.4,3.4-11.3,20-14.9,20.7c-3.1,0.6-5.3-1.8-4.9-4.8l13.8-21.2l32.1-21.5c-4.8,0.1-9.6,0.3-14.4,0.5c-10.2,0.5-16.2,2.8-24.9-4.4
	c-6.4-5.3-11.6-13.1-18-18.6l6.5,34.8c-0.6,7-10.4,11.6-16.5,12.2c-6.1,0.6-10-1.2-15.7-2c-28.4-3.7-58.3-2.3-84.9,8.6l-0.4,0.5
	c6.1,18.8,3.9,38.8-4.3,56.5c38.8,12.3,77.3,1.7,107.3-24.5c2.7-2.4,7.1-8.1,10.1-9.3c1.5-0.6,4.1,0.2,4.8,1.7
	c2.4,5.3-8.1,10.6-10.7,14.4c2.5,5.2,11.5,6.5,10.7,13.3c-0.4,3.7-3.3,5.3-6.2,6.9c-7.9,4.3-16.2,5.1-24.9,2.8
	c-2-0.5-8.1-3.5-9.1-3.4s-8,3.5-10,4.2c-7.4,2.6-15.3,4.6-23.1,5.7c-3,0.4-6.3,0.3-9.1,1.1c-5-0.2-10.2,0.3-15.2,0
	c-23.1-1.4-51.3-13.1-71.5-24.5c-6.8-3.8-16.9-8.9-8-17.1c-10.5-5.7-14.1-19-6-28.5c5-5.8,24.8-13.8,32.6-16.6
	c5-1.8,26.6-7.5,28.7-9.5c1.6-1.5,3.4-4.5,5-6c8.7-8.5,19.5-15,31.3-18.4c8.7-2.5,35.4-7.8,31.8,8.8c-0.5,2.1-7.6,12.5-6.6,13.6
	c5.3,0.8,10.8,2.4,15.8,4.3c9.9,3.8,19.1,12.6,30.2,9c1.4-0.5,6.1-2.8,6.3-4.2l-7.9-38.2c0.5-5.5,5.5-8.3,10.4-5.7
	c9,7.8,16.1,18.2,25.8,24.9c2.7,1.4,5,0.5,7.4,0.4c8.9-0.2,17.8-0.9,26.7-1.6C270.2,159.1,272.2,161.2,273.6,164.5z M103.1,169.7
	c13.2-2.8,26.9-3.5,40.3-1.8c1.5-2.2,2.1-4.8,3.4-7.1c2.8-5.3,8-9.1-2.1-8.3C130.6,153.5,113.9,161.1,103.1,169.7z M160.1,179.6
	c-18.9-6.2-37.8-5.7-57.1-1.9c-2,0.4-15.9,3.5-16.1,4.3l4.3,8.6c0.7,0.5,14.3-4.4,16.6-5c18-4.8,32.3-4.7,50.6-5.4
	C158.9,180.1,160.2,180.6,160.1,179.6z M77.3,184.4c-4.4,0.6-15.1,5.1-19.7,7c-5.1,2.1-19.9,8.3-22.9,12.1c-3,3.7-2.8,9.1,0.2,12.7
	c3.5,4.4,13.9,5.3,10.1,13.2c-0.7,1.4-4.3,2.9-3.8,3.5c12.7,8.3,26.9,13.8,40.8,19.8c9.3-16.4,10.3-36.2,4.3-53.9
	c-0.8-2.4-5.6-13.9-7.6-14.4C78.2,184.3,77.8,184.4,77.3,184.4z M203.5,249.7l-8.6-6.8l-13.9,9.4c6.7,2.3,13.8,2.1,20.2-1
	C201.8,251.1,203.4,250.4,203.5,249.7z M114.5,213.8c25.2-2.8,26,37.9-1.1,34.3c-3.8-0.5-12-4.4-8.2-9.1c2.7-3.3,6.4,0.7,9.3,1.2
	c14.2,2.4,15.2-18,2.5-18.7c-2.7-0.1-7.6,2.9-9.3-0.6C105.4,216.1,110.7,214.2,114.5,213.8z M67.1,205c2.2,0,3.9,1.7,3.9,3.9
	s-1.7,3.9-3.9,3.9s-3.9-1.7-3.9-3.9S65,205,67.1,205z"/>
</svg>
